G04*
G04 #@! TF.GenerationSoftware,Altium Limited,Altium Designer,22.10.1 (41)*
G04*
G04 Layer_Color=2752767*
%FSLAX44Y44*%
%MOMM*%
G71*
G04*
G04 #@! TF.SameCoordinates,B178BA49-C0A8-449A-8AC4-8C5071AB2F05*
G04*
G04*
G04 #@! TF.FilePolarity,Positive*
G04*
G01*
G75*
%ADD34C,0.0508*%
D34*
X-151645Y-9698D02*
Y-5634D01*
X-147582D01*
Y-9698D01*
X-151645D01*
X-554652Y-68299D02*
Y-64235D01*
X-550588D01*
Y-68299D01*
X-554652D01*
X545348D02*
Y-64235D01*
X549412D01*
Y-68299D01*
X545348D01*
X142353Y-9698D02*
Y-5634D01*
X146417D01*
Y-9698D01*
X142353D01*
X-309880Y-2032D02*
X-311912Y2032D01*
X-307848D01*
X-309880Y-2032D01*
X-255778Y23713D02*
X-257810Y27777D01*
X-253746D01*
X-255778Y23713D01*
X-530860Y-54610D02*
X-532892Y-50546D01*
X-528828D01*
X-530860Y-54610D01*
X92710Y37338D02*
X90678Y41402D01*
X94742D01*
X92710Y37338D01*
X52070Y11176D02*
X50038Y15240D01*
X54102D01*
X52070Y11176D01*
X192024Y34544D02*
X189992Y38608D01*
X194056D01*
X192024Y34544D01*
X-241129Y37338D02*
X-243160Y41402D01*
X-239097D01*
X-241129Y37338D01*
X-93821Y42577D02*
X-95853Y46641D01*
X-91789D01*
X-93821Y42577D01*
X-100674Y32187D02*
X-102706Y36251D01*
X-98642D01*
X-100674Y32187D01*
X-19939Y36068D02*
X-21971Y40132D01*
X-17907D01*
X-19939Y36068D01*
X134620Y32258D02*
X132588Y36322D01*
X136652D01*
X134620Y32258D01*
X149411Y27820D02*
X147379Y31884D01*
X151443D01*
X149411Y27820D01*
X55880Y48768D02*
X53848Y52832D01*
X57912D01*
X55880Y48768D01*
X-156045Y28702D02*
X-158077Y32766D01*
X-154013D01*
X-156045Y28702D01*
X-146327Y41299D02*
X-148359Y45363D01*
X-144295D01*
X-146327Y41299D01*
X-197734Y35682D02*
X-199766Y39746D01*
X-195702D01*
X-197734Y35682D01*
X-204803Y22860D02*
X-206835Y26924D01*
X-202771D01*
X-204803Y22860D01*
X237759Y30988D02*
X235727Y35052D01*
X239791D01*
X237759Y30988D01*
X440690Y-17018D02*
X438658Y-12954D01*
X442722D01*
X440690Y-17018D01*
X435610Y-508D02*
X433578Y3556D01*
X437642D01*
X435610Y-508D01*
X-488191Y-12181D02*
X-490223Y-8117D01*
X-486159D01*
X-488191Y-12181D01*
X-523240Y-42418D02*
X-525272Y-38354D01*
X-521208D01*
X-523240Y-42418D01*
X-442143Y2037D02*
X-444175Y6101D01*
X-440111D01*
X-442143Y2037D01*
X-423179Y-17272D02*
X-425211Y-13208D01*
X-421147D01*
X-423179Y-17272D01*
X-439602Y-19820D02*
X-441633Y-15756D01*
X-437570D01*
X-439602Y-19820D01*
X-447658Y-15494D02*
X-449689Y-11430D01*
X-445625D01*
X-447658Y-15494D01*
X-377190Y19558D02*
X-379222Y23622D01*
X-375158D01*
X-377190Y19558D01*
X-420370Y10668D02*
X-422402Y14732D01*
X-418338D01*
X-420370Y10668D01*
X-488950Y-38862D02*
X-490982Y-34798D01*
X-486918D01*
X-488950Y-38862D01*
X-45720Y-4572D02*
X-47752Y-508D01*
X-43688D01*
X-45720Y-4572D01*
X-37303Y-1000D02*
X-39335Y3065D01*
X-35271D01*
X-37303Y-1000D01*
X-27940Y-5366D02*
X-29972Y-1302D01*
X-25908D01*
X-27940Y-5366D01*
X-13970Y23368D02*
X-16002Y27432D01*
X-11938D01*
X-13970Y23368D01*
X501Y35299D02*
X-1532Y39362D01*
X2533D01*
X501Y35299D01*
X0Y47491D02*
X-2032Y51554D01*
X2032D01*
X0Y47491D01*
X7245Y29124D02*
X5213Y33188D01*
X9277D01*
X7245Y29124D01*
X20320Y32952D02*
X18288Y37016D01*
X22352D01*
X20320Y32952D01*
X351790Y-508D02*
X349758Y3556D01*
X353822D01*
X351790Y-508D01*
X282702Y11430D02*
X280670Y15494D01*
X284734D01*
X282702Y11430D01*
X304665Y22860D02*
X302633Y26924D01*
X306697D01*
X304665Y22860D01*
X399915Y10360D02*
X397883Y14424D01*
X401947D01*
X399915Y10360D01*
X532130Y-47752D02*
X530098Y-43688D01*
X534162D01*
X532130Y-47752D01*
X509983Y-17291D02*
X507951Y-13227D01*
X512015D01*
X509983Y-17291D01*
M02*
