G04*
G04 #@! TF.GenerationSoftware,Altium Limited,Altium Designer,22.10.1 (41)*
G04*
G04 Layer_Color=16711935*
%FSLAX44Y44*%
%MOMM*%
G71*
G04*
G04 #@! TF.SameCoordinates,B178BA49-C0A8-449A-8AC4-8C5071AB2F05*
G04*
G04*
G04 #@! TF.FilePolarity,Positive*
G04*
G01*
G75*
%ADD10C,0.1270*%
D10*
X582380Y-81174D02*
Y-51174D01*
X582188Y-83125D02*
X582380Y-81174D01*
X581618Y-85000D02*
X582188Y-83125D01*
X580695Y-86729D02*
X581618Y-85000D01*
X579451Y-88245D02*
X580695Y-86729D01*
X577935Y-89489D02*
X579451Y-88245D01*
X576207Y-90413D02*
X577935Y-89489D01*
X574331Y-90982D02*
X576207Y-90413D01*
X572380Y-91174D02*
X574331Y-90982D01*
X522380Y-91174D02*
X572380D01*
X520429Y-90982D02*
X522380Y-91174D01*
X518553Y-90413D02*
X520429Y-90982D01*
X516824Y-89489D02*
X518553Y-90413D01*
X515308Y-88245D02*
X516824Y-89489D01*
X514065Y-86729D02*
X515308Y-88245D01*
X513141Y-85000D02*
X514065Y-86729D01*
X512572Y-83125D02*
X513141Y-85000D01*
X512380Y-81174D02*
X512572Y-83125D01*
X512380Y-81174D02*
Y-68659D01*
X512211Y-66831D02*
X512380Y-68659D01*
X511711Y-65064D02*
X512211Y-66831D01*
X510897Y-63419D02*
X511711Y-65064D01*
X509796Y-61950D02*
X510897Y-63419D01*
X508445Y-60708D02*
X509796Y-61950D01*
X506889Y-59733D02*
X508445Y-60708D01*
X505182Y-59059D02*
X506889Y-59733D01*
X468190Y-48616D02*
X505182Y-59059D01*
X431037Y-38836D02*
X468190Y-48616D01*
X390029Y-28854D02*
X431037Y-38836D01*
X348802Y-19666D02*
X390029Y-28854D01*
X307380Y-11278D02*
X348802Y-19666D01*
X182923Y2102D02*
X307380Y-11278D01*
X169817Y-3940D02*
X182923Y2102D01*
X169336Y-8818D02*
X169817Y-3940D01*
X167914Y-13507D02*
X169336Y-8818D01*
X165603Y-17830D02*
X167914Y-13507D01*
X162494Y-21618D02*
X165603Y-17830D01*
X158706Y-24727D02*
X162494Y-21618D01*
X154384Y-27037D02*
X158706Y-24727D01*
X149694Y-28460D02*
X154384Y-27037D01*
X144817Y-28940D02*
X149694Y-28460D01*
X139940D02*
X144817Y-28940D01*
X135250Y-27037D02*
X139940Y-28460D01*
X130928Y-24727D02*
X135250Y-27037D01*
X127139Y-21618D02*
X130928Y-24727D01*
X124030Y-17830D02*
X127139Y-21618D01*
X121720Y-13507D02*
X124030Y-17830D01*
X120297Y-8818D02*
X121720Y-13507D01*
X119817Y-3940D02*
X120297Y-8818D01*
X109401Y6466D02*
X119817Y-3940D01*
X97779Y6924D02*
X109401Y6466D01*
X95994Y6834D02*
X97779Y6924D01*
X94255Y6429D02*
X95994Y6834D01*
X92614Y5720D02*
X94255Y6429D01*
X91126Y4731D02*
X92614Y5720D01*
X89839Y3493D02*
X91126Y4731D01*
X88791Y2045D02*
X89839Y3493D01*
X88019Y435D02*
X88791Y2045D01*
X87545Y-1289D02*
X88019Y435D01*
X87385Y-3068D02*
X87545Y-1289D01*
X87385Y-29666D02*
Y-3068D01*
X87193Y-31617D02*
X87385Y-29666D01*
X86624Y-33493D02*
X87193Y-31617D01*
X85700Y-35221D02*
X86624Y-33493D01*
X84456Y-36737D02*
X85700Y-35221D01*
X82941Y-37981D02*
X84456Y-36737D01*
X81212Y-38905D02*
X82941Y-37981D01*
X79336Y-39474D02*
X81212Y-38905D01*
X77385Y-39666D02*
X79336Y-39474D01*
X-82614Y-39666D02*
X77385D01*
X-84565Y-39474D02*
X-82614Y-39666D01*
X-86441Y-38905D02*
X-84565Y-39474D01*
X-88169Y-37981D02*
X-86441Y-38905D01*
X-89685Y-36737D02*
X-88169Y-37981D01*
X-90928Y-35221D02*
X-89685Y-36737D01*
X-91852Y-33493D02*
X-90928Y-35221D01*
X-92422Y-31617D02*
X-91852Y-33493D01*
X-92613Y-29666D02*
X-92422Y-31617D01*
X-92613Y-29666D02*
Y-3068D01*
X-92773Y-1288D02*
X-92613Y-3068D01*
X-93247Y435D02*
X-92773Y-1288D01*
X-94020Y2045D02*
X-93247Y435D01*
X-95067Y3493D02*
X-94020Y2045D01*
X-96355Y4732D02*
X-95067Y3493D01*
X-97843Y5721D02*
X-96355Y4732D01*
X-99482Y6430D02*
X-97843Y5721D01*
X-101223Y6835D02*
X-99482Y6430D01*
X-103007Y6925D02*
X-101223Y6835D01*
X-114631Y6467D02*
X-103007Y6925D01*
X-126183Y-3940D02*
X-114631Y6467D01*
X-126664Y-8818D02*
X-126183Y-3940D01*
X-128086Y-13507D02*
X-126664Y-8818D01*
X-130396Y-17830D02*
X-128086Y-13507D01*
X-133505Y-21618D02*
X-130396Y-17830D01*
X-137294Y-24727D02*
X-133505Y-21618D01*
X-141616Y-27037D02*
X-137294Y-24727D01*
X-146306Y-28460D02*
X-141616Y-27037D01*
X-151183Y-28940D02*
X-146306Y-28460D01*
X-156061D02*
X-151183Y-28940D01*
X-160751Y-27037D02*
X-156061Y-28460D01*
X-165073Y-24727D02*
X-160751Y-27037D01*
X-168861Y-21618D02*
X-165073Y-24727D01*
X-171970Y-17830D02*
X-168861Y-21618D01*
X-174280Y-13507D02*
X-171970Y-17830D01*
X-175703Y-8818D02*
X-174280Y-13507D01*
X-176183Y-3940D02*
X-175703Y-8818D01*
X-188165Y2102D02*
X-176183Y-3940D01*
X-312620Y-11278D02*
X-188165Y2102D01*
X-344187Y-17718D02*
X-312620Y-11278D01*
X-375652Y-24582D02*
X-344187Y-17718D01*
X-423487Y-35877D02*
X-375652Y-24582D01*
X-466348Y-46891D02*
X-423487Y-35877D01*
X-509015Y-58704D02*
X-466348Y-46891D01*
X-511054Y-59500D02*
X-509015Y-58704D01*
X-512914Y-60655D02*
X-511054Y-59500D01*
X-514529Y-62132D02*
X-512914Y-60655D01*
X-515847Y-63881D02*
X-514529Y-62132D01*
X-516821Y-65841D02*
X-515847Y-63881D01*
X-517419Y-67947D02*
X-516821Y-65841D01*
X-517621Y-70127D02*
X-517419Y-67947D01*
X-517621Y-81213D02*
Y-70127D01*
X-517812Y-83161D02*
X-517621Y-81213D01*
X-518380Y-85035D02*
X-517812Y-83161D01*
X-519301Y-86762D02*
X-518380Y-85035D01*
X-520542Y-88276D02*
X-519301Y-86762D01*
X-522053Y-89520D02*
X-520542Y-88276D01*
X-523779Y-90445D02*
X-522053Y-89520D01*
X-525651Y-91017D02*
X-523779Y-90445D01*
X-527599Y-91213D02*
X-525651Y-91017D01*
X-577599Y-91321D02*
X-527599Y-91213D01*
X-579553Y-91132D02*
X-577599Y-91321D01*
X-581432Y-90566D02*
X-579553Y-91132D01*
X-583165Y-89643D02*
X-581432Y-90566D01*
X-584684Y-88400D02*
X-583165Y-89643D01*
X-585931Y-86883D02*
X-584684Y-88400D01*
X-586857Y-85153D02*
X-585931Y-86883D01*
X-587427Y-83274D02*
X-586857Y-85153D01*
X-587621Y-81321D02*
X-587427Y-83274D01*
X-587621Y-81321D02*
Y-51174D01*
X-586012Y-47796D01*
X-583881Y-44343D01*
X-579887Y-39315D01*
X-574564Y-34062D01*
X-567718Y-28580D01*
X-559146Y-22877D01*
X-548637Y-16969D01*
X-535982Y-10889D01*
X-520979Y-4673D01*
X-503442Y1629D01*
X-483209Y7960D01*
X-460145Y14256D01*
X-434159Y20445D01*
X-405200Y26449D01*
X-373273Y32187D01*
X-338441Y37576D01*
X-300829Y42532D01*
X-256011Y47431D01*
X-208351Y51589D01*
X-158295Y54915D01*
X-106370Y57330D01*
X-53173Y58779D01*
X654Y59224D01*
X54446Y58656D01*
X107535Y57087D01*
X159279Y54556D01*
X209084Y51123D01*
X256423Y46868D01*
X300854Y41887D01*
X342033Y36288D01*
X379711Y30185D01*
X413745Y23696D01*
X444086Y16937D01*
X470773Y10017D01*
X493924Y3042D01*
X513719Y-3901D01*
X530388Y-10731D01*
X544195Y-17386D01*
X555425Y-23818D01*
X564373Y-29995D01*
X571326Y-35905D01*
X576557Y-41556D01*
X579992Y-46438D01*
X582380Y-51174D01*
M02*
