G04*
G04 #@! TF.GenerationSoftware,Altium Limited,Altium Designer,22.10.1 (41)*
G04*
G04 Layer_Color=32896*
%FSLAX44Y44*%
%MOMM*%
G71*
G04*
G04 #@! TF.SameCoordinates,B178BA49-C0A8-449A-8AC4-8C5071AB2F05*
G04*
G04*
G04 #@! TF.FilePolarity,Positive*
G04*
G01*
G75*
%ADD12C,0.2000*%
D12*
X140880Y52810D02*
G03*
X149880Y52810I4500J0D01*
G01*
X40880D02*
G03*
X49880Y52810I4500J0D01*
G01*
X340880Y22810D02*
G03*
X349880Y22810I4500J0D01*
G01*
X240880Y42810D02*
G03*
X249880Y42810I4500J0D01*
G01*
X430880Y6810D02*
G03*
X439880Y6810I4500J0D01*
G01*
X520880Y-20190D02*
G03*
X529880Y-20190I4500J0D01*
G01*
X-529120D02*
G03*
X-520120Y-20190I4500J0D01*
G01*
X-439120Y6810D02*
G03*
X-430120Y6810I4500J0D01*
G01*
X-349120Y22810D02*
G03*
X-340120Y22810I4500J0D01*
G01*
X-249120Y42810D02*
G03*
X-240120Y42810I4500J0D01*
G01*
X-149120Y52810D02*
G03*
X-140120Y52810I4500J0D01*
G01*
X-59120D02*
G03*
X-50120Y52810I4500J0D01*
G01*
X149880D02*
X155780D01*
X134980D02*
X140880D01*
X134980Y16810D02*
Y52810D01*
Y16810D02*
X155780D01*
Y52810D01*
X55780Y16810D02*
Y52810D01*
X34980Y16810D02*
X55780D01*
X34980D02*
Y52810D01*
X40880D01*
X49880D02*
X55780D01*
X349880Y22810D02*
X355780D01*
X334980D02*
X340880D01*
X334980Y-13190D02*
Y22810D01*
Y-13190D02*
X355780D01*
Y22810D01*
X255780Y6810D02*
Y42810D01*
X234980Y6810D02*
X255780D01*
X234980D02*
Y42810D01*
X240880D01*
X249880D02*
X255780D01*
X439880Y6810D02*
X445780D01*
X424980D02*
X430880D01*
X424980Y-29190D02*
Y6810D01*
Y-29190D02*
X445780D01*
Y6810D01*
X535780Y-56190D02*
Y-20190D01*
X514980Y-56190D02*
X535780D01*
X514980D02*
Y-20190D01*
X520880D01*
X529880D02*
X535780D01*
X-520120D02*
X-514220D01*
X-535020D02*
X-529120D01*
X-535020Y-56190D02*
Y-20190D01*
Y-56190D02*
X-514220D01*
Y-20190D01*
X-424220Y-29190D02*
Y6810D01*
X-445020Y-29190D02*
X-424220D01*
X-445020D02*
Y6810D01*
X-439120D01*
X-430120D02*
X-424220D01*
X-340120Y22810D02*
X-334220D01*
X-355020D02*
X-349120D01*
X-355020Y-13190D02*
Y22810D01*
Y-13190D02*
X-334220D01*
Y22810D01*
X-234220Y6810D02*
Y42810D01*
X-255020Y6810D02*
X-234220D01*
X-255020D02*
Y42810D01*
X-249120D01*
X-240120D02*
X-234220D01*
X-140120Y52810D02*
X-134220D01*
X-155020D02*
X-149120D01*
X-155020Y16810D02*
Y52810D01*
Y16810D02*
X-134220D01*
Y52810D01*
X-44220Y16810D02*
Y52810D01*
X-65020Y16810D02*
X-44220D01*
X-65020D02*
Y52810D01*
X-59120D01*
X-50120D02*
X-44220D01*
M02*
