G04*
G04 #@! TF.GenerationSoftware,Altium Limited,Altium Designer,22.10.1 (41)*
G04*
G04 Layer_Color=32896*
%FSLAX44Y44*%
%MOMM*%
G71*
G04*
G04 #@! TF.SameCoordinates,B178BA49-C0A8-449A-8AC4-8C5071AB2F05*
G04*
G04*
G04 #@! TF.FilePolarity,Positive*
G04*
G01*
G75*
%ADD32C,0.1016*%
%ADD33C,0.0762*%
D32*
X25908Y54102D02*
X45212D01*
X25908Y42418D02*
X45212D01*
X25908D02*
Y54102D01*
X45212Y42418D02*
Y54102D01*
X229108Y29718D02*
X248412D01*
X229108Y41402D02*
X248412D01*
Y29718D02*
Y41402D01*
X229108Y29718D02*
Y41402D01*
X82042Y32258D02*
Y43942D01*
X62738Y32258D02*
Y43942D01*
Y32258D02*
X82042D01*
X62738Y43942D02*
X82042D01*
X122682Y36068D02*
Y47752D01*
X103378Y36068D02*
Y47752D01*
Y36068D02*
X122682D01*
X103378Y47752D02*
X122682D01*
X348488Y8128D02*
X367792D01*
X348488Y19812D02*
X367792D01*
Y8128D02*
Y19812D01*
X348488Y8128D02*
Y19812D01*
X8382Y42418D02*
Y54102D01*
X-10922Y42418D02*
Y54102D01*
Y42418D02*
X8382D01*
X-10922Y54102D02*
X8382D01*
X445262Y-762D02*
Y10922D01*
X425958Y-762D02*
Y10922D01*
Y-762D02*
X445262D01*
X425958Y10922D02*
X445262D01*
X511048Y-25908D02*
X530352D01*
X511048Y-37592D02*
X530352D01*
X511048D02*
Y-25908D01*
X530352Y-37592D02*
Y-25908D01*
X497332Y-17272D02*
Y-5588D01*
X478028Y-17272D02*
Y-5588D01*
Y-17272D02*
X497332D01*
X478028Y-5588D02*
X497332D01*
X281432Y19558D02*
Y31242D01*
X262128Y19558D02*
Y31242D01*
Y19558D02*
X281432D01*
X262128Y31242D02*
X281432D01*
X-450342Y508D02*
Y12192D01*
X-431038Y508D02*
Y12192D01*
X-450342D02*
X-431038D01*
X-450342Y508D02*
X-431038D01*
X390398Y-2032D02*
Y9652D01*
X409702Y-2032D02*
Y9652D01*
X390398D02*
X409702D01*
X390398Y-2032D02*
X409702D01*
X295148Y9398D02*
Y21082D01*
X314452Y9398D02*
Y21082D01*
X295148D02*
X314452D01*
X295148Y9398D02*
X314452D01*
X-408432Y8128D02*
Y19812D01*
X-389128Y8128D02*
Y19812D01*
X-408432D02*
X-389128D01*
X-408432Y8128D02*
X-389128D01*
X-298958Y17018D02*
Y28702D01*
X-318262Y17018D02*
Y28702D01*
Y17018D02*
X-298958D01*
X-318262Y28702D02*
X-298958D01*
D33*
X29210Y42418D02*
Y54102D01*
X41910Y42418D02*
Y54102D01*
X245110Y29718D02*
Y41402D01*
X232410Y29718D02*
Y41402D01*
X78740Y32258D02*
Y43942D01*
X66040Y32258D02*
Y43942D01*
X119380Y36068D02*
Y47752D01*
X106680Y36068D02*
Y47752D01*
X364490Y8128D02*
Y19812D01*
X351790Y8128D02*
Y19812D01*
X5080Y42418D02*
Y54102D01*
X-7620Y42418D02*
Y54102D01*
X441960Y-762D02*
Y10922D01*
X429260Y-762D02*
Y10922D01*
X514350Y-37592D02*
Y-25908D01*
X527050Y-37592D02*
Y-25908D01*
X494030Y-17272D02*
Y-5588D01*
X481330Y-17272D02*
Y-5588D01*
X278130Y19558D02*
Y31242D01*
X265430Y19558D02*
Y31242D01*
X-447040Y508D02*
Y12192D01*
X-434340Y508D02*
Y12192D01*
X393700Y-2032D02*
Y9652D01*
X406400Y-2032D02*
Y9652D01*
X298450Y9398D02*
Y21082D01*
X311150Y9398D02*
Y21082D01*
X-405130Y8128D02*
Y19812D01*
X-392430Y8128D02*
Y19812D01*
X-302260Y17018D02*
Y28702D01*
X-314960Y17018D02*
Y28702D01*
M02*
