G04*
G04 #@! TF.GenerationSoftware,Altium Limited,Altium Designer,22.10.1 (41)*
G04*
G04 Layer_Color=16711935*
%FSLAX44Y44*%
%MOMM*%
G71*
G04*
G04 #@! TF.SameCoordinates,B178BA49-C0A8-449A-8AC4-8C5071AB2F05*
G04*
G04*
G04 #@! TF.FilePolarity,Negative*
G04*
G01*
G75*
%ADD21C,2.3508*%
%ADD22C,0.6604*%
%ADD28R,1.3508X0.8508*%
%ADD29O,1.3508X0.8508*%
D21*
X-149614Y-7666D02*
D03*
X-552621Y-66267D02*
D03*
X547380D02*
D03*
X144385Y-7666D02*
D03*
D22*
X149411Y29852D02*
D03*
D28*
X166630Y43810D02*
D03*
X124130D02*
D03*
X24130D02*
D03*
X66630D02*
D03*
X366630Y13810D02*
D03*
X324130D02*
D03*
X224130Y33810D02*
D03*
X266630D02*
D03*
X456630Y-2190D02*
D03*
X414130D02*
D03*
X504130Y-29190D02*
D03*
X546630D02*
D03*
X-503370D02*
D03*
X-545870D02*
D03*
X-455870Y-2190D02*
D03*
X-413370D02*
D03*
X-323370Y13810D02*
D03*
X-365870D02*
D03*
X-265870Y33810D02*
D03*
X-223370D02*
D03*
X-123370Y43810D02*
D03*
X-165870D02*
D03*
X-75870D02*
D03*
X-33370D02*
D03*
D29*
X166630Y25810D02*
D03*
X124130D02*
D03*
X24130D02*
D03*
X66630D02*
D03*
X366630Y-4190D02*
D03*
X324130D02*
D03*
X224130Y15810D02*
D03*
X266630D02*
D03*
X456630Y-20190D02*
D03*
X414130D02*
D03*
X504130Y-47190D02*
D03*
X546630D02*
D03*
X-503370D02*
D03*
X-545870D02*
D03*
X-455870Y-20190D02*
D03*
X-413370D02*
D03*
X-323370Y-4190D02*
D03*
X-365870D02*
D03*
X-265870Y15810D02*
D03*
X-223370D02*
D03*
X-123370Y25810D02*
D03*
X-165870D02*
D03*
X-75870D02*
D03*
X-33370D02*
D03*
M02*
