G04*
G04 #@! TF.GenerationSoftware,Altium Limited,Altium Designer,22.10.1 (41)*
G04*
G04 Layer_Color=16711935*
%FSLAX44Y44*%
%MOMM*%
G71*
G04*
G04 #@! TF.SameCoordinates,B178BA49-C0A8-449A-8AC4-8C5071AB2F05*
G04*
G04*
G04 #@! TF.FilePolarity,Positive*
G04*
G01*
G75*
%ADD32C,0.1016*%
D32*
X-55880Y33020D02*
Y50800D01*
X-91440D02*
X-55880D01*
X-91440Y33020D02*
Y50800D01*
Y33020D02*
X-55880D01*
X-257384Y45720D02*
X-221824D01*
Y27940D02*
Y45720D01*
X-257384Y27940D02*
X-221824D01*
X-257384D02*
Y45720D01*
X-173190Y29840D02*
Y50160D01*
X-223990D02*
X-173190D01*
X-223990Y29840D02*
X-173190D01*
X-223990D02*
Y50160D01*
X-471170Y-17780D02*
Y0D01*
X-506730D02*
X-471170D01*
X-506730Y-17780D02*
Y0D01*
Y-17780D02*
X-471170D01*
X-570230Y-49530D02*
X-534670D01*
X-570230D02*
Y-31750D01*
X-534670D01*
Y-49530D02*
Y-31750D01*
Y-20320D02*
X-499110D01*
Y-38100D02*
Y-20320D01*
X-534670Y-38100D02*
X-499110D01*
X-534670D02*
Y-20320D01*
X-369570Y12700D02*
X-334010D01*
X-369570D02*
Y30480D01*
X-334010D01*
Y12700D02*
Y30480D01*
X-132080Y36830D02*
X-96520D01*
X-132080D02*
Y54610D01*
X-96520D01*
Y36830D02*
Y54610D01*
X-57785Y35560D02*
X-22225D01*
X-57785D02*
Y53340D01*
X-22225D01*
Y35560D02*
Y53340D01*
X-293370Y35560D02*
X-257810D01*
Y17780D02*
Y35560D01*
X-293370Y17780D02*
X-257810D01*
X-293370D02*
Y35560D01*
X217650Y29840D02*
Y50160D01*
X166850D02*
X217650D01*
X166850Y29840D02*
X217650D01*
X166850D02*
Y50160D01*
M02*
