G04*
G04 #@! TF.GenerationSoftware,Altium Limited,Altium Designer,22.10.1 (41)*
G04*
G04 Layer_Color=8388736*
%FSLAX44Y44*%
%MOMM*%
G71*
G04*
G04 #@! TF.SameCoordinates,B178BA49-C0A8-449A-8AC4-8C5071AB2F05*
G04*
G04*
G04 #@! TF.FilePolarity,Negative*
G04*
G01*
G75*
%ADD17R,0.9398X1.3208*%
%ADD18R,1.1938X1.3716*%
%ADD19R,1.7008X1.3508*%
%ADD20R,0.3508X1.0508*%
%ADD21C,2.3508*%
%ADD22C,0.6604*%
D17*
X-62865Y41910D02*
D03*
X-84455D02*
D03*
X24765Y48260D02*
D03*
X46355D02*
D03*
X-228810Y36830D02*
D03*
X-250399D02*
D03*
X249555Y35560D02*
D03*
X227965D02*
D03*
X83185Y38100D02*
D03*
X61595D02*
D03*
X123825Y41910D02*
D03*
X102235D02*
D03*
X368935Y13970D02*
D03*
X347345D02*
D03*
X9525Y48260D02*
D03*
X-12065D02*
D03*
X446405Y5080D02*
D03*
X424815D02*
D03*
X-478155Y-8890D02*
D03*
X-499745D02*
D03*
X-563245Y-40640D02*
D03*
X-541655D02*
D03*
X-506095Y-29210D02*
D03*
X-527685D02*
D03*
X509905Y-31750D02*
D03*
X531495D02*
D03*
X498475Y-11430D02*
D03*
X476885D02*
D03*
X282575Y25400D02*
D03*
X260985D02*
D03*
X-451485Y6350D02*
D03*
X-429895D02*
D03*
X389255Y3810D02*
D03*
X410845D02*
D03*
X294005Y15240D02*
D03*
X315595D02*
D03*
X-409575Y13970D02*
D03*
X-387985D02*
D03*
X-297815Y22860D02*
D03*
X-319405D02*
D03*
X-362585Y21590D02*
D03*
X-340995D02*
D03*
X-125095Y45720D02*
D03*
X-103505D02*
D03*
X-50800Y44450D02*
D03*
X-29210D02*
D03*
X-264795Y26670D02*
D03*
X-286385D02*
D03*
D18*
X-211925Y40000D02*
D03*
X-185255D02*
D03*
X178915D02*
D03*
X205585D02*
D03*
D19*
X67630Y-8190D02*
D03*
X-72870D02*
D03*
D20*
X29880Y10810D02*
D03*
X24880D02*
D03*
X19880D02*
D03*
X14880D02*
D03*
X-120D02*
D03*
X-5120D02*
D03*
X-20120D02*
D03*
X-25120D02*
D03*
X-30120D02*
D03*
X-35120D02*
D03*
X-40120D02*
D03*
X-45120D02*
D03*
X-50120D02*
D03*
X-15120D02*
D03*
X-10120D02*
D03*
X4880D02*
D03*
X9880D02*
D03*
X34880D02*
D03*
X39880D02*
D03*
X44880D02*
D03*
D21*
X-149614Y-7666D02*
D03*
X-552621Y-66267D02*
D03*
X547380D02*
D03*
X144385Y-7666D02*
D03*
D22*
X149411Y29852D02*
D03*
M02*
