G04*
G04 #@! TF.GenerationSoftware,Altium Limited,Altium Designer,21.3.2 (30)*
G04*
G04 Layer_Color=32896*
%FSLAX43Y43*%
%MOMM*%
G71*
G04*
G04 #@! TF.SameCoordinates,FBD5C96F-955A-4271-84E1-1BDEFFC5CDA7*
G04*
G04*
G04 #@! TF.FilePolarity,Positive*
G04*
G01*
G75*
%ADD10C,0.127*%
%ADD11C,0.200*%
%ADD13C,0.250*%
%ADD14C,0.100*%
%ADD15C,0.152*%
%ADD16C,0.203*%
%ADD17C,0.102*%
%ADD69C,0.254*%
%ADD102C,0.076*%
D10*
X31986Y62195D02*
G03*
X31986Y62195I-51J0D01*
G01*
X108300Y69757D02*
G03*
X108300Y69757I-51J0D01*
G01*
X10051Y55243D02*
G03*
X10051Y55243I-51J0D01*
G01*
X35465Y61704D02*
G03*
X35465Y61704I-51J0D01*
G01*
X77934Y52900D02*
X78019Y52985D01*
X78188D01*
X78273Y52900D01*
Y52562D01*
X78188Y52477D01*
X78019D01*
X77934Y52562D01*
Y52731D01*
X78104D01*
X77765Y52477D02*
Y52985D01*
X77427Y52477D01*
Y52985D01*
X77257D02*
Y52477D01*
X77003D01*
X76919Y52562D01*
Y52900D01*
X77003Y52985D01*
X77257D01*
X77973Y60485D02*
X77634D01*
X77804D01*
Y59977D01*
X77465Y60485D02*
X77127Y59977D01*
Y60485D02*
X77465Y59977D01*
X58623Y52885D02*
Y52546D01*
X58454Y52377D01*
X58284Y52546D01*
Y52885D01*
X57777Y52800D02*
X57861Y52885D01*
X58031D01*
X58115Y52800D01*
Y52462D01*
X58031Y52377D01*
X57861D01*
X57777Y52462D01*
X57269Y52800D02*
X57353Y52885D01*
X57523D01*
X57607Y52800D01*
Y52462D01*
X57523Y52377D01*
X57353D01*
X57269Y52462D01*
X77873Y58477D02*
Y58985D01*
X77619D01*
X77534Y58900D01*
Y58731D01*
X77619Y58646D01*
X77873D01*
X77704D02*
X77534Y58477D01*
X77365Y58985D02*
X77027Y58477D01*
Y58985D02*
X77365Y58477D01*
X67265Y58584D02*
Y58754D01*
Y58669D01*
X67688D01*
X67773Y58754D01*
Y58838D01*
X67688Y58923D01*
X67265Y58415D02*
X67773D01*
Y58161D01*
X67688Y58077D01*
X67350D01*
X67265Y58161D01*
Y58415D01*
Y57907D02*
X67350D01*
X67519Y57738D01*
X67350Y57569D01*
X67265D01*
X67519Y57738D02*
X67773D01*
X67519Y57400D02*
Y57061D01*
X67350Y56892D02*
X67265Y56807D01*
Y56638D01*
X67350Y56553D01*
X67688D01*
X67773Y56638D01*
Y56807D01*
X67688Y56892D01*
X67350D01*
Y56384D02*
X67265Y56299D01*
Y56130D01*
X67350Y56045D01*
X67434D01*
X67519Y56130D01*
X67604Y56045D01*
X67688D01*
X67773Y56130D01*
Y56299D01*
X67688Y56384D01*
X67604D01*
X67519Y56299D01*
X67434Y56384D01*
X67350D01*
X67519Y56299D02*
Y56130D01*
X67265Y55368D02*
X67773D01*
Y55114D01*
X67688Y55030D01*
X67604D01*
X67519Y55114D01*
Y55368D01*
Y55114D01*
X67434Y55030D01*
X67350D01*
X67265Y55114D01*
Y55368D01*
Y54860D02*
X67773D01*
Y54522D01*
X67265Y54014D02*
Y54352D01*
X67773D01*
Y54014D01*
X67519Y54352D02*
Y54183D01*
X67773Y53337D02*
X67265D01*
X67434Y53168D01*
X67265Y52998D01*
X67773D01*
Y52744D02*
Y52575D01*
X67688Y52490D01*
X67519D01*
X67434Y52575D01*
Y52744D01*
X67519Y52829D01*
X67688D01*
X67773Y52744D01*
X67265Y51983D02*
X67773D01*
Y52237D01*
X67688Y52321D01*
X67519D01*
X67434Y52237D01*
Y51983D01*
Y51813D02*
X67688D01*
X67773Y51729D01*
Y51475D01*
X67434D01*
X67773Y51305D02*
Y51136D01*
Y51221D01*
X67265D01*
Y51305D01*
X67773Y50628D02*
Y50798D01*
X67688Y50882D01*
X67519D01*
X67434Y50798D01*
Y50628D01*
X67519Y50544D01*
X67604D01*
Y50882D01*
X78773Y55477D02*
Y55985D01*
X78519D01*
X78434Y55900D01*
Y55731D01*
X78519Y55646D01*
X78773D01*
X78265Y55985D02*
Y55477D01*
X78096Y55646D01*
X77927Y55477D01*
Y55985D01*
X77757Y55477D02*
Y55985D01*
X77503D01*
X77419Y55900D01*
Y55731D01*
X77503Y55646D01*
X77757D01*
X77588D02*
X77419Y55477D01*
X76911Y55900D02*
X76996Y55985D01*
X77165D01*
X77249Y55900D01*
Y55562D01*
X77165Y55477D01*
X76996D01*
X76911Y55562D01*
D11*
X27650Y59950D02*
Y66650D01*
X23550Y59950D02*
Y66650D01*
X27650D01*
X23550Y59950D02*
X27650D01*
D13*
X28800Y66600D02*
G03*
X28800Y66600I-125J0D01*
G01*
D14*
X46955Y55150D02*
X47330Y54650D01*
X46480D02*
X47330D01*
X46480D02*
X46955Y55150D01*
Y53700D02*
Y55150D01*
X40630Y48350D02*
Y58550D01*
Y48350D02*
X53180D01*
X53222Y52792D01*
X55303Y54873D01*
X55379Y58909D01*
X41580Y53025D02*
Y52525D01*
X41830D01*
X41913Y52609D01*
Y52775D01*
X41830Y52858D01*
X41580D01*
X42080Y53025D02*
X42247D01*
X42163D01*
Y52692D01*
X42080D01*
X42496Y53025D02*
Y52692D01*
X42746D01*
X42830Y52775D01*
Y53025D01*
X43080Y52692D02*
X43246D01*
X43329Y52775D01*
Y53025D01*
X43080D01*
X42996Y52942D01*
X43080Y52858D01*
X43329D01*
X43496Y53025D02*
Y52692D01*
X43579D01*
X43663Y52775D01*
Y53025D01*
Y52775D01*
X43746Y52692D01*
X43829Y52775D01*
Y53025D01*
X43996D02*
X44163D01*
X44079D01*
Y52692D01*
X43996D01*
X45246Y52525D02*
Y53025D01*
X44996D01*
X44912Y52942D01*
Y52775D01*
X44996Y52692D01*
X45246D01*
X45495Y53025D02*
X45662D01*
X45745Y52942D01*
Y52775D01*
X45662Y52692D01*
X45495D01*
X45412Y52775D01*
Y52942D01*
X45495Y53025D01*
X46412Y52692D02*
X46745D01*
X46412Y53025D01*
X46745D01*
X47162D02*
X46995D01*
X46912Y52942D01*
Y52775D01*
X46995Y52692D01*
X47162D01*
X47245Y52775D01*
Y52858D01*
X46912D01*
X47411Y52692D02*
Y52942D01*
X47495Y53025D01*
X47578Y52942D01*
X47661Y53025D01*
X47745Y52942D01*
Y52692D01*
X47911Y53025D02*
Y52692D01*
X48161D01*
X48245Y52775D01*
Y53025D01*
X48494Y52692D02*
X48661D01*
X48744Y52775D01*
Y53025D01*
X48494D01*
X48411Y52942D01*
X48494Y52858D01*
X48744D01*
X48994Y52609D02*
Y52692D01*
X48911D01*
X49078D01*
X48994D01*
Y52942D01*
X49078Y53025D01*
X49328Y52692D02*
Y53025D01*
Y52858D01*
X49411Y52775D01*
X49494Y52692D01*
X49577D01*
X49827D02*
X50161D01*
X49827Y53025D01*
X50161D01*
X50827D02*
Y52525D01*
X51077D01*
X51160Y52609D01*
Y52775D01*
X51077Y52858D01*
X50827D01*
X51660Y52609D02*
X51577Y52525D01*
X51410D01*
X51327Y52609D01*
Y52942D01*
X51410Y53025D01*
X51577D01*
X51660Y52942D01*
X51827Y52525D02*
Y53025D01*
X52077D01*
X52160Y52942D01*
Y52858D01*
X52077Y52775D01*
X51827D01*
X52077D01*
X52160Y52692D01*
Y52609D01*
X52077Y52525D01*
X51827D01*
X52327Y52858D02*
Y52442D01*
Y52942D02*
Y53025D01*
X42155Y57900D02*
X42655D01*
Y57650D01*
X42572Y57567D01*
X42239D01*
X42155Y57650D01*
Y57900D01*
X42655Y57400D02*
X42322D01*
X42155Y57234D01*
X42322Y57067D01*
X42655D01*
X42405D01*
Y57400D01*
X42155Y56900D02*
Y56567D01*
Y56734D01*
X42655D01*
Y56401D02*
Y56234D01*
Y56317D01*
X42155D01*
X42239Y56401D01*
X43280Y58000D02*
X43780D01*
Y57750D01*
X43697Y57667D01*
X43364D01*
X43280Y57750D01*
Y58000D01*
X43780Y57500D02*
X43447D01*
X43280Y57334D01*
X43447Y57167D01*
X43780D01*
X43530D01*
Y57500D01*
X43280Y57000D02*
Y56667D01*
Y56834D01*
X43780D01*
X43364Y56501D02*
X43280Y56417D01*
Y56251D01*
X43364Y56167D01*
X43697D01*
X43780Y56251D01*
Y56417D01*
X43697Y56501D01*
X43364D01*
X44405Y57900D02*
X44738D01*
X44905Y57733D01*
X44738Y57567D01*
X44405D01*
X44489Y57067D02*
X44405Y57150D01*
Y57317D01*
X44489Y57400D01*
X44572D01*
X44655Y57317D01*
Y57150D01*
X44738Y57067D01*
X44822D01*
X44905Y57150D01*
Y57317D01*
X44822Y57400D01*
X44489Y56567D02*
X44405Y56650D01*
Y56817D01*
X44489Y56900D01*
X44572D01*
X44655Y56817D01*
Y56650D01*
X44738Y56567D01*
X44822D01*
X44905Y56650D01*
Y56817D01*
X44822Y56900D01*
X45589Y57567D02*
X45505Y57650D01*
Y57817D01*
X45589Y57900D01*
X45922D01*
X46005Y57817D01*
Y57650D01*
X45922Y57567D01*
X45505Y57400D02*
X46005D01*
Y57067D01*
X45505Y56900D02*
X46005D01*
X45838D01*
X45505Y56567D01*
X45755Y56817D01*
X46005Y56567D01*
X46350Y57800D02*
X46683D01*
X46850Y57633D01*
X46683Y57467D01*
X46350D01*
Y57300D02*
X46850D01*
Y57050D01*
X46767Y56967D01*
X46433D01*
X46350Y57050D01*
Y57300D01*
Y56800D02*
X46850D01*
Y56550D01*
X46767Y56467D01*
X46433D01*
X46350Y56550D01*
Y56800D01*
X47183Y57417D02*
X47100Y57500D01*
Y57667D01*
X47183Y57750D01*
X47517D01*
X47600Y57667D01*
Y57500D01*
X47517Y57417D01*
X47600Y57250D02*
X47100D01*
X47267Y57084D01*
X47100Y56917D01*
X47600D01*
X47100Y56750D02*
X47600D01*
Y56500D01*
X47517Y56417D01*
X47183D01*
X47100Y56500D01*
Y56750D01*
X48083Y56867D02*
X48000Y56950D01*
Y57117D01*
X48083Y57200D01*
X48417D01*
X48500Y57117D01*
Y56950D01*
X48417Y56867D01*
X48000Y56700D02*
X48500D01*
Y56450D01*
X48417Y56367D01*
X48083D01*
X48000Y56450D01*
Y56700D01*
X48500Y56200D02*
X48167Y55867D01*
X48000Y55700D02*
X48500D01*
Y55451D01*
X48417Y55367D01*
X48083D01*
X48000Y55451D01*
Y55700D01*
X48500Y55201D02*
X48167D01*
X48000Y55034D01*
X48167Y54867D01*
X48500D01*
X48250D01*
Y55201D01*
X48000Y54701D02*
Y54368D01*
Y54534D01*
X48500D01*
X48083Y54201D02*
X48000Y54118D01*
Y53951D01*
X48083Y53868D01*
X48167D01*
X48250Y53951D01*
Y54034D01*
Y53951D01*
X48333Y53868D01*
X48417D01*
X48500Y53951D01*
Y54118D01*
X48417Y54201D01*
X50600Y56150D02*
X51100D01*
Y55900D01*
X51017Y55817D01*
X50683D01*
X50600Y55900D01*
Y56150D01*
X51100Y55650D02*
X50767D01*
X50600Y55484D01*
X50767Y55317D01*
X51100D01*
X50850D01*
Y55650D01*
X50600Y55150D02*
Y54817D01*
Y54984D01*
X51100D01*
Y54317D02*
Y54650D01*
X50767Y54317D01*
X50683D01*
X50600Y54401D01*
Y54567D01*
X50683Y54650D01*
X7583Y68650D02*
Y69150D01*
X7333D01*
X7250Y69067D01*
Y68900D01*
X7333Y68817D01*
X7583D01*
X7417D02*
X7250Y68650D01*
X7083D02*
X6917D01*
X7000D01*
Y69150D01*
X7083Y69067D01*
X88233Y64617D02*
X88317Y64700D01*
X88483D01*
X88567Y64617D01*
Y64283D01*
X88483Y64200D01*
X88317D01*
X88233Y64283D01*
X87817Y64200D02*
Y64700D01*
X88067Y64450D01*
X87733D01*
X27567Y67600D02*
Y67183D01*
X27483Y67100D01*
X27317D01*
X27233Y67183D01*
Y67600D01*
X26733D02*
X26900Y67517D01*
X27067Y67350D01*
Y67183D01*
X26983Y67100D01*
X26817D01*
X26733Y67183D01*
Y67267D01*
X26817Y67350D01*
X27067D01*
X115267Y61650D02*
Y61233D01*
X115183Y61150D01*
X115017D01*
X114933Y61233D01*
Y61650D01*
X114517Y61150D02*
Y61650D01*
X114767Y61400D01*
X114433D01*
X13267Y63100D02*
Y62683D01*
X13183Y62600D01*
X13017D01*
X12933Y62683D01*
Y63100D01*
X12767Y63017D02*
X12683Y63100D01*
X12517D01*
X12433Y63017D01*
Y62933D01*
X12517Y62850D01*
X12600D01*
X12517D01*
X12433Y62767D01*
Y62683D01*
X12517Y62600D01*
X12683D01*
X12767Y62683D01*
X45275Y60800D02*
Y61300D01*
X45025D01*
X44942Y61217D01*
Y61050D01*
X45025Y60967D01*
X45275D01*
X45108D02*
X44942Y60800D01*
X44775D02*
X44608D01*
X44692D01*
Y61300D01*
X44775Y61217D01*
X44358Y60883D02*
X44275Y60800D01*
X44109D01*
X44025Y60883D01*
Y61217D01*
X44109Y61300D01*
X44275D01*
X44358Y61217D01*
Y61133D01*
X44275Y61050D01*
X44025D01*
X43425Y60950D02*
Y61450D01*
X43175D01*
X43092Y61367D01*
Y61200D01*
X43175Y61117D01*
X43425D01*
X43258D02*
X43092Y60950D01*
X42925D02*
X42758D01*
X42842D01*
Y61450D01*
X42925Y61367D01*
X42508D02*
X42425Y61450D01*
X42259D01*
X42175Y61367D01*
Y61283D01*
X42259Y61200D01*
X42175Y61117D01*
Y61033D01*
X42259Y60950D01*
X42425D01*
X42508Y61033D01*
Y61117D01*
X42425Y61200D01*
X42508Y61283D01*
Y61367D01*
X42425Y61200D02*
X42259D01*
X50875Y61050D02*
Y61550D01*
X50625D01*
X50542Y61467D01*
Y61300D01*
X50625Y61217D01*
X50875D01*
X50708D02*
X50542Y61050D01*
X50375D02*
X50208D01*
X50292D01*
Y61550D01*
X50375Y61467D01*
X49958Y61550D02*
X49625D01*
Y61467D01*
X49958Y61133D01*
Y61050D01*
X48925Y60900D02*
Y61400D01*
X48675D01*
X48592Y61317D01*
Y61150D01*
X48675Y61067D01*
X48925D01*
X48758D02*
X48592Y60900D01*
X48425D02*
X48258D01*
X48342D01*
Y61400D01*
X48425Y61317D01*
X47675Y61400D02*
X47842Y61317D01*
X48008Y61150D01*
Y60983D01*
X47925Y60900D01*
X47759D01*
X47675Y60983D01*
Y61067D01*
X47759Y61150D01*
X48008D01*
X47125Y60700D02*
Y61200D01*
X46875D01*
X46792Y61117D01*
Y60950D01*
X46875Y60867D01*
X47125D01*
X46958D02*
X46792Y60700D01*
X46625D02*
X46458D01*
X46542D01*
Y61200D01*
X46625Y61117D01*
X45875Y61200D02*
X46208D01*
Y60950D01*
X46042Y61033D01*
X45959D01*
X45875Y60950D01*
Y60783D01*
X45959Y60700D01*
X46125D01*
X46208Y60783D01*
X107667Y56200D02*
Y56700D01*
X107417D01*
X107333Y56617D01*
Y56450D01*
X107417Y56367D01*
X107667D01*
X107500D02*
X107333Y56200D01*
X106833Y56700D02*
X107000Y56617D01*
X107167Y56450D01*
Y56283D01*
X107083Y56200D01*
X106917D01*
X106833Y56283D01*
Y56367D01*
X106917Y56450D01*
X107167D01*
X15317Y67900D02*
Y68400D01*
X15067D01*
X14983Y68317D01*
Y68150D01*
X15067Y68067D01*
X15317D01*
X15150D02*
X14983Y67900D01*
X14483Y68400D02*
X14817D01*
Y68150D01*
X14650Y68233D01*
X14567D01*
X14483Y68150D01*
Y67983D01*
X14567Y67900D01*
X14733D01*
X14817Y67983D01*
X113867Y55600D02*
Y56100D01*
X113617D01*
X113533Y56017D01*
Y55850D01*
X113617Y55767D01*
X113867D01*
X113700D02*
X113533Y55600D01*
X113117D02*
Y56100D01*
X113367Y55850D01*
X113033D01*
X31842Y67017D02*
X31925Y67100D01*
X32091D01*
X32175Y67017D01*
Y66683D01*
X32091Y66600D01*
X31925D01*
X31842Y66683D01*
X31675Y66600D02*
X31508D01*
X31592D01*
Y67100D01*
X31675Y67017D01*
X30925Y67100D02*
X31258D01*
Y66850D01*
X31092Y66933D01*
X31009D01*
X30925Y66850D01*
Y66683D01*
X31009Y66600D01*
X31175D01*
X31258Y66683D01*
X30092Y57517D02*
X30175Y57600D01*
X30341D01*
X30425Y57517D01*
Y57183D01*
X30341Y57100D01*
X30175D01*
X30092Y57183D01*
X29925Y57100D02*
X29758D01*
X29842D01*
Y57600D01*
X29925Y57517D01*
X29175Y57100D02*
X29508D01*
X29175Y57433D01*
Y57517D01*
X29259Y57600D01*
X29425D01*
X29508Y57517D01*
X107392Y69467D02*
X107475Y69550D01*
X107641D01*
X107725Y69467D01*
Y69133D01*
X107641Y69050D01*
X107475D01*
X107392Y69133D01*
X107225Y69050D02*
X107058D01*
X107142D01*
Y69550D01*
X107225Y69467D01*
X106808D02*
X106725Y69550D01*
X106559D01*
X106475Y69467D01*
Y69133D01*
X106559Y69050D01*
X106725D01*
X106808Y69133D01*
Y69467D01*
X11183Y56167D02*
X11267Y56250D01*
X11433D01*
X11517Y56167D01*
Y55833D01*
X11433Y55750D01*
X11267D01*
X11183Y55833D01*
X11017D02*
X10933Y55750D01*
X10767D01*
X10683Y55833D01*
Y56167D01*
X10767Y56250D01*
X10933D01*
X11017Y56167D01*
Y56083D01*
X10933Y56000D01*
X10683D01*
X104533Y66367D02*
X104617Y66450D01*
X104783D01*
X104867Y66367D01*
Y66033D01*
X104783Y65950D01*
X104617D01*
X104533Y66033D01*
X104367Y66367D02*
X104283Y66450D01*
X104117D01*
X104033Y66367D01*
Y66283D01*
X104117Y66200D01*
X104033Y66117D01*
Y66033D01*
X104117Y65950D01*
X104283D01*
X104367Y66033D01*
Y66117D01*
X104283Y66200D01*
X104367Y66283D01*
Y66367D01*
X104283Y66200D02*
X104117D01*
X116233Y69017D02*
X116317Y69100D01*
X116483D01*
X116567Y69017D01*
Y68683D01*
X116483Y68600D01*
X116317D01*
X116233Y68683D01*
X116067Y69100D02*
X115733D01*
Y69017D01*
X116067Y68683D01*
Y68600D01*
X11733Y57767D02*
X11817Y57850D01*
X11983D01*
X12067Y57767D01*
Y57433D01*
X11983Y57350D01*
X11817D01*
X11733Y57433D01*
X11233Y57850D02*
X11400Y57767D01*
X11567Y57600D01*
Y57433D01*
X11483Y57350D01*
X11317D01*
X11233Y57433D01*
Y57517D01*
X11317Y57600D01*
X11567D01*
X5383Y61017D02*
X5467Y61100D01*
X5633D01*
X5717Y61017D01*
Y60683D01*
X5633Y60600D01*
X5467D01*
X5383Y60683D01*
X4883Y61100D02*
X5217D01*
Y60850D01*
X5050Y60933D01*
X4967D01*
X4883Y60850D01*
Y60683D01*
X4967Y60600D01*
X5133D01*
X5217Y60683D01*
X88733Y61917D02*
X88817Y62000D01*
X88983D01*
X89067Y61917D01*
Y61583D01*
X88983Y61500D01*
X88817D01*
X88733Y61583D01*
X88567Y61917D02*
X88483Y62000D01*
X88317D01*
X88233Y61917D01*
Y61833D01*
X88317Y61750D01*
X88400D01*
X88317D01*
X88233Y61667D01*
Y61583D01*
X88317Y61500D01*
X88483D01*
X88567Y61583D01*
X20933Y68717D02*
X21017Y68800D01*
X21183D01*
X21267Y68717D01*
Y68383D01*
X21183Y68300D01*
X21017D01*
X20933Y68383D01*
X20433Y68300D02*
X20767D01*
X20433Y68633D01*
Y68717D01*
X20517Y68800D01*
X20683D01*
X20767Y68717D01*
X33642Y68417D02*
X33725Y68500D01*
X33891D01*
X33975Y68417D01*
Y68083D01*
X33891Y68000D01*
X33725D01*
X33642Y68083D01*
X33475Y68000D02*
X33308D01*
X33392D01*
Y68500D01*
X33475Y68417D01*
X32809Y68000D02*
Y68500D01*
X33058Y68250D01*
X32725D01*
X33542Y56067D02*
X33625Y56150D01*
X33791D01*
X33875Y56067D01*
Y55733D01*
X33791Y55650D01*
X33625D01*
X33542Y55733D01*
X33375Y55650D02*
X33208D01*
X33292D01*
Y56150D01*
X33375Y56067D01*
X32958D02*
X32875Y56150D01*
X32709D01*
X32625Y56067D01*
Y55983D01*
X32709Y55900D01*
X32792D01*
X32709D01*
X32625Y55817D01*
Y55733D01*
X32709Y55650D01*
X32875D01*
X32958Y55733D01*
X20450Y59017D02*
X20533Y59100D01*
X20700D01*
X20783Y59017D01*
Y58683D01*
X20700Y58600D01*
X20533D01*
X20450Y58683D01*
X20283Y58600D02*
X20117D01*
X20200D01*
Y59100D01*
X20283Y59017D01*
D15*
X85657Y64406D02*
X85911D01*
X85657Y63694D02*
X85911D01*
X85957Y62156D02*
X86211D01*
X85957Y61444D02*
X86211D01*
X3513Y67492D02*
X4935D01*
X3513Y68508D02*
X4935D01*
X18957Y60556D02*
X19211D01*
X18957Y59844D02*
X19211D01*
X19039Y67656D02*
X19293D01*
X19039Y66944D02*
X19293D01*
X105963Y57542D02*
X107385D01*
X105963Y58558D02*
X107385D01*
X10965Y68708D02*
X12387D01*
X10965Y67692D02*
X12387D01*
X110613Y56992D02*
X112035D01*
X110613Y58008D02*
X112035D01*
X114094Y67839D02*
Y68093D01*
X114806Y67839D02*
Y68093D01*
X44220Y63371D02*
Y63829D01*
X44931Y63371D02*
Y63829D01*
X42340Y63403D02*
Y63861D01*
X43051Y63403D02*
Y63861D01*
X49860Y63321D02*
Y63779D01*
X50571Y63321D02*
Y63779D01*
X47980Y63321D02*
Y63779D01*
X48691Y63321D02*
Y63779D01*
X46100Y63321D02*
Y63779D01*
X46811Y63321D02*
Y63779D01*
X30444Y64307D02*
Y64561D01*
X31156Y64307D02*
Y64561D01*
X31206Y59557D02*
Y59811D01*
X30494Y59557D02*
Y59811D01*
X110370Y68017D02*
Y69083D01*
X7880Y55917D02*
Y56983D01*
X106107Y67444D02*
X106361D01*
X106107Y68156D02*
X106361D01*
X9089Y58856D02*
X9343D01*
X9089Y58144D02*
X9343D01*
X4856Y63257D02*
Y63511D01*
X4144Y63257D02*
Y63511D01*
D16*
X32812Y64342D02*
X34488D01*
X32862Y59558D02*
X34538D01*
D17*
X78804Y67249D02*
Y66742D01*
X78550D01*
X78465Y66826D01*
Y66911D01*
X78550Y66996D01*
X78804D01*
X78550D01*
X78465Y67080D01*
Y67165D01*
X78550Y67249D01*
X78804D01*
X78296D02*
Y66742D01*
X77957D01*
X77449Y67249D02*
X77788D01*
Y66742D01*
X77449D01*
X77788Y66996D02*
X77619D01*
X77280Y66742D02*
X77111D01*
X77195D01*
Y67249D01*
X77280Y67165D01*
D69*
X113600Y60056D02*
G03*
X113600Y60056I-127J0D01*
G01*
X6079Y65944D02*
G03*
X6079Y65944I-127J0D01*
G01*
X62316Y46050D02*
Y63734D01*
X73238D01*
Y46050D02*
Y63734D01*
X62316Y46050D02*
X73238D01*
X108012Y61072D02*
X112838D01*
X107885Y61199D02*
X108012Y61072D01*
X107885Y61199D02*
Y64374D01*
X108012Y64501D01*
X112711D01*
X112965Y64247D01*
Y61199D02*
Y64247D01*
X6587Y64928D02*
X11413D01*
X11540Y64801D01*
Y61626D02*
Y64801D01*
X11413Y61499D02*
X11540Y61626D01*
X6714Y61499D02*
X11413D01*
X6460Y61753D02*
X6714Y61499D01*
X6460Y61753D02*
Y64801D01*
D102*
X96676Y66752D02*
Y66498D01*
X96803D01*
X96845Y66541D01*
Y66710D01*
X96803Y66752D01*
X96676D01*
X97057Y66498D02*
X96972D01*
X96930Y66541D01*
Y66625D01*
X96972Y66668D01*
X97057D01*
X97099Y66625D01*
Y66583D01*
X96930D01*
X97184Y66498D02*
X97311D01*
X97353Y66541D01*
X97311Y66583D01*
X97226D01*
X97184Y66625D01*
X97226Y66668D01*
X97353D01*
X97438Y66498D02*
X97523D01*
X97480D01*
Y66668D01*
X97438D01*
X97734Y66414D02*
X97777D01*
X97819Y66456D01*
Y66668D01*
X97692D01*
X97650Y66625D01*
Y66541D01*
X97692Y66498D01*
X97819D01*
X97903D02*
Y66668D01*
X98030D01*
X98073Y66625D01*
Y66498D01*
X98284D02*
X98200D01*
X98157Y66541D01*
Y66625D01*
X98200Y66668D01*
X98284D01*
X98327Y66625D01*
Y66583D01*
X98157D01*
X98581Y66752D02*
Y66498D01*
X98454D01*
X98411Y66541D01*
Y66625D01*
X98454Y66668D01*
X98581D01*
X98919Y66752D02*
Y66498D01*
X99046D01*
X99088Y66541D01*
Y66583D01*
Y66625D01*
X99046Y66668D01*
X98919D01*
X99173D02*
Y66541D01*
X99215Y66498D01*
X99342D01*
Y66456D01*
X99300Y66414D01*
X99258D01*
X99342Y66498D02*
Y66668D01*
X99427D02*
X99469D01*
Y66625D01*
X99427D01*
Y66668D01*
Y66541D02*
X99469D01*
Y66498D01*
X99427D01*
Y66541D01*
X96676Y66180D02*
X96845D01*
X96761D01*
Y65926D01*
X97057D02*
X96972D01*
X96930Y65969D01*
Y66053D01*
X96972Y66095D01*
X97057D01*
X97099Y66053D01*
Y66011D01*
X96930D01*
X97226Y65926D02*
X97311D01*
X97353Y65969D01*
Y66053D01*
X97311Y66095D01*
X97226D01*
X97184Y66053D01*
Y65969D01*
X97226Y65926D01*
X97607Y66180D02*
Y65926D01*
X97480D01*
X97438Y65969D01*
Y66053D01*
X97480Y66095D01*
X97607D01*
X97734Y65926D02*
X97819D01*
X97861Y65969D01*
Y66053D01*
X97819Y66095D01*
X97734D01*
X97692Y66053D01*
Y65969D01*
X97734Y65926D01*
X97946Y66095D02*
Y65926D01*
Y66011D01*
X97988Y66053D01*
X98030Y66095D01*
X98073D01*
X98454Y65926D02*
Y66180D01*
X98581D01*
X98623Y66138D01*
Y66053D01*
X98581Y66011D01*
X98454D01*
X98538D02*
X98623Y65926D01*
X98750D02*
X98835D01*
X98877Y65969D01*
Y66053D01*
X98835Y66095D01*
X98750D01*
X98708Y66053D01*
Y65969D01*
X98750Y65926D01*
X98961D02*
X99088D01*
X99131Y65969D01*
X99088Y66011D01*
X99004D01*
X98961Y66053D01*
X99004Y66095D01*
X99131D01*
X99258Y65926D02*
X99342D01*
X99385Y65969D01*
Y66053D01*
X99342Y66095D01*
X99258D01*
X99215Y66053D01*
Y65969D01*
X99258Y65926D01*
X99469D02*
X99554D01*
X99512D01*
Y66180D01*
X99469D01*
X99723Y65926D02*
X99808D01*
X99850Y65969D01*
Y66053D01*
X99808Y66095D01*
X99723D01*
X99681Y66053D01*
Y65969D01*
X99723Y65926D01*
X99935Y66095D02*
Y65969D01*
X99977Y65926D01*
X100019Y65969D01*
X100062Y65926D01*
X100104Y65969D01*
Y66095D01*
X100189Y65926D02*
X100316D01*
X100358Y65969D01*
X100316Y66011D01*
X100231D01*
X100189Y66053D01*
X100231Y66095D01*
X100358D01*
X100443Y65926D02*
Y66180D01*
Y66011D02*
X100570Y66095D01*
X100443Y66011D02*
X100570Y65926D01*
X100697D02*
X100781D01*
X100739D01*
Y66095D01*
X100697D01*
M02*
