G04*
G04 #@! TF.GenerationSoftware,Altium Limited,Altium Designer,21.3.2 (30)*
G04*
G04 Layer_Color=128*
%FSLAX43Y43*%
%MOMM*%
G71*
G04*
G04 #@! TF.SameCoordinates,66AE08A6-6C82-4575-8D08-AF68D2AC6B58*
G04*
G04*
G04 #@! TF.FilePolarity,Positive*
G04*
G01*
G75*
%ADD109C,0.051*%
D109*
X52753Y69073D02*
X53053D01*
X52903Y68923D02*
Y69223D01*
X40321Y56571D02*
X40621D01*
X40471Y56421D02*
Y56721D01*
X39450Y51808D02*
X39750D01*
X39600Y51658D02*
Y51958D01*
X66628Y70937D02*
X66928D01*
X66778Y70787D02*
Y71087D01*
X67813Y61829D02*
X68113D01*
X67963Y61679D02*
Y61979D01*
X71050Y59400D02*
X71350D01*
X71200Y59250D02*
Y59550D01*
X70000Y75400D02*
X70300D01*
X70150Y75250D02*
Y75550D01*
X74300Y69750D02*
X74600D01*
X74450Y69600D02*
Y69900D01*
X72850Y63310D02*
X73150D01*
X73000Y63160D02*
Y63460D01*
X63600Y50700D02*
X63900D01*
X63750Y50550D02*
Y50850D01*
X44800Y55237D02*
X45100D01*
X44950Y55087D02*
Y55387D01*
X45738Y51963D02*
X46038D01*
X45888Y51813D02*
Y52113D01*
X42100Y60900D02*
X42400D01*
X42250Y60750D02*
Y61050D01*
X27350Y59450D02*
X27650D01*
X27500Y59300D02*
Y59600D01*
X33700Y64750D02*
X34000D01*
X33850Y64600D02*
Y64900D01*
X92583Y65500D02*
X92883D01*
X92733Y65350D02*
Y65650D01*
X65739Y50732D02*
X66039D01*
X65889Y50582D02*
Y50882D01*
X74645Y52450D02*
X74945D01*
X74795Y52300D02*
Y52600D01*
X70587Y55455D02*
X70887D01*
X70737Y55305D02*
Y55605D01*
X61800Y50450D02*
X62100D01*
X61950Y50300D02*
Y50600D01*
X74000Y67400D02*
X74300D01*
X74150Y67250D02*
Y67550D01*
X47863Y66723D02*
X48163D01*
X48013Y66573D02*
Y66873D01*
X50800Y71100D02*
X51100D01*
X50950Y70950D02*
Y71250D01*
X52998Y75747D02*
X53298D01*
X53148Y75597D02*
Y75897D01*
X67450Y58400D02*
X67750D01*
X67600Y58250D02*
Y58550D01*
X75750Y62100D02*
X76050D01*
X75900Y61950D02*
Y62250D01*
X79237Y61814D02*
X79537D01*
X79387Y61664D02*
Y61964D01*
X81582Y67185D02*
X81882D01*
X81732Y67035D02*
Y67335D01*
M02*
