M48
;Layer_Color=9474304
;FILE_FORMAT=4:3
METRIC,LZ
;TYPE=PLATED
T1F00S00C0.300
T2F00S00C0.400
T4F00S00C0.800
T5F00S00C0.900
T6F00S00C2.000
T7F00S00C2.200
T8F00S00C2.300
%
T01
X000395Y005655
X000285Y0064
X00017Y006645
X00151Y006725
X0031097Y0067193
X0031395Y0057096
X003335Y005905
X0044737Y0060752
X00437Y005555
X0045651Y0050221
X0067529Y0067479
X011455Y0068022
X01063Y00581
T02
X0007476Y0062515
Y0063658
X0009Y0063785
Y0062515
X0010397
Y0063785
X0109028Y0063485
Y0062215
X0110425
Y0063485
X0111949
Y0062342
T04
X003745Y00665
X003945
X004145
T05
X004665Y006937
Y007191
Y007445
Y007699
X005207Y0073
X005461
X005715
X005969
X006223
X006477
T06
X00584Y005045
X008175Y006075
T07
X005845Y006995
Y009495
T08
X-00025Y00535
Y00715
X01194
Y00535
M30
