G04*
G04 #@! TF.GenerationSoftware,Altium Limited,Altium Designer,21.3.2 (30)*
G04*
G04 Layer_Physical_Order=2*
G04 Layer_Color=36540*
%FSLAX43Y43*%
%MOMM*%
G71*
G04*
G04 #@! TF.SameCoordinates,66AE08A6-6C82-4575-8D08-AF68D2AC6B58*
G04*
G04*
G04 #@! TF.FilePolarity,Positive*
G04*
G01*
G75*
%ADD17C,0.203*%
%ADD72C,2.000*%
%ADD78C,0.700*%
%ADD79C,1.500*%
%ADD82C,0.600*%
G36*
X59500Y97900D02*
X60170D01*
X60556Y97513D01*
X60697D01*
X61252Y96959D01*
Y96543D01*
X61450Y96345D01*
Y83600D01*
X61507Y83542D01*
Y82623D01*
X61955Y82175D01*
Y81852D01*
X62702Y81105D01*
X63024D01*
X63472Y80657D01*
X64392D01*
X64450Y80600D01*
X67242D01*
X67446Y80396D01*
X68680D01*
X69279Y79798D01*
X69989D01*
X70948Y78839D01*
X71092D01*
X72211Y77720D01*
Y77290D01*
X72995Y76506D01*
Y75527D01*
X73399Y75123D01*
Y73651D01*
X73450Y73600D01*
X73400Y73550D01*
Y72522D01*
X73678Y72244D01*
Y71610D01*
X74328Y70960D01*
Y70878D01*
X74410D01*
X75060Y70228D01*
X75694D01*
X75922Y70000D01*
X115150D01*
Y72112D01*
X115358Y72320D01*
Y73174D01*
X115962Y73778D01*
Y74072D01*
X116828Y74938D01*
X117122D01*
X117725Y75542D01*
X118579D01*
X118787Y75750D01*
X120012D01*
X120220Y75542D01*
X121074D01*
X121678Y74938D01*
X121972D01*
X122838Y74072D01*
Y73778D01*
X123442Y73174D01*
Y72320D01*
X123650Y72112D01*
Y53500D01*
X123597Y53447D01*
Y52342D01*
X123187Y51931D01*
Y51350D01*
X122405Y50569D01*
Y50495D01*
X122345D01*
X121563Y49713D01*
X120968D01*
X120557Y49302D01*
X119452D01*
X119400Y49250D01*
X119348Y49302D01*
X118242D01*
X117831Y49713D01*
X117250D01*
X116468Y50495D01*
X116395D01*
Y50569D01*
X115613Y51350D01*
Y51931D01*
X115202Y52342D01*
Y53447D01*
X115150Y53500D01*
Y55000D01*
X81450D01*
X81392Y54942D01*
X80473D01*
X80024Y54494D01*
X79702D01*
X78955Y53748D01*
Y53425D01*
X78507Y52977D01*
Y52307D01*
X78450Y52250D01*
Y51722D01*
X78221Y51494D01*
Y50860D01*
X77571Y50210D01*
Y50129D01*
X77490D01*
X76839Y49478D01*
X76206D01*
X75977Y49250D01*
X59325D01*
X59280Y49377D01*
X59505Y49602D01*
X59687Y49917D01*
X59744Y50130D01*
X59813Y50152D01*
X59882Y50155D01*
X59994Y50043D01*
X60150Y49953D01*
X60323Y49907D01*
X60502D01*
X60675Y49953D01*
X60831Y50043D01*
X60957Y50169D01*
X61047Y50325D01*
X61093Y50498D01*
Y50527D01*
X61201D01*
X61375Y50573D01*
X61530Y50663D01*
X61657Y50790D01*
X61746Y50945D01*
X61793Y51118D01*
Y51298D01*
X61746Y51471D01*
X61657Y51626D01*
X61530Y51753D01*
X61375Y51843D01*
X61201Y51889D01*
X61022D01*
X60849Y51843D01*
X60694Y51753D01*
X60567Y51626D01*
X60477Y51471D01*
X60431Y51298D01*
Y51269D01*
X60323D01*
X60150Y51222D01*
X59994Y51132D01*
X59868Y51006D01*
X59830Y50940D01*
X59694Y50958D01*
X59687Y50983D01*
X59505Y51298D01*
X59248Y51555D01*
X58933Y51737D01*
X58582Y51831D01*
X58218D01*
X57867Y51737D01*
X57552Y51555D01*
X57295Y51298D01*
X57113Y50983D01*
X57019Y50632D01*
Y50268D01*
X57113Y49917D01*
X57295Y49602D01*
X57520Y49377D01*
X57475Y49250D01*
X55340D01*
X55315Y49310D01*
X55297Y49377D01*
X55382Y49524D01*
X55428Y49697D01*
Y49806D01*
X55463Y49815D01*
X55618Y49905D01*
X55745Y50032D01*
X55835Y50187D01*
X55881Y50360D01*
Y50540D01*
X55835Y50713D01*
X55745Y50868D01*
X55618Y50995D01*
X55463Y51085D01*
X55290Y51131D01*
X55110D01*
X55087Y51125D01*
X55029Y51170D01*
X54982Y51343D01*
X54893Y51498D01*
X54766Y51625D01*
X54611Y51715D01*
X54437Y51761D01*
X54258D01*
X54085Y51715D01*
X53930Y51625D01*
X53803Y51498D01*
X53713Y51343D01*
X53667Y51170D01*
Y50991D01*
X53713Y50817D01*
X53803Y50662D01*
X53930Y50535D01*
X54085Y50446D01*
X54226Y50408D01*
X54266Y50320D01*
X54270Y50272D01*
X54202Y50205D01*
X54113Y50049D01*
X54066Y49876D01*
Y49697D01*
X54113Y49524D01*
X54197Y49377D01*
X54180Y49310D01*
X54155Y49250D01*
X41450D01*
X41392Y49307D01*
X40472D01*
X40025Y49755D01*
X39702D01*
X38955Y50502D01*
Y50825D01*
X38507Y51273D01*
Y51928D01*
X38450Y51986D01*
Y52527D01*
X38221Y52756D01*
Y53389D01*
X37571Y54040D01*
Y54121D01*
X37490D01*
X36839Y54771D01*
X36206D01*
X35977Y55000D01*
X1750D01*
Y52887D01*
X1542Y52679D01*
Y51826D01*
X938Y51222D01*
Y50928D01*
X72Y50062D01*
X-222D01*
X-826Y49458D01*
X-1680D01*
X-1888Y49250D01*
X-3113D01*
X-3321Y49458D01*
X-4174D01*
X-4778Y50062D01*
X-5072D01*
X-5939Y50928D01*
Y51222D01*
X-6542Y51826D01*
Y52679D01*
X-6750Y52887D01*
Y71500D01*
X-6698Y71552D01*
Y72657D01*
X-6287Y73068D01*
Y73650D01*
X-5505Y74431D01*
Y74505D01*
X-5431D01*
X-4650Y75287D01*
X-4069D01*
X-3658Y75698D01*
X-2553D01*
X-2500Y75750D01*
X-2448Y75698D01*
X-1343D01*
X-932Y75287D01*
X-351D01*
X431Y74505D01*
X505D01*
Y74431D01*
X1287Y73650D01*
Y73068D01*
X1697Y72657D01*
Y71552D01*
X1750Y71500D01*
Y70000D01*
X40450D01*
X40507Y70058D01*
X41427D01*
X41875Y70505D01*
X42198D01*
X42944Y71252D01*
Y71574D01*
X43392Y72022D01*
Y72942D01*
X43450Y73000D01*
Y74393D01*
X43653Y74596D01*
Y75831D01*
X44252Y76429D01*
Y76853D01*
X44689Y77290D01*
Y77839D01*
X45689Y78839D01*
X45952D01*
X46911Y79798D01*
X47621D01*
X48219Y80396D01*
X49454D01*
X49657Y80600D01*
X52978D01*
X53206Y80828D01*
X53839D01*
X54490Y81479D01*
X54571D01*
Y81560D01*
X55222Y82210D01*
Y82844D01*
X55450Y83072D01*
Y95950D01*
X55500Y96000D01*
Y96700D01*
X55886Y97086D01*
Y97197D01*
X56441Y97752D01*
X56857D01*
X57055Y97950D01*
X59450D01*
X59500Y97900D01*
D02*
G37*
%LPC*%
G36*
X58596Y96431D02*
X58304D01*
X58018Y96374D01*
X57748Y96262D01*
X57506Y96100D01*
X57299Y95894D01*
X57137Y95651D01*
X57026Y95382D01*
X56969Y95096D01*
Y94804D01*
X57026Y94518D01*
X57137Y94248D01*
X57299Y94006D01*
X57506Y93799D01*
X57748Y93637D01*
X58018Y93526D01*
X58304Y93469D01*
X58596D01*
X58882Y93526D01*
X59151Y93637D01*
X59394Y93799D01*
X59600Y94006D01*
X59762Y94248D01*
X59874Y94518D01*
X59931Y94804D01*
Y95096D01*
X59874Y95382D01*
X59762Y95651D01*
X59600Y95894D01*
X59394Y96100D01*
X59151Y96262D01*
X58882Y96374D01*
X58596Y96431D01*
D02*
G37*
G36*
X62240Y77897D02*
X62060D01*
X61887Y77851D01*
X61732Y77761D01*
X61605Y77634D01*
X61515Y77479D01*
X61502Y77429D01*
X61408Y77337D01*
X61360Y77350D01*
X61235Y77383D01*
X61056D01*
X60882Y77337D01*
X60788Y77282D01*
X60643Y77331D01*
X60635Y77363D01*
X60545Y77518D01*
X60418Y77645D01*
X60263Y77735D01*
X60090Y77781D01*
X59910D01*
X59737Y77735D01*
X59582Y77645D01*
X59497Y77560D01*
X59352Y77564D01*
X59340Y77573D01*
X59218Y77695D01*
X59063Y77785D01*
X58890Y77831D01*
X58710D01*
X58537Y77785D01*
X58382Y77695D01*
X58255Y77568D01*
X58165Y77413D01*
X58119Y77240D01*
Y77060D01*
X58165Y76887D01*
X58255Y76732D01*
X58382Y76605D01*
X58537Y76515D01*
X58710Y76469D01*
X58890D01*
X59063Y76515D01*
X59218Y76605D01*
X59303Y76690D01*
X59448Y76686D01*
X59460Y76677D01*
X59582Y76555D01*
X59737Y76465D01*
X59910Y76419D01*
X60090D01*
X60263Y76465D01*
X60358Y76520D01*
X60502Y76472D01*
X60511Y76440D01*
X60600Y76284D01*
X60727Y76157D01*
X60882Y76068D01*
X61056Y76021D01*
X61235D01*
X61408Y76068D01*
X61563Y76157D01*
X61690Y76284D01*
X61780Y76440D01*
X61793Y76489D01*
X61887Y76581D01*
X61935Y76569D01*
X62060Y76535D01*
X62240D01*
X62413Y76581D01*
X62568Y76671D01*
X62695Y76798D01*
X62785Y76953D01*
X62831Y77126D01*
Y77306D01*
X62785Y77479D01*
X62695Y77634D01*
X62568Y77761D01*
X62413Y77851D01*
X62240Y77897D01*
D02*
G37*
G36*
X56890Y77431D02*
X56710D01*
X56537Y77385D01*
X56382Y77295D01*
X56255Y77168D01*
X56165Y77013D01*
X56119Y76840D01*
Y76660D01*
X56165Y76487D01*
X56255Y76332D01*
X56382Y76205D01*
X56537Y76115D01*
X56710Y76069D01*
X56890D01*
X57063Y76115D01*
X57218Y76205D01*
X57345Y76332D01*
X57435Y76487D01*
X57481Y76660D01*
Y76840D01*
X57435Y77013D01*
X57345Y77168D01*
X57218Y77295D01*
X57063Y77385D01*
X56890Y77431D01*
D02*
G37*
G36*
X46799Y78121D02*
X46501D01*
X46213Y78044D01*
X45956Y77895D01*
X45745Y77684D01*
X45596Y77427D01*
X45519Y77139D01*
Y76841D01*
X45596Y76553D01*
X45745Y76296D01*
X45956Y76085D01*
X46213Y75936D01*
X46501Y75859D01*
X46799D01*
X47087Y75936D01*
X47344Y76085D01*
X47555Y76296D01*
X47704Y76553D01*
X47781Y76841D01*
Y77139D01*
X47704Y77427D01*
X47555Y77684D01*
X47344Y77895D01*
X47087Y78044D01*
X46799Y78121D01*
D02*
G37*
G36*
Y75581D02*
X46501D01*
X46213Y75504D01*
X45956Y75355D01*
X45745Y75144D01*
X45596Y74887D01*
X45519Y74599D01*
Y74301D01*
X45596Y74013D01*
X45745Y73756D01*
X45956Y73545D01*
X46213Y73396D01*
X46501Y73319D01*
X46799D01*
X47087Y73396D01*
X47344Y73545D01*
X47555Y73756D01*
X47704Y74013D01*
X47781Y74301D01*
Y74599D01*
X47704Y74887D01*
X47555Y75144D01*
X47344Y75355D01*
X47087Y75504D01*
X46799Y75581D01*
D02*
G37*
G36*
X62484Y73971D02*
Y73254D01*
X63201D01*
X63166Y73388D01*
X63033Y73616D01*
X62846Y73803D01*
X62618Y73936D01*
X62484Y73971D01*
D02*
G37*
G36*
X61976Y73971D02*
X61842Y73936D01*
X61614Y73803D01*
X61427Y73616D01*
X61294Y73388D01*
X61259Y73254D01*
X61976D01*
Y73971D01*
D02*
G37*
G36*
X46904Y72881D02*
Y72164D01*
X47621D01*
X47586Y72298D01*
X47453Y72526D01*
X47266Y72713D01*
X47038Y72846D01*
X46904Y72881D01*
D02*
G37*
G36*
X46396Y72881D02*
X46262Y72846D01*
X46034Y72713D01*
X45847Y72526D01*
X45714Y72298D01*
X45679Y72164D01*
X46396D01*
Y72881D01*
D02*
G37*
G36*
X64037Y75478D02*
X63858D01*
X63684Y75432D01*
X63529Y75342D01*
X63402Y75215D01*
X63313Y75060D01*
X63266Y74887D01*
Y74708D01*
X63313Y74534D01*
X63402Y74379D01*
X63529Y74252D01*
X63569Y74229D01*
X63639Y74131D01*
Y71869D01*
X65901D01*
Y74131D01*
X64409D01*
X64373Y74232D01*
X64371Y74258D01*
X64492Y74379D01*
X64582Y74534D01*
X64628Y74708D01*
Y74887D01*
X64582Y75060D01*
X64492Y75215D01*
X64365Y75342D01*
X64210Y75432D01*
X64037Y75478D01*
D02*
G37*
G36*
X59839Y74131D02*
X59541D01*
X59253Y74054D01*
X58996Y73905D01*
X58785Y73694D01*
X58636Y73437D01*
X58559Y73149D01*
Y72851D01*
X58636Y72563D01*
X58785Y72306D01*
X58996Y72095D01*
X59253Y71946D01*
X59541Y71869D01*
X59839D01*
X60127Y71946D01*
X60384Y72095D01*
X60595Y72306D01*
X60744Y72563D01*
X60821Y72851D01*
Y73149D01*
X60744Y73437D01*
X60595Y73694D01*
X60384Y73905D01*
X60127Y74054D01*
X59839Y74131D01*
D02*
G37*
G36*
X54759D02*
X54461D01*
X54173Y74054D01*
X53916Y73905D01*
X53705Y73694D01*
X53556Y73437D01*
X53479Y73149D01*
Y72851D01*
X53556Y72563D01*
X53705Y72306D01*
X53916Y72095D01*
X54173Y71946D01*
X54461Y71869D01*
X54759D01*
X55047Y71946D01*
X55304Y72095D01*
X55515Y72306D01*
X55664Y72563D01*
X55741Y72851D01*
Y73149D01*
X55664Y73437D01*
X55515Y73694D01*
X55304Y73905D01*
X55047Y74054D01*
X54759Y74131D01*
D02*
G37*
G36*
X52219D02*
X51921D01*
X51633Y74054D01*
X51376Y73905D01*
X51165Y73694D01*
X51016Y73437D01*
X50939Y73149D01*
Y72851D01*
X51016Y72563D01*
X51165Y72306D01*
X51376Y72095D01*
X51633Y71946D01*
X51921Y71869D01*
X52219D01*
X52507Y71946D01*
X52764Y72095D01*
X52975Y72306D01*
X53124Y72563D01*
X53201Y72851D01*
Y73149D01*
X53124Y73437D01*
X52975Y73694D01*
X52764Y73905D01*
X52507Y74054D01*
X52219Y74131D01*
D02*
G37*
G36*
X63201Y72746D02*
X62230D01*
X61259D01*
X61294Y72612D01*
X61427Y72384D01*
X61614Y72197D01*
X61842Y72064D01*
X62079Y72001D01*
X62110Y71942D01*
X62126Y71869D01*
X62065Y71808D01*
X62027Y71741D01*
X61927Y71798D01*
X61754Y71845D01*
X61575D01*
X61402Y71798D01*
X61246Y71709D01*
X61119Y71582D01*
X61030Y71427D01*
X60983Y71253D01*
Y71074D01*
X61030Y70901D01*
X61119Y70746D01*
X61246Y70619D01*
X61402Y70529D01*
X61575Y70483D01*
X61754D01*
X61927Y70529D01*
X62083Y70619D01*
X62209Y70746D01*
X62248Y70813D01*
X62347Y70755D01*
X62521Y70709D01*
X62700D01*
X62873Y70755D01*
X63028Y70845D01*
X63155Y70972D01*
X63245Y71127D01*
X63291Y71300D01*
Y71479D01*
X63245Y71653D01*
X63155Y71808D01*
X63028Y71935D01*
X62873Y72024D01*
X62825Y72037D01*
X62807Y72174D01*
X62846Y72197D01*
X63033Y72384D01*
X63166Y72612D01*
X63201Y72746D01*
D02*
G37*
G36*
X47621Y71656D02*
X46904D01*
Y70939D01*
X47038Y70974D01*
X47266Y71107D01*
X47453Y71294D01*
X47586Y71522D01*
X47621Y71656D01*
D02*
G37*
G36*
X46396D02*
X45679D01*
X45714Y71522D01*
X45847Y71294D01*
X46034Y71107D01*
X46262Y70974D01*
X46396Y70939D01*
Y71656D01*
D02*
G37*
G36*
X57299Y74131D02*
X57001D01*
X56713Y74054D01*
X56456Y73905D01*
X56245Y73694D01*
X56096Y73437D01*
X56019Y73149D01*
Y72851D01*
X56096Y72563D01*
X56214Y72360D01*
X56217Y72342D01*
X56188Y72220D01*
X56173Y72198D01*
X56082Y72145D01*
X55955Y72018D01*
X55865Y71863D01*
X55819Y71690D01*
Y71510D01*
X55865Y71337D01*
X55955Y71182D01*
X56082Y71055D01*
X56237Y70965D01*
X56410Y70919D01*
X56590D01*
X56763Y70965D01*
X56918Y71055D01*
X57045Y71182D01*
X57135Y71337D01*
X57181Y71510D01*
Y71690D01*
X57167Y71742D01*
X57264Y71869D01*
X57299D01*
X57587Y71946D01*
X57844Y72095D01*
X58055Y72306D01*
X58204Y72563D01*
X58281Y72851D01*
Y73149D01*
X58204Y73437D01*
X58055Y73694D01*
X57844Y73905D01*
X57587Y74054D01*
X57299Y74131D01*
D02*
G37*
G36*
X-2349Y73031D02*
X-2651D01*
X-2947Y72972D01*
X-3225Y72857D01*
X-3476Y72689D01*
X-3689Y72476D01*
X-3857Y72225D01*
X-3972Y71946D01*
X-4031Y71651D01*
Y71349D01*
X-3972Y71053D01*
X-3857Y70775D01*
X-3689Y70524D01*
X-3476Y70311D01*
X-3225Y70143D01*
X-2947Y70028D01*
X-2651Y69969D01*
X-2349D01*
X-2054Y70028D01*
X-1775Y70143D01*
X-1524Y70311D01*
X-1311Y70524D01*
X-1143Y70775D01*
X-1028Y71053D01*
X-969Y71349D01*
Y71651D01*
X-1028Y71946D01*
X-1143Y72225D01*
X-1311Y72476D01*
X-1524Y72689D01*
X-1775Y72857D01*
X-2054Y72972D01*
X-2349Y73031D01*
D02*
G37*
G36*
X119551Y73031D02*
X119249D01*
X118953Y72972D01*
X118675Y72857D01*
X118424Y72689D01*
X118211Y72476D01*
X118043Y72225D01*
X117928Y71946D01*
X117869Y71651D01*
Y71349D01*
X117928Y71053D01*
X118043Y70775D01*
X118211Y70524D01*
X118424Y70311D01*
X118675Y70143D01*
X118953Y70028D01*
X119249Y69969D01*
X119551D01*
X119846Y70028D01*
X120125Y70143D01*
X120376Y70311D01*
X120589Y70524D01*
X120757Y70775D01*
X120872Y71053D01*
X120931Y71349D01*
Y71651D01*
X120872Y71946D01*
X120757Y72225D01*
X120589Y72476D01*
X120376Y72689D01*
X120125Y72857D01*
X119846Y72972D01*
X119551Y73031D01*
D02*
G37*
G36*
X51567Y70189D02*
X51333D01*
X51107Y70128D01*
X50904Y70011D01*
X50739Y69846D01*
X50622Y69643D01*
X50600Y69564D01*
X50483Y69516D01*
X50450Y69535D01*
X50277Y69581D01*
X50098D01*
X49925Y69535D01*
X49769Y69445D01*
X49642Y69318D01*
X49553Y69163D01*
X49506Y68990D01*
Y68810D01*
X49553Y68637D01*
X49642Y68482D01*
X49769Y68355D01*
X49925Y68265D01*
X50098Y68219D01*
X50277D01*
X50450Y68265D01*
X50606Y68355D01*
X50732Y68482D01*
X50769Y68545D01*
X50851Y68571D01*
X50932Y68573D01*
X51107Y68472D01*
X51333Y68411D01*
X51567D01*
X51793Y68472D01*
X51996Y68589D01*
X52161Y68754D01*
X52278Y68957D01*
X52339Y69183D01*
Y69417D01*
X52278Y69643D01*
X52161Y69846D01*
X51996Y70011D01*
X51793Y70128D01*
X51567Y70189D01*
D02*
G37*
G36*
X65928Y70681D02*
X65749D01*
X65576Y70635D01*
X65421Y70545D01*
X65294Y70418D01*
X65204Y70263D01*
X65158Y70090D01*
Y69910D01*
X65204Y69737D01*
X65294Y69582D01*
X65421Y69455D01*
X65576Y69365D01*
X65749Y69319D01*
X65928D01*
X66102Y69365D01*
X66257Y69455D01*
X66384Y69582D01*
X66473Y69737D01*
X66520Y69910D01*
Y70090D01*
X66473Y70263D01*
X66384Y70418D01*
X66257Y70545D01*
X66102Y70635D01*
X65928Y70681D01*
D02*
G37*
G36*
X54290Y71432D02*
X54110D01*
X53937Y71385D01*
X53782Y71296D01*
X53655Y71169D01*
X53565Y71014D01*
X53519Y70840D01*
Y70661D01*
X53565Y70488D01*
X53655Y70333D01*
X53782Y70206D01*
X53811Y70189D01*
X53767Y70113D01*
X53720Y69940D01*
Y69760D01*
X53767Y69587D01*
X53856Y69432D01*
X53983Y69305D01*
X54138Y69215D01*
X54312Y69169D01*
X54491D01*
X54664Y69215D01*
X54819Y69305D01*
X54946Y69432D01*
X55036Y69587D01*
X55082Y69760D01*
Y69940D01*
X55036Y70113D01*
X54946Y70268D01*
X54819Y70395D01*
X54791Y70412D01*
X54835Y70488D01*
X54881Y70661D01*
Y70840D01*
X54835Y71014D01*
X54745Y71169D01*
X54618Y71296D01*
X54463Y71385D01*
X54290Y71432D01*
D02*
G37*
G36*
X58596Y71431D02*
X58304D01*
X58018Y71374D01*
X57748Y71262D01*
X57506Y71100D01*
X57299Y70894D01*
X57137Y70651D01*
X57026Y70382D01*
X56969Y70096D01*
Y69804D01*
X57026Y69518D01*
X57137Y69248D01*
X57299Y69006D01*
X57506Y68799D01*
X57748Y68637D01*
X58018Y68526D01*
X58304Y68469D01*
X58596D01*
X58882Y68526D01*
X59151Y68637D01*
X59394Y68799D01*
X59600Y69006D01*
X59762Y69248D01*
X59874Y69518D01*
X59931Y69804D01*
Y70096D01*
X59874Y70382D01*
X59762Y70651D01*
X59600Y70894D01*
X59394Y71100D01*
X59151Y71262D01*
X58882Y71374D01*
X58596Y71431D01*
D02*
G37*
G36*
X79940Y69781D02*
X79760D01*
X79587Y69735D01*
X79432Y69645D01*
X79305Y69518D01*
X79215Y69363D01*
X79169Y69190D01*
Y69010D01*
X79215Y68837D01*
X79305Y68682D01*
X79432Y68555D01*
X79587Y68465D01*
X79760Y68419D01*
X79940D01*
X80113Y68465D01*
X80268Y68555D01*
X80395Y68682D01*
X80485Y68837D01*
X80531Y69010D01*
Y69190D01*
X80485Y69363D01*
X80395Y69518D01*
X80268Y69645D01*
X80113Y69735D01*
X79940Y69781D01*
D02*
G37*
G36*
X47781Y70501D02*
X45519D01*
Y68239D01*
X47781D01*
Y70501D01*
D02*
G37*
G36*
X69890Y68751D02*
X69710D01*
X69537Y68705D01*
X69382Y68615D01*
X69255Y68488D01*
X69165Y68333D01*
X69119Y68160D01*
Y67981D01*
X69165Y67807D01*
X69255Y67652D01*
X69382Y67525D01*
X69537Y67436D01*
X69710Y67389D01*
X69890D01*
X70063Y67436D01*
X70218Y67525D01*
X70345Y67652D01*
X70435Y67807D01*
X70481Y67981D01*
Y68160D01*
X70435Y68333D01*
X70345Y68488D01*
X70218Y68615D01*
X70063Y68705D01*
X69890Y68751D01*
D02*
G37*
G36*
X42481Y67531D02*
X40419D01*
Y67138D01*
X40292Y67104D01*
X40275Y67133D01*
X40083Y67325D01*
X39848Y67461D01*
X39586Y67531D01*
X39314D01*
X39052Y67461D01*
X38817Y67325D01*
X38625Y67133D01*
X38522Y66954D01*
X38378D01*
X38275Y67133D01*
X38083Y67325D01*
X37848Y67461D01*
X37586Y67531D01*
X37314D01*
X37052Y67461D01*
X36817Y67325D01*
X36625Y67133D01*
X36489Y66898D01*
X36419Y66636D01*
Y66364D01*
X36489Y66102D01*
X36625Y65867D01*
X36817Y65675D01*
X37052Y65539D01*
X37314Y65469D01*
X37586D01*
X37848Y65539D01*
X38083Y65675D01*
X38275Y65867D01*
X38378Y66046D01*
X38522D01*
X38625Y65867D01*
X38817Y65675D01*
X39052Y65539D01*
X39314Y65469D01*
X39586D01*
X39848Y65539D01*
X40083Y65675D01*
X40275Y65867D01*
X40292Y65896D01*
X40419Y65862D01*
Y65469D01*
X42481D01*
Y67531D01*
D02*
G37*
G36*
X9090Y67831D02*
X8910D01*
X8737Y67785D01*
X8582Y67695D01*
X8455Y67568D01*
X8365Y67413D01*
X8319Y67240D01*
Y67060D01*
X8365Y66887D01*
X8455Y66732D01*
X8582Y66605D01*
X8737Y66515D01*
X8910Y66469D01*
X9090D01*
X9263Y66515D01*
X9418Y66605D01*
X9545Y66732D01*
X9635Y66887D01*
X9681Y67060D01*
Y67240D01*
X9635Y67413D01*
X9545Y67568D01*
X9418Y67695D01*
X9263Y67785D01*
X9090Y67831D01*
D02*
G37*
G36*
X65534Y68531D02*
X65355D01*
X65182Y68485D01*
X65027Y68395D01*
X64900Y68268D01*
X64810Y68113D01*
X64764Y67940D01*
Y67760D01*
X64810Y67587D01*
X64900Y67432D01*
X64909Y67422D01*
X64805Y67318D01*
X64715Y67163D01*
X64669Y66990D01*
Y66810D01*
X64715Y66637D01*
X64805Y66482D01*
X64932Y66355D01*
X65087Y66265D01*
X65260Y66219D01*
X65440D01*
X65613Y66265D01*
X65768Y66355D01*
X65895Y66482D01*
X65985Y66637D01*
X66031Y66810D01*
Y66990D01*
X65985Y67163D01*
X65895Y67318D01*
X65885Y67328D01*
X65990Y67432D01*
X66079Y67587D01*
X66126Y67760D01*
Y67940D01*
X66079Y68113D01*
X65990Y68268D01*
X65863Y68395D01*
X65708Y68485D01*
X65534Y68531D01*
D02*
G37*
G36*
X71190Y67531D02*
X71010D01*
X70837Y67485D01*
X70682Y67395D01*
X70555Y67268D01*
X70465Y67113D01*
X70419Y66940D01*
Y66760D01*
X70465Y66587D01*
X70555Y66432D01*
X70682Y66305D01*
X70837Y66215D01*
X71010Y66169D01*
X71190D01*
X71363Y66215D01*
X71518Y66305D01*
X71645Y66432D01*
X71735Y66587D01*
X71781Y66760D01*
Y66940D01*
X71735Y67113D01*
X71645Y67268D01*
X71518Y67395D01*
X71363Y67485D01*
X71190Y67531D01*
D02*
G37*
G36*
X22790Y67244D02*
X22610D01*
X22437Y67198D01*
X22282Y67108D01*
X22155Y66981D01*
X22065Y66826D01*
X22019Y66653D01*
Y66473D01*
X22065Y66300D01*
X22155Y66145D01*
X22282Y66018D01*
X22437Y65928D01*
X22610Y65882D01*
X22790D01*
X22963Y65928D01*
X23118Y66018D01*
X23245Y66145D01*
X23335Y66300D01*
X23381Y66473D01*
Y66653D01*
X23335Y66826D01*
X23245Y66981D01*
X23118Y67108D01*
X22963Y67198D01*
X22790Y67244D01*
D02*
G37*
G36*
X13440Y67181D02*
X13260D01*
X13087Y67135D01*
X12932Y67045D01*
X12805Y66918D01*
X12715Y66763D01*
X12669Y66590D01*
Y66410D01*
X12715Y66237D01*
X12805Y66082D01*
X12932Y65955D01*
X13087Y65865D01*
X13260Y65819D01*
X13440D01*
X13613Y65865D01*
X13768Y65955D01*
X13895Y66082D01*
X13985Y66237D01*
X14031Y66410D01*
Y66590D01*
X13985Y66763D01*
X13895Y66918D01*
X13768Y67045D01*
X13613Y67135D01*
X13440Y67181D01*
D02*
G37*
G36*
X115050Y66481D02*
X114870D01*
X114697Y66435D01*
X114542Y66345D01*
X114415Y66218D01*
X114325Y66063D01*
X114279Y65890D01*
Y65714D01*
X114258Y65693D01*
X114218Y65663D01*
X114166Y65641D01*
X114025Y65722D01*
X113852Y65769D01*
X113673D01*
X113499Y65722D01*
X113344Y65633D01*
X113217Y65506D01*
X113128Y65351D01*
X113081Y65177D01*
Y64998D01*
X113128Y64825D01*
X113217Y64669D01*
X113344Y64543D01*
X113499Y64453D01*
X113673Y64407D01*
X113852D01*
X114025Y64453D01*
X114181Y64543D01*
X114307Y64669D01*
X114397Y64825D01*
X114443Y64998D01*
Y65174D01*
X114465Y65194D01*
X114504Y65225D01*
X114556Y65247D01*
X114697Y65165D01*
X114870Y65119D01*
X115050D01*
X115223Y65165D01*
X115378Y65255D01*
X115505Y65382D01*
X115595Y65537D01*
X115641Y65710D01*
Y65890D01*
X115595Y66063D01*
X115505Y66218D01*
X115378Y66345D01*
X115223Y66435D01*
X115050Y66481D01*
D02*
G37*
G36*
X19947Y66588D02*
X19768D01*
X19594Y66542D01*
X19439Y66452D01*
X19312Y66325D01*
X19223Y66170D01*
X19176Y65997D01*
Y65818D01*
X19223Y65644D01*
X19312Y65489D01*
X19439Y65362D01*
X19594Y65273D01*
X19768Y65226D01*
X19947D01*
X20120Y65273D01*
X20275Y65362D01*
X20402Y65489D01*
X20492Y65644D01*
X20538Y65818D01*
Y65997D01*
X20492Y66170D01*
X20402Y66325D01*
X20275Y66452D01*
X20120Y66542D01*
X19947Y66588D01*
D02*
G37*
G36*
X105899Y66521D02*
X105720D01*
X105547Y66475D01*
X105391Y66385D01*
X105265Y66259D01*
X105175Y66103D01*
X105129Y65930D01*
Y65751D01*
X105175Y65578D01*
X105265Y65422D01*
X105391Y65295D01*
X105547Y65206D01*
X105594Y65062D01*
X105565Y65013D01*
X105519Y64840D01*
Y64660D01*
X105565Y64487D01*
X105655Y64332D01*
X105782Y64205D01*
X105937Y64115D01*
X106110Y64069D01*
X106290D01*
X106463Y64115D01*
X106618Y64205D01*
X106745Y64332D01*
X106835Y64487D01*
X106881Y64660D01*
Y64840D01*
X106835Y65013D01*
X106745Y65168D01*
X106618Y65295D01*
X106463Y65385D01*
X106416Y65529D01*
X106444Y65578D01*
X106491Y65751D01*
Y65930D01*
X106444Y66103D01*
X106355Y66259D01*
X106228Y66385D01*
X106072Y66475D01*
X105899Y66521D01*
D02*
G37*
G36*
X9254Y64334D02*
Y64039D01*
X9549D01*
X9512Y64127D01*
X9342Y64297D01*
X9254Y64334D01*
D02*
G37*
G36*
X8746Y64334D02*
X8658Y64297D01*
X8488Y64127D01*
X8451Y64039D01*
X8746D01*
Y64334D01*
D02*
G37*
G36*
X10651Y64334D02*
Y64039D01*
X10946D01*
X10909Y64127D01*
X10739Y64297D01*
X10651Y64334D01*
D02*
G37*
G36*
X10143Y64334D02*
X10055Y64297D01*
X9885Y64127D01*
X9848Y64039D01*
X10143D01*
Y64334D01*
D02*
G37*
G36*
X7730Y64207D02*
Y63912D01*
X8025D01*
X7988Y64000D01*
X7818Y64170D01*
X7730Y64207D01*
D02*
G37*
G36*
X7222Y64207D02*
X7134Y64170D01*
X6964Y64000D01*
X6927Y63912D01*
X7222D01*
Y64207D01*
D02*
G37*
G36*
X112203Y64034D02*
Y63739D01*
X112497D01*
X112461Y63827D01*
X112291Y63997D01*
X112203Y64034D01*
D02*
G37*
G36*
X110679D02*
Y63739D01*
X110974D01*
X110937Y63827D01*
X110767Y63997D01*
X110679Y64034D01*
D02*
G37*
G36*
X110171Y64034D02*
X110083Y63997D01*
X109913Y63827D01*
X109877Y63739D01*
X110171D01*
Y64034D01*
D02*
G37*
G36*
X111695D02*
X111607Y63997D01*
X111437Y63827D01*
X111401Y63739D01*
X111695D01*
Y64034D01*
D02*
G37*
G36*
X109282Y64034D02*
Y63739D01*
X109577D01*
X109540Y63827D01*
X109370Y63997D01*
X109282Y64034D01*
D02*
G37*
G36*
X108774Y64034D02*
X108686Y63997D01*
X108516Y63827D01*
X108479Y63739D01*
X108774D01*
Y64034D01*
D02*
G37*
G36*
X71040Y64181D02*
X70860D01*
X70687Y64135D01*
X70532Y64045D01*
X70405Y63918D01*
X70315Y63763D01*
X70311Y63747D01*
X70175Y63729D01*
X70130Y63808D01*
X70003Y63935D01*
X69848Y64024D01*
X69674Y64071D01*
X69495D01*
X69322Y64024D01*
X69167Y63935D01*
X69040Y63808D01*
X68950Y63652D01*
X68904Y63479D01*
Y63300D01*
X68950Y63127D01*
X69040Y62971D01*
X69167Y62845D01*
X69322Y62755D01*
X69495Y62709D01*
X69674D01*
X69848Y62755D01*
X70003Y62845D01*
X70130Y62971D01*
X70219Y63127D01*
X70223Y63142D01*
X70360Y63160D01*
X70405Y63082D01*
X70532Y62955D01*
X70687Y62865D01*
X70860Y62819D01*
X71040D01*
X71213Y62865D01*
X71368Y62955D01*
X71495Y63082D01*
X71585Y63237D01*
X71631Y63410D01*
Y63590D01*
X71585Y63763D01*
X71495Y63918D01*
X71368Y64045D01*
X71213Y64135D01*
X71040Y64181D01*
D02*
G37*
G36*
X75940Y65031D02*
X75760D01*
X75587Y64985D01*
X75432Y64895D01*
X75305Y64768D01*
X75215Y64613D01*
X75169Y64440D01*
Y64260D01*
X75215Y64087D01*
X75305Y63932D01*
X75432Y63805D01*
X75587Y63715D01*
X75760Y63669D01*
X75940D01*
X76113Y63715D01*
X76268Y63805D01*
X76395Y63932D01*
X76485Y64087D01*
X76531Y64260D01*
Y64440D01*
X76485Y64613D01*
X76395Y64768D01*
X76268Y64895D01*
X76113Y64985D01*
X75940Y65031D01*
D02*
G37*
G36*
X80490Y64831D02*
X80310D01*
X80137Y64785D01*
X79982Y64695D01*
X79855Y64568D01*
X79765Y64413D01*
X79719Y64240D01*
Y64060D01*
X79765Y63887D01*
X79855Y63732D01*
X79982Y63605D01*
X80137Y63515D01*
X80310Y63469D01*
X80490D01*
X80663Y63515D01*
X80818Y63605D01*
X80945Y63732D01*
X81035Y63887D01*
X81081Y64060D01*
Y64240D01*
X81035Y64413D01*
X80945Y64568D01*
X80818Y64695D01*
X80663Y64785D01*
X80490Y64831D01*
D02*
G37*
G36*
X83108Y64731D02*
X82929D01*
X82755Y64685D01*
X82600Y64595D01*
X82473Y64468D01*
X82384Y64313D01*
X82337Y64140D01*
Y63960D01*
X82384Y63787D01*
X82473Y63632D01*
X82600Y63505D01*
X82755Y63415D01*
X82929Y63369D01*
X83108D01*
X83281Y63415D01*
X83436Y63505D01*
X83563Y63632D01*
X83653Y63787D01*
X83699Y63960D01*
Y64140D01*
X83653Y64313D01*
X83563Y64468D01*
X83436Y64595D01*
X83281Y64685D01*
X83108Y64731D01*
D02*
G37*
G36*
X93890Y64631D02*
X93710D01*
X93537Y64585D01*
X93382Y64495D01*
X93255Y64368D01*
X93165Y64213D01*
X93119Y64040D01*
Y63860D01*
X93165Y63687D01*
X93255Y63532D01*
X93382Y63405D01*
X93537Y63315D01*
X93710Y63269D01*
X93890D01*
X94063Y63315D01*
X94218Y63405D01*
X94345Y63532D01*
X94435Y63687D01*
X94481Y63860D01*
Y64040D01*
X94435Y64213D01*
X94345Y64368D01*
X94218Y64495D01*
X94063Y64585D01*
X93890Y64631D01*
D02*
G37*
G36*
X24290Y64581D02*
X24110D01*
X23937Y64535D01*
X23782Y64445D01*
X23655Y64318D01*
X23565Y64163D01*
X23519Y63990D01*
Y63810D01*
X23565Y63637D01*
X23655Y63482D01*
X23782Y63355D01*
X23937Y63265D01*
X24110Y63219D01*
X24290D01*
X24463Y63265D01*
X24618Y63355D01*
X24745Y63482D01*
X24835Y63637D01*
X24881Y63810D01*
Y63990D01*
X24835Y64163D01*
X24745Y64318D01*
X24618Y64445D01*
X24463Y64535D01*
X24290Y64581D01*
D02*
G37*
G36*
X45171Y64413D02*
X44991D01*
X44818Y64366D01*
X44663Y64277D01*
X44536Y64150D01*
X44446Y63995D01*
X44400Y63821D01*
Y63642D01*
X44446Y63469D01*
X44536Y63314D01*
X44663Y63187D01*
X44818Y63097D01*
X44991Y63051D01*
X45171D01*
X45344Y63097D01*
X45499Y63187D01*
X45626Y63314D01*
X45716Y63469D01*
X45762Y63642D01*
Y63821D01*
X45716Y63995D01*
X45626Y64150D01*
X45499Y64277D01*
X45344Y64366D01*
X45171Y64413D01*
D02*
G37*
G36*
X88640Y64231D02*
X88460D01*
X88287Y64185D01*
X88132Y64095D01*
X88005Y63968D01*
X87915Y63813D01*
X87869Y63640D01*
Y63460D01*
X87915Y63287D01*
X88005Y63132D01*
X88132Y63005D01*
X88287Y62915D01*
X88460Y62869D01*
X88640D01*
X88813Y62915D01*
X88968Y63005D01*
X89095Y63132D01*
X89185Y63287D01*
X89231Y63460D01*
Y63640D01*
X89185Y63813D01*
X89095Y63968D01*
X88968Y64095D01*
X88813Y64185D01*
X88640Y64231D01*
D02*
G37*
G36*
X42840Y64181D02*
X42660D01*
X42487Y64135D01*
X42332Y64045D01*
X42205Y63918D01*
X42115Y63763D01*
X42069Y63590D01*
Y63410D01*
X42115Y63237D01*
X42205Y63082D01*
X42332Y62955D01*
X42487Y62865D01*
X42660Y62819D01*
X42840D01*
X43013Y62865D01*
X43168Y62955D01*
X43295Y63082D01*
X43385Y63237D01*
X43431Y63410D01*
Y63590D01*
X43385Y63763D01*
X43295Y63918D01*
X43168Y64045D01*
X43013Y64135D01*
X42840Y64181D01*
D02*
G37*
G36*
X9549Y63531D02*
X9000D01*
X8451D01*
X8488Y63443D01*
X8658Y63273D01*
X8789Y63219D01*
Y63081D01*
X8658Y63027D01*
X8488Y62857D01*
X8451Y62769D01*
X9000D01*
X9549D01*
X9512Y62857D01*
X9342Y63027D01*
X9211Y63081D01*
Y63219D01*
X9342Y63273D01*
X9512Y63443D01*
X9549Y63531D01*
D02*
G37*
G36*
X8025Y63404D02*
X7476D01*
X6927D01*
X6964Y63316D01*
X7121Y63159D01*
X7128Y63086D01*
X7121Y63014D01*
X6964Y62857D01*
X6927Y62769D01*
X7476D01*
X8025D01*
X7988Y62857D01*
X7831Y63014D01*
X7824Y63086D01*
X7831Y63159D01*
X7988Y63316D01*
X8025Y63404D01*
D02*
G37*
G36*
X10946Y63531D02*
X10397D01*
X9848D01*
X9885Y63443D01*
X10055Y63273D01*
X10186Y63219D01*
Y63081D01*
X10055Y63027D01*
X9885Y62857D01*
X9848Y62769D01*
X10397D01*
X10946D01*
X10909Y62857D01*
X10739Y63027D01*
X10608Y63081D01*
Y63219D01*
X10739Y63273D01*
X10909Y63443D01*
X10946Y63531D01*
D02*
G37*
G36*
X112498Y63231D02*
X111949D01*
X111400D01*
X111437Y63143D01*
X111594Y62986D01*
X111601Y62914D01*
X111594Y62841D01*
X111437Y62684D01*
X111400Y62596D01*
X111949D01*
X112498D01*
X112461Y62684D01*
X112304Y62841D01*
X112297Y62914D01*
X112304Y62986D01*
X112461Y63143D01*
X112498Y63231D01*
D02*
G37*
G36*
X109821Y63365D02*
Y63365D01*
X109913Y63143D01*
X110083Y62973D01*
X110214Y62919D01*
Y62781D01*
X110083Y62727D01*
X109913Y62557D01*
X109876Y62469D01*
X110425D01*
X110974D01*
X110937Y62557D01*
X110767Y62727D01*
X110636Y62781D01*
Y62919D01*
X110767Y62973D01*
X110937Y63143D01*
X110974Y63231D01*
X110425D01*
X109876D01*
X109821Y63365D01*
D02*
G37*
G36*
X109577Y63231D02*
X109028D01*
X108479D01*
X108516Y63143D01*
X108686Y62973D01*
X108817Y62919D01*
Y62781D01*
X108686Y62727D01*
X108516Y62557D01*
X108479Y62469D01*
X109028D01*
X109577D01*
X109540Y62557D01*
X109370Y62727D01*
X109239Y62781D01*
Y62919D01*
X109370Y62973D01*
X109540Y63143D01*
X109577Y63231D01*
D02*
G37*
G36*
X10143Y62261D02*
X9848D01*
X9885Y62173D01*
X10055Y62003D01*
X10143Y61966D01*
Y62261D01*
D02*
G37*
G36*
X8746Y62261D02*
X8451D01*
X8488Y62173D01*
X8658Y62003D01*
X8746Y61966D01*
Y62261D01*
D02*
G37*
G36*
X7222D02*
X6927D01*
X6964Y62173D01*
X7134Y62003D01*
X7222Y61966D01*
Y62261D01*
D02*
G37*
G36*
X9604Y62635D02*
Y62395D01*
X9549Y62261D01*
X9254D01*
Y61966D01*
X9342Y62003D01*
X9512Y62173D01*
X9604Y62395D01*
Y62635D01*
X9604Y62635D01*
D02*
G37*
G36*
X8025Y62261D02*
X7730D01*
Y61966D01*
X7818Y62003D01*
X7988Y62173D01*
X8025Y62261D01*
D02*
G37*
G36*
X10946Y62261D02*
X10651D01*
Y61966D01*
X10739Y62003D01*
X10909Y62173D01*
X10946Y62261D01*
D02*
G37*
G36*
X111695Y62088D02*
X111400D01*
X111437Y62000D01*
X111607Y61830D01*
X111695Y61793D01*
Y62088D01*
D02*
G37*
G36*
X112498D02*
X112203D01*
Y61793D01*
X112291Y61830D01*
X112461Y62000D01*
X112498Y62088D01*
D02*
G37*
G36*
X74490Y63131D02*
X74310D01*
X74137Y63085D01*
X73982Y62995D01*
X73855Y62868D01*
X73765Y62713D01*
X73719Y62540D01*
Y62360D01*
X73765Y62187D01*
X73855Y62032D01*
X73982Y61905D01*
X74137Y61815D01*
X74310Y61769D01*
X74490D01*
X74663Y61815D01*
X74818Y61905D01*
X74945Y62032D01*
X75035Y62187D01*
X75081Y62360D01*
Y62540D01*
X75035Y62713D01*
X74945Y62868D01*
X74818Y62995D01*
X74663Y63085D01*
X74490Y63131D01*
D02*
G37*
G36*
X110171Y61961D02*
X109876D01*
X109913Y61873D01*
X110083Y61703D01*
X110171Y61666D01*
Y61961D01*
D02*
G37*
G36*
X109577Y61961D02*
X109282D01*
Y61666D01*
X109370Y61703D01*
X109540Y61873D01*
X109577Y61961D01*
D02*
G37*
G36*
X108774D02*
X108479D01*
X108516Y61873D01*
X108686Y61703D01*
X108774Y61666D01*
Y61961D01*
D02*
G37*
G36*
X110974Y61961D02*
X110679D01*
Y61666D01*
X110767Y61703D01*
X110937Y61873D01*
X110974Y61961D01*
D02*
G37*
G36*
X78440Y62681D02*
X78260D01*
X78087Y62635D01*
X77932Y62545D01*
X77805Y62418D01*
X77715Y62263D01*
X77669Y62090D01*
Y61910D01*
X77715Y61737D01*
X77805Y61582D01*
X77932Y61455D01*
X78087Y61365D01*
X78260Y61319D01*
X78440D01*
X78613Y61365D01*
X78768Y61455D01*
X78895Y61582D01*
X78985Y61737D01*
X79031Y61910D01*
Y62090D01*
X78985Y62263D01*
X78895Y62418D01*
X78768Y62545D01*
X78613Y62635D01*
X78440Y62681D01*
D02*
G37*
G36*
X82004Y61980D02*
Y61004D01*
X82980D01*
X82919Y61234D01*
X82753Y61520D01*
X82520Y61753D01*
X82234Y61919D01*
X82004Y61980D01*
D02*
G37*
G36*
X81496D02*
X81266Y61919D01*
X80980Y61753D01*
X80747Y61520D01*
X80581Y61234D01*
X80520Y61004D01*
X81496D01*
Y61980D01*
D02*
G37*
G36*
X67643Y63201D02*
X67464D01*
X67290Y63154D01*
X67135Y63065D01*
X67008Y62938D01*
X66919Y62783D01*
X66872Y62609D01*
Y62430D01*
X66919Y62257D01*
X67008Y62102D01*
X67135Y61975D01*
X67290Y61885D01*
X67326Y61876D01*
Y61744D01*
X67290Y61735D01*
X67135Y61645D01*
X67008Y61518D01*
X66919Y61363D01*
X66872Y61190D01*
Y61010D01*
X66919Y60837D01*
X67008Y60682D01*
X67135Y60555D01*
X67290Y60465D01*
X67464Y60419D01*
X67643D01*
X67816Y60465D01*
X67971Y60555D01*
X68098Y60682D01*
X68188Y60837D01*
X68234Y61010D01*
Y61190D01*
X68188Y61363D01*
X68098Y61518D01*
X67971Y61645D01*
X67816Y61735D01*
X67780Y61744D01*
Y61876D01*
X67816Y61885D01*
X67971Y61975D01*
X68098Y62102D01*
X68188Y62257D01*
X68234Y62430D01*
Y62609D01*
X68188Y62783D01*
X68098Y62938D01*
X67971Y63065D01*
X67816Y63154D01*
X67643Y63201D01*
D02*
G37*
G36*
X73840Y61574D02*
X73660D01*
X73487Y61528D01*
X73332Y61438D01*
X73205Y61311D01*
X73115Y61156D01*
X73069Y60983D01*
Y60804D01*
X73115Y60630D01*
X73205Y60475D01*
X73332Y60348D01*
X73487Y60259D01*
X73660Y60212D01*
X73840D01*
X74013Y60259D01*
X74168Y60348D01*
X74295Y60475D01*
X74385Y60630D01*
X74431Y60804D01*
Y60983D01*
X74385Y61156D01*
X74295Y61311D01*
X74168Y61438D01*
X74013Y61528D01*
X73840Y61574D01*
D02*
G37*
G36*
X93240Y62231D02*
X93061D01*
X92887Y62185D01*
X92732Y62095D01*
X92605Y61968D01*
X92516Y61813D01*
X92469Y61640D01*
Y61461D01*
X92510Y61309D01*
X92537Y61185D01*
X92382Y61095D01*
X92255Y60968D01*
X92165Y60813D01*
X92119Y60640D01*
Y60460D01*
X92165Y60287D01*
X92255Y60132D01*
X92382Y60005D01*
X92537Y59915D01*
X92710Y59869D01*
X92890D01*
X93063Y59915D01*
X93218Y60005D01*
X93345Y60132D01*
X93435Y60287D01*
X93481Y60460D01*
Y60640D01*
X93440Y60791D01*
X93413Y60916D01*
X93568Y61005D01*
X93695Y61132D01*
X93785Y61287D01*
X93831Y61461D01*
Y61640D01*
X93785Y61813D01*
X93695Y61968D01*
X93568Y62095D01*
X93413Y62185D01*
X93240Y62231D01*
D02*
G37*
G36*
X36701Y60193D02*
X36522D01*
X36349Y60146D01*
X36194Y60057D01*
X36067Y59930D01*
X35977Y59775D01*
X35974Y59762D01*
X35838Y59744D01*
X35795Y59818D01*
X35668Y59945D01*
X35513Y60035D01*
X35340Y60081D01*
X35160D01*
X34987Y60035D01*
X34832Y59945D01*
X34705Y59818D01*
X34615Y59663D01*
X34569Y59490D01*
Y59310D01*
X34615Y59137D01*
X34705Y58982D01*
X34832Y58855D01*
X34987Y58765D01*
X35160Y58719D01*
X35340D01*
X35513Y58765D01*
X35668Y58855D01*
X35795Y58982D01*
X35885Y59137D01*
X35888Y59149D01*
X36024Y59167D01*
X36067Y59094D01*
X36194Y58967D01*
X36349Y58877D01*
X36522Y58831D01*
X36701D01*
X36875Y58877D01*
X37030Y58967D01*
X37157Y59094D01*
X37246Y59249D01*
X37293Y59422D01*
Y59601D01*
X37246Y59775D01*
X37157Y59930D01*
X37030Y60057D01*
X36875Y60146D01*
X36701Y60193D01*
D02*
G37*
G36*
X88240Y60931D02*
X88060D01*
X87887Y60885D01*
X87732Y60795D01*
X87605Y60668D01*
X87515Y60513D01*
X87469Y60340D01*
Y60160D01*
X87515Y59987D01*
X87605Y59832D01*
X87732Y59705D01*
X87887Y59615D01*
X88060Y59569D01*
X88240D01*
X88413Y59615D01*
X88568Y59705D01*
X88695Y59832D01*
X88785Y59987D01*
X88831Y60160D01*
Y60340D01*
X88785Y60513D01*
X88695Y60668D01*
X88568Y60795D01*
X88413Y60885D01*
X88240Y60931D01*
D02*
G37*
G36*
X16370Y60931D02*
X16191D01*
X16017Y60885D01*
X15862Y60795D01*
X15735Y60668D01*
X15646Y60513D01*
X15599Y60340D01*
Y60160D01*
X15646Y59987D01*
X15735Y59832D01*
X15862Y59705D01*
X16017Y59615D01*
X16191Y59569D01*
X16370D01*
X16543Y59615D01*
X16698Y59705D01*
X16825Y59832D01*
X16915Y59987D01*
X16961Y60160D01*
Y60340D01*
X16915Y60513D01*
X16825Y60668D01*
X16698Y60795D01*
X16543Y60885D01*
X16370Y60931D01*
D02*
G37*
G36*
X82980Y60496D02*
X82004D01*
Y59520D01*
X82234Y59581D01*
X82520Y59747D01*
X82753Y59980D01*
X82919Y60266D01*
X82980Y60496D01*
D02*
G37*
G36*
X81496D02*
X80520D01*
X80581Y60266D01*
X80747Y59980D01*
X80980Y59747D01*
X81266Y59581D01*
X81496Y59520D01*
Y60496D01*
D02*
G37*
G36*
X84790Y60881D02*
X84610D01*
X84437Y60835D01*
X84282Y60745D01*
X84155Y60618D01*
X84065Y60463D01*
X84019Y60290D01*
Y60110D01*
X84065Y59937D01*
X84155Y59782D01*
X84282Y59655D01*
X84437Y59565D01*
X84610Y59519D01*
X84790D01*
X84963Y59565D01*
X85118Y59655D01*
X85245Y59782D01*
X85335Y59937D01*
X85381Y60110D01*
Y60290D01*
X85335Y60463D01*
X85245Y60618D01*
X85118Y60745D01*
X84963Y60835D01*
X84790Y60881D01*
D02*
G37*
G36*
X23490Y60581D02*
X23310D01*
X23137Y60535D01*
X22982Y60445D01*
X22855Y60318D01*
X22765Y60163D01*
X22719Y59990D01*
Y59810D01*
X22765Y59637D01*
X22855Y59482D01*
X22982Y59355D01*
X23137Y59265D01*
X23310Y59219D01*
X23490D01*
X23663Y59265D01*
X23818Y59355D01*
X23945Y59482D01*
X24035Y59637D01*
X24081Y59810D01*
Y59990D01*
X24035Y60163D01*
X23945Y60318D01*
X23818Y60445D01*
X23663Y60535D01*
X23490Y60581D01*
D02*
G37*
G36*
X75653Y60570D02*
X75474D01*
X75301Y60523D01*
X75145Y60434D01*
X75019Y60307D01*
X74929Y60152D01*
X74883Y59978D01*
Y59799D01*
X74929Y59626D01*
X75019Y59471D01*
X75145Y59344D01*
X75301Y59254D01*
X75474Y59208D01*
X75653D01*
X75826Y59254D01*
X75982Y59344D01*
X76109Y59471D01*
X76198Y59626D01*
X76245Y59799D01*
Y59978D01*
X76198Y60152D01*
X76109Y60307D01*
X75982Y60434D01*
X75826Y60523D01*
X75653Y60570D01*
D02*
G37*
G36*
X86640Y60481D02*
X86460D01*
X86287Y60435D01*
X86132Y60345D01*
X86005Y60218D01*
X85915Y60063D01*
X85869Y59890D01*
Y59710D01*
X85915Y59537D01*
X86005Y59382D01*
X86132Y59255D01*
X86287Y59165D01*
X86460Y59119D01*
X86640D01*
X86813Y59165D01*
X86968Y59255D01*
X87095Y59382D01*
X87185Y59537D01*
X87231Y59710D01*
Y59890D01*
X87185Y60063D01*
X87095Y60218D01*
X86968Y60345D01*
X86813Y60435D01*
X86640Y60481D01*
D02*
G37*
G36*
X73940Y59730D02*
X73760D01*
X73587Y59683D01*
X73432Y59594D01*
X73305Y59467D01*
X73215Y59311D01*
X73169Y59138D01*
Y58959D01*
X73215Y58786D01*
X73305Y58630D01*
X73432Y58504D01*
X73587Y58414D01*
X73760Y58368D01*
X73940D01*
X74113Y58414D01*
X74268Y58504D01*
X74395Y58630D01*
X74485Y58786D01*
X74531Y58959D01*
Y59138D01*
X74485Y59311D01*
X74395Y59467D01*
X74268Y59594D01*
X74113Y59683D01*
X73940Y59730D01*
D02*
G37*
G36*
X5790Y59731D02*
X5610D01*
X5437Y59685D01*
X5282Y59595D01*
X5155Y59468D01*
X5065Y59313D01*
X5019Y59140D01*
Y58960D01*
X5065Y58787D01*
X5155Y58632D01*
X5282Y58505D01*
X5437Y58415D01*
X5610Y58369D01*
X5790D01*
X5963Y58415D01*
X6118Y58505D01*
X6245Y58632D01*
X6262Y58662D01*
X6409D01*
X6455Y58582D01*
X6582Y58455D01*
X6737Y58365D01*
X6910Y58319D01*
X7090D01*
X7263Y58365D01*
X7418Y58455D01*
X7545Y58582D01*
X7635Y58737D01*
X7681Y58910D01*
Y59090D01*
X7635Y59263D01*
X7545Y59418D01*
X7418Y59545D01*
X7263Y59635D01*
X7090Y59681D01*
X6910D01*
X6737Y59635D01*
X6582Y59545D01*
X6455Y59418D01*
X6438Y59388D01*
X6291D01*
X6245Y59468D01*
X6118Y59595D01*
X5963Y59685D01*
X5790Y59731D01*
D02*
G37*
G36*
X40347Y59457D02*
X40167D01*
X39994Y59411D01*
X39839Y59321D01*
X39712Y59194D01*
X39622Y59039D01*
X39576Y58866D01*
Y58686D01*
X39622Y58513D01*
X39712Y58358D01*
X39839Y58231D01*
X39994Y58141D01*
X40167Y58095D01*
X40347D01*
X40520Y58141D01*
X40675Y58231D01*
X40802Y58358D01*
X40892Y58513D01*
X40938Y58686D01*
Y58866D01*
X40892Y59039D01*
X40802Y59194D01*
X40675Y59321D01*
X40520Y59411D01*
X40347Y59457D01*
D02*
G37*
G36*
X24632Y59181D02*
X24453D01*
X24280Y59135D01*
X24125Y59045D01*
X23998Y58918D01*
X23908Y58763D01*
X23862Y58590D01*
Y58410D01*
X23908Y58237D01*
X23998Y58082D01*
X24125Y57955D01*
X24280Y57865D01*
X24453Y57819D01*
X24632D01*
X24806Y57865D01*
X24961Y57955D01*
X25088Y58082D01*
X25177Y58237D01*
X25224Y58410D01*
Y58590D01*
X25177Y58763D01*
X25088Y58918D01*
X24961Y59045D01*
X24806Y59135D01*
X24632Y59181D01*
D02*
G37*
G36*
X44679Y59143D02*
X44500D01*
X44327Y59096D01*
X44171Y59007D01*
X44045Y58880D01*
X43959Y58731D01*
X43810D01*
X43637Y58685D01*
X43482Y58595D01*
X43355Y58468D01*
X43265Y58313D01*
X43219Y58140D01*
Y57960D01*
X43265Y57787D01*
X43355Y57632D01*
X43482Y57505D01*
X43637Y57415D01*
X43810Y57369D01*
X43990D01*
X44163Y57415D01*
X44318Y57505D01*
X44445Y57632D01*
X44531Y57781D01*
X44679D01*
X44852Y57827D01*
X45008Y57917D01*
X45130Y58039D01*
X45202Y58041D01*
X45270Y58025D01*
X45351Y57886D01*
X45477Y57759D01*
X45633Y57670D01*
X45806Y57623D01*
X45985D01*
X46158Y57670D01*
X46314Y57759D01*
X46441Y57886D01*
X46530Y58042D01*
X46577Y58215D01*
Y58394D01*
X46530Y58567D01*
X46441Y58723D01*
X46314Y58849D01*
X46158Y58939D01*
X45985Y58985D01*
X45806D01*
X45633Y58939D01*
X45477Y58849D01*
X45355Y58727D01*
X45283Y58725D01*
X45215Y58741D01*
X45135Y58880D01*
X45008Y59007D01*
X44852Y59096D01*
X44679Y59143D01*
D02*
G37*
G36*
X14640Y58981D02*
X14460D01*
X14287Y58935D01*
X14132Y58845D01*
X14005Y58718D01*
X13915Y58563D01*
X13869Y58390D01*
Y58210D01*
X13915Y58037D01*
X14005Y57882D01*
X14132Y57755D01*
X14287Y57665D01*
X14460Y57619D01*
X14640D01*
X14813Y57665D01*
X14968Y57755D01*
X15095Y57882D01*
X15185Y58037D01*
X15231Y58210D01*
Y58390D01*
X15185Y58563D01*
X15095Y58718D01*
X14968Y58845D01*
X14813Y58935D01*
X14640Y58981D01*
D02*
G37*
G36*
X12785Y60370D02*
X12606D01*
X12432Y60324D01*
X12277Y60234D01*
X12150Y60107D01*
X12061Y59952D01*
X12014Y59779D01*
Y59599D01*
X12061Y59426D01*
X12150Y59271D01*
X12277Y59144D01*
X12432Y59054D01*
X12402Y58931D01*
X12360D01*
X12187Y58885D01*
X12032Y58795D01*
X11905Y58668D01*
X11815Y58513D01*
X11769Y58340D01*
Y58160D01*
X11815Y57987D01*
X11905Y57832D01*
X12032Y57705D01*
X12187Y57615D01*
X12360Y57569D01*
X12540D01*
X12713Y57615D01*
X12868Y57705D01*
X12995Y57832D01*
X13085Y57987D01*
X13131Y58160D01*
Y58340D01*
X13085Y58513D01*
X12995Y58668D01*
X12868Y58795D01*
X12713Y58885D01*
X12743Y59008D01*
X12785D01*
X12958Y59054D01*
X13113Y59144D01*
X13240Y59271D01*
X13330Y59426D01*
X13376Y59599D01*
Y59779D01*
X13330Y59952D01*
X13240Y60107D01*
X13113Y60234D01*
X12958Y60324D01*
X12785Y60370D01*
D02*
G37*
G36*
X78543Y58438D02*
X78364D01*
X78191Y58391D01*
X78035Y58302D01*
X77909Y58175D01*
X77819Y58020D01*
X77773Y57846D01*
Y57667D01*
X77819Y57494D01*
X77909Y57339D01*
X78035Y57212D01*
X78191Y57122D01*
X78364Y57076D01*
X78543D01*
X78716Y57122D01*
X78872Y57212D01*
X78998Y57339D01*
X79088Y57494D01*
X79135Y57667D01*
Y57846D01*
X79088Y58020D01*
X78998Y58175D01*
X78872Y58302D01*
X78716Y58391D01*
X78543Y58438D01*
D02*
G37*
G36*
X95440Y57592D02*
X95260D01*
X95087Y57546D01*
X94932Y57456D01*
X94805Y57329D01*
X94715Y57174D01*
X94672Y57012D01*
X94630Y56992D01*
X94542Y56971D01*
X94449Y57064D01*
X94294Y57154D01*
X94120Y57200D01*
X93941D01*
X93768Y57154D01*
X93613Y57064D01*
X93486Y56937D01*
X93396Y56782D01*
X93350Y56609D01*
Y56430D01*
X93396Y56256D01*
X93486Y56101D01*
X93613Y55974D01*
X93768Y55885D01*
X93941Y55838D01*
X94120D01*
X94294Y55885D01*
X94449Y55974D01*
X94576Y56101D01*
X94665Y56256D01*
X94709Y56419D01*
X94751Y56439D01*
X94839Y56459D01*
X94932Y56366D01*
X95087Y56277D01*
X95260Y56230D01*
X95440D01*
X95613Y56277D01*
X95768Y56366D01*
X95895Y56493D01*
X95985Y56648D01*
X96031Y56822D01*
Y57001D01*
X95985Y57174D01*
X95895Y57329D01*
X95768Y57456D01*
X95613Y57546D01*
X95440Y57592D01*
D02*
G37*
G36*
X71190Y58331D02*
X71010D01*
X70837Y58285D01*
X70682Y58195D01*
X70555Y58068D01*
X70465Y57913D01*
X70419Y57740D01*
Y57560D01*
X70430Y57518D01*
X70307Y57485D01*
X70151Y57395D01*
X70025Y57268D01*
X69935Y57113D01*
X69889Y56940D01*
Y56760D01*
X69935Y56587D01*
X70025Y56432D01*
X70151Y56305D01*
X70307Y56215D01*
X70480Y56169D01*
X70659D01*
X70832Y56215D01*
X70988Y56305D01*
X71114Y56432D01*
X71204Y56587D01*
X71251Y56760D01*
Y56940D01*
X71239Y56982D01*
X71363Y57015D01*
X71518Y57105D01*
X71645Y57232D01*
X71735Y57387D01*
X71781Y57560D01*
Y57740D01*
X71735Y57913D01*
X71645Y58068D01*
X71518Y58195D01*
X71363Y58285D01*
X71190Y58331D01*
D02*
G37*
G36*
X46390Y57082D02*
X46210D01*
X46037Y57036D01*
X45882Y56946D01*
X45755Y56819D01*
X45665Y56664D01*
X45619Y56491D01*
Y56312D01*
X45665Y56138D01*
X45755Y55983D01*
X45882Y55856D01*
X46037Y55767D01*
X46210Y55720D01*
X46390D01*
X46563Y55767D01*
X46718Y55856D01*
X46845Y55983D01*
X46935Y56138D01*
X46981Y56312D01*
Y56491D01*
X46935Y56664D01*
X46845Y56819D01*
X46718Y56946D01*
X46563Y57036D01*
X46390Y57082D01*
D02*
G37*
G36*
X82490Y57811D02*
X82310D01*
X82137Y57765D01*
X81982Y57675D01*
X81855Y57548D01*
X81765Y57393D01*
X81719Y57220D01*
Y57041D01*
X81765Y56867D01*
X81855Y56712D01*
X81982Y56585D01*
X82137Y56496D01*
X82310Y56449D01*
X82357D01*
X82435Y56348D01*
X82419Y56290D01*
Y56110D01*
X82465Y55937D01*
X82555Y55782D01*
X82682Y55655D01*
X82837Y55565D01*
X83010Y55519D01*
X83190D01*
X83363Y55565D01*
X83518Y55655D01*
X83645Y55782D01*
X83735Y55937D01*
X83781Y56110D01*
Y56290D01*
X83735Y56463D01*
X83645Y56618D01*
X83518Y56745D01*
X83363Y56835D01*
X83190Y56881D01*
X83143D01*
X83065Y56982D01*
X83081Y57041D01*
Y57220D01*
X83035Y57393D01*
X82945Y57548D01*
X82818Y57675D01*
X82663Y57765D01*
X82490Y57811D01*
D02*
G37*
G36*
X75708Y57724D02*
X75528D01*
X75355Y57677D01*
X75200Y57587D01*
X75073Y57461D01*
X74983Y57305D01*
X74937Y57132D01*
Y56953D01*
X74983Y56780D01*
X75073Y56624D01*
X75183Y56515D01*
X75185Y56445D01*
X75164Y56371D01*
X75032Y56295D01*
X74905Y56168D01*
X74815Y56013D01*
X74769Y55840D01*
Y55660D01*
X74815Y55487D01*
X74905Y55332D01*
X75032Y55205D01*
X75187Y55115D01*
X75360Y55069D01*
X75540D01*
X75713Y55115D01*
X75868Y55205D01*
X75995Y55332D01*
X76085Y55487D01*
X76131Y55660D01*
Y55719D01*
X76190D01*
X76363Y55765D01*
X76518Y55855D01*
X76645Y55982D01*
X76735Y56137D01*
X76781Y56310D01*
Y56490D01*
X76735Y56663D01*
X76645Y56818D01*
X76518Y56945D01*
X76363Y57035D01*
X76299Y57052D01*
Y57132D01*
X76253Y57305D01*
X76163Y57461D01*
X76036Y57587D01*
X75881Y57677D01*
X75708Y57724D01*
D02*
G37*
G36*
X49756Y56689D02*
X49522D01*
X49296Y56628D01*
X49093Y56511D01*
X48927Y56346D01*
X48810Y56143D01*
X48750Y55917D01*
Y55683D01*
X48810Y55457D01*
X48927Y55254D01*
X49093Y55089D01*
X49296Y54972D01*
X49522Y54911D01*
X49756D01*
X49982Y54972D01*
X50185Y55089D01*
X50350Y55254D01*
X50467Y55457D01*
X50528Y55683D01*
Y55917D01*
X50467Y56143D01*
X50350Y56346D01*
X50185Y56511D01*
X49982Y56628D01*
X49756Y56689D01*
D02*
G37*
G36*
X67990Y56131D02*
X67810D01*
X67637Y56085D01*
X67482Y55995D01*
X67355Y55868D01*
X67265Y55713D01*
X67219Y55540D01*
Y55360D01*
X67265Y55187D01*
X67355Y55032D01*
X67482Y54905D01*
X67637Y54815D01*
X67810Y54769D01*
X67990D01*
X68163Y54815D01*
X68318Y54905D01*
X68445Y55032D01*
X68535Y55187D01*
X68581Y55360D01*
Y55540D01*
X68535Y55713D01*
X68445Y55868D01*
X68318Y55995D01*
X68163Y56085D01*
X67990Y56131D01*
D02*
G37*
G36*
X41990Y55981D02*
X41810D01*
X41637Y55935D01*
X41482Y55845D01*
X41355Y55718D01*
X41265Y55563D01*
X41219Y55390D01*
Y55210D01*
X41265Y55037D01*
X41355Y54882D01*
X41482Y54755D01*
X41637Y54665D01*
X41810Y54619D01*
X41990D01*
X42163Y54665D01*
X42318Y54755D01*
X42445Y54882D01*
X42535Y55037D01*
X42581Y55210D01*
Y55390D01*
X42535Y55563D01*
X42445Y55718D01*
X42318Y55845D01*
X42163Y55935D01*
X41990Y55981D01*
D02*
G37*
G36*
X52990Y54481D02*
X52810D01*
X52637Y54435D01*
X52482Y54345D01*
X52355Y54218D01*
X52265Y54063D01*
X52219Y53890D01*
Y53710D01*
X52265Y53537D01*
X52355Y53382D01*
X52482Y53255D01*
X52637Y53165D01*
X52810Y53119D01*
X52990D01*
X53163Y53165D01*
X53318Y53255D01*
X53445Y53382D01*
X53535Y53537D01*
X53581Y53710D01*
Y53890D01*
X53535Y54063D01*
X53445Y54218D01*
X53318Y54345D01*
X53163Y54435D01*
X52990Y54481D01*
D02*
G37*
G36*
X69200Y54365D02*
X69021D01*
X68847Y54319D01*
X68692Y54229D01*
X68565Y54102D01*
X68476Y53947D01*
X68429Y53774D01*
Y53595D01*
X68476Y53421D01*
X68565Y53266D01*
X68692Y53139D01*
X68847Y53050D01*
X69021Y53003D01*
X69200D01*
X69373Y53050D01*
X69528Y53139D01*
X69655Y53266D01*
X69745Y53421D01*
X69791Y53595D01*
Y53774D01*
X69745Y53947D01*
X69655Y54102D01*
X69528Y54229D01*
X69373Y54319D01*
X69200Y54365D01*
D02*
G37*
G36*
X57097Y54182D02*
X56917D01*
X56744Y54136D01*
X56589Y54046D01*
X56462Y53920D01*
X56372Y53764D01*
X56326Y53591D01*
Y53412D01*
X56372Y53239D01*
X56462Y53083D01*
X56589Y52956D01*
X56744Y52867D01*
X56917Y52820D01*
X57097D01*
X57270Y52867D01*
X57425Y52956D01*
X57510Y53041D01*
X57654Y53037D01*
X57667Y53028D01*
X57788Y52907D01*
X57943Y52818D01*
X58116Y52771D01*
X58295D01*
X58469Y52818D01*
X58624Y52907D01*
X58751Y53034D01*
X58840Y53190D01*
X58887Y53363D01*
Y53542D01*
X58840Y53715D01*
X58751Y53871D01*
X58624Y53997D01*
X58469Y54087D01*
X58295Y54133D01*
X58116D01*
X57943Y54087D01*
X57788Y53997D01*
X57703Y53912D01*
X57559Y53917D01*
X57546Y53926D01*
X57425Y54046D01*
X57270Y54136D01*
X57097Y54182D01*
D02*
G37*
G36*
X47444Y53844D02*
X47265D01*
X47092Y53797D01*
X46937Y53708D01*
X46810Y53581D01*
X46720Y53425D01*
X46674Y53252D01*
Y53073D01*
X46720Y52900D01*
X46810Y52744D01*
X46937Y52618D01*
X47092Y52528D01*
X47265Y52482D01*
X47444D01*
X47618Y52528D01*
X47773Y52618D01*
X47900Y52744D01*
X47989Y52900D01*
X48036Y53073D01*
Y53252D01*
X47989Y53425D01*
X47900Y53581D01*
X47773Y53708D01*
X47618Y53797D01*
X47444Y53844D01*
D02*
G37*
G36*
X45640Y53581D02*
X45460D01*
X45287Y53535D01*
X45132Y53445D01*
X45005Y53318D01*
X44915Y53163D01*
X44869Y52990D01*
Y52810D01*
X44915Y52637D01*
X45005Y52482D01*
X45132Y52355D01*
X45287Y52265D01*
X45460Y52219D01*
X45640D01*
X45813Y52265D01*
X45968Y52355D01*
X46095Y52482D01*
X46185Y52637D01*
X46231Y52810D01*
Y52990D01*
X46185Y53163D01*
X46095Y53318D01*
X45968Y53445D01*
X45813Y53535D01*
X45640Y53581D01*
D02*
G37*
G36*
X-2349Y55031D02*
X-2651D01*
X-2947Y54972D01*
X-3225Y54857D01*
X-3476Y54689D01*
X-3689Y54476D01*
X-3857Y54225D01*
X-3972Y53946D01*
X-4031Y53651D01*
Y53349D01*
X-3972Y53053D01*
X-3857Y52775D01*
X-3689Y52524D01*
X-3476Y52311D01*
X-3225Y52143D01*
X-2947Y52028D01*
X-2651Y51969D01*
X-2349D01*
X-2054Y52028D01*
X-1775Y52143D01*
X-1524Y52311D01*
X-1311Y52524D01*
X-1143Y52775D01*
X-1028Y53053D01*
X-969Y53349D01*
Y53651D01*
X-1028Y53946D01*
X-1143Y54225D01*
X-1311Y54476D01*
X-1524Y54689D01*
X-1775Y54857D01*
X-2054Y54972D01*
X-2349Y55031D01*
D02*
G37*
G36*
X119551Y55031D02*
X119249D01*
X118953Y54972D01*
X118675Y54857D01*
X118424Y54689D01*
X118211Y54476D01*
X118043Y54225D01*
X117928Y53946D01*
X117869Y53651D01*
Y53349D01*
X117928Y53053D01*
X118043Y52775D01*
X118211Y52524D01*
X118424Y52311D01*
X118675Y52143D01*
X118953Y52028D01*
X119249Y51969D01*
X119551D01*
X119846Y52028D01*
X120125Y52143D01*
X120376Y52311D01*
X120589Y52524D01*
X120757Y52775D01*
X120872Y53053D01*
X120931Y53349D01*
Y53651D01*
X120872Y53946D01*
X120757Y54225D01*
X120589Y54476D01*
X120376Y54689D01*
X120125Y54857D01*
X119846Y54972D01*
X119551Y55031D01*
D02*
G37*
G36*
X67040Y52731D02*
X66860D01*
X66687Y52685D01*
X66532Y52595D01*
X66405Y52468D01*
X66315Y52313D01*
X66269Y52140D01*
Y51960D01*
X66315Y51787D01*
X66405Y51632D01*
X66532Y51505D01*
X66687Y51415D01*
X66860Y51369D01*
X67040D01*
X67213Y51415D01*
X67368Y51505D01*
X67495Y51632D01*
X67585Y51787D01*
X67631Y51960D01*
Y52140D01*
X67585Y52313D01*
X67495Y52468D01*
X67368Y52595D01*
X67213Y52685D01*
X67040Y52731D01*
D02*
G37*
G36*
X50440Y52131D02*
X50260D01*
X50087Y52085D01*
X49932Y51995D01*
X49805Y51868D01*
X49715Y51713D01*
X49669Y51540D01*
Y51360D01*
X49715Y51187D01*
X49805Y51032D01*
X49932Y50905D01*
X50087Y50815D01*
X50260Y50769D01*
X50440D01*
X50613Y50815D01*
X50768Y50905D01*
X50895Y51032D01*
X50985Y51187D01*
X51031Y51360D01*
Y51540D01*
X50985Y51713D01*
X50895Y51868D01*
X50768Y51995D01*
X50613Y52085D01*
X50440Y52131D01*
D02*
G37*
G36*
X69990Y52344D02*
X69811D01*
X69638Y52298D01*
X69483Y52208D01*
X69356Y52082D01*
X69266Y51926D01*
X69220Y51753D01*
Y51574D01*
X69266Y51401D01*
X69356Y51245D01*
X69387Y51214D01*
X69345Y51076D01*
X69222Y51005D01*
X69095Y50878D01*
X69005Y50723D01*
X68959Y50550D01*
Y50370D01*
X69005Y50197D01*
X69095Y50042D01*
X69222Y49915D01*
X69377Y49825D01*
X69550Y49779D01*
X69730D01*
X69903Y49825D01*
X70058Y49915D01*
X70185Y50042D01*
X70275Y50197D01*
X70321Y50370D01*
Y50550D01*
X70275Y50723D01*
X70185Y50878D01*
X70154Y50909D01*
X70195Y51047D01*
X70319Y51118D01*
X70446Y51245D01*
X70535Y51401D01*
X70582Y51574D01*
Y51753D01*
X70535Y51926D01*
X70446Y52082D01*
X70319Y52208D01*
X70164Y52298D01*
X69990Y52344D01*
D02*
G37*
%LPD*%
D17*
X39600Y51808D02*
X39708Y51700D01*
X66753Y70937D02*
X66778D01*
X73000Y63250D02*
Y63310D01*
X44737Y60752D02*
X44748D01*
X30999Y67170D02*
X31022Y67193D01*
X31097D01*
X31395Y57096D02*
Y57096D01*
X92733Y65500D02*
X92835Y65399D01*
X65889Y50732D02*
X65956Y50800D01*
D72*
X81750Y60750D02*
D03*
D78*
X109028Y63485D02*
D03*
Y62215D02*
D03*
X110425Y63485D02*
D03*
Y62215D02*
D03*
X111949Y63485D02*
D03*
Y62342D02*
D03*
X10397Y62515D02*
D03*
Y63785D02*
D03*
X9000Y62515D02*
D03*
Y63785D02*
D03*
X7476Y62515D02*
D03*
Y63658D02*
D03*
D79*
X46650Y71910D02*
D03*
X62230Y73000D02*
D03*
D82*
X52903Y69073D02*
D03*
X40471Y56571D02*
D03*
X39600Y51808D02*
D03*
X45651Y50221D02*
D03*
X66778Y70937D02*
D03*
X114550Y68022D02*
D03*
X106300Y58100D02*
D03*
X67963Y61829D02*
D03*
X71200Y59400D02*
D03*
X70150Y75400D02*
D03*
X74450Y69750D02*
D03*
X73000Y63310D02*
D03*
X63750Y50700D02*
D03*
X44737Y60752D02*
D03*
X44950Y55237D02*
D03*
X45888Y51963D02*
D03*
X42250Y60900D02*
D03*
X27500Y59450D02*
D03*
X33350Y59050D02*
D03*
X33850Y64750D02*
D03*
X31097Y67193D02*
D03*
X31395Y57096D02*
D03*
X3950Y56550D02*
D03*
X1700Y66450D02*
D03*
X2850Y64000D02*
D03*
X15100Y67250D02*
D03*
X43700Y55550D02*
D03*
X92733Y65500D02*
D03*
X67529Y67479D02*
D03*
X65889Y50732D02*
D03*
X74795Y52450D02*
D03*
X70737Y55455D02*
D03*
X61950Y50450D02*
D03*
X74150Y67400D02*
D03*
X48013Y66723D02*
D03*
X50950Y71100D02*
D03*
X53148Y75747D02*
D03*
X67600Y58400D02*
D03*
X75900Y62100D02*
D03*
X79387Y61814D02*
D03*
X81732Y67185D02*
D03*
M02*
