G04*
G04 #@! TF.GenerationSoftware,Altium Limited,Altium Designer,21.3.2 (30)*
G04*
G04 Layer_Color=16711935*
%FSLAX43Y43*%
%MOMM*%
G71*
G04*
G04 #@! TF.SameCoordinates,66AE08A6-6C82-4575-8D08-AF68D2AC6B58*
G04*
G04*
G04 #@! TF.FilePolarity,Positive*
G04*
G01*
G75*
%ADD19C,0.102*%
D19*
X67901Y75849D02*
G03*
X67901Y75849I-51J0D01*
G01*
X49301Y75799D02*
G03*
X49301Y75799I-51J0D01*
G01*
X42201Y52549D02*
G03*
X42201Y52549I-51J0D01*
G01*
X69411Y69034D02*
Y71066D01*
Y69034D02*
X74237D01*
Y71066D01*
X69411D02*
X74237D01*
X66834Y73309D02*
X68866D01*
Y78389D01*
X66834Y73309D02*
Y78389D01*
X68866D01*
X69234Y78337D02*
X71266D01*
X69234Y73511D02*
Y78337D01*
Y73511D02*
X71266D01*
Y78337D01*
X48234Y78339D02*
X50266D01*
X48234Y73259D02*
Y78339D01*
X50266Y73259D02*
Y78339D01*
X48234Y73259D02*
X50266D01*
X68161Y57662D02*
X69939D01*
X68161Y54106D02*
Y57662D01*
Y54106D02*
X69939D01*
Y57662D01*
X41134Y50009D02*
X43166D01*
Y55089D01*
X41134Y50009D02*
Y55089D01*
X43166D01*
X34761Y58862D02*
X36539D01*
X34761Y55306D02*
Y58862D01*
Y55306D02*
X36539D01*
Y58862D01*
X37911Y63362D02*
X39689D01*
X37911Y59806D02*
Y63362D01*
Y59806D02*
X39689D01*
Y63362D01*
X38711Y52006D02*
X40489D01*
Y55562D01*
X38711D02*
X40489D01*
X38711Y52006D02*
Y55562D01*
X36011Y59856D02*
X37789D01*
Y63412D01*
X36011D02*
X37789D01*
X36011Y59856D02*
Y63412D01*
X33811Y63494D02*
X35589D01*
X33811Y59938D02*
Y63494D01*
Y59938D02*
X35589D01*
Y63494D01*
X79561Y64456D02*
Y68012D01*
X81339D01*
Y64456D02*
Y68012D01*
X79561Y64456D02*
X81339D01*
X75806Y67961D02*
X79362D01*
X75806D02*
Y69739D01*
X79362D01*
Y67961D02*
Y69739D01*
X72061Y64956D02*
Y68512D01*
X73839D01*
Y64956D02*
Y68512D01*
X72061Y64956D02*
X73839D01*
X46134Y50463D02*
Y55289D01*
X48166D01*
Y50463D02*
Y55289D01*
X46134Y50463D02*
X48166D01*
X64106Y49961D02*
X67662D01*
X64106D02*
Y51739D01*
X67662D01*
Y49961D02*
Y51739D01*
X70084Y66187D02*
X72116D01*
X70084Y61361D02*
Y66187D01*
Y61361D02*
X72116D01*
Y66187D01*
X64056Y68961D02*
Y70739D01*
Y68961D02*
X67612D01*
Y70739D01*
X64056D02*
X67612D01*
X68161Y65112D02*
X69939D01*
X68161Y61556D02*
Y65112D01*
Y61556D02*
X69939D01*
Y65112D01*
X43434Y50213D02*
Y55039D01*
X45466D01*
Y50213D02*
Y55039D01*
X43434Y50213D02*
X45466D01*
X48913Y71566D02*
X53739D01*
Y69534D02*
Y71566D01*
X48913Y69534D02*
X53739D01*
X48913D02*
Y71566D01*
X76711Y61512D02*
X78489D01*
X76711Y57956D02*
Y61512D01*
Y57956D02*
X78489D01*
Y61512D01*
X72961Y60644D02*
X74739D01*
X72961Y57088D02*
Y60644D01*
Y57088D02*
X74739D01*
Y60644D01*
X78461Y57956D02*
X80239D01*
Y61512D01*
X78461D02*
X80239D01*
X78461Y57956D02*
Y61512D01*
X74961Y58106D02*
X76739D01*
Y61662D01*
X74961D02*
X76739D01*
X74961Y58106D02*
Y61662D01*
X73839Y61588D02*
Y65144D01*
X72061Y61588D02*
X73839D01*
X72061D02*
Y65144D01*
X73839D01*
X69011Y57588D02*
Y61144D01*
X70789D01*
Y57588D02*
Y61144D01*
X69011Y57588D02*
X70789D01*
X49989Y65756D02*
Y69312D01*
X48211Y65756D02*
X49989D01*
X48211D02*
Y69312D01*
X49989D01*
X48261Y51188D02*
Y54744D01*
X50039D01*
Y51188D02*
Y54744D01*
X48261Y51188D02*
X50039D01*
M02*
