G04*
G04 #@! TF.GenerationSoftware,Altium Limited,Altium Designer,21.3.2 (30)*
G04*
G04 Layer_Color=16711935*
%FSLAX43Y43*%
%MOMM*%
G71*
G04*
G04 #@! TF.SameCoordinates,DB2F4D52-C888-4A4C-9690-9536F9B8CA2E*
G04*
G04*
G04 #@! TF.FilePolarity,Positive*
G04*
G01*
G75*
%ADD10C,0.127*%
%ADD14C,0.100*%
%ADD15C,0.152*%
G36*
X47151Y61900D02*
X46150D01*
Y62150D01*
X47151D01*
Y61900D01*
D02*
G37*
G36*
X41749D02*
X40750D01*
Y62150D01*
X41749D01*
Y61900D01*
D02*
G37*
G36*
X47156Y61250D02*
X46150D01*
Y61501D01*
X47156D01*
Y61250D01*
D02*
G37*
G36*
X41749D02*
X40750D01*
Y61500D01*
X41749D01*
Y61250D01*
D02*
G37*
G36*
X47151Y60600D02*
X46150D01*
Y60850D01*
X47151D01*
Y60600D01*
D02*
G37*
G36*
X41747D02*
X40750D01*
Y60850D01*
X41747D01*
Y60600D01*
D02*
G37*
G36*
X47150Y59950D02*
X46150D01*
Y60200D01*
X47150D01*
Y59950D01*
D02*
G37*
G36*
X41749D02*
X40750D01*
Y60199D01*
X41749D01*
Y59950D01*
D02*
G37*
G36*
X39600Y58500D02*
X39100D01*
Y59150D01*
X39600D01*
Y58500D01*
D02*
G37*
G36*
X38600D02*
X38100D01*
Y59150D01*
X38600D01*
Y58500D01*
D02*
G37*
G36*
X37700D02*
X37200D01*
Y59150D01*
X37700D01*
Y58500D01*
D02*
G37*
G36*
X47851Y58100D02*
X46850D01*
Y58350D01*
X47851D01*
Y58100D01*
D02*
G37*
G36*
X42449D02*
X41450D01*
Y58350D01*
X42449D01*
Y58100D01*
D02*
G37*
G36*
X47856Y57450D02*
X46850D01*
Y57701D01*
X47856D01*
Y57450D01*
D02*
G37*
G36*
X42449D02*
X41450D01*
Y57700D01*
X42449D01*
Y57450D01*
D02*
G37*
G36*
X47851Y56800D02*
X46850D01*
Y57050D01*
X47851D01*
Y56800D01*
D02*
G37*
G36*
X42447D02*
X41450D01*
Y57050D01*
X42447D01*
Y56800D01*
D02*
G37*
G36*
X47850Y56150D02*
X46850D01*
Y56400D01*
X47850D01*
Y56150D01*
D02*
G37*
G36*
X42449D02*
X41450D01*
Y56399D01*
X42449D01*
Y56150D01*
D02*
G37*
G36*
X39600D02*
X39100D01*
Y56800D01*
X39600D01*
Y56150D01*
D02*
G37*
G36*
X38650D02*
X38150D01*
Y56800D01*
X38650D01*
Y56150D01*
D02*
G37*
G36*
X37700D02*
X37200D01*
Y56800D01*
X37700D01*
Y56150D01*
D02*
G37*
D10*
X74700Y63280D02*
X78800D01*
X74700Y67380D02*
X78800D01*
Y63280D02*
Y67380D01*
X74700Y63280D02*
Y67380D01*
D14*
X50650Y79950D02*
X66350D01*
X50650Y79050D02*
Y79950D01*
X50650Y79050D02*
X51350D01*
Y76150D02*
Y79050D01*
Y76150D02*
X65650D01*
Y79050D01*
X65650Y79050D02*
X66350D01*
Y79950D01*
D15*
X36978Y58460D02*
X39822D01*
X36978Y56840D02*
X39822D01*
M02*
