G04*
G04 #@! TF.GenerationSoftware,Altium Limited,Altium Designer,21.3.2 (30)*
G04*
G04 Layer_Color=255*
%FSLAX43Y43*%
%MOMM*%
G71*
G04*
G04 #@! TF.SameCoordinates,6B99F035-4501-4E24-B99D-2801729016C6*
G04*
G04*
G04 #@! TF.FilePolarity,Positive*
G04*
G01*
G75*
%ADD18R,0.300X1.000*%
%ADD19R,0.300X1.200*%
%ADD20R,0.550X1.200*%
%ADD21R,1.200X0.300*%
%ADD22R,1.067X1.524*%
%ADD23R,1.575X1.270*%
%ADD24R,1.524X1.067*%
%ADD25R,2.100X0.500*%
%ADD26O,2.100X0.500*%
%ADD27R,1.270X1.016*%
%ADD28R,2.000X1.000*%
%ADD29R,1.270X0.889*%
%ADD30R,1.200X0.350*%
%ADD31R,1.016X1.270*%
%ADD32R,0.790X0.260*%
%ADD33R,0.260X0.790*%
%ADD34R,1.650X1.300*%
%ADD35R,1.626X1.194*%
%ADD36O,1.200X2.500*%
%ADD37R,1.200X2.500*%
%ADD38R,1.194X1.626*%
%ADD69C,1.500*%
%ADD70C,2.000*%
%ADD71C,2.200*%
%ADD72C,2.300*%
%ADD73C,2.300*%
%ADD74C,0.700*%
%ADD75R,1.500X1.500*%
%ADD76R,1.500X1.500*%
D18*
X56750Y75750D02*
D03*
X56250D02*
D03*
X53750D02*
D03*
X54250D02*
D03*
X54750D02*
D03*
X57250D02*
D03*
X57750D02*
D03*
X59250D02*
D03*
X59750D02*
D03*
X63250D02*
D03*
X62750D02*
D03*
X62250D02*
D03*
X61750D02*
D03*
X61250D02*
D03*
X60750D02*
D03*
X60250D02*
D03*
X58750D02*
D03*
X58250D02*
D03*
X55750D02*
D03*
X55250D02*
D03*
D19*
X56700Y67900D02*
D03*
X56200D02*
D03*
X64700Y52400D02*
D03*
X64200D02*
D03*
X63700D02*
D03*
X63200D02*
D03*
X62700D02*
D03*
X62200D02*
D03*
X61700D02*
D03*
X61200D02*
D03*
X60700D02*
D03*
X60200D02*
D03*
X59700D02*
D03*
X59200D02*
D03*
X58700D02*
D03*
X58200D02*
D03*
X57700D02*
D03*
X57200D02*
D03*
X56700D02*
D03*
X56200D02*
D03*
X55700D02*
D03*
X55200D02*
D03*
X54700D02*
D03*
X54200D02*
D03*
X53700D02*
D03*
X53200D02*
D03*
X52700Y67900D02*
D03*
X53200D02*
D03*
X53700D02*
D03*
X54200D02*
D03*
X54700D02*
D03*
X55200D02*
D03*
X55700D02*
D03*
X57200D02*
D03*
X57700D02*
D03*
X58200D02*
D03*
X58700D02*
D03*
X59200D02*
D03*
X59700D02*
D03*
X60200D02*
D03*
X60700D02*
D03*
X61200D02*
D03*
X61700D02*
D03*
X62200D02*
D03*
X62700D02*
D03*
X63200D02*
D03*
X63700D02*
D03*
X64200D02*
D03*
X64700D02*
D03*
X52700Y52400D02*
D03*
D20*
X38400Y58950D02*
D03*
X37450D02*
D03*
X39350D02*
D03*
Y56350D02*
D03*
X38400D02*
D03*
X37450D02*
D03*
D21*
X66450Y62650D02*
D03*
X50950Y54150D02*
D03*
Y54650D02*
D03*
Y55150D02*
D03*
Y55650D02*
D03*
Y56150D02*
D03*
Y56650D02*
D03*
Y57150D02*
D03*
Y57650D02*
D03*
Y58150D02*
D03*
Y58650D02*
D03*
Y59150D02*
D03*
Y59650D02*
D03*
Y60150D02*
D03*
Y60650D02*
D03*
Y61150D02*
D03*
Y61650D02*
D03*
Y62150D02*
D03*
Y62650D02*
D03*
Y63150D02*
D03*
Y63650D02*
D03*
Y64150D02*
D03*
Y64650D02*
D03*
Y65150D02*
D03*
Y65650D02*
D03*
Y66150D02*
D03*
X66450D02*
D03*
Y65650D02*
D03*
Y65150D02*
D03*
Y64650D02*
D03*
Y64150D02*
D03*
Y63650D02*
D03*
Y63150D02*
D03*
Y62150D02*
D03*
Y61650D02*
D03*
Y61150D02*
D03*
Y60650D02*
D03*
Y60150D02*
D03*
Y59650D02*
D03*
Y59150D02*
D03*
Y58650D02*
D03*
Y58150D02*
D03*
Y57650D02*
D03*
Y57150D02*
D03*
Y56650D02*
D03*
Y56150D02*
D03*
Y55650D02*
D03*
Y55150D02*
D03*
Y54650D02*
D03*
Y54150D02*
D03*
D22*
X73450Y70050D02*
D03*
X70198D02*
D03*
D23*
X67850Y77500D02*
D03*
Y74198D02*
D03*
X49250Y74148D02*
D03*
Y77450D02*
D03*
X42150Y54200D02*
D03*
Y50898D02*
D03*
D24*
X70250Y74298D02*
D03*
Y77550D02*
D03*
X71100Y62148D02*
D03*
Y65400D02*
D03*
X44450Y51000D02*
D03*
Y54252D02*
D03*
D25*
X76400Y50460D02*
D03*
D26*
Y51730D02*
D03*
Y53000D02*
D03*
Y54270D02*
D03*
X71400Y50460D02*
D03*
Y51730D02*
D03*
Y53000D02*
D03*
Y54270D02*
D03*
D27*
X69050Y54868D02*
D03*
Y56900D02*
D03*
X36900Y62650D02*
D03*
Y60618D02*
D03*
X34700Y60700D02*
D03*
Y62732D02*
D03*
X80450Y65218D02*
D03*
Y67250D02*
D03*
X72950Y65718D02*
D03*
Y67750D02*
D03*
X69050Y62318D02*
D03*
Y64350D02*
D03*
X79350Y58718D02*
D03*
Y60750D02*
D03*
X75850Y58868D02*
D03*
Y60900D02*
D03*
X72950Y64382D02*
D03*
Y62350D02*
D03*
X69900Y58350D02*
D03*
Y60382D02*
D03*
X49100Y68550D02*
D03*
Y66518D02*
D03*
X49150Y51950D02*
D03*
Y53982D02*
D03*
D28*
X25850Y59450D02*
D03*
Y60950D02*
D03*
Y62450D02*
D03*
Y63950D02*
D03*
Y65450D02*
D03*
Y66950D02*
D03*
X91050Y65500D02*
D03*
Y64000D02*
D03*
Y62500D02*
D03*
Y61000D02*
D03*
Y59500D02*
D03*
Y58000D02*
D03*
D29*
X35650Y58164D02*
D03*
Y56005D02*
D03*
X38800Y62664D02*
D03*
Y60505D02*
D03*
X39600Y52704D02*
D03*
Y54863D02*
D03*
X77600Y58654D02*
D03*
Y60813D02*
D03*
X73200Y57786D02*
D03*
Y59945D02*
D03*
D30*
X47575Y56275D02*
D03*
Y56925D02*
D03*
Y57575D02*
D03*
Y58225D02*
D03*
X41725D02*
D03*
Y57575D02*
D03*
Y56925D02*
D03*
Y56275D02*
D03*
X46875Y60075D02*
D03*
Y60725D02*
D03*
Y61375D02*
D03*
Y62025D02*
D03*
X41025D02*
D03*
Y61375D02*
D03*
Y60725D02*
D03*
Y60075D02*
D03*
D31*
X78600Y68850D02*
D03*
X76568D02*
D03*
X66900Y50850D02*
D03*
X64868D02*
D03*
X66850Y69850D02*
D03*
X64818D02*
D03*
D32*
X74780Y64080D02*
D03*
Y64580D02*
D03*
Y65080D02*
D03*
Y65580D02*
D03*
Y66080D02*
D03*
Y66580D02*
D03*
X78720D02*
D03*
Y66080D02*
D03*
Y65580D02*
D03*
Y65080D02*
D03*
Y64580D02*
D03*
Y64080D02*
D03*
D33*
X75500Y67300D02*
D03*
X76000D02*
D03*
X76500D02*
D03*
X77000D02*
D03*
X77500D02*
D03*
X78000D02*
D03*
Y63360D02*
D03*
X77500D02*
D03*
X77000D02*
D03*
X76500D02*
D03*
X76000D02*
D03*
X75500D02*
D03*
D34*
X65525Y77650D02*
D03*
X51475D02*
D03*
D35*
X47150Y51314D02*
D03*
Y54438D02*
D03*
D36*
X29660Y67350D02*
D03*
X32200D02*
D03*
Y58500D02*
D03*
X84550Y66800D02*
D03*
X87090D02*
D03*
Y57950D02*
D03*
D37*
X29660Y58500D02*
D03*
X84550Y57950D02*
D03*
D38*
X49764Y70550D02*
D03*
X52888D02*
D03*
D69*
X42350Y66600D02*
D03*
X36750D02*
D03*
X39550D02*
D03*
X46650Y76990D02*
D03*
Y74450D02*
D03*
Y71910D02*
D03*
X62230Y73000D02*
D03*
X59690D02*
D03*
X57150D02*
D03*
X54610D02*
D03*
X52070D02*
D03*
D70*
X81750Y60750D02*
D03*
X58400Y50450D02*
D03*
D71*
X58450Y94950D02*
D03*
Y69950D02*
D03*
D72*
X119400Y71500D02*
D03*
Y53500D02*
D03*
D73*
X-2500D02*
D03*
Y71500D02*
D03*
D74*
X109028Y63485D02*
D03*
Y62215D02*
D03*
X110425Y63485D02*
D03*
Y62215D02*
D03*
X111949Y63485D02*
D03*
Y62342D02*
D03*
X10397Y62515D02*
D03*
Y63785D02*
D03*
X9000Y62515D02*
D03*
Y63785D02*
D03*
X7476Y62515D02*
D03*
Y63658D02*
D03*
D75*
X46650Y69370D02*
D03*
D76*
X64770Y73000D02*
D03*
M02*
