G04*
G04 #@! TF.GenerationSoftware,Altium Limited,Altium Designer,21.3.2 (30)*
G04*
G04 Layer_Color=128*
%FSLAX43Y43*%
%MOMM*%
G71*
G04*
G04 #@! TF.SameCoordinates,516BDF06-D260-4404-9912-87152A7D5F29*
G04*
G04*
G04 #@! TF.FilePolarity,Positive*
G04*
G01*
G75*
%ADD102C,0.051*%
D102*
X73660Y55673D02*
X73960D01*
X73810Y55523D02*
Y55823D01*
X70500Y56450D02*
X70800D01*
X70650Y56300D02*
Y56600D01*
X73299Y54936D02*
X73599D01*
X73449Y54786D02*
Y55086D01*
X73600Y60980D02*
X73900D01*
X73750Y60830D02*
Y61130D01*
X60962Y51070D02*
X61262D01*
X61112Y50920D02*
Y51220D01*
X68070Y53846D02*
X68370D01*
X68220Y53696D02*
Y53996D01*
X73169Y56839D02*
X73469D01*
X73319Y56689D02*
Y56989D01*
X78002Y57707D02*
X78302D01*
X78152Y57557D02*
Y57857D01*
X63500Y54500D02*
X63800D01*
X63650Y54350D02*
Y54650D01*
X77300Y59551D02*
X77600D01*
X77450Y59401D02*
Y59701D01*
X70020Y52287D02*
X70320D01*
X70170Y52137D02*
Y52437D01*
X82311Y57069D02*
X82611D01*
X82461Y56919D02*
Y57219D01*
X76150Y64450D02*
X76450D01*
X76300Y64300D02*
Y64600D01*
X65550Y67050D02*
X65850D01*
X65700Y66900D02*
Y67200D01*
X56650Y76750D02*
X56950D01*
X56800Y76600D02*
Y76900D01*
X56350Y71600D02*
X56650D01*
X56500Y71450D02*
Y71750D01*
X54251Y69850D02*
X54551D01*
X54401Y69700D02*
Y70000D01*
X106500Y60000D02*
X106800D01*
X106650Y59850D02*
Y60150D01*
X113325Y59225D02*
X113625D01*
X113475Y59075D02*
Y59375D01*
X67403Y62520D02*
X67703D01*
X67553Y62370D02*
Y62670D01*
X67403Y61100D02*
X67703D01*
X67553Y60950D02*
Y61250D01*
X44600Y61573D02*
X44900D01*
X44750Y61423D02*
Y61723D01*
X47205Y53163D02*
X47505D01*
X47355Y53013D02*
Y53313D01*
X45400Y52900D02*
X45700D01*
X45550Y52750D02*
Y53050D01*
X23250Y59900D02*
X23550D01*
X23400Y59750D02*
Y60050D01*
X24393Y58500D02*
X24693D01*
X24543Y58350D02*
Y58650D01*
X35100Y64850D02*
X35400D01*
X35250Y64700D02*
Y65000D01*
X20547Y63300D02*
X20847D01*
X20697Y63150D02*
Y63450D01*
X46150Y56401D02*
X46450D01*
X46300Y56251D02*
Y56551D01*
X45746Y58304D02*
X46046D01*
X45896Y58154D02*
Y58454D01*
X44440Y58462D02*
X44740D01*
X44590Y58312D02*
Y58612D01*
X36462Y59512D02*
X36762D01*
X36612Y59362D02*
Y59662D01*
X22550Y66563D02*
X22850D01*
X22700Y66413D02*
Y66713D01*
X16130Y60250D02*
X16430D01*
X16280Y60100D02*
Y60400D01*
X14400Y58300D02*
X14700D01*
X14550Y58150D02*
Y58450D01*
X19707Y65907D02*
X20007D01*
X19857Y65757D02*
Y66057D01*
X51196Y69300D02*
X51704D01*
X51450Y69046D02*
Y69554D01*
X82950Y56200D02*
X83250D01*
X83100Y56050D02*
Y56350D01*
X93650Y63950D02*
X93950D01*
X93800Y63800D02*
Y64100D01*
X93000Y61550D02*
X93300D01*
X93150Y61400D02*
Y61700D01*
X86400Y59800D02*
X86700D01*
X86550Y59650D02*
Y59950D01*
X88000Y60250D02*
X88300D01*
X88150Y60100D02*
Y60400D01*
X93881Y56519D02*
X94181D01*
X94031Y56369D02*
Y56669D01*
X95200Y56911D02*
X95500D01*
X95350Y56761D02*
Y57061D01*
X84550Y60200D02*
X84850D01*
X84700Y60050D02*
Y60350D01*
X82868Y64050D02*
X83168D01*
X83018Y63900D02*
Y64200D01*
X88400Y63550D02*
X88700D01*
X88550Y63400D02*
Y63700D01*
X105660Y65840D02*
X105960D01*
X105810Y65690D02*
Y65990D01*
X114810Y65800D02*
X115110D01*
X114960Y65650D02*
Y65950D01*
X106050Y64750D02*
X106350D01*
X106200Y64600D02*
Y64900D01*
X113612Y65088D02*
X113912D01*
X113762Y64938D02*
Y65238D01*
X54050Y70751D02*
X54350D01*
X54200Y70601D02*
Y70901D01*
X69650Y68070D02*
X69950D01*
X69800Y67920D02*
Y68220D01*
X70800Y63500D02*
X71100D01*
X70950Y63350D02*
Y63650D01*
X67750Y55450D02*
X68050D01*
X67900Y55300D02*
Y55600D01*
X60262Y50588D02*
X60562D01*
X60412Y50438D02*
Y50738D01*
X60995Y76702D02*
X61295D01*
X61145Y76552D02*
Y76852D01*
X62000Y77216D02*
X62300D01*
X62150Y77066D02*
Y77366D01*
X65295Y67850D02*
X65595D01*
X65445Y67700D02*
Y68000D01*
X59850Y77100D02*
X60150D01*
X60000Y76950D02*
Y77250D01*
X61514Y71164D02*
X61814D01*
X61664Y71014D02*
Y71314D01*
X62460Y71390D02*
X62760D01*
X62610Y71240D02*
Y71540D01*
X58650Y77150D02*
X58950D01*
X58800Y77000D02*
Y77300D01*
X49385Y55800D02*
X49893D01*
X49639Y55546D02*
Y56054D01*
X44426Y65726D02*
X44726D01*
X44576Y65576D02*
Y65876D01*
X44931Y63732D02*
X45231D01*
X45081Y63582D02*
Y63882D01*
X42600Y63500D02*
X42900D01*
X42750Y63350D02*
Y63650D01*
X40107Y58776D02*
X40407D01*
X40257Y58626D02*
Y58926D01*
X54597Y49786D02*
X54897D01*
X54747Y49637D02*
Y49937D01*
X54198Y51080D02*
X54498D01*
X54348Y50930D02*
Y51230D01*
X55050Y50450D02*
X55350D01*
X55200Y50300D02*
Y50600D01*
X52750Y53800D02*
X53050D01*
X52900Y53650D02*
Y53950D01*
X43750Y58050D02*
X44050D01*
X43900Y57900D02*
Y58200D01*
X35100Y59400D02*
X35400D01*
X35250Y59250D02*
Y59550D01*
X12545Y59689D02*
X12845D01*
X12695Y59539D02*
Y59839D01*
X5550Y59050D02*
X5850D01*
X5700Y58900D02*
Y59200D01*
X12300Y58250D02*
X12600D01*
X12450Y58100D02*
Y58400D01*
X6850Y59000D02*
X7150D01*
X7000Y58850D02*
Y59150D01*
Y67250D02*
X7300D01*
X7150Y67100D02*
Y67400D01*
X11800Y66000D02*
X12100D01*
X11950Y65850D02*
Y66150D01*
X13200Y66500D02*
X13500D01*
X13350Y66350D02*
Y66650D01*
X8850Y67150D02*
X9150D01*
X9000Y67000D02*
Y67300D01*
M02*
