M48
;Layer_Color=9474304
;FILE_FORMAT=4:3
METRIC,LZ
;TYPE=PLATED
T1F00S00C0.300
%
T01
X00275Y005945
X003385Y006475
X004225Y00609
X0040471Y0056571
X00396Y0051808
X0045888Y0051963
X004495Y0055237
X0048013Y0066723
X0052903Y0069073
X005095Y00711
X0053148Y0075747
X006195Y005045
X006375Y00507
X0065889Y0050732
X0070444Y0055426
X007045Y0059361
X00676Y00584
X0067963Y0061829
X0073Y006331
X00759Y00621
X0079387Y0061814
X0081732Y0067185
X007415Y00674
X007445Y006975
X0066778Y0070937
X007015Y00754
X0092733Y00655
M30
