G04*
G04 #@! TF.GenerationSoftware,Altium Limited,Altium Designer,21.3.2 (30)*
G04*
G04 Layer_Color=128*
%FSLAX43Y43*%
%MOMM*%
G71*
G04*
G04 #@! TF.SameCoordinates,516BDF06-D260-4404-9912-87152A7D5F29*
G04*
G04*
G04 #@! TF.FilePolarity,Positive*
G04*
G01*
G75*
%ADD102C,0.051*%
D102*
X42000Y66600D02*
X42700D01*
X42350Y66250D02*
Y66950D01*
X36400Y66600D02*
X37100D01*
X36750Y66250D02*
Y66950D01*
X39200Y66600D02*
X39900D01*
X39550Y66250D02*
Y66950D01*
X80750Y60750D02*
X82750D01*
X81750Y59750D02*
Y61750D01*
X57400Y50450D02*
X59400D01*
X58400Y49450D02*
Y51450D01*
X57350Y94950D02*
X59550D01*
X58450Y93850D02*
Y96050D01*
X57350Y69950D02*
X59550D01*
X58450Y68850D02*
Y71050D01*
X118250Y71500D02*
X120550D01*
X119400Y70350D02*
Y72650D01*
X118250Y53500D02*
X120550D01*
X119400Y52350D02*
Y54650D01*
X-3650Y53500D02*
X-1350D01*
X-2500Y52350D02*
Y54650D01*
X-3650Y71500D02*
X-1350D01*
X-2500Y70350D02*
Y72650D01*
X108828Y63485D02*
X109228D01*
X109028Y63285D02*
Y63685D01*
X108828Y62215D02*
X109228D01*
X109028Y62015D02*
Y62415D01*
X110225Y63485D02*
X110625D01*
X110425Y63285D02*
Y63685D01*
X110225Y62215D02*
X110625D01*
X110425Y62015D02*
Y62415D01*
X111749Y63485D02*
X112149D01*
X111949Y63285D02*
Y63685D01*
X111749Y62342D02*
X112149D01*
X111949Y62142D02*
Y62542D01*
X10197Y62515D02*
X10597D01*
X10397Y62315D02*
Y62715D01*
X10197Y63785D02*
X10597D01*
X10397Y63585D02*
Y63985D01*
X8800Y62515D02*
X9200D01*
X9000Y62315D02*
Y62715D01*
X8800Y63785D02*
X9200D01*
X9000Y63585D02*
Y63985D01*
X7276Y62515D02*
X7676D01*
X7476Y62315D02*
Y62715D01*
X7276Y63658D02*
X7676D01*
X7476Y63458D02*
Y63858D01*
X46200Y76990D02*
X47100D01*
X46650Y76540D02*
Y77440D01*
X46200Y74450D02*
X47100D01*
X46650Y74000D02*
Y74900D01*
X46200Y71910D02*
X47100D01*
X46650Y71460D02*
Y72360D01*
X46200Y69370D02*
X47100D01*
X46650Y68920D02*
Y69820D01*
X64320Y73000D02*
X65220D01*
X64770Y72550D02*
Y73450D01*
X61780Y73000D02*
X62680D01*
X62230Y72550D02*
Y73450D01*
X59240Y73000D02*
X60140D01*
X59690Y72550D02*
Y73450D01*
X56700Y73000D02*
X57600D01*
X57150Y72550D02*
Y73450D01*
X54160Y73000D02*
X55060D01*
X54610Y72550D02*
Y73450D01*
X51620Y73000D02*
X52520D01*
X52070Y72550D02*
Y73450D01*
X74400Y53600D02*
X74700D01*
X74550Y53450D02*
Y53750D01*
X74300Y52400D02*
X74600D01*
X74450Y52250D02*
Y52550D01*
X71450Y60450D02*
X71750D01*
X71600Y60300D02*
Y60600D01*
X72308Y61337D02*
X72608D01*
X72458Y61187D02*
Y61487D01*
X71450Y58700D02*
X71750D01*
X71600Y58550D02*
Y58850D01*
X74250Y58734D02*
X74550D01*
X74400Y58584D02*
Y58884D01*
X70950Y61100D02*
X71250D01*
X71100Y60950D02*
Y61250D01*
X64700Y55950D02*
X65000D01*
X64850Y55800D02*
Y56100D01*
X65150Y54950D02*
X65450D01*
X65300Y54800D02*
Y55100D01*
X57150Y53750D02*
X57450D01*
X57300Y53600D02*
Y53900D01*
X68950Y51900D02*
X69250D01*
X69100Y51750D02*
Y52050D01*
X30947Y67193D02*
X31247D01*
X31097Y67044D02*
Y67343D01*
X79300Y63450D02*
X79600D01*
X79450Y63300D02*
Y63600D01*
X45501Y50221D02*
X45801D01*
X45651Y50071D02*
Y50371D01*
X114400Y68022D02*
X114700D01*
X114550Y67872D02*
Y68172D01*
X106150Y58100D02*
X106450D01*
X106300Y57950D02*
Y58250D01*
X44587Y60752D02*
X44887D01*
X44737Y60602D02*
Y60902D01*
X33200Y59050D02*
X33500D01*
X33350Y58900D02*
Y59200D01*
X31245Y57096D02*
X31545D01*
X31395Y56946D02*
Y57246D01*
X3800Y56550D02*
X4100D01*
X3950Y56400D02*
Y56700D01*
X1550Y66450D02*
X1850D01*
X1700Y66300D02*
Y66600D01*
X2700Y64000D02*
X3000D01*
X2850Y63850D02*
Y64150D01*
X14950Y67250D02*
X15250D01*
X15100Y67100D02*
Y67400D01*
X43550Y55550D02*
X43850D01*
X43700Y55400D02*
Y55700D01*
M02*
