G04*
G04 #@! TF.GenerationSoftware,Altium Limited,Altium Designer,21.3.2 (30)*
G04*
G04 Layer_Color=32896*
%FSLAX43Y43*%
%MOMM*%
G71*
G04*
G04 #@! TF.SameCoordinates,516BDF06-D260-4404-9912-87152A7D5F29*
G04*
G04*
G04 #@! TF.FilePolarity,Positive*
G04*
G01*
G75*
%ADD16C,0.203*%
%ADD17C,0.102*%
%ADD99C,0.178*%
%ADD101C,0.076*%
D16*
X35326Y62259D02*
Y63173D01*
X34920Y62716D02*
X35784D01*
X32024Y60727D02*
Y61641D01*
X31566Y61184D02*
X32430D01*
D17*
X86749Y63466D02*
Y64634D01*
X84819Y63466D02*
Y64634D01*
Y63466D02*
X86749D01*
X84819Y64634D02*
X86749D01*
X87049Y61216D02*
Y62384D01*
X85119Y61216D02*
Y62384D01*
Y61216D02*
X87049D01*
X85119Y62384D02*
X87049D01*
X2725Y67263D02*
X5723D01*
X2725Y68737D02*
X5723D01*
Y67263D02*
Y68737D01*
X2725Y67263D02*
Y68737D01*
X20049Y59616D02*
Y60784D01*
X18119Y59616D02*
Y60784D01*
Y59616D02*
X20049D01*
X18119Y60784D02*
X20049D01*
X20131Y66716D02*
Y67884D01*
X18201Y66716D02*
Y67884D01*
Y66716D02*
X20131D01*
X18201Y67884D02*
X20131D01*
X105175Y57313D02*
X108173D01*
X105175Y58787D02*
X108173D01*
Y57313D02*
Y58787D01*
X105175Y57313D02*
Y58787D01*
X32202Y63021D02*
Y66577D01*
X35098Y63021D02*
Y66577D01*
X32202Y63021D02*
X35098D01*
X32202Y66577D02*
X35098D01*
X10177Y68937D02*
X13175D01*
X10177Y67463D02*
X13175D01*
X10177D02*
Y68937D01*
X13175Y67463D02*
Y68937D01*
X109825Y56763D02*
X112823D01*
X109825Y58237D02*
X112823D01*
Y56763D02*
Y58237D01*
X109825Y56763D02*
Y58237D01*
X113866Y68931D02*
X115034D01*
X113866Y67001D02*
X115034D01*
Y68931D01*
X113866Y67001D02*
Y68931D01*
X43992Y62635D02*
X45160D01*
X43992Y64565D02*
X45160D01*
X43992Y62635D02*
Y64565D01*
X45160Y62635D02*
Y64565D01*
X42112Y62667D02*
X43280D01*
X42112Y64597D02*
X43280D01*
X42112Y62667D02*
Y64597D01*
X43280Y62667D02*
Y64597D01*
X49631Y62585D02*
X50800D01*
X49631Y64515D02*
X50800D01*
X49631Y62585D02*
Y64515D01*
X50800Y62585D02*
Y64515D01*
X47751Y62585D02*
X48920D01*
X47751Y64515D02*
X48920D01*
X47751Y62585D02*
Y64515D01*
X48920Y62585D02*
Y64515D01*
X45871Y62585D02*
X47040D01*
X45871Y64515D02*
X47040D01*
X45871Y62585D02*
Y64515D01*
X47040Y62585D02*
Y64515D01*
X30216Y65399D02*
X31384D01*
X30216Y63469D02*
X31384D01*
Y65399D01*
X30216Y63469D02*
Y65399D01*
X30266Y58719D02*
X31434D01*
X30266Y60649D02*
X31434D01*
X30266Y58719D02*
Y60649D01*
X31434Y58719D02*
Y60649D01*
X112377Y67661D02*
Y69439D01*
X109075Y67661D02*
Y69439D01*
Y67661D02*
X112377D01*
X109075Y69439D02*
X112377D01*
X5873Y55561D02*
Y57339D01*
X9175Y55561D02*
Y57339D01*
X5873D02*
X9175D01*
X5873Y55561D02*
X9175D01*
X105269Y67216D02*
Y68384D01*
X107199Y67216D02*
Y68384D01*
X105269D02*
X107199D01*
X105269Y67216D02*
X107199D01*
X8251Y57916D02*
X10181D01*
X8251Y59084D02*
X10181D01*
Y57916D02*
Y59084D01*
X8251Y57916D02*
Y59084D01*
X3916Y62419D02*
Y64349D01*
X5084Y62419D02*
Y64349D01*
X3916Y62419D02*
X5084D01*
X3916Y64349D02*
X5084D01*
X35148Y57323D02*
Y60879D01*
X32252Y57323D02*
Y60879D01*
X35148D01*
X32252Y57323D02*
X35148D01*
D99*
X108770Y66975D02*
Y67839D01*
X108313Y67432D02*
X109227D01*
X9480Y57161D02*
Y58025D01*
X9023Y57568D02*
X9937D01*
D101*
X86292Y63466D02*
Y64634D01*
X85276Y63466D02*
Y64634D01*
X86592Y61216D02*
Y62384D01*
X85576Y61216D02*
Y62384D01*
X3106Y67263D02*
Y68737D01*
X5342Y67263D02*
Y68737D01*
X19592Y59616D02*
Y60784D01*
X18576Y59616D02*
Y60784D01*
X19674Y66716D02*
Y67884D01*
X18658Y66716D02*
Y67884D01*
X105556Y57313D02*
Y58787D01*
X107792Y57313D02*
Y58787D01*
X34742Y63021D02*
Y63885D01*
X32558Y63021D02*
Y63885D01*
X34742D01*
X32558Y65713D02*
X34742D01*
Y66577D01*
X32558Y65713D02*
Y66577D01*
X12794Y67463D02*
Y68937D01*
X10558Y67463D02*
Y68937D01*
X110206Y56763D02*
Y58237D01*
X112442Y56763D02*
Y58237D01*
X113866Y68474D02*
X115034D01*
X113866Y67458D02*
X115034D01*
X43992Y62965D02*
X45160D01*
X43992Y64235D02*
X45160D01*
X42112Y62997D02*
X43280D01*
X42112Y64267D02*
X43280D01*
X49631Y62915D02*
X50800D01*
X49631Y64185D02*
X50800D01*
X47751Y62915D02*
X48920D01*
X47751Y64185D02*
X48920D01*
X45871Y62915D02*
X47040D01*
X45871Y64185D02*
X47040D01*
X30216Y64942D02*
X31384D01*
X30216Y63926D02*
X31384D01*
X30266Y59176D02*
X31434D01*
X30266Y60192D02*
X31434D01*
X111539Y67991D02*
X112377D01*
X111539D02*
Y69109D01*
X112377D01*
X109075Y67991D02*
X109913D01*
Y69109D01*
X109075D02*
X109913D01*
X5873Y57009D02*
X6711D01*
Y55891D02*
Y57009D01*
X5873Y55891D02*
X6711D01*
X8337Y57009D02*
X9175D01*
X8337Y55891D02*
Y57009D01*
Y55891D02*
X9175D01*
X105726Y67216D02*
Y68384D01*
X106742Y67216D02*
Y68384D01*
X9724Y57916D02*
Y59084D01*
X8708Y57916D02*
Y59084D01*
X3916Y62876D02*
X5084D01*
X3916Y63892D02*
X5084D01*
X32608Y60015D02*
Y60879D01*
X34792Y60015D02*
Y60879D01*
X32608Y60015D02*
X34792D01*
X32608Y58187D02*
X34792D01*
X32608Y57323D02*
Y58187D01*
X34792Y57323D02*
Y58187D01*
M02*
