G04*
G04 #@! TF.GenerationSoftware,Altium Limited,Altium Designer,21.3.2 (30)*
G04*
G04 Layer_Physical_Order=3*
G04 Layer_Color=16440176*
%FSLAX43Y43*%
%MOMM*%
G71*
G04*
G04 #@! TF.SameCoordinates,516BDF06-D260-4404-9912-87152A7D5F29*
G04*
G04*
G04 #@! TF.FilePolarity,Positive*
G04*
G01*
G75*
%ADD66C,0.254*%
%ADD69C,1.500*%
%ADD76R,1.500X1.500*%
%ADD77C,0.600*%
%ADD78C,1.016*%
G36*
X59500Y97900D02*
X60170D01*
X60556Y97513D01*
X60697D01*
X61252Y96959D01*
Y96543D01*
X61450Y96345D01*
Y83600D01*
X61507Y83542D01*
Y82623D01*
X61955Y82175D01*
Y81852D01*
X62702Y81105D01*
X63024D01*
X63472Y80657D01*
X64392D01*
X64450Y80600D01*
X67242D01*
X67446Y80396D01*
X68680D01*
X69279Y79798D01*
X69989D01*
X70948Y78839D01*
X71092D01*
X72211Y77720D01*
Y77290D01*
X72995Y76506D01*
Y75527D01*
X73399Y75123D01*
Y73651D01*
X73450Y73600D01*
X73400Y73550D01*
Y72522D01*
X73678Y72244D01*
Y71610D01*
X74328Y70960D01*
Y70878D01*
X74410D01*
X75060Y70228D01*
X75694D01*
X75922Y70000D01*
X115150D01*
Y72112D01*
X115358Y72320D01*
Y73174D01*
X115962Y73778D01*
Y74072D01*
X116828Y74938D01*
X117122D01*
X117725Y75542D01*
X118579D01*
X118787Y75750D01*
X120012D01*
X120220Y75542D01*
X121074D01*
X121678Y74938D01*
X121972D01*
X122838Y74072D01*
Y73778D01*
X123442Y73174D01*
Y72320D01*
X123650Y72112D01*
Y53500D01*
X123597Y53447D01*
Y52342D01*
X123187Y51931D01*
Y51350D01*
X122405Y50569D01*
Y50495D01*
X122345D01*
X121563Y49713D01*
X120968D01*
X120557Y49302D01*
X119452D01*
X119400Y49250D01*
X119348Y49302D01*
X118242D01*
X117831Y49713D01*
X117250D01*
X116468Y50495D01*
X116395D01*
Y50569D01*
X115613Y51350D01*
Y51931D01*
X115202Y52342D01*
Y53447D01*
X115150Y53500D01*
Y55000D01*
X81450D01*
X81392Y54942D01*
X80473D01*
X80024Y54494D01*
X79702D01*
X78955Y53748D01*
Y53425D01*
X78507Y52977D01*
Y52307D01*
X78450Y52250D01*
Y51722D01*
X78221Y51494D01*
Y50860D01*
X77571Y50210D01*
Y50129D01*
X77490D01*
X76839Y49478D01*
X76206D01*
X75977Y49250D01*
X59325D01*
X59280Y49377D01*
X59505Y49602D01*
X59687Y49917D01*
X59744Y50130D01*
X59813Y50152D01*
X59882Y50155D01*
X59994Y50043D01*
X60150Y49953D01*
X60323Y49907D01*
X60502D01*
X60675Y49953D01*
X60831Y50043D01*
X60957Y50169D01*
X61047Y50325D01*
X61064Y50389D01*
X61201D01*
X61375Y50435D01*
X61530Y50525D01*
X61657Y50652D01*
X61746Y50807D01*
X61793Y50980D01*
Y51159D01*
X61746Y51333D01*
X61657Y51488D01*
X61530Y51615D01*
X61375Y51704D01*
X61201Y51751D01*
X61022D01*
X60849Y51704D01*
X60694Y51615D01*
X60567Y51488D01*
X60477Y51333D01*
X60460Y51269D01*
X60323D01*
X60150Y51222D01*
X59994Y51132D01*
X59868Y51006D01*
X59830Y50940D01*
X59694Y50958D01*
X59687Y50983D01*
X59505Y51298D01*
X59248Y51555D01*
X58933Y51737D01*
X58582Y51831D01*
X58218D01*
X57867Y51737D01*
X57552Y51555D01*
X57295Y51298D01*
X57113Y50983D01*
X57019Y50632D01*
Y50268D01*
X57113Y49917D01*
X57295Y49602D01*
X57520Y49377D01*
X57475Y49250D01*
X55340D01*
X55315Y49310D01*
X55297Y49377D01*
X55382Y49524D01*
X55428Y49697D01*
Y49806D01*
X55463Y49815D01*
X55618Y49905D01*
X55745Y50032D01*
X55835Y50187D01*
X55881Y50360D01*
Y50540D01*
X55835Y50713D01*
X55745Y50868D01*
X55618Y50995D01*
X55463Y51085D01*
X55290Y51131D01*
X55110D01*
X55087Y51125D01*
X55029Y51170D01*
X54982Y51343D01*
X54893Y51498D01*
X54766Y51625D01*
X54611Y51715D01*
X54437Y51761D01*
X54258D01*
X54085Y51715D01*
X53930Y51625D01*
X53803Y51498D01*
X53713Y51343D01*
X53667Y51170D01*
Y50991D01*
X53713Y50817D01*
X53803Y50662D01*
X53930Y50535D01*
X54085Y50446D01*
X54226Y50408D01*
X54266Y50320D01*
X54270Y50272D01*
X54202Y50205D01*
X54113Y50049D01*
X54066Y49876D01*
Y49697D01*
X54113Y49524D01*
X54197Y49377D01*
X54180Y49310D01*
X54155Y49250D01*
X41450D01*
X41392Y49307D01*
X40472D01*
X40025Y49755D01*
X39702D01*
X38955Y50502D01*
Y50825D01*
X38507Y51273D01*
Y51928D01*
X38450Y51986D01*
Y52527D01*
X38221Y52756D01*
Y53389D01*
X37571Y54040D01*
Y54121D01*
X37490D01*
X36839Y54771D01*
X36206D01*
X35977Y55000D01*
X1750D01*
Y52887D01*
X1542Y52679D01*
Y51826D01*
X938Y51222D01*
Y50928D01*
X72Y50062D01*
X-222D01*
X-826Y49458D01*
X-1680D01*
X-1888Y49250D01*
X-3113D01*
X-3321Y49458D01*
X-4174D01*
X-4778Y50062D01*
X-5072D01*
X-5939Y50928D01*
Y51222D01*
X-6542Y51826D01*
Y52679D01*
X-6750Y52887D01*
Y71500D01*
X-6698Y71552D01*
Y72657D01*
X-6287Y73068D01*
Y73650D01*
X-5505Y74431D01*
Y74505D01*
X-5431D01*
X-4650Y75287D01*
X-4069D01*
X-3658Y75698D01*
X-2553D01*
X-2500Y75750D01*
X-2448Y75698D01*
X-1343D01*
X-932Y75287D01*
X-351D01*
X431Y74505D01*
X505D01*
Y74431D01*
X1287Y73650D01*
Y73068D01*
X1697Y72657D01*
Y71552D01*
X1750Y71500D01*
Y70000D01*
X40450D01*
X40507Y70058D01*
X41427D01*
X41875Y70505D01*
X42198D01*
X42944Y71252D01*
Y71574D01*
X43392Y72022D01*
Y72942D01*
X43450Y73000D01*
Y74393D01*
X43653Y74596D01*
Y75831D01*
X44252Y76429D01*
Y76853D01*
X44689Y77290D01*
Y77839D01*
X45689Y78839D01*
X45952D01*
X46911Y79798D01*
X47621D01*
X48219Y80396D01*
X49454D01*
X49657Y80600D01*
X52978D01*
X53206Y80828D01*
X53839D01*
X54490Y81479D01*
X54571D01*
Y81560D01*
X55222Y82210D01*
Y82844D01*
X55450Y83072D01*
Y95950D01*
X55500Y96000D01*
Y96700D01*
X55886Y97086D01*
Y97197D01*
X56441Y97752D01*
X56857D01*
X57055Y97950D01*
X59450D01*
X59500Y97900D01*
D02*
G37*
%LPC*%
G36*
X58596Y96431D02*
X58304D01*
X58018Y96374D01*
X57748Y96262D01*
X57506Y96100D01*
X57299Y95894D01*
X57137Y95651D01*
X57026Y95382D01*
X56969Y95096D01*
Y94804D01*
X57026Y94518D01*
X57137Y94248D01*
X57299Y94006D01*
X57506Y93799D01*
X57748Y93637D01*
X58018Y93526D01*
X58304Y93469D01*
X58596D01*
X58882Y93526D01*
X59151Y93637D01*
X59394Y93799D01*
X59600Y94006D01*
X59762Y94248D01*
X59874Y94518D01*
X59931Y94804D01*
Y95096D01*
X59874Y95382D01*
X59762Y95651D01*
X59600Y95894D01*
X59394Y96100D01*
X59151Y96262D01*
X58882Y96374D01*
X58596Y96431D01*
D02*
G37*
G36*
X62240Y77897D02*
X62060D01*
X61887Y77851D01*
X61732Y77761D01*
X61605Y77634D01*
X61515Y77479D01*
X61502Y77429D01*
X61408Y77337D01*
X61360Y77350D01*
X61235Y77383D01*
X61056D01*
X60882Y77337D01*
X60788Y77282D01*
X60643Y77331D01*
X60635Y77363D01*
X60545Y77518D01*
X60418Y77645D01*
X60263Y77735D01*
X60090Y77781D01*
X59910D01*
X59737Y77735D01*
X59582Y77645D01*
X59497Y77560D01*
X59352Y77564D01*
X59340Y77573D01*
X59218Y77695D01*
X59063Y77785D01*
X58890Y77831D01*
X58710D01*
X58537Y77785D01*
X58382Y77695D01*
X58255Y77568D01*
X58165Y77413D01*
X58119Y77240D01*
Y77060D01*
X58165Y76887D01*
X58255Y76732D01*
X58382Y76605D01*
X58537Y76515D01*
X58710Y76469D01*
X58890D01*
X59063Y76515D01*
X59218Y76605D01*
X59303Y76690D01*
X59448Y76686D01*
X59460Y76677D01*
X59582Y76555D01*
X59737Y76465D01*
X59910Y76419D01*
X60090D01*
X60263Y76465D01*
X60358Y76520D01*
X60502Y76472D01*
X60511Y76440D01*
X60600Y76284D01*
X60727Y76157D01*
X60882Y76068D01*
X61056Y76021D01*
X61235D01*
X61408Y76068D01*
X61563Y76157D01*
X61690Y76284D01*
X61780Y76440D01*
X61793Y76489D01*
X61887Y76581D01*
X61935Y76569D01*
X62060Y76535D01*
X62240D01*
X62413Y76581D01*
X62568Y76671D01*
X62695Y76798D01*
X62785Y76953D01*
X62831Y77126D01*
Y77306D01*
X62785Y77479D01*
X62695Y77634D01*
X62568Y77761D01*
X62413Y77851D01*
X62240Y77897D01*
D02*
G37*
G36*
X46904Y77961D02*
Y77244D01*
X47621D01*
X47586Y77378D01*
X47453Y77606D01*
X47266Y77793D01*
X47038Y77926D01*
X46904Y77961D01*
D02*
G37*
G36*
X46396Y77961D02*
X46262Y77926D01*
X46034Y77793D01*
X45847Y77606D01*
X45714Y77378D01*
X45679Y77244D01*
X46396D01*
Y77961D01*
D02*
G37*
G36*
X56890Y77431D02*
X56710D01*
X56537Y77385D01*
X56382Y77295D01*
X56255Y77168D01*
X56165Y77013D01*
X56119Y76840D01*
Y76660D01*
X56165Y76487D01*
X56255Y76332D01*
X56382Y76205D01*
X56537Y76115D01*
X56710Y76069D01*
X56890D01*
X57063Y76115D01*
X57218Y76205D01*
X57345Y76332D01*
X57435Y76487D01*
X57481Y76660D01*
Y76840D01*
X57435Y77013D01*
X57345Y77168D01*
X57218Y77295D01*
X57063Y77385D01*
X56890Y77431D01*
D02*
G37*
G36*
X47621Y76736D02*
X46904D01*
Y76019D01*
X47038Y76054D01*
X47266Y76187D01*
X47453Y76374D01*
X47586Y76602D01*
X47621Y76736D01*
D02*
G37*
G36*
X46396D02*
X45679D01*
X45714Y76602D01*
X45847Y76374D01*
X46034Y76187D01*
X46262Y76054D01*
X46396Y76019D01*
Y76736D01*
D02*
G37*
G36*
X46799Y75581D02*
X46501D01*
X46213Y75504D01*
X45956Y75355D01*
X45745Y75144D01*
X45596Y74887D01*
X45519Y74599D01*
Y74301D01*
X45596Y74013D01*
X45745Y73756D01*
X45956Y73545D01*
X46213Y73396D01*
X46501Y73319D01*
X46799D01*
X47087Y73396D01*
X47344Y73545D01*
X47555Y73756D01*
X47704Y74013D01*
X47781Y74301D01*
Y74599D01*
X47704Y74887D01*
X47555Y75144D01*
X47344Y75355D01*
X47087Y75504D01*
X46799Y75581D01*
D02*
G37*
G36*
X65774Y74004D02*
X65024D01*
Y73254D01*
X65774D01*
Y74004D01*
D02*
G37*
G36*
X64516D02*
X63766D01*
Y73254D01*
X64516D01*
Y74004D01*
D02*
G37*
G36*
X65774Y72746D02*
X65024D01*
Y71996D01*
X65774D01*
Y72746D01*
D02*
G37*
G36*
X64516D02*
X63766D01*
Y71996D01*
X64516D01*
Y72746D01*
D02*
G37*
G36*
X59839Y74131D02*
X59541D01*
X59253Y74054D01*
X58996Y73905D01*
X58785Y73694D01*
X58636Y73437D01*
X58559Y73149D01*
Y72851D01*
X58636Y72563D01*
X58785Y72306D01*
X58996Y72095D01*
X59253Y71946D01*
X59541Y71869D01*
X59839D01*
X60127Y71946D01*
X60384Y72095D01*
X60595Y72306D01*
X60744Y72563D01*
X60821Y72851D01*
Y73149D01*
X60744Y73437D01*
X60595Y73694D01*
X60384Y73905D01*
X60127Y74054D01*
X59839Y74131D01*
D02*
G37*
G36*
X54759D02*
X54461D01*
X54173Y74054D01*
X53916Y73905D01*
X53705Y73694D01*
X53556Y73437D01*
X53479Y73149D01*
Y72851D01*
X53556Y72563D01*
X53705Y72306D01*
X53916Y72095D01*
X54173Y71946D01*
X54461Y71869D01*
X54759D01*
X55047Y71946D01*
X55304Y72095D01*
X55515Y72306D01*
X55664Y72563D01*
X55741Y72851D01*
Y73149D01*
X55664Y73437D01*
X55515Y73694D01*
X55304Y73905D01*
X55047Y74054D01*
X54759Y74131D01*
D02*
G37*
G36*
X52219D02*
X51921D01*
X51633Y74054D01*
X51376Y73905D01*
X51165Y73694D01*
X51016Y73437D01*
X50939Y73149D01*
Y72851D01*
X51016Y72563D01*
X51165Y72306D01*
X51376Y72095D01*
X51633Y71946D01*
X51921Y71869D01*
X52219D01*
X52507Y71946D01*
X52764Y72095D01*
X52975Y72306D01*
X53124Y72563D01*
X53201Y72851D01*
Y73149D01*
X53124Y73437D01*
X52975Y73694D01*
X52764Y73905D01*
X52507Y74054D01*
X52219Y74131D01*
D02*
G37*
G36*
X57299D02*
X57001D01*
X56713Y74054D01*
X56456Y73905D01*
X56245Y73694D01*
X56096Y73437D01*
X56019Y73149D01*
Y72851D01*
X56096Y72563D01*
X56214Y72360D01*
X56217Y72342D01*
X56188Y72220D01*
X56173Y72198D01*
X56082Y72145D01*
X55955Y72018D01*
X55865Y71863D01*
X55819Y71690D01*
Y71510D01*
X55865Y71337D01*
X55955Y71182D01*
X56082Y71055D01*
X56237Y70965D01*
X56410Y70919D01*
X56590D01*
X56763Y70965D01*
X56918Y71055D01*
X57045Y71182D01*
X57135Y71337D01*
X57181Y71510D01*
Y71690D01*
X57167Y71742D01*
X57264Y71869D01*
X57299D01*
X57587Y71946D01*
X57844Y72095D01*
X58055Y72306D01*
X58204Y72563D01*
X58281Y72851D01*
Y73149D01*
X58204Y73437D01*
X58055Y73694D01*
X57844Y73905D01*
X57587Y74054D01*
X57299Y74131D01*
D02*
G37*
G36*
X46799Y73041D02*
X46501D01*
X46213Y72964D01*
X45956Y72815D01*
X45745Y72604D01*
X45596Y72347D01*
X45519Y72059D01*
Y71761D01*
X45596Y71473D01*
X45745Y71216D01*
X45956Y71005D01*
X46213Y70856D01*
X46501Y70779D01*
X46799D01*
X47087Y70856D01*
X47344Y71005D01*
X47555Y71216D01*
X47704Y71473D01*
X47781Y71761D01*
Y72059D01*
X47704Y72347D01*
X47555Y72604D01*
X47344Y72815D01*
X47087Y72964D01*
X46799Y73041D01*
D02*
G37*
G36*
X62379Y74131D02*
X62081D01*
X61793Y74054D01*
X61536Y73905D01*
X61325Y73694D01*
X61176Y73437D01*
X61099Y73149D01*
Y72851D01*
X61176Y72563D01*
X61325Y72306D01*
X61536Y72095D01*
X61749Y71972D01*
X61715Y71845D01*
X61575D01*
X61402Y71798D01*
X61246Y71709D01*
X61119Y71582D01*
X61030Y71427D01*
X60983Y71253D01*
Y71074D01*
X61030Y70901D01*
X61119Y70746D01*
X61246Y70619D01*
X61402Y70529D01*
X61575Y70483D01*
X61754D01*
X61927Y70529D01*
X62083Y70619D01*
X62209Y70746D01*
X62248Y70813D01*
X62347Y70755D01*
X62521Y70709D01*
X62700D01*
X62873Y70755D01*
X63028Y70845D01*
X63155Y70972D01*
X63245Y71127D01*
X63291Y71300D01*
Y71479D01*
X63245Y71653D01*
X63155Y71808D01*
X63028Y71935D01*
X62965Y71972D01*
X62952Y72010D01*
X62954Y72124D01*
X63135Y72306D01*
X63284Y72563D01*
X63361Y72851D01*
Y73149D01*
X63284Y73437D01*
X63135Y73694D01*
X62924Y73905D01*
X62667Y74054D01*
X62379Y74131D01*
D02*
G37*
G36*
X-2349Y73031D02*
X-2651D01*
X-2947Y72972D01*
X-3225Y72857D01*
X-3476Y72689D01*
X-3689Y72476D01*
X-3857Y72225D01*
X-3972Y71946D01*
X-4031Y71651D01*
Y71349D01*
X-3972Y71053D01*
X-3857Y70775D01*
X-3689Y70524D01*
X-3476Y70311D01*
X-3225Y70143D01*
X-2947Y70028D01*
X-2651Y69969D01*
X-2349D01*
X-2054Y70028D01*
X-1775Y70143D01*
X-1524Y70311D01*
X-1311Y70524D01*
X-1143Y70775D01*
X-1028Y71053D01*
X-969Y71349D01*
Y71651D01*
X-1028Y71946D01*
X-1143Y72225D01*
X-1311Y72476D01*
X-1524Y72689D01*
X-1775Y72857D01*
X-2054Y72972D01*
X-2349Y73031D01*
D02*
G37*
G36*
X119551Y73031D02*
X119249D01*
X118953Y72972D01*
X118675Y72857D01*
X118424Y72689D01*
X118211Y72476D01*
X118043Y72225D01*
X117928Y71946D01*
X117869Y71651D01*
Y71349D01*
X117928Y71053D01*
X118043Y70775D01*
X118211Y70524D01*
X118424Y70311D01*
X118675Y70143D01*
X118953Y70028D01*
X119249Y69969D01*
X119551D01*
X119846Y70028D01*
X120125Y70143D01*
X120376Y70311D01*
X120589Y70524D01*
X120757Y70775D01*
X120872Y71053D01*
X120931Y71349D01*
Y71651D01*
X120872Y71946D01*
X120757Y72225D01*
X120589Y72476D01*
X120376Y72689D01*
X120125Y72857D01*
X119846Y72972D01*
X119551Y73031D01*
D02*
G37*
G36*
X54290Y71432D02*
X54110D01*
X53937Y71385D01*
X53782Y71296D01*
X53655Y71169D01*
X53565Y71014D01*
X53519Y70840D01*
Y70661D01*
X53565Y70488D01*
X53655Y70333D01*
X53782Y70206D01*
X53811Y70189D01*
X53767Y70113D01*
X53720Y69940D01*
Y69760D01*
X53767Y69587D01*
X53856Y69432D01*
X53983Y69305D01*
X54138Y69215D01*
X54312Y69169D01*
X54491D01*
X54664Y69215D01*
X54819Y69305D01*
X54946Y69432D01*
X55036Y69587D01*
X55082Y69760D01*
Y69940D01*
X55036Y70113D01*
X54946Y70268D01*
X54819Y70395D01*
X54791Y70412D01*
X54835Y70488D01*
X54881Y70661D01*
Y70840D01*
X54835Y71014D01*
X54745Y71169D01*
X54618Y71296D01*
X54463Y71385D01*
X54290Y71432D01*
D02*
G37*
G36*
X58596Y71431D02*
X58304D01*
X58018Y71374D01*
X57748Y71262D01*
X57506Y71100D01*
X57299Y70894D01*
X57137Y70651D01*
X57026Y70382D01*
X56969Y70096D01*
Y69804D01*
X57026Y69518D01*
X57137Y69248D01*
X57299Y69006D01*
X57506Y68799D01*
X57748Y68637D01*
X58018Y68526D01*
X58304Y68469D01*
X58596D01*
X58882Y68526D01*
X59151Y68637D01*
X59394Y68799D01*
X59600Y69006D01*
X59762Y69248D01*
X59874Y69518D01*
X59931Y69804D01*
Y70096D01*
X59874Y70382D01*
X59762Y70651D01*
X59600Y70894D01*
X59394Y71100D01*
X59151Y71262D01*
X58882Y71374D01*
X58596Y71431D01*
D02*
G37*
G36*
X51567Y70189D02*
X51333D01*
X51107Y70128D01*
X50904Y70011D01*
X50739Y69846D01*
X50622Y69643D01*
X50561Y69417D01*
Y69183D01*
X50622Y68957D01*
X50739Y68754D01*
X50904Y68589D01*
X51107Y68472D01*
X51333Y68411D01*
X51567D01*
X51793Y68472D01*
X51996Y68589D01*
X52161Y68754D01*
X52278Y68957D01*
X52339Y69183D01*
Y69417D01*
X52278Y69643D01*
X52161Y69846D01*
X51996Y70011D01*
X51793Y70128D01*
X51567Y70189D01*
D02*
G37*
G36*
X47781Y70501D02*
X45519D01*
Y68239D01*
X47781D01*
Y70501D01*
D02*
G37*
G36*
X69890Y68751D02*
X69710D01*
X69537Y68705D01*
X69382Y68615D01*
X69255Y68488D01*
X69165Y68333D01*
X69119Y68160D01*
Y67981D01*
X69165Y67807D01*
X69255Y67652D01*
X69382Y67525D01*
X69537Y67436D01*
X69710Y67389D01*
X69890D01*
X70063Y67436D01*
X70218Y67525D01*
X70345Y67652D01*
X70435Y67807D01*
X70481Y67981D01*
Y68160D01*
X70435Y68333D01*
X70345Y68488D01*
X70218Y68615D01*
X70063Y68705D01*
X69890Y68751D01*
D02*
G37*
G36*
X114640Y68703D02*
X114460D01*
X114287Y68656D01*
X114132Y68567D01*
X114005Y68440D01*
X113915Y68284D01*
X113869Y68111D01*
Y67932D01*
X113915Y67759D01*
X114005Y67603D01*
X114132Y67477D01*
X114287Y67387D01*
X114460Y67341D01*
X114640D01*
X114813Y67387D01*
X114968Y67477D01*
X115095Y67603D01*
X115185Y67759D01*
X115231Y67932D01*
Y68111D01*
X115185Y68284D01*
X115095Y68440D01*
X114968Y68567D01*
X114813Y68656D01*
X114640Y68703D01*
D02*
G37*
G36*
X15190Y67931D02*
X15010D01*
X14837Y67885D01*
X14682Y67795D01*
X14555Y67668D01*
X14465Y67513D01*
X14419Y67340D01*
Y67160D01*
X14465Y66987D01*
X14555Y66832D01*
X14682Y66705D01*
X14837Y66615D01*
X15010Y66569D01*
X15190D01*
X15363Y66615D01*
X15518Y66705D01*
X15645Y66832D01*
X15735Y66987D01*
X15781Y67160D01*
Y67340D01*
X15735Y67513D01*
X15645Y67668D01*
X15518Y67795D01*
X15363Y67885D01*
X15190Y67931D01*
D02*
G37*
G36*
X31186Y67874D02*
X31007D01*
X30834Y67828D01*
X30679Y67738D01*
X30552Y67612D01*
X30462Y67456D01*
X30416Y67283D01*
Y67104D01*
X30462Y66931D01*
X30552Y66775D01*
X30679Y66649D01*
X30834Y66559D01*
X31007Y66512D01*
X31186D01*
X31360Y66559D01*
X31515Y66649D01*
X31642Y66775D01*
X31731Y66931D01*
X31778Y67104D01*
Y67283D01*
X31731Y67456D01*
X31642Y67612D01*
X31515Y67738D01*
X31360Y67828D01*
X31186Y67874D01*
D02*
G37*
G36*
X9090Y67831D02*
X8910D01*
X8737Y67785D01*
X8582Y67695D01*
X8455Y67568D01*
X8365Y67413D01*
X8319Y67240D01*
Y67060D01*
X8365Y66887D01*
X8455Y66732D01*
X8582Y66605D01*
X8737Y66515D01*
X8910Y66469D01*
X9090D01*
X9263Y66515D01*
X9418Y66605D01*
X9545Y66732D01*
X9635Y66887D01*
X9681Y67060D01*
Y67240D01*
X9635Y67413D01*
X9545Y67568D01*
X9418Y67695D01*
X9263Y67785D01*
X9090Y67831D01*
D02*
G37*
G36*
X65534Y68531D02*
X65355D01*
X65182Y68485D01*
X65027Y68395D01*
X64900Y68268D01*
X64810Y68113D01*
X64764Y67940D01*
Y67760D01*
X64810Y67587D01*
X64900Y67432D01*
X65027Y67305D01*
X65058Y67287D01*
X65019Y67140D01*
Y66960D01*
X65065Y66787D01*
X65155Y66632D01*
X65282Y66505D01*
X65437Y66415D01*
X65610Y66369D01*
X65790D01*
X65963Y66415D01*
X66118Y66505D01*
X66245Y66632D01*
X66335Y66787D01*
X66381Y66960D01*
Y67140D01*
X66335Y67313D01*
X66245Y67468D01*
X66118Y67595D01*
X66086Y67613D01*
X66126Y67760D01*
Y67940D01*
X66079Y68113D01*
X65990Y68268D01*
X65863Y68395D01*
X65708Y68485D01*
X65534Y68531D01*
D02*
G37*
G36*
X22790Y67244D02*
X22610D01*
X22437Y67198D01*
X22282Y67108D01*
X22155Y66981D01*
X22065Y66826D01*
X22019Y66653D01*
Y66473D01*
X22065Y66300D01*
X22155Y66145D01*
X22282Y66018D01*
X22437Y65928D01*
X22610Y65882D01*
X22790D01*
X22963Y65928D01*
X23118Y66018D01*
X23245Y66145D01*
X23335Y66300D01*
X23381Y66473D01*
Y66653D01*
X23335Y66826D01*
X23245Y66981D01*
X23118Y67108D01*
X22963Y67198D01*
X22790Y67244D01*
D02*
G37*
G36*
X13440Y67181D02*
X13260D01*
X13087Y67135D01*
X12932Y67045D01*
X12805Y66918D01*
X12715Y66763D01*
X12669Y66590D01*
Y66410D01*
X12715Y66237D01*
X12805Y66082D01*
X12932Y65955D01*
X13087Y65865D01*
X13260Y65819D01*
X13440D01*
X13613Y65865D01*
X13768Y65955D01*
X13895Y66082D01*
X13985Y66237D01*
X14031Y66410D01*
Y66590D01*
X13985Y66763D01*
X13895Y66918D01*
X13768Y67045D01*
X13613Y67135D01*
X13440Y67181D01*
D02*
G37*
G36*
X1790Y67131D02*
X1610D01*
X1437Y67085D01*
X1282Y66995D01*
X1155Y66868D01*
X1065Y66713D01*
X1019Y66540D01*
Y66360D01*
X1065Y66187D01*
X1155Y66032D01*
X1282Y65905D01*
X1437Y65815D01*
X1610Y65769D01*
X1790D01*
X1963Y65815D01*
X2118Y65905D01*
X2245Y66032D01*
X2335Y66187D01*
X2381Y66360D01*
Y66540D01*
X2335Y66713D01*
X2245Y66868D01*
X2118Y66995D01*
X1963Y67085D01*
X1790Y67131D01*
D02*
G37*
G36*
X115050Y66481D02*
X114870D01*
X114697Y66435D01*
X114542Y66345D01*
X114415Y66218D01*
X114325Y66063D01*
X114279Y65890D01*
Y65714D01*
X114258Y65693D01*
X114218Y65663D01*
X114166Y65641D01*
X114025Y65722D01*
X113852Y65769D01*
X113673D01*
X113499Y65722D01*
X113344Y65633D01*
X113217Y65506D01*
X113128Y65351D01*
X113081Y65177D01*
Y64998D01*
X113128Y64825D01*
X113217Y64669D01*
X113344Y64543D01*
X113499Y64453D01*
X113673Y64407D01*
X113852D01*
X114025Y64453D01*
X114181Y64543D01*
X114307Y64669D01*
X114397Y64825D01*
X114443Y64998D01*
Y65174D01*
X114465Y65194D01*
X114504Y65225D01*
X114556Y65247D01*
X114697Y65165D01*
X114870Y65119D01*
X115050D01*
X115223Y65165D01*
X115378Y65255D01*
X115505Y65382D01*
X115595Y65537D01*
X115641Y65710D01*
Y65890D01*
X115595Y66063D01*
X115505Y66218D01*
X115378Y66345D01*
X115223Y66435D01*
X115050Y66481D01*
D02*
G37*
G36*
X42499Y67731D02*
X42201D01*
X41913Y67654D01*
X41656Y67505D01*
X41445Y67294D01*
X41296Y67037D01*
X41219Y66749D01*
Y66451D01*
X41296Y66163D01*
X41445Y65906D01*
X41656Y65695D01*
X41913Y65546D01*
X42201Y65469D01*
X42499D01*
X42787Y65546D01*
X43044Y65695D01*
X43255Y65906D01*
X43404Y66163D01*
X43481Y66451D01*
Y66749D01*
X43404Y67037D01*
X43255Y67294D01*
X43044Y67505D01*
X42787Y67654D01*
X42499Y67731D01*
D02*
G37*
G36*
X39699D02*
X39401D01*
X39113Y67654D01*
X38856Y67505D01*
X38645Y67294D01*
X38496Y67037D01*
X38419Y66749D01*
Y66451D01*
X38496Y66163D01*
X38645Y65906D01*
X38856Y65695D01*
X39113Y65546D01*
X39401Y65469D01*
X39699D01*
X39987Y65546D01*
X40244Y65695D01*
X40455Y65906D01*
X40604Y66163D01*
X40681Y66451D01*
Y66749D01*
X40604Y67037D01*
X40455Y67294D01*
X40244Y67505D01*
X39987Y67654D01*
X39699Y67731D01*
D02*
G37*
G36*
X36899D02*
X36601D01*
X36313Y67654D01*
X36056Y67505D01*
X35845Y67294D01*
X35696Y67037D01*
X35619Y66749D01*
Y66451D01*
X35696Y66163D01*
X35845Y65906D01*
X36056Y65695D01*
X36313Y65546D01*
X36601Y65469D01*
X36899D01*
X37187Y65546D01*
X37444Y65695D01*
X37655Y65906D01*
X37804Y66163D01*
X37881Y66451D01*
Y66749D01*
X37804Y67037D01*
X37655Y67294D01*
X37444Y67505D01*
X37187Y67654D01*
X36899Y67731D01*
D02*
G37*
G36*
X19947Y66588D02*
X19768D01*
X19594Y66542D01*
X19439Y66452D01*
X19312Y66325D01*
X19223Y66170D01*
X19176Y65997D01*
Y65818D01*
X19223Y65644D01*
X19312Y65489D01*
X19439Y65362D01*
X19594Y65273D01*
X19768Y65226D01*
X19947D01*
X20120Y65273D01*
X20275Y65362D01*
X20402Y65489D01*
X20492Y65644D01*
X20538Y65818D01*
Y65997D01*
X20492Y66170D01*
X20402Y66325D01*
X20275Y66452D01*
X20120Y66542D01*
X19947Y66588D01*
D02*
G37*
G36*
X10493Y64516D02*
X10301D01*
X10115Y64466D01*
X9948Y64370D01*
X9812Y64234D01*
X9772Y64164D01*
X9625D01*
X9585Y64234D01*
X9449Y64370D01*
X9282Y64466D01*
X9096Y64516D01*
X8904D01*
X8718Y64466D01*
X8551Y64370D01*
X8415Y64234D01*
X8319Y64067D01*
X8287Y63947D01*
X8171Y63941D01*
X8155Y63945D01*
X8061Y64107D01*
X7925Y64243D01*
X7758Y64339D01*
X7572Y64389D01*
X7380D01*
X7194Y64339D01*
X7027Y64243D01*
X6891Y64107D01*
X6795Y63940D01*
X6745Y63754D01*
Y63562D01*
X6795Y63376D01*
X6891Y63209D01*
X7014Y63086D01*
X6891Y62964D01*
X6795Y62797D01*
X6745Y62611D01*
Y62419D01*
X6795Y62233D01*
X6891Y62066D01*
X7027Y61930D01*
X7194Y61834D01*
X7380Y61784D01*
X7572D01*
X7758Y61834D01*
X7925Y61930D01*
X8061Y62066D01*
X8157Y62233D01*
X8172Y62289D01*
X8304D01*
X8319Y62233D01*
X8415Y62066D01*
X8551Y61930D01*
X8718Y61834D01*
X8904Y61784D01*
X9096D01*
X9282Y61834D01*
X9449Y61930D01*
X9585Y62066D01*
X9625Y62136D01*
X9772D01*
X9812Y62066D01*
X9948Y61930D01*
X10115Y61834D01*
X10301Y61784D01*
X10493D01*
X10679Y61834D01*
X10846Y61930D01*
X10982Y62066D01*
X11078Y62233D01*
X11128Y62419D01*
Y62611D01*
X11078Y62797D01*
X10982Y62964D01*
X10875Y63070D01*
X10857Y63150D01*
X10875Y63230D01*
X10982Y63336D01*
X11078Y63503D01*
X11128Y63689D01*
Y63881D01*
X11078Y64067D01*
X10982Y64234D01*
X10846Y64370D01*
X10679Y64466D01*
X10493Y64516D01*
D02*
G37*
G36*
X105899Y66521D02*
X105720D01*
X105547Y66475D01*
X105391Y66385D01*
X105265Y66259D01*
X105175Y66103D01*
X105129Y65930D01*
Y65751D01*
X105175Y65578D01*
X105265Y65422D01*
X105391Y65295D01*
X105547Y65206D01*
X105594Y65062D01*
X105565Y65013D01*
X105519Y64840D01*
Y64660D01*
X105565Y64487D01*
X105655Y64332D01*
X105782Y64205D01*
X105937Y64115D01*
X106110Y64069D01*
X106290D01*
X106463Y64115D01*
X106618Y64205D01*
X106745Y64332D01*
X106835Y64487D01*
X106881Y64660D01*
Y64840D01*
X106835Y65013D01*
X106745Y65168D01*
X106618Y65295D01*
X106463Y65385D01*
X106416Y65529D01*
X106444Y65578D01*
X106491Y65751D01*
Y65930D01*
X106444Y66103D01*
X106355Y66259D01*
X106228Y66385D01*
X106072Y66475D01*
X105899Y66521D01*
D02*
G37*
G36*
X76390Y65131D02*
X76210D01*
X76037Y65085D01*
X75882Y64995D01*
X75755Y64868D01*
X75665Y64713D01*
X75619Y64540D01*
Y64360D01*
X75665Y64187D01*
X75755Y64032D01*
X75882Y63905D01*
X76037Y63815D01*
X76210Y63769D01*
X76390D01*
X76563Y63815D01*
X76718Y63905D01*
X76845Y64032D01*
X76935Y64187D01*
X76981Y64360D01*
Y64540D01*
X76935Y64713D01*
X76845Y64868D01*
X76718Y64995D01*
X76563Y65085D01*
X76390Y65131D01*
D02*
G37*
G36*
X112045Y64216D02*
X111853D01*
X111667Y64166D01*
X111500Y64070D01*
X111364Y63934D01*
X111268Y63767D01*
X111253Y63711D01*
X111121D01*
X111106Y63767D01*
X111010Y63934D01*
X110874Y64070D01*
X110707Y64166D01*
X110521Y64216D01*
X110329D01*
X110143Y64166D01*
X109976Y64070D01*
X109840Y63934D01*
X109800Y63864D01*
X109653D01*
X109613Y63934D01*
X109477Y64070D01*
X109310Y64166D01*
X109124Y64216D01*
X108932D01*
X108746Y64166D01*
X108579Y64070D01*
X108443Y63934D01*
X108347Y63767D01*
X108297Y63581D01*
Y63389D01*
X108347Y63203D01*
X108443Y63036D01*
X108550Y62930D01*
X108568Y62850D01*
X108550Y62770D01*
X108443Y62664D01*
X108347Y62497D01*
X108297Y62311D01*
Y62119D01*
X108347Y61933D01*
X108443Y61766D01*
X108579Y61630D01*
X108746Y61534D01*
X108932Y61484D01*
X109124D01*
X109310Y61534D01*
X109477Y61630D01*
X109613Y61766D01*
X109653Y61836D01*
X109800D01*
X109840Y61766D01*
X109976Y61630D01*
X110143Y61534D01*
X110329Y61484D01*
X110521D01*
X110707Y61534D01*
X110874Y61630D01*
X111010Y61766D01*
X111106Y61933D01*
X111138Y62053D01*
X111254Y62059D01*
X111270Y62055D01*
X111364Y61893D01*
X111500Y61757D01*
X111667Y61661D01*
X111853Y61611D01*
X112045D01*
X112231Y61661D01*
X112398Y61757D01*
X112534Y61893D01*
X112630Y62060D01*
X112680Y62246D01*
Y62438D01*
X112630Y62624D01*
X112534Y62791D01*
X112411Y62914D01*
X112534Y63036D01*
X112630Y63203D01*
X112680Y63389D01*
Y63581D01*
X112630Y63767D01*
X112534Y63934D01*
X112398Y64070D01*
X112231Y64166D01*
X112045Y64216D01*
D02*
G37*
G36*
X83108Y64731D02*
X82929D01*
X82755Y64685D01*
X82600Y64595D01*
X82473Y64468D01*
X82384Y64313D01*
X82337Y64140D01*
Y63960D01*
X82384Y63787D01*
X82473Y63632D01*
X82600Y63505D01*
X82755Y63415D01*
X82929Y63369D01*
X83108D01*
X83281Y63415D01*
X83436Y63505D01*
X83563Y63632D01*
X83653Y63787D01*
X83699Y63960D01*
Y64140D01*
X83653Y64313D01*
X83563Y64468D01*
X83436Y64595D01*
X83281Y64685D01*
X83108Y64731D01*
D02*
G37*
G36*
X2940Y64681D02*
X2760D01*
X2587Y64635D01*
X2432Y64545D01*
X2305Y64418D01*
X2215Y64263D01*
X2169Y64090D01*
Y63910D01*
X2215Y63737D01*
X2305Y63582D01*
X2432Y63455D01*
X2587Y63365D01*
X2760Y63319D01*
X2940D01*
X3113Y63365D01*
X3268Y63455D01*
X3395Y63582D01*
X3485Y63737D01*
X3531Y63910D01*
Y64090D01*
X3485Y64263D01*
X3395Y64418D01*
X3268Y64545D01*
X3113Y64635D01*
X2940Y64681D01*
D02*
G37*
G36*
X93890Y64631D02*
X93710D01*
X93537Y64585D01*
X93382Y64495D01*
X93255Y64368D01*
X93165Y64213D01*
X93119Y64040D01*
Y63860D01*
X93165Y63687D01*
X93255Y63532D01*
X93382Y63405D01*
X93537Y63315D01*
X93710Y63269D01*
X93890D01*
X94063Y63315D01*
X94218Y63405D01*
X94345Y63532D01*
X94435Y63687D01*
X94481Y63860D01*
Y64040D01*
X94435Y64213D01*
X94345Y64368D01*
X94218Y64495D01*
X94063Y64585D01*
X93890Y64631D01*
D02*
G37*
G36*
X45171Y64413D02*
X44991D01*
X44818Y64366D01*
X44663Y64277D01*
X44536Y64150D01*
X44446Y63995D01*
X44400Y63821D01*
Y63642D01*
X44446Y63469D01*
X44536Y63314D01*
X44663Y63187D01*
X44818Y63097D01*
X44991Y63051D01*
X45171D01*
X45344Y63097D01*
X45499Y63187D01*
X45626Y63314D01*
X45716Y63469D01*
X45762Y63642D01*
Y63821D01*
X45716Y63995D01*
X45626Y64150D01*
X45499Y64277D01*
X45344Y64366D01*
X45171Y64413D01*
D02*
G37*
G36*
X88640Y64231D02*
X88460D01*
X88287Y64185D01*
X88132Y64095D01*
X88005Y63968D01*
X87915Y63813D01*
X87869Y63640D01*
Y63460D01*
X87915Y63287D01*
X88005Y63132D01*
X88132Y63005D01*
X88287Y62915D01*
X88460Y62869D01*
X88640D01*
X88813Y62915D01*
X88968Y63005D01*
X89095Y63132D01*
X89185Y63287D01*
X89231Y63460D01*
Y63640D01*
X89185Y63813D01*
X89095Y63968D01*
X88968Y64095D01*
X88813Y64185D01*
X88640Y64231D01*
D02*
G37*
G36*
X71040Y64181D02*
X70860D01*
X70687Y64135D01*
X70532Y64045D01*
X70405Y63918D01*
X70315Y63763D01*
X70269Y63590D01*
Y63410D01*
X70315Y63237D01*
X70405Y63082D01*
X70532Y62955D01*
X70687Y62865D01*
X70860Y62819D01*
X71040D01*
X71213Y62865D01*
X71368Y62955D01*
X71495Y63082D01*
X71585Y63237D01*
X71631Y63410D01*
Y63590D01*
X71585Y63763D01*
X71495Y63918D01*
X71368Y64045D01*
X71213Y64135D01*
X71040Y64181D01*
D02*
G37*
G36*
X42840D02*
X42660D01*
X42487Y64135D01*
X42332Y64045D01*
X42205Y63918D01*
X42115Y63763D01*
X42069Y63590D01*
Y63410D01*
X42115Y63237D01*
X42205Y63082D01*
X42332Y62955D01*
X42487Y62865D01*
X42660Y62819D01*
X42840D01*
X43013Y62865D01*
X43168Y62955D01*
X43295Y63082D01*
X43385Y63237D01*
X43431Y63410D01*
Y63590D01*
X43385Y63763D01*
X43295Y63918D01*
X43168Y64045D01*
X43013Y64135D01*
X42840Y64181D01*
D02*
G37*
G36*
X79540Y64131D02*
X79360D01*
X79187Y64085D01*
X79032Y63995D01*
X78905Y63868D01*
X78815Y63713D01*
X78769Y63540D01*
Y63360D01*
X78815Y63187D01*
X78905Y63032D01*
X79032Y62905D01*
X79187Y62815D01*
X79360Y62769D01*
X79540D01*
X79713Y62815D01*
X79868Y62905D01*
X79995Y63032D01*
X80085Y63187D01*
X80131Y63360D01*
Y63540D01*
X80085Y63713D01*
X79995Y63868D01*
X79868Y63995D01*
X79713Y64085D01*
X79540Y64131D01*
D02*
G37*
G36*
X72547Y62018D02*
X72368D01*
X72195Y61972D01*
X72040Y61882D01*
X71913Y61755D01*
X71823Y61600D01*
X71798Y61507D01*
X71662Y61489D01*
X71645Y61518D01*
X71518Y61645D01*
X71363Y61735D01*
X71190Y61781D01*
X71010D01*
X70837Y61735D01*
X70682Y61645D01*
X70555Y61518D01*
X70465Y61363D01*
X70419Y61190D01*
Y61010D01*
X70465Y60837D01*
X70555Y60682D01*
X70682Y60555D01*
X70837Y60465D01*
X70919Y60443D01*
Y60360D01*
X70965Y60187D01*
X71055Y60032D01*
X71182Y59905D01*
X71337Y59815D01*
X71510Y59769D01*
X71690D01*
X71863Y59815D01*
X72018Y59905D01*
X72145Y60032D01*
X72235Y60187D01*
X72281Y60360D01*
Y60540D01*
X72274Y60567D01*
X72341Y60635D01*
X72381Y60656D01*
X72547D01*
X72721Y60702D01*
X72876Y60792D01*
X72947Y60863D01*
X73087Y60824D01*
X73115Y60717D01*
X73205Y60562D01*
X73332Y60435D01*
X73487Y60346D01*
X73660Y60299D01*
X73840D01*
X74013Y60346D01*
X74168Y60435D01*
X74295Y60562D01*
X74385Y60717D01*
X74431Y60891D01*
Y61070D01*
X74385Y61243D01*
X74295Y61398D01*
X74168Y61525D01*
X74013Y61615D01*
X73840Y61661D01*
X73660D01*
X73487Y61615D01*
X73332Y61525D01*
X73261Y61454D01*
X73121Y61494D01*
X73092Y61600D01*
X73003Y61755D01*
X72876Y61882D01*
X72721Y61972D01*
X72547Y62018D01*
D02*
G37*
G36*
X93240Y62231D02*
X93061D01*
X92887Y62185D01*
X92732Y62095D01*
X92605Y61968D01*
X92516Y61813D01*
X92469Y61640D01*
Y61461D01*
X92516Y61287D01*
X92605Y61132D01*
X92732Y61005D01*
X92887Y60916D01*
X93061Y60869D01*
X93240D01*
X93413Y60916D01*
X93568Y61005D01*
X93695Y61132D01*
X93785Y61287D01*
X93831Y61461D01*
Y61640D01*
X93785Y61813D01*
X93695Y61968D01*
X93568Y62095D01*
X93413Y62185D01*
X93240Y62231D01*
D02*
G37*
G36*
X67643Y63201D02*
X67464D01*
X67290Y63154D01*
X67135Y63065D01*
X67008Y62938D01*
X66919Y62783D01*
X66872Y62609D01*
Y62430D01*
X66919Y62257D01*
X67008Y62102D01*
X67135Y61975D01*
X67290Y61885D01*
X67326Y61876D01*
Y61744D01*
X67290Y61735D01*
X67135Y61645D01*
X67008Y61518D01*
X66919Y61363D01*
X66872Y61190D01*
Y61010D01*
X66919Y60837D01*
X67008Y60682D01*
X67135Y60555D01*
X67290Y60465D01*
X67464Y60419D01*
X67643D01*
X67816Y60465D01*
X67971Y60555D01*
X68098Y60682D01*
X68188Y60837D01*
X68234Y61010D01*
Y61190D01*
X68188Y61363D01*
X68098Y61518D01*
X67971Y61645D01*
X67816Y61735D01*
X67780Y61744D01*
Y61876D01*
X67816Y61885D01*
X67971Y61975D01*
X68098Y62102D01*
X68188Y62257D01*
X68234Y62430D01*
Y62609D01*
X68188Y62783D01*
X68098Y62938D01*
X67971Y63065D01*
X67816Y63154D01*
X67643Y63201D01*
D02*
G37*
G36*
X44826Y61433D02*
X44647D01*
X44474Y61387D01*
X44319Y61297D01*
X44192Y61171D01*
X44102Y61015D01*
X44056Y60842D01*
Y60663D01*
X44102Y60490D01*
X44192Y60334D01*
X44319Y60208D01*
X44474Y60118D01*
X44647Y60071D01*
X44826D01*
X45000Y60118D01*
X45155Y60208D01*
X45282Y60334D01*
X45371Y60490D01*
X45418Y60663D01*
Y60842D01*
X45371Y61015D01*
X45282Y61171D01*
X45155Y61297D01*
X45000Y61387D01*
X44826Y61433D01*
D02*
G37*
G36*
X36701Y60193D02*
X36522D01*
X36349Y60146D01*
X36194Y60057D01*
X36067Y59930D01*
X35977Y59775D01*
X35974Y59762D01*
X35838Y59744D01*
X35795Y59818D01*
X35668Y59945D01*
X35513Y60035D01*
X35340Y60081D01*
X35160D01*
X34987Y60035D01*
X34832Y59945D01*
X34705Y59818D01*
X34615Y59663D01*
X34569Y59490D01*
Y59310D01*
X34615Y59137D01*
X34705Y58982D01*
X34832Y58855D01*
X34987Y58765D01*
X35160Y58719D01*
X35340D01*
X35513Y58765D01*
X35668Y58855D01*
X35795Y58982D01*
X35885Y59137D01*
X35888Y59149D01*
X36024Y59167D01*
X36067Y59094D01*
X36194Y58967D01*
X36349Y58877D01*
X36522Y58831D01*
X36701D01*
X36875Y58877D01*
X37030Y58967D01*
X37157Y59094D01*
X37246Y59249D01*
X37293Y59422D01*
Y59601D01*
X37246Y59775D01*
X37157Y59930D01*
X37030Y60057D01*
X36875Y60146D01*
X36701Y60193D01*
D02*
G37*
G36*
X88240Y60931D02*
X88060D01*
X87887Y60885D01*
X87732Y60795D01*
X87605Y60668D01*
X87515Y60513D01*
X87469Y60340D01*
Y60160D01*
X87515Y59987D01*
X87605Y59832D01*
X87732Y59705D01*
X87887Y59615D01*
X88060Y59569D01*
X88240D01*
X88413Y59615D01*
X88568Y59705D01*
X88695Y59832D01*
X88785Y59987D01*
X88831Y60160D01*
Y60340D01*
X88785Y60513D01*
X88695Y60668D01*
X88568Y60795D01*
X88413Y60885D01*
X88240Y60931D01*
D02*
G37*
G36*
X16370Y60931D02*
X16191D01*
X16017Y60885D01*
X15862Y60795D01*
X15735Y60668D01*
X15646Y60513D01*
X15599Y60340D01*
Y60160D01*
X15646Y59987D01*
X15735Y59832D01*
X15862Y59705D01*
X16017Y59615D01*
X16191Y59569D01*
X16370D01*
X16543Y59615D01*
X16698Y59705D01*
X16825Y59832D01*
X16915Y59987D01*
X16961Y60160D01*
Y60340D01*
X16915Y60513D01*
X16825Y60668D01*
X16698Y60795D01*
X16543Y60885D01*
X16370Y60931D01*
D02*
G37*
G36*
X84790Y60881D02*
X84610D01*
X84437Y60835D01*
X84282Y60745D01*
X84155Y60618D01*
X84065Y60463D01*
X84019Y60290D01*
Y60110D01*
X84065Y59937D01*
X84155Y59782D01*
X84282Y59655D01*
X84437Y59565D01*
X84610Y59519D01*
X84790D01*
X84963Y59565D01*
X85118Y59655D01*
X85245Y59782D01*
X85335Y59937D01*
X85381Y60110D01*
Y60290D01*
X85335Y60463D01*
X85245Y60618D01*
X85118Y60745D01*
X84963Y60835D01*
X84790Y60881D01*
D02*
G37*
G36*
X81932Y62131D02*
X81568D01*
X81217Y62037D01*
X80902Y61855D01*
X80645Y61598D01*
X80463Y61283D01*
X80369Y60932D01*
Y60568D01*
X80463Y60217D01*
X80645Y59902D01*
X80902Y59645D01*
X81217Y59463D01*
X81568Y59369D01*
X81932D01*
X82283Y59463D01*
X82598Y59645D01*
X82855Y59902D01*
X83037Y60217D01*
X83131Y60568D01*
Y60932D01*
X83037Y61283D01*
X82855Y61598D01*
X82598Y61855D01*
X82283Y62037D01*
X81932Y62131D01*
D02*
G37*
G36*
X23490Y60581D02*
X23310D01*
X23137Y60535D01*
X22982Y60445D01*
X22855Y60318D01*
X22765Y60163D01*
X22719Y59990D01*
Y59810D01*
X22765Y59637D01*
X22855Y59482D01*
X22982Y59355D01*
X23137Y59265D01*
X23310Y59219D01*
X23490D01*
X23663Y59265D01*
X23818Y59355D01*
X23945Y59482D01*
X24035Y59637D01*
X24081Y59810D01*
Y59990D01*
X24035Y60163D01*
X23945Y60318D01*
X23818Y60445D01*
X23663Y60535D01*
X23490Y60581D01*
D02*
G37*
G36*
X86640Y60481D02*
X86460D01*
X86287Y60435D01*
X86132Y60345D01*
X86005Y60218D01*
X85915Y60063D01*
X85869Y59890D01*
Y59710D01*
X85915Y59537D01*
X86005Y59382D01*
X86132Y59255D01*
X86287Y59165D01*
X86460Y59119D01*
X86640D01*
X86813Y59165D01*
X86968Y59255D01*
X87095Y59382D01*
X87185Y59537D01*
X87231Y59710D01*
Y59890D01*
X87185Y60063D01*
X87095Y60218D01*
X86968Y60345D01*
X86813Y60435D01*
X86640Y60481D01*
D02*
G37*
G36*
X77540Y60232D02*
X77360D01*
X77187Y60186D01*
X77032Y60096D01*
X76905Y59970D01*
X76815Y59814D01*
X76769Y59641D01*
Y59462D01*
X76815Y59289D01*
X76905Y59133D01*
X77032Y59006D01*
X77187Y58917D01*
X77360Y58870D01*
X77540D01*
X77713Y58917D01*
X77868Y59006D01*
X77995Y59133D01*
X78085Y59289D01*
X78131Y59462D01*
Y59641D01*
X78085Y59814D01*
X77995Y59970D01*
X77868Y60096D01*
X77713Y60186D01*
X77540Y60232D01*
D02*
G37*
G36*
X33440Y59731D02*
X33260D01*
X33087Y59685D01*
X32932Y59595D01*
X32805Y59468D01*
X32715Y59313D01*
X32669Y59140D01*
Y58960D01*
X32715Y58787D01*
X32805Y58632D01*
X32932Y58505D01*
X33087Y58415D01*
X33260Y58369D01*
X33440D01*
X33613Y58415D01*
X33768Y58505D01*
X33895Y58632D01*
X33985Y58787D01*
X34031Y58960D01*
Y59140D01*
X33985Y59313D01*
X33895Y59468D01*
X33768Y59595D01*
X33613Y59685D01*
X33440Y59731D01*
D02*
G37*
G36*
X5790D02*
X5610D01*
X5437Y59685D01*
X5282Y59595D01*
X5155Y59468D01*
X5065Y59313D01*
X5019Y59140D01*
Y58960D01*
X5065Y58787D01*
X5155Y58632D01*
X5282Y58505D01*
X5437Y58415D01*
X5610Y58369D01*
X5790D01*
X5963Y58415D01*
X6118Y58505D01*
X6245Y58632D01*
X6262Y58662D01*
X6409D01*
X6455Y58582D01*
X6582Y58455D01*
X6737Y58365D01*
X6910Y58319D01*
X7090D01*
X7263Y58365D01*
X7418Y58455D01*
X7545Y58582D01*
X7635Y58737D01*
X7681Y58910D01*
Y59090D01*
X7635Y59263D01*
X7545Y59418D01*
X7418Y59545D01*
X7263Y59635D01*
X7090Y59681D01*
X6910D01*
X6737Y59635D01*
X6582Y59545D01*
X6455Y59418D01*
X6438Y59388D01*
X6291D01*
X6245Y59468D01*
X6118Y59595D01*
X5963Y59685D01*
X5790Y59731D01*
D02*
G37*
G36*
X40347Y59457D02*
X40167D01*
X39994Y59411D01*
X39839Y59321D01*
X39712Y59194D01*
X39622Y59039D01*
X39576Y58866D01*
Y58686D01*
X39622Y58513D01*
X39712Y58358D01*
X39839Y58231D01*
X39994Y58141D01*
X40167Y58095D01*
X40347D01*
X40520Y58141D01*
X40675Y58231D01*
X40802Y58358D01*
X40892Y58513D01*
X40938Y58686D01*
Y58866D01*
X40892Y59039D01*
X40802Y59194D01*
X40675Y59321D01*
X40520Y59411D01*
X40347Y59457D01*
D02*
G37*
G36*
X74490Y59415D02*
X74310D01*
X74137Y59369D01*
X73982Y59279D01*
X73855Y59152D01*
X73765Y58997D01*
X73719Y58824D01*
Y58645D01*
X73765Y58471D01*
X73855Y58316D01*
X73982Y58189D01*
X74137Y58100D01*
X74310Y58053D01*
X74490D01*
X74663Y58100D01*
X74818Y58189D01*
X74945Y58316D01*
X75035Y58471D01*
X75081Y58645D01*
Y58824D01*
X75035Y58997D01*
X74945Y59152D01*
X74818Y59279D01*
X74663Y59369D01*
X74490Y59415D01*
D02*
G37*
G36*
X71690Y59381D02*
X71510D01*
X71337Y59335D01*
X71182Y59245D01*
X71055Y59118D01*
X70965Y58963D01*
X70919Y58790D01*
Y58610D01*
X70965Y58437D01*
X71055Y58282D01*
X71182Y58155D01*
X71337Y58065D01*
X71510Y58019D01*
X71690D01*
X71863Y58065D01*
X72018Y58155D01*
X72145Y58282D01*
X72235Y58437D01*
X72281Y58610D01*
Y58790D01*
X72235Y58963D01*
X72145Y59118D01*
X72018Y59245D01*
X71863Y59335D01*
X71690Y59381D01*
D02*
G37*
G36*
X24632Y59181D02*
X24453D01*
X24280Y59135D01*
X24125Y59045D01*
X23998Y58918D01*
X23908Y58763D01*
X23862Y58590D01*
Y58410D01*
X23908Y58237D01*
X23998Y58082D01*
X24125Y57955D01*
X24280Y57865D01*
X24453Y57819D01*
X24632D01*
X24806Y57865D01*
X24961Y57955D01*
X25088Y58082D01*
X25177Y58237D01*
X25224Y58410D01*
Y58590D01*
X25177Y58763D01*
X25088Y58918D01*
X24961Y59045D01*
X24806Y59135D01*
X24632Y59181D01*
D02*
G37*
G36*
X44679Y59143D02*
X44500D01*
X44327Y59096D01*
X44171Y59007D01*
X44045Y58880D01*
X43959Y58731D01*
X43810D01*
X43637Y58685D01*
X43482Y58595D01*
X43355Y58468D01*
X43265Y58313D01*
X43219Y58140D01*
Y57960D01*
X43265Y57787D01*
X43355Y57632D01*
X43482Y57505D01*
X43637Y57415D01*
X43810Y57369D01*
X43990D01*
X44163Y57415D01*
X44318Y57505D01*
X44445Y57632D01*
X44531Y57781D01*
X44679D01*
X44852Y57827D01*
X45008Y57917D01*
X45130Y58039D01*
X45202Y58041D01*
X45270Y58025D01*
X45351Y57886D01*
X45477Y57759D01*
X45633Y57670D01*
X45806Y57623D01*
X45985D01*
X46158Y57670D01*
X46314Y57759D01*
X46441Y57886D01*
X46530Y58042D01*
X46577Y58215D01*
Y58394D01*
X46530Y58567D01*
X46441Y58723D01*
X46314Y58849D01*
X46158Y58939D01*
X45985Y58985D01*
X45806D01*
X45633Y58939D01*
X45477Y58849D01*
X45355Y58727D01*
X45283Y58725D01*
X45215Y58741D01*
X45135Y58880D01*
X45008Y59007D01*
X44852Y59096D01*
X44679Y59143D01*
D02*
G37*
G36*
X14640Y58981D02*
X14460D01*
X14287Y58935D01*
X14132Y58845D01*
X14005Y58718D01*
X13915Y58563D01*
X13869Y58390D01*
Y58210D01*
X13915Y58037D01*
X14005Y57882D01*
X14132Y57755D01*
X14287Y57665D01*
X14460Y57619D01*
X14640D01*
X14813Y57665D01*
X14968Y57755D01*
X15095Y57882D01*
X15185Y58037D01*
X15231Y58210D01*
Y58390D01*
X15185Y58563D01*
X15095Y58718D01*
X14968Y58845D01*
X14813Y58935D01*
X14640Y58981D01*
D02*
G37*
G36*
X12785Y60370D02*
X12606D01*
X12432Y60324D01*
X12277Y60234D01*
X12150Y60107D01*
X12061Y59952D01*
X12014Y59779D01*
Y59599D01*
X12061Y59426D01*
X12150Y59271D01*
X12277Y59144D01*
X12432Y59054D01*
X12402Y58931D01*
X12360D01*
X12187Y58885D01*
X12032Y58795D01*
X11905Y58668D01*
X11815Y58513D01*
X11769Y58340D01*
Y58160D01*
X11815Y57987D01*
X11905Y57832D01*
X12032Y57705D01*
X12187Y57615D01*
X12360Y57569D01*
X12540D01*
X12713Y57615D01*
X12868Y57705D01*
X12995Y57832D01*
X13085Y57987D01*
X13131Y58160D01*
Y58340D01*
X13085Y58513D01*
X12995Y58668D01*
X12868Y58795D01*
X12713Y58885D01*
X12743Y59008D01*
X12785D01*
X12958Y59054D01*
X13113Y59144D01*
X13240Y59271D01*
X13330Y59426D01*
X13376Y59599D01*
Y59779D01*
X13330Y59952D01*
X13240Y60107D01*
X13113Y60234D01*
X12958Y60324D01*
X12785Y60370D01*
D02*
G37*
G36*
X106390Y58781D02*
X106210D01*
X106037Y58735D01*
X105882Y58645D01*
X105755Y58518D01*
X105665Y58363D01*
X105619Y58190D01*
Y58010D01*
X105665Y57837D01*
X105755Y57682D01*
X105882Y57555D01*
X106037Y57465D01*
X106210Y57419D01*
X106390D01*
X106563Y57465D01*
X106718Y57555D01*
X106845Y57682D01*
X106935Y57837D01*
X106981Y58010D01*
Y58190D01*
X106935Y58363D01*
X106845Y58518D01*
X106718Y58645D01*
X106563Y58735D01*
X106390Y58781D01*
D02*
G37*
G36*
X78242Y58388D02*
X78062D01*
X77889Y58341D01*
X77734Y58252D01*
X77607Y58125D01*
X77517Y57970D01*
X77471Y57796D01*
Y57617D01*
X77517Y57444D01*
X77607Y57289D01*
X77734Y57162D01*
X77889Y57072D01*
X78062Y57026D01*
X78242D01*
X78415Y57072D01*
X78570Y57162D01*
X78697Y57289D01*
X78786Y57444D01*
X78833Y57617D01*
Y57796D01*
X78786Y57970D01*
X78697Y58125D01*
X78570Y58252D01*
X78415Y58341D01*
X78242Y58388D01*
D02*
G37*
G36*
X95440Y57592D02*
X95260D01*
X95087Y57546D01*
X94932Y57456D01*
X94805Y57329D01*
X94715Y57174D01*
X94672Y57012D01*
X94630Y56992D01*
X94542Y56971D01*
X94449Y57064D01*
X94294Y57154D01*
X94120Y57200D01*
X93941D01*
X93768Y57154D01*
X93613Y57064D01*
X93486Y56937D01*
X93396Y56782D01*
X93350Y56609D01*
Y56430D01*
X93396Y56256D01*
X93486Y56101D01*
X93613Y55974D01*
X93768Y55885D01*
X93941Y55838D01*
X94120D01*
X94294Y55885D01*
X94449Y55974D01*
X94576Y56101D01*
X94665Y56256D01*
X94709Y56419D01*
X94751Y56439D01*
X94839Y56459D01*
X94932Y56366D01*
X95087Y56277D01*
X95260Y56230D01*
X95440D01*
X95613Y56277D01*
X95768Y56366D01*
X95895Y56493D01*
X95985Y56648D01*
X96031Y56822D01*
Y57001D01*
X95985Y57174D01*
X95895Y57329D01*
X95768Y57456D01*
X95613Y57546D01*
X95440Y57592D01*
D02*
G37*
G36*
X31484Y57777D02*
X31305D01*
X31132Y57730D01*
X30977Y57641D01*
X30850Y57514D01*
X30760Y57359D01*
X30714Y57186D01*
Y57006D01*
X30760Y56833D01*
X30850Y56678D01*
X30977Y56551D01*
X31132Y56461D01*
X31305Y56415D01*
X31484D01*
X31658Y56461D01*
X31813Y56551D01*
X31940Y56678D01*
X32029Y56833D01*
X32076Y57006D01*
Y57186D01*
X32029Y57359D01*
X31940Y57514D01*
X31813Y57641D01*
X31658Y57730D01*
X31484Y57777D01*
D02*
G37*
G36*
X4040Y57231D02*
X3860D01*
X3687Y57185D01*
X3532Y57095D01*
X3405Y56968D01*
X3315Y56813D01*
X3269Y56640D01*
Y56460D01*
X3315Y56287D01*
X3405Y56132D01*
X3532Y56005D01*
X3687Y55915D01*
X3860Y55869D01*
X4040D01*
X4213Y55915D01*
X4368Y56005D01*
X4495Y56132D01*
X4585Y56287D01*
X4631Y56460D01*
Y56640D01*
X4585Y56813D01*
X4495Y56968D01*
X4368Y57095D01*
X4213Y57185D01*
X4040Y57231D01*
D02*
G37*
G36*
X70740Y57131D02*
X70560D01*
X70387Y57085D01*
X70232Y56995D01*
X70105Y56868D01*
X70015Y56713D01*
X69969Y56540D01*
Y56360D01*
X70015Y56187D01*
X70105Y56032D01*
X70232Y55905D01*
X70387Y55815D01*
X70560Y55769D01*
X70740D01*
X70913Y55815D01*
X71068Y55905D01*
X71195Y56032D01*
X71285Y56187D01*
X71331Y56360D01*
Y56540D01*
X71285Y56713D01*
X71195Y56868D01*
X71068Y56995D01*
X70913Y57085D01*
X70740Y57131D01*
D02*
G37*
G36*
X46390Y57082D02*
X46210D01*
X46037Y57036D01*
X45882Y56946D01*
X45755Y56819D01*
X45665Y56664D01*
X45619Y56491D01*
Y56312D01*
X45665Y56138D01*
X45755Y55983D01*
X45882Y55856D01*
X46037Y55767D01*
X46210Y55720D01*
X46390D01*
X46563Y55767D01*
X46718Y55856D01*
X46845Y55983D01*
X46935Y56138D01*
X46981Y56312D01*
Y56491D01*
X46935Y56664D01*
X46845Y56819D01*
X46718Y56946D01*
X46563Y57036D01*
X46390Y57082D01*
D02*
G37*
G36*
X82550Y57750D02*
X82371D01*
X82198Y57704D01*
X82043Y57614D01*
X81916Y57488D01*
X81826Y57332D01*
X81780Y57159D01*
Y56980D01*
X81826Y56807D01*
X81916Y56651D01*
X82043Y56525D01*
X82198Y56435D01*
X82318Y56403D01*
X82419Y56290D01*
Y56110D01*
X82465Y55937D01*
X82555Y55782D01*
X82682Y55655D01*
X82837Y55565D01*
X83010Y55519D01*
X83190D01*
X83363Y55565D01*
X83518Y55655D01*
X83645Y55782D01*
X83735Y55937D01*
X83781Y56110D01*
Y56290D01*
X83735Y56463D01*
X83645Y56618D01*
X83518Y56745D01*
X83363Y56835D01*
X83243Y56867D01*
X83142Y56980D01*
Y57159D01*
X83095Y57332D01*
X83006Y57488D01*
X82879Y57614D01*
X82724Y57704D01*
X82550Y57750D01*
D02*
G37*
G36*
X49756Y56689D02*
X49522D01*
X49296Y56628D01*
X49093Y56511D01*
X48927Y56346D01*
X48810Y56143D01*
X48750Y55917D01*
Y55683D01*
X48810Y55457D01*
X48927Y55254D01*
X49093Y55089D01*
X49296Y54972D01*
X49522Y54911D01*
X49756D01*
X49982Y54972D01*
X50185Y55089D01*
X50350Y55254D01*
X50467Y55457D01*
X50528Y55683D01*
Y55917D01*
X50467Y56143D01*
X50350Y56346D01*
X50185Y56511D01*
X49982Y56628D01*
X49756Y56689D01*
D02*
G37*
G36*
X43790Y56231D02*
X43610D01*
X43437Y56185D01*
X43282Y56095D01*
X43155Y55968D01*
X43065Y55813D01*
X43019Y55640D01*
Y55460D01*
X43065Y55287D01*
X43155Y55132D01*
X43282Y55005D01*
X43437Y54915D01*
X43610Y54869D01*
X43790D01*
X43963Y54915D01*
X44118Y55005D01*
X44245Y55132D01*
X44335Y55287D01*
X44381Y55460D01*
Y55640D01*
X44335Y55813D01*
X44245Y55968D01*
X44118Y56095D01*
X43963Y56185D01*
X43790Y56231D01*
D02*
G37*
G36*
X67990Y56131D02*
X67810D01*
X67637Y56085D01*
X67482Y55995D01*
X67355Y55868D01*
X67265Y55713D01*
X67219Y55540D01*
Y55360D01*
X67265Y55187D01*
X67355Y55032D01*
X67482Y54905D01*
X67637Y54815D01*
X67810Y54769D01*
X67990D01*
X68163Y54815D01*
X68318Y54905D01*
X68445Y55032D01*
X68535Y55187D01*
X68581Y55360D01*
Y55540D01*
X68535Y55713D01*
X68445Y55868D01*
X68318Y55995D01*
X68163Y56085D01*
X67990Y56131D01*
D02*
G37*
G36*
X64940Y56631D02*
X64760D01*
X64587Y56585D01*
X64432Y56495D01*
X64305Y56368D01*
X64215Y56213D01*
X64169Y56040D01*
Y55860D01*
X64215Y55687D01*
X64305Y55532D01*
X64432Y55405D01*
X64580Y55319D01*
X64642Y55270D01*
X64665Y55213D01*
X64619Y55040D01*
Y54860D01*
X64665Y54687D01*
X64755Y54532D01*
X64882Y54405D01*
X65037Y54315D01*
X65210Y54269D01*
X65390D01*
X65563Y54315D01*
X65718Y54405D01*
X65845Y54532D01*
X65935Y54687D01*
X65981Y54860D01*
Y55040D01*
X65935Y55213D01*
X65845Y55368D01*
X65718Y55495D01*
X65570Y55581D01*
X65508Y55630D01*
X65485Y55687D01*
X65531Y55860D01*
Y56040D01*
X65485Y56213D01*
X65395Y56368D01*
X65268Y56495D01*
X65113Y56585D01*
X64940Y56631D01*
D02*
G37*
G36*
X73409Y57520D02*
X73229D01*
X73056Y57473D01*
X72901Y57384D01*
X72774Y57257D01*
X72684Y57102D01*
X72638Y56928D01*
Y56749D01*
X72684Y56576D01*
X72774Y56421D01*
X72901Y56294D01*
X73056Y56204D01*
X73172Y56173D01*
X73180Y56166D01*
X73230Y56053D01*
X73231Y56031D01*
X73176Y55936D01*
X73129Y55763D01*
Y55583D01*
X73140Y55544D01*
X73031Y55481D01*
X72904Y55354D01*
X72815Y55199D01*
X72768Y55025D01*
Y54846D01*
X72815Y54673D01*
X72904Y54518D01*
X73031Y54391D01*
X73186Y54301D01*
X73359Y54255D01*
X73539D01*
X73712Y54301D01*
X73867Y54391D01*
X73994Y54518D01*
X74084Y54673D01*
X74130Y54846D01*
Y55025D01*
X74119Y55065D01*
X74229Y55128D01*
X74355Y55255D01*
X74445Y55410D01*
X74491Y55583D01*
Y55763D01*
X74445Y55936D01*
X74355Y56091D01*
X74229Y56218D01*
X74073Y56308D01*
X73957Y56339D01*
X73949Y56345D01*
X73899Y56459D01*
X73899Y56481D01*
X73953Y56576D01*
X74000Y56749D01*
Y56928D01*
X73953Y57102D01*
X73864Y57257D01*
X73737Y57384D01*
X73582Y57473D01*
X73409Y57520D01*
D02*
G37*
G36*
X68310Y54527D02*
X68130D01*
X67957Y54481D01*
X67802Y54391D01*
X67675Y54264D01*
X67585Y54109D01*
X67539Y53936D01*
Y53757D01*
X67585Y53583D01*
X67675Y53428D01*
X67802Y53301D01*
X67957Y53212D01*
X68130Y53165D01*
X68310D01*
X68483Y53212D01*
X68638Y53301D01*
X68765Y53428D01*
X68855Y53583D01*
X68901Y53757D01*
Y53936D01*
X68855Y54109D01*
X68765Y54264D01*
X68638Y54391D01*
X68483Y54481D01*
X68310Y54527D01*
D02*
G37*
G36*
X52990Y54481D02*
X52810D01*
X52637Y54435D01*
X52482Y54345D01*
X52355Y54218D01*
X52265Y54063D01*
X52219Y53890D01*
Y53710D01*
X52265Y53537D01*
X52355Y53382D01*
X52482Y53255D01*
X52637Y53165D01*
X52810Y53119D01*
X52990D01*
X53163Y53165D01*
X53318Y53255D01*
X53445Y53382D01*
X53535Y53537D01*
X53581Y53710D01*
Y53890D01*
X53535Y54063D01*
X53445Y54218D01*
X53318Y54345D01*
X53163Y54435D01*
X52990Y54481D01*
D02*
G37*
G36*
X57390Y54431D02*
X57210D01*
X57037Y54385D01*
X56882Y54295D01*
X56755Y54168D01*
X56665Y54013D01*
X56619Y53840D01*
Y53660D01*
X56665Y53487D01*
X56755Y53332D01*
X56882Y53205D01*
X57037Y53115D01*
X57210Y53069D01*
X57390D01*
X57563Y53115D01*
X57718Y53205D01*
X57845Y53332D01*
X57935Y53487D01*
X57981Y53660D01*
Y53840D01*
X57935Y54013D01*
X57845Y54168D01*
X57718Y54295D01*
X57563Y54385D01*
X57390Y54431D01*
D02*
G37*
G36*
X70259Y52968D02*
X70080D01*
X69907Y52922D01*
X69752Y52832D01*
X69625Y52705D01*
X69549Y52574D01*
X69468Y52522D01*
X69419Y52502D01*
X69363Y52535D01*
X69190Y52581D01*
X69010D01*
X68837Y52535D01*
X68682Y52445D01*
X68555Y52318D01*
X68465Y52163D01*
X68419Y51990D01*
Y51810D01*
X68465Y51637D01*
X68555Y51482D01*
X68682Y51355D01*
X68837Y51265D01*
X69010Y51219D01*
X69190D01*
X69363Y51265D01*
X69518Y51355D01*
X69645Y51482D01*
X69721Y51613D01*
X69802Y51665D01*
X69851Y51685D01*
X69907Y51653D01*
X70080Y51606D01*
X70259D01*
X70433Y51653D01*
X70588Y51742D01*
X70715Y51869D01*
X70804Y52024D01*
X70851Y52198D01*
Y52377D01*
X70804Y52550D01*
X70715Y52705D01*
X70588Y52832D01*
X70433Y52922D01*
X70259Y52968D01*
D02*
G37*
G36*
X47444Y53844D02*
X47265D01*
X47092Y53797D01*
X46937Y53708D01*
X46810Y53581D01*
X46720Y53425D01*
X46674Y53252D01*
Y53073D01*
X46720Y52900D01*
X46810Y52744D01*
X46937Y52618D01*
X47092Y52528D01*
X47265Y52482D01*
X47444D01*
X47618Y52528D01*
X47773Y52618D01*
X47900Y52744D01*
X47989Y52900D01*
X48036Y53073D01*
Y53252D01*
X47989Y53425D01*
X47900Y53581D01*
X47773Y53708D01*
X47618Y53797D01*
X47444Y53844D01*
D02*
G37*
G36*
X45640Y53581D02*
X45460D01*
X45287Y53535D01*
X45132Y53445D01*
X45005Y53318D01*
X44915Y53163D01*
X44869Y52990D01*
Y52810D01*
X44915Y52637D01*
X45005Y52482D01*
X45132Y52355D01*
X45287Y52265D01*
X45460Y52219D01*
X45640D01*
X45813Y52265D01*
X45968Y52355D01*
X46095Y52482D01*
X46185Y52637D01*
X46231Y52810D01*
Y52990D01*
X46185Y53163D01*
X46095Y53318D01*
X45968Y53445D01*
X45813Y53535D01*
X45640Y53581D01*
D02*
G37*
G36*
X-2349Y55031D02*
X-2651D01*
X-2947Y54972D01*
X-3225Y54857D01*
X-3476Y54689D01*
X-3689Y54476D01*
X-3857Y54225D01*
X-3972Y53946D01*
X-4031Y53651D01*
Y53349D01*
X-3972Y53053D01*
X-3857Y52775D01*
X-3689Y52524D01*
X-3476Y52311D01*
X-3225Y52143D01*
X-2947Y52028D01*
X-2651Y51969D01*
X-2349D01*
X-2054Y52028D01*
X-1775Y52143D01*
X-1524Y52311D01*
X-1311Y52524D01*
X-1143Y52775D01*
X-1028Y53053D01*
X-969Y53349D01*
Y53651D01*
X-1028Y53946D01*
X-1143Y54225D01*
X-1311Y54476D01*
X-1524Y54689D01*
X-1775Y54857D01*
X-2054Y54972D01*
X-2349Y55031D01*
D02*
G37*
G36*
X119551Y55031D02*
X119249D01*
X118953Y54972D01*
X118675Y54857D01*
X118424Y54689D01*
X118211Y54476D01*
X118043Y54225D01*
X117928Y53946D01*
X117869Y53651D01*
Y53349D01*
X117928Y53053D01*
X118043Y52775D01*
X118211Y52524D01*
X118424Y52311D01*
X118675Y52143D01*
X118953Y52028D01*
X119249Y51969D01*
X119551D01*
X119846Y52028D01*
X120125Y52143D01*
X120376Y52311D01*
X120589Y52524D01*
X120757Y52775D01*
X120872Y53053D01*
X120931Y53349D01*
Y53651D01*
X120872Y53946D01*
X120757Y54225D01*
X120589Y54476D01*
X120376Y54689D01*
X120125Y54857D01*
X119846Y54972D01*
X119551Y55031D01*
D02*
G37*
G36*
X74640Y54281D02*
X74460D01*
X74287Y54234D01*
X74132Y54145D01*
X74005Y54018D01*
X73915Y53863D01*
X73869Y53690D01*
Y53510D01*
X73915Y53337D01*
X74005Y53182D01*
X74072Y53115D01*
X74056Y52959D01*
X74032Y52945D01*
X73905Y52818D01*
X73815Y52663D01*
X73769Y52490D01*
Y52310D01*
X73815Y52137D01*
X73905Y51982D01*
X74032Y51855D01*
X74187Y51765D01*
X74360Y51719D01*
X74540D01*
X74713Y51765D01*
X74868Y51855D01*
X74995Y51982D01*
X75084Y52137D01*
X75131Y52310D01*
Y52490D01*
X75084Y52663D01*
X74995Y52818D01*
X74928Y52885D01*
X74943Y53041D01*
X74968Y53055D01*
X75095Y53182D01*
X75184Y53337D01*
X75231Y53510D01*
Y53690D01*
X75184Y53863D01*
X75095Y54018D01*
X74968Y54145D01*
X74813Y54234D01*
X74640Y54281D01*
D02*
G37*
G36*
X45741Y50902D02*
X45562D01*
X45388Y50856D01*
X45233Y50766D01*
X45106Y50640D01*
X45017Y50484D01*
X44970Y50311D01*
Y50132D01*
X45017Y49959D01*
X45106Y49803D01*
X45233Y49676D01*
X45388Y49587D01*
X45562Y49540D01*
X45741D01*
X45914Y49587D01*
X46069Y49676D01*
X46196Y49803D01*
X46286Y49959D01*
X46332Y50132D01*
Y50311D01*
X46286Y50484D01*
X46196Y50640D01*
X46069Y50766D01*
X45914Y50856D01*
X45741Y50902D01*
D02*
G37*
%LPD*%
D66*
X69585Y63390D02*
Y63435D01*
X63947Y74797D02*
X64014Y74731D01*
X64416D02*
X64770Y74377D01*
X64014Y74731D02*
X64416D01*
X64770Y73000D02*
Y74377D01*
D69*
X46650Y76990D02*
D03*
D76*
X64770Y73000D02*
D03*
D77*
X73810Y55673D02*
D03*
D03*
X70650Y56450D02*
D03*
D03*
X73449Y54936D02*
D03*
D03*
X73750Y60980D02*
D03*
D03*
X73011Y59049D02*
D03*
X61112Y51070D02*
D03*
D03*
X68220Y53846D02*
D03*
D03*
X73319Y56839D02*
D03*
D03*
X78152Y57707D02*
D03*
D03*
X63650Y54500D02*
D03*
X77450Y59551D02*
D03*
D03*
X70170Y52287D02*
D03*
D03*
X82461Y57069D02*
D03*
D03*
X76300Y64450D02*
D03*
D03*
X65700Y67050D02*
D03*
D03*
X56800Y76750D02*
D03*
D03*
X56500Y71600D02*
D03*
D03*
X54401Y69850D02*
D03*
D03*
X66950Y52050D02*
D03*
X79850Y69100D02*
D03*
X71100Y66850D02*
D03*
X106650Y60000D02*
D03*
X113475Y59225D02*
D03*
X92800Y60550D02*
D03*
X65839Y70000D02*
D03*
X67553Y62520D02*
D03*
D03*
Y61100D02*
D03*
D03*
X69585Y63390D02*
D03*
X50187Y68900D02*
D03*
X44750Y61573D02*
D03*
X41900Y55300D02*
D03*
X50350Y51450D02*
D03*
X24200Y63900D02*
D03*
X47355Y53163D02*
D03*
D03*
X45550Y52900D02*
D03*
D03*
X23400Y59900D02*
D03*
D03*
X24543Y58500D02*
D03*
D03*
X35250Y64850D02*
D03*
X20697Y63300D02*
D03*
X46300Y56401D02*
D03*
D03*
X45896Y58304D02*
D03*
D03*
X44590Y58462D02*
D03*
D03*
X36612Y59512D02*
D03*
D03*
X43900Y58050D02*
D03*
X22700Y66563D02*
D03*
D03*
X16280Y60250D02*
D03*
D03*
X14550Y58300D02*
D03*
D03*
X19857Y65907D02*
D03*
D03*
X83100Y56200D02*
D03*
D03*
X93800Y63950D02*
D03*
D03*
X93150Y61550D02*
D03*
D03*
X86550Y59800D02*
D03*
D03*
X88150Y60250D02*
D03*
D03*
X94031Y56519D02*
D03*
D03*
X95350Y56911D02*
D03*
D03*
X84700Y60200D02*
D03*
D03*
X83018Y64050D02*
D03*
D03*
X88550Y63550D02*
D03*
D03*
X69640Y50460D02*
D03*
X105810Y65840D02*
D03*
D03*
X114960Y65800D02*
D03*
D03*
X106200Y64750D02*
D03*
D03*
X113762Y65088D02*
D03*
D03*
X54200Y70751D02*
D03*
D03*
X69800Y68070D02*
D03*
D03*
X70950Y63500D02*
D03*
D03*
X67900Y55450D02*
D03*
D03*
X71100Y57650D02*
D03*
X60412Y50588D02*
D03*
D03*
X61145Y76702D02*
D03*
D03*
X62150Y77216D02*
D03*
D03*
X65445Y67850D02*
D03*
D03*
X60000Y77100D02*
D03*
D03*
X61664Y71164D02*
D03*
D03*
X62610Y71390D02*
D03*
D03*
X58800Y77150D02*
D03*
D03*
X44576Y65726D02*
D03*
X63947Y74797D02*
D03*
X45081Y63732D02*
D03*
D03*
X42750Y63500D02*
D03*
D03*
X40257Y58776D02*
D03*
D03*
X54747Y49786D02*
D03*
D03*
X54348Y51080D02*
D03*
D03*
X55200Y50450D02*
D03*
D03*
X52900Y53800D02*
D03*
D03*
X78350Y62000D02*
D03*
X80400Y64150D02*
D03*
X43900Y58050D02*
D03*
X35250Y59400D02*
D03*
D03*
X12695Y59689D02*
D03*
D03*
X5700Y59050D02*
D03*
D03*
X12450Y58250D02*
D03*
D03*
X7000Y59000D02*
D03*
D03*
X7150Y67250D02*
D03*
X11950Y66000D02*
D03*
X13350Y66500D02*
D03*
D03*
X9000Y67150D02*
D03*
D03*
D78*
X51450Y69300D02*
D03*
D03*
X49639Y55800D02*
D03*
D03*
M02*
