G04*
G04 #@! TF.GenerationSoftware,Altium Limited,Altium Designer,21.3.2 (30)*
G04*
G04 Layer_Color=0*
%FSLAX43Y43*%
%MOMM*%
G71*
G04*
G04 #@! TF.SameCoordinates,516BDF06-D260-4404-9912-87152A7D5F29*
G04*
G04*
G04 #@! TF.FilePolarity,Positive*
G04*
G01*
G75*
%ADD11C,0.200*%
G36*
X56626Y60337D02*
X56634Y60336D01*
X56642Y60335D01*
X56651Y60334D01*
X56661Y60332D01*
X56684Y60326D01*
X56707Y60317D01*
X56719Y60311D01*
X56730Y60305D01*
X56741Y60297D01*
X56752Y60288D01*
X56753Y60287D01*
X56755Y60286D01*
X56757Y60283D01*
X56760Y60279D01*
X56765Y60274D01*
X56770Y60268D01*
X56775Y60262D01*
X56781Y60253D01*
X56786Y60244D01*
X56792Y60235D01*
X56802Y60213D01*
X56810Y60187D01*
X56813Y60173D01*
X56815Y60158D01*
X56736Y60148D01*
Y60149D01*
X56735Y60151D01*
X56734Y60154D01*
X56733Y60159D01*
X56733Y60164D01*
X56731Y60171D01*
X56726Y60185D01*
X56720Y60201D01*
X56711Y60217D01*
X56702Y60232D01*
X56691Y60245D01*
X56689Y60246D01*
X56685Y60249D01*
X56678Y60254D01*
X56669Y60259D01*
X56658Y60264D01*
X56644Y60269D01*
X56628Y60273D01*
X56611Y60274D01*
X56606D01*
X56602Y60273D01*
X56592Y60272D01*
X56579Y60269D01*
X56564Y60264D01*
X56549Y60258D01*
X56533Y60249D01*
X56518Y60236D01*
X56516Y60234D01*
X56512Y60228D01*
X56506Y60220D01*
X56499Y60209D01*
X56491Y60195D01*
X56486Y60179D01*
X56481Y60161D01*
X56479Y60140D01*
Y60139D01*
Y60138D01*
Y60135D01*
X56480Y60131D01*
X56481Y60121D01*
X56484Y60109D01*
X56488Y60094D01*
X56494Y60079D01*
X56503Y60065D01*
X56515Y60051D01*
X56517Y60049D01*
X56522Y60045D01*
X56529Y60040D01*
X56539Y60033D01*
X56552Y60027D01*
X56568Y60021D01*
X56586Y60017D01*
X56605Y60016D01*
X56613D01*
X56620Y60016D01*
X56628Y60017D01*
X56637Y60019D01*
X56648Y60021D01*
X56660Y60024D01*
X56651Y59955D01*
X56647D01*
X56643Y59955D01*
X56631D01*
X56621Y59954D01*
X56609Y59952D01*
X56595Y59949D01*
X56579Y59944D01*
X56564Y59938D01*
X56549Y59930D01*
X56548D01*
X56547Y59929D01*
X56542Y59925D01*
X56536Y59918D01*
X56528Y59910D01*
X56521Y59898D01*
X56514Y59884D01*
X56510Y59869D01*
X56508Y59859D01*
Y59849D01*
Y59848D01*
Y59847D01*
Y59842D01*
X56510Y59834D01*
X56512Y59824D01*
X56515Y59813D01*
X56520Y59801D01*
X56527Y59789D01*
X56537Y59778D01*
X56538Y59777D01*
X56543Y59773D01*
X56549Y59769D01*
X56558Y59763D01*
X56569Y59759D01*
X56582Y59754D01*
X56597Y59750D01*
X56613Y59749D01*
X56621D01*
X56629Y59751D01*
X56640Y59753D01*
X56652Y59757D01*
X56664Y59761D01*
X56677Y59769D01*
X56689Y59778D01*
X56690Y59779D01*
X56694Y59784D01*
X56699Y59790D01*
X56706Y59799D01*
X56712Y59811D01*
X56719Y59826D01*
X56724Y59844D01*
X56728Y59864D01*
X56806Y59850D01*
Y59849D01*
X56806Y59846D01*
X56805Y59843D01*
X56804Y59837D01*
X56802Y59831D01*
X56799Y59823D01*
X56794Y59806D01*
X56784Y59785D01*
X56773Y59765D01*
X56759Y59746D01*
X56742Y59728D01*
X56741Y59727D01*
X56739Y59726D01*
X56736Y59724D01*
X56733Y59722D01*
X56728Y59718D01*
X56721Y59714D01*
X56715Y59710D01*
X56707Y59706D01*
X56688Y59698D01*
X56667Y59691D01*
X56642Y59686D01*
X56629Y59685D01*
X56606D01*
X56596Y59686D01*
X56584Y59687D01*
X56569Y59690D01*
X56552Y59695D01*
X56536Y59700D01*
X56519Y59708D01*
X56518D01*
X56517Y59709D01*
X56512Y59711D01*
X56503Y59717D01*
X56494Y59723D01*
X56483Y59733D01*
X56472Y59743D01*
X56461Y59755D01*
X56451Y59769D01*
X56451Y59771D01*
X56448Y59775D01*
X56444Y59784D01*
X56439Y59794D01*
X56435Y59806D01*
X56431Y59820D01*
X56428Y59835D01*
X56427Y59851D01*
Y59853D01*
Y59858D01*
X56428Y59866D01*
X56430Y59876D01*
X56433Y59888D01*
X56438Y59901D01*
X56443Y59914D01*
X56451Y59927D01*
X56451Y59929D01*
X56454Y59932D01*
X56460Y59939D01*
X56467Y59946D01*
X56476Y59955D01*
X56488Y59964D01*
X56500Y59972D01*
X56516Y59980D01*
X56515D01*
X56513Y59981D01*
X56511Y59982D01*
X56507Y59983D01*
X56497Y59987D01*
X56484Y59992D01*
X56469Y60000D01*
X56454Y60009D01*
X56440Y60021D01*
X56427Y60035D01*
X56427Y60037D01*
X56423Y60042D01*
X56417Y60052D01*
X56412Y60064D01*
X56406Y60078D01*
X56401Y60096D01*
X56397Y60116D01*
X56396Y60139D01*
Y60139D01*
Y60142D01*
Y60147D01*
X56397Y60152D01*
X56398Y60160D01*
X56400Y60168D01*
X56402Y60177D01*
X56403Y60188D01*
X56411Y60210D01*
X56416Y60222D01*
X56422Y60233D01*
X56429Y60245D01*
X56438Y60257D01*
X56447Y60269D01*
X56458Y60280D01*
X56459Y60281D01*
X56461Y60283D01*
X56464Y60286D01*
X56469Y60289D01*
X56475Y60294D01*
X56482Y60298D01*
X56490Y60304D01*
X56500Y60309D01*
X56511Y60314D01*
X56523Y60320D01*
X56535Y60324D01*
X56549Y60329D01*
X56563Y60333D01*
X56579Y60335D01*
X56595Y60337D01*
X56612Y60338D01*
X56621D01*
X56626Y60337D01*
D02*
G37*
G36*
X53991D02*
X53999Y60336D01*
X54007Y60335D01*
X54016Y60334D01*
X54026Y60332D01*
X54049Y60326D01*
X54072Y60317D01*
X54084Y60311D01*
X54095Y60305D01*
X54106Y60297D01*
X54117Y60288D01*
X54118Y60287D01*
X54120Y60286D01*
X54123Y60283D01*
X54125Y60279D01*
X54130Y60274D01*
X54135Y60268D01*
X54140Y60262D01*
X54146Y60253D01*
X54151Y60244D01*
X54157Y60235D01*
X54167Y60213D01*
X54175Y60187D01*
X54178Y60173D01*
X54180Y60158D01*
X54101Y60148D01*
Y60149D01*
X54100Y60151D01*
X54099Y60154D01*
X54098Y60159D01*
X54098Y60164D01*
X54096Y60171D01*
X54091Y60185D01*
X54085Y60201D01*
X54076Y60217D01*
X54067Y60232D01*
X54056Y60245D01*
X54054Y60246D01*
X54050Y60249D01*
X54043Y60254D01*
X54034Y60259D01*
X54023Y60264D01*
X54009Y60269D01*
X53993Y60273D01*
X53976Y60274D01*
X53971D01*
X53967Y60273D01*
X53957Y60272D01*
X53944Y60269D01*
X53929Y60264D01*
X53914Y60258D01*
X53898Y60249D01*
X53883Y60236D01*
X53881Y60234D01*
X53877Y60228D01*
X53871Y60220D01*
X53864Y60209D01*
X53856Y60195D01*
X53851Y60179D01*
X53846Y60161D01*
X53844Y60140D01*
Y60139D01*
Y60138D01*
Y60135D01*
X53845Y60131D01*
X53846Y60121D01*
X53849Y60109D01*
X53853Y60094D01*
X53859Y60079D01*
X53868Y60065D01*
X53880Y60051D01*
X53882Y60049D01*
X53887Y60045D01*
X53894Y60040D01*
X53904Y60033D01*
X53917Y60027D01*
X53933Y60021D01*
X53951Y60017D01*
X53970Y60016D01*
X53978D01*
X53985Y60016D01*
X53993Y60017D01*
X54002Y60019D01*
X54013Y60021D01*
X54025Y60024D01*
X54016Y59955D01*
X54012D01*
X54008Y59955D01*
X53996D01*
X53986Y59954D01*
X53974Y59952D01*
X53960Y59949D01*
X53944Y59944D01*
X53929Y59938D01*
X53914Y59930D01*
X53913D01*
X53912Y59929D01*
X53907Y59925D01*
X53901Y59918D01*
X53893Y59910D01*
X53886Y59898D01*
X53879Y59884D01*
X53875Y59869D01*
X53873Y59859D01*
Y59849D01*
Y59848D01*
Y59847D01*
Y59842D01*
X53875Y59834D01*
X53877Y59824D01*
X53880Y59813D01*
X53885Y59801D01*
X53892Y59789D01*
X53902Y59778D01*
X53903Y59777D01*
X53908Y59773D01*
X53914Y59769D01*
X53923Y59763D01*
X53934Y59759D01*
X53947Y59754D01*
X53962Y59750D01*
X53978Y59749D01*
X53986D01*
X53994Y59751D01*
X54005Y59753D01*
X54017Y59757D01*
X54029Y59761D01*
X54042Y59769D01*
X54054Y59778D01*
X54055Y59779D01*
X54059Y59784D01*
X54064Y59790D01*
X54071Y59799D01*
X54077Y59811D01*
X54084Y59826D01*
X54089Y59844D01*
X54093Y59864D01*
X54172Y59850D01*
Y59849D01*
X54171Y59846D01*
X54170Y59843D01*
X54169Y59837D01*
X54167Y59831D01*
X54164Y59823D01*
X54159Y59806D01*
X54149Y59785D01*
X54138Y59765D01*
X54124Y59746D01*
X54107Y59728D01*
X54106Y59727D01*
X54104Y59726D01*
X54101Y59724D01*
X54098Y59722D01*
X54093Y59718D01*
X54086Y59714D01*
X54080Y59710D01*
X54072Y59706D01*
X54053Y59698D01*
X54032Y59691D01*
X54007Y59686D01*
X53994Y59685D01*
X53971D01*
X53961Y59686D01*
X53949Y59687D01*
X53934Y59690D01*
X53917Y59695D01*
X53901Y59700D01*
X53884Y59708D01*
X53883D01*
X53882Y59709D01*
X53877Y59711D01*
X53868Y59717D01*
X53859Y59723D01*
X53848Y59733D01*
X53837Y59743D01*
X53826Y59755D01*
X53816Y59769D01*
X53816Y59771D01*
X53813Y59775D01*
X53809Y59784D01*
X53804Y59794D01*
X53800Y59806D01*
X53796Y59820D01*
X53793Y59835D01*
X53792Y59851D01*
Y59853D01*
Y59858D01*
X53793Y59866D01*
X53795Y59876D01*
X53798Y59888D01*
X53803Y59901D01*
X53808Y59914D01*
X53816Y59927D01*
X53816Y59929D01*
X53819Y59932D01*
X53825Y59939D01*
X53832Y59946D01*
X53841Y59955D01*
X53853Y59964D01*
X53865Y59972D01*
X53881Y59980D01*
X53880D01*
X53878Y59981D01*
X53876Y59982D01*
X53872Y59983D01*
X53862Y59987D01*
X53849Y59992D01*
X53834Y60000D01*
X53819Y60009D01*
X53805Y60021D01*
X53792Y60035D01*
X53792Y60037D01*
X53788Y60042D01*
X53782Y60052D01*
X53777Y60064D01*
X53771Y60078D01*
X53766Y60096D01*
X53762Y60116D01*
X53761Y60139D01*
Y60139D01*
Y60142D01*
Y60147D01*
X53762Y60152D01*
X53763Y60160D01*
X53765Y60168D01*
X53767Y60177D01*
X53768Y60188D01*
X53776Y60210D01*
X53781Y60222D01*
X53787Y60233D01*
X53794Y60245D01*
X53803Y60257D01*
X53812Y60269D01*
X53823Y60280D01*
X53824Y60281D01*
X53826Y60283D01*
X53829Y60286D01*
X53834Y60289D01*
X53840Y60294D01*
X53847Y60298D01*
X53855Y60304D01*
X53865Y60309D01*
X53876Y60314D01*
X53888Y60320D01*
X53900Y60324D01*
X53914Y60329D01*
X53928Y60333D01*
X53944Y60335D01*
X53960Y60337D01*
X53977Y60338D01*
X53986D01*
X53991Y60337D01*
D02*
G37*
G36*
X58450D02*
X58459D01*
X58468Y60336D01*
X58479Y60335D01*
X58502Y60332D01*
X58526Y60328D01*
X58550Y60322D01*
X58573Y60313D01*
X58574D01*
X58576Y60312D01*
X58579Y60311D01*
X58583Y60309D01*
X58594Y60303D01*
X58607Y60295D01*
X58621Y60284D01*
X58637Y60271D01*
X58652Y60255D01*
X58666Y60237D01*
Y60237D01*
X58668Y60235D01*
X58669Y60232D01*
X58671Y60228D01*
X58673Y60224D01*
X58676Y60218D01*
X58682Y60204D01*
X58689Y60187D01*
X58694Y60167D01*
X58698Y60145D01*
X58700Y60122D01*
X58620Y60114D01*
Y60115D01*
Y60116D01*
X58620Y60119D01*
Y60123D01*
X58618Y60131D01*
X58615Y60143D01*
X58611Y60155D01*
X58608Y60169D01*
X58601Y60182D01*
X58595Y60194D01*
X58594Y60195D01*
X58591Y60199D01*
X58586Y60205D01*
X58579Y60212D01*
X58570Y60220D01*
X58559Y60228D01*
X58546Y60237D01*
X58531Y60244D01*
X58530D01*
X58529Y60245D01*
X58526Y60246D01*
X58523Y60247D01*
X58514Y60249D01*
X58502Y60253D01*
X58487Y60257D01*
X58471Y60260D01*
X58452Y60262D01*
X58432Y60262D01*
X58424D01*
X58414Y60262D01*
X58403Y60261D01*
X58390Y60259D01*
X58375Y60257D01*
X58361Y60253D01*
X58347Y60249D01*
X58345Y60248D01*
X58340Y60246D01*
X58334Y60242D01*
X58326Y60238D01*
X58317Y60232D01*
X58308Y60225D01*
X58299Y60218D01*
X58291Y60209D01*
X58290Y60208D01*
X58289Y60204D01*
X58286Y60200D01*
X58282Y60192D01*
X58278Y60185D01*
X58276Y60176D01*
X58274Y60165D01*
X58273Y60154D01*
Y60153D01*
Y60149D01*
X58274Y60143D01*
X58275Y60136D01*
X58277Y60128D01*
X58280Y60119D01*
X58285Y60110D01*
X58291Y60102D01*
X58292Y60101D01*
X58295Y60098D01*
X58299Y60094D01*
X58305Y60089D01*
X58313Y60083D01*
X58323Y60077D01*
X58335Y60070D01*
X58349Y60065D01*
X58350Y60064D01*
X58354Y60063D01*
X58362Y60060D01*
X58366Y60059D01*
X58373Y60057D01*
X58379Y60054D01*
X58388Y60053D01*
X58397Y60050D01*
X58408Y60047D01*
X58419Y60044D01*
X58432Y60041D01*
X58447Y60037D01*
X58462Y60033D01*
X58463D01*
X58466Y60032D01*
X58471Y60031D01*
X58476Y60029D01*
X58484Y60028D01*
X58492Y60026D01*
X58510Y60020D01*
X58531Y60014D01*
X58552Y60007D01*
X58571Y60001D01*
X58579Y59997D01*
X58586Y59993D01*
X58587D01*
X58588Y59992D01*
X58594Y59989D01*
X58602Y59984D01*
X58611Y59977D01*
X58622Y59968D01*
X58633Y59958D01*
X58645Y59946D01*
X58654Y59933D01*
X58655Y59931D01*
X58657Y59927D01*
X58661Y59919D01*
X58665Y59910D01*
X58669Y59898D01*
X58672Y59884D01*
X58675Y59869D01*
X58676Y59854D01*
Y59853D01*
Y59852D01*
Y59849D01*
Y59845D01*
X58674Y59836D01*
X58672Y59824D01*
X58669Y59810D01*
X58665Y59795D01*
X58658Y59779D01*
X58649Y59763D01*
Y59762D01*
X58648Y59761D01*
X58644Y59756D01*
X58637Y59748D01*
X58629Y59739D01*
X58618Y59729D01*
X58604Y59718D01*
X58587Y59708D01*
X58569Y59698D01*
X58568D01*
X58566Y59698D01*
X58563Y59697D01*
X58559Y59695D01*
X58555Y59693D01*
X58548Y59691D01*
X58535Y59687D01*
X58517Y59684D01*
X58497Y59680D01*
X58475Y59677D01*
X58451Y59676D01*
X58439D01*
X58433Y59677D01*
X58426D01*
X58409Y59679D01*
X58389Y59682D01*
X58369Y59686D01*
X58347Y59692D01*
X58326Y59699D01*
X58326D01*
X58324Y59700D01*
X58321Y59702D01*
X58317Y59704D01*
X58308Y59709D01*
X58296Y59717D01*
X58282Y59726D01*
X58268Y59738D01*
X58255Y59752D01*
X58243Y59768D01*
Y59769D01*
X58242Y59770D01*
X58240Y59772D01*
X58239Y59775D01*
X58234Y59784D01*
X58228Y59796D01*
X58222Y59811D01*
X58217Y59829D01*
X58213Y59847D01*
X58211Y59868D01*
X58292Y59874D01*
Y59873D01*
Y59871D01*
X58293Y59869D01*
X58294Y59864D01*
X58297Y59854D01*
X58301Y59840D01*
X58306Y59825D01*
X58314Y59810D01*
X58325Y59796D01*
X58338Y59784D01*
X58339Y59783D01*
X58344Y59779D01*
X58353Y59773D01*
X58365Y59768D01*
X58381Y59762D01*
X58400Y59757D01*
X58423Y59753D01*
X58449Y59752D01*
X58461D01*
X58467Y59753D01*
X58474Y59754D01*
X58491Y59756D01*
X58510Y59759D01*
X58528Y59764D01*
X58546Y59771D01*
X58553Y59776D01*
X58560Y59781D01*
X58562Y59782D01*
X58566Y59785D01*
X58571Y59792D01*
X58577Y59799D01*
X58583Y59809D01*
X58589Y59820D01*
X58593Y59833D01*
X58595Y59848D01*
Y59850D01*
Y59854D01*
X58594Y59860D01*
X58592Y59868D01*
X58589Y59877D01*
X58584Y59886D01*
X58579Y59895D01*
X58571Y59905D01*
X58570Y59906D01*
X58565Y59908D01*
X58561Y59911D01*
X58558Y59913D01*
X58552Y59916D01*
X58546Y59919D01*
X58537Y59922D01*
X58528Y59926D01*
X58518Y59930D01*
X58506Y59934D01*
X58493Y59938D01*
X58478Y59943D01*
X58461Y59946D01*
X58443Y59951D01*
X58442D01*
X58438Y59952D01*
X58433Y59953D01*
X58426Y59955D01*
X58418Y59956D01*
X58408Y59959D01*
X58398Y59962D01*
X58387Y59965D01*
X58363Y59971D01*
X58339Y59978D01*
X58328Y59981D01*
X58318Y59985D01*
X58309Y59988D01*
X58302Y59992D01*
X58301D01*
X58299Y59992D01*
X58296Y59994D01*
X58292Y59996D01*
X58282Y60002D01*
X58270Y60009D01*
X58256Y60019D01*
X58242Y60030D01*
X58229Y60043D01*
X58218Y60057D01*
X58217Y60059D01*
X58214Y60064D01*
X58210Y60072D01*
X58204Y60083D01*
X58200Y60096D01*
X58195Y60112D01*
X58192Y60129D01*
X58191Y60148D01*
Y60149D01*
Y60150D01*
Y60152D01*
Y60156D01*
X58193Y60166D01*
X58195Y60179D01*
X58199Y60194D01*
X58204Y60210D01*
X58211Y60226D01*
X58221Y60244D01*
Y60245D01*
X58222Y60246D01*
X58227Y60251D01*
X58233Y60260D01*
X58242Y60269D01*
X58254Y60280D01*
X58269Y60292D01*
X58286Y60303D01*
X58305Y60313D01*
X58306D01*
X58308Y60314D01*
X58311Y60315D01*
X58314Y60317D01*
X58320Y60319D01*
X58326Y60322D01*
X58341Y60325D01*
X58359Y60330D01*
X58380Y60335D01*
X58403Y60337D01*
X58428Y60338D01*
X58443D01*
X58450Y60337D01*
D02*
G37*
G36*
X55786Y59687D02*
X55701D01*
Y59950D01*
X55370D01*
Y59687D01*
X55285D01*
Y60327D01*
X55370D01*
Y60026D01*
X55701D01*
Y60327D01*
X55786D01*
Y59687D01*
D02*
G37*
G36*
X57531D02*
X57405D01*
X57253Y60141D01*
Y60142D01*
X57252Y60144D01*
X57251Y60147D01*
X57249Y60151D01*
X57246Y60163D01*
X57241Y60176D01*
X57236Y60192D01*
X57231Y60208D01*
X57226Y60223D01*
X57223Y60236D01*
X57222Y60234D01*
X57221Y60229D01*
X57218Y60221D01*
X57214Y60210D01*
X57210Y60195D01*
X57203Y60177D01*
X57197Y60157D01*
X57188Y60133D01*
X57035Y59687D01*
X56921D01*
Y60327D01*
X57003D01*
Y59792D01*
X57189Y60327D01*
X57265D01*
X57450Y59783D01*
Y60327D01*
X57531D01*
Y59687D01*
D02*
G37*
G36*
X55080Y60326D02*
Y60323D01*
Y60320D01*
X55079Y60314D01*
Y60307D01*
X55078Y60298D01*
X55078Y60287D01*
X55077Y60276D01*
X55075Y60263D01*
X55073Y60250D01*
X55070Y60235D01*
X55067Y60219D01*
X55065Y60202D01*
X55061Y60184D01*
X55052Y60146D01*
Y60145D01*
X55051Y60141D01*
X55049Y60136D01*
X55046Y60127D01*
X55043Y60118D01*
X55040Y60107D01*
X55036Y60094D01*
X55030Y60080D01*
X55025Y60065D01*
X55019Y60049D01*
X55005Y60014D01*
X54989Y59977D01*
X54970Y59940D01*
X54969Y59939D01*
X54968Y59935D01*
X54965Y59931D01*
X54961Y59923D01*
X54956Y59915D01*
X54950Y59905D01*
X54944Y59894D01*
X54936Y59882D01*
X54919Y59855D01*
X54900Y59827D01*
X54879Y59798D01*
X54857Y59771D01*
X55170D01*
Y59696D01*
X54756D01*
Y59758D01*
X54757Y59759D01*
X54759Y59760D01*
X54762Y59764D01*
X54766Y59770D01*
X54772Y59776D01*
X54779Y59784D01*
X54786Y59793D01*
X54795Y59804D01*
X54803Y59815D01*
X54813Y59828D01*
X54823Y59843D01*
X54833Y59857D01*
X54845Y59874D01*
X54856Y59892D01*
X54867Y59911D01*
X54878Y59931D01*
X54879Y59931D01*
X54881Y59935D01*
X54883Y59941D01*
X54888Y59949D01*
X54893Y59959D01*
X54898Y59970D01*
X54905Y59983D01*
X54911Y59998D01*
X54919Y60015D01*
X54927Y60031D01*
X54934Y60050D01*
X54942Y60069D01*
X54956Y60109D01*
X54970Y60151D01*
Y60152D01*
X54971Y60155D01*
X54972Y60160D01*
X54974Y60165D01*
X54976Y60173D01*
X54978Y60182D01*
X54980Y60192D01*
X54982Y60203D01*
X54985Y60216D01*
X54988Y60230D01*
X54993Y60260D01*
X54997Y60292D01*
X55000Y60327D01*
X55080D01*
Y60326D01*
D02*
G37*
G36*
X57912Y59763D02*
X58123D01*
Y59687D01*
X57616D01*
Y59763D01*
X57827D01*
Y60327D01*
X57912D01*
Y59763D01*
D02*
G37*
G36*
X54427Y60174D02*
X54705D01*
Y60102D01*
X54412Y59687D01*
X54348D01*
Y60102D01*
X54261D01*
Y60174D01*
X54348D01*
Y60327D01*
X54427D01*
Y60174D01*
D02*
G37*
G36*
X56329Y60326D02*
Y60323D01*
Y60317D01*
X56328Y60310D01*
X56328Y60301D01*
X56326Y60292D01*
X56324Y60283D01*
X56320Y60273D01*
Y60272D01*
X56319Y60271D01*
X56317Y60265D01*
X56314Y60257D01*
X56308Y60246D01*
X56301Y60233D01*
X56292Y60218D01*
X56281Y60203D01*
X56268Y60188D01*
Y60187D01*
X56267Y60186D01*
X56262Y60180D01*
X56254Y60172D01*
X56242Y60160D01*
X56228Y60146D01*
X56210Y60129D01*
X56189Y60111D01*
X56166Y60091D01*
X56165Y60090D01*
X56161Y60088D01*
X56156Y60083D01*
X56149Y60078D01*
X56141Y60070D01*
X56131Y60062D01*
X56120Y60053D01*
X56108Y60042D01*
X56085Y60020D01*
X56062Y59998D01*
X56051Y59987D01*
X56041Y59976D01*
X56032Y59966D01*
X56024Y59955D01*
Y59955D01*
X56022Y59954D01*
X56021Y59951D01*
X56019Y59947D01*
X56012Y59937D01*
X56005Y59925D01*
X55998Y59910D01*
X55992Y59894D01*
X55988Y59877D01*
X55986Y59860D01*
Y59859D01*
Y59858D01*
X55987Y59853D01*
X55988Y59844D01*
X55991Y59833D01*
X55995Y59820D01*
X56001Y59808D01*
X56010Y59795D01*
X56021Y59782D01*
X56022Y59780D01*
X56027Y59776D01*
X56034Y59771D01*
X56044Y59765D01*
X56057Y59759D01*
X56071Y59754D01*
X56089Y59750D01*
X56108Y59749D01*
X56114D01*
X56118Y59750D01*
X56129Y59751D01*
X56142Y59754D01*
X56156Y59758D01*
X56171Y59764D01*
X56186Y59772D01*
X56200Y59784D01*
X56202Y59785D01*
X56206Y59790D01*
X56211Y59797D01*
X56217Y59808D01*
X56223Y59821D01*
X56229Y59838D01*
X56232Y59857D01*
X56234Y59878D01*
X56315Y59869D01*
Y59869D01*
X56314Y59866D01*
Y59861D01*
X56313Y59855D01*
X56311Y59847D01*
X56309Y59839D01*
X56306Y59829D01*
X56304Y59819D01*
X56296Y59796D01*
X56285Y59774D01*
X56279Y59763D01*
X56270Y59752D01*
X56262Y59742D01*
X56253Y59733D01*
X56252Y59732D01*
X56250Y59731D01*
X56247Y59728D01*
X56243Y59725D01*
X56237Y59722D01*
X56230Y59718D01*
X56223Y59713D01*
X56214Y59709D01*
X56204Y59704D01*
X56193Y59699D01*
X56181Y59696D01*
X56168Y59692D01*
X56154Y59689D01*
X56139Y59686D01*
X56123Y59686D01*
X56107Y59685D01*
X56097D01*
X56091Y59686D01*
X56083Y59686D01*
X56074Y59687D01*
X56064Y59689D01*
X56054Y59691D01*
X56030Y59698D01*
X56006Y59707D01*
X55994Y59712D01*
X55982Y59719D01*
X55971Y59727D01*
X55961Y59736D01*
X55960Y59737D01*
X55958Y59738D01*
X55956Y59742D01*
X55952Y59746D01*
X55948Y59750D01*
X55943Y59757D01*
X55938Y59763D01*
X55933Y59771D01*
X55924Y59789D01*
X55914Y59811D01*
X55911Y59822D01*
X55909Y59835D01*
X55907Y59848D01*
X55906Y59862D01*
Y59864D01*
Y59869D01*
X55907Y59876D01*
X55908Y59886D01*
X55910Y59897D01*
X55913Y59910D01*
X55917Y59924D01*
X55923Y59938D01*
X55924Y59940D01*
X55925Y59944D01*
X55929Y59952D01*
X55935Y59962D01*
X55942Y59973D01*
X55951Y59987D01*
X55962Y60001D01*
X55975Y60016D01*
X55977Y60018D01*
X55982Y60024D01*
X55986Y60029D01*
X55991Y60033D01*
X55997Y60039D01*
X56004Y60046D01*
X56011Y60053D01*
X56021Y60062D01*
X56030Y60071D01*
X56041Y60081D01*
X56053Y60091D01*
X56066Y60103D01*
X56081Y60115D01*
X56096Y60128D01*
X56096Y60129D01*
X56098Y60131D01*
X56102Y60134D01*
X56107Y60138D01*
X56112Y60143D01*
X56119Y60149D01*
X56133Y60161D01*
X56149Y60175D01*
X56164Y60188D01*
X56177Y60200D01*
X56182Y60205D01*
X56187Y60210D01*
X56188Y60211D01*
X56191Y60213D01*
X56194Y60217D01*
X56199Y60223D01*
X56204Y60229D01*
X56209Y60236D01*
X56220Y60251D01*
X55905D01*
Y60327D01*
X56329D01*
Y60326D01*
D02*
G37*
%LPC*%
G36*
X54628Y60102D02*
X54427D01*
Y59815D01*
X54628Y60102D01*
D02*
G37*
%LPD*%
D11*
X67150Y51700D02*
Y68600D01*
X50250D02*
X67150D01*
X50250Y51700D02*
Y68600D01*
Y51700D02*
X67150D01*
M02*
