M48
;Layer_Color=9474304
;FILE_FORMAT=4:3
METRIC,LZ
;TYPE=PLATED
T1F00S00C0.300
T3F00S00C0.508
%
T01
X00057Y005905
X0007Y0059
X001245Y005825
X0012695Y0059689
X001455Y00583
X001628Y006025
X0020697Y00633
X0019857Y0065907
X00227Y0066563
X00234Y00599
X0024543Y00585
X001335Y00665
X001195Y0066
X0009Y006715
X000715Y006725
X003525Y006485
Y00594
X0036612Y0059512
X0040257Y0058776
X00439Y005805
X004459Y0058462
X0045896Y0058304
X00463Y0056401
X004555Y00529
X0047355Y0053163
X00529Y00538
X0054348Y005108
X00552Y005045
X0054747Y0049786
X0060412Y0050588
X0061112Y005107
X006365Y00545
X00657Y006705
X0065445Y006785
X006261Y007139
X0061664Y0071164
X00565Y00716
X00542Y0070751
X0054401Y006985
X00568Y007675
X00588Y007715
X006Y00771
X0061145Y0076702
X006215Y0077216
X0044576Y0065726
X0045081Y0063732
X004475Y0061573
X004275Y00635
X0067553Y006252
Y00611
X007095Y00635
X007375Y006098
X0073319Y0056839
X007381Y0055673
X0073449Y0054936
X007065Y005645
X00679Y005545
X006822Y0053846
X007017Y0052287
X0078152Y0057707
X007745Y0059551
X00763Y006445
X0083018Y006405
X00847Y00602
X008655Y00598
X008815Y006025
X008855Y006355
X00938Y006395
X009315Y006155
X0094031Y0056519
X009535Y0056911
X00831Y00562
X0082461Y0057069
X00698Y006807
X010581Y006584
X01062Y006475
X010665Y006
X0113475Y0059225
X0113762Y0065088
X011496Y00658
T03
X0049639Y00558
X005145Y00693
M30
