G04*
G04 #@! TF.GenerationSoftware,Altium Limited,Altium Designer,22.10.1 (41)*
G04*
G04 Layer_Color=32768*
%FSLAX44Y44*%
%MOMM*%
G71*
G04*
G04 #@! TF.SameCoordinates,B178BA49-C0A8-449A-8AC4-8C5071AB2F05*
G04*
G04*
G04 #@! TF.FilePolarity,Positive*
G04*
G01*
G75*
%ADD32C,0.1016*%
%ADD33C,0.0762*%
%ADD34C,0.0508*%
D32*
X-214084Y35428D02*
G03*
X-214084Y44572I0J4572D01*
G01*
X-183096D02*
G03*
X-183096Y35428I0J-4572D01*
G01*
X176756D02*
G03*
X176756Y44572I0J4572D01*
G01*
X207744D02*
G03*
X207744Y35428I0J-4572D01*
G01*
X-83312Y47752D02*
X-64008D01*
X-83312Y36068D02*
X-64008D01*
Y47752D01*
X-83312Y36068D02*
Y47752D01*
X-229953Y30988D02*
Y42672D01*
X-249256Y30988D02*
Y42672D01*
X-229953D01*
X-249256Y30988D02*
X-229953D01*
X-214084Y44572D02*
Y46985D01*
Y33015D02*
Y35428D01*
Y46985D02*
X-183096D01*
X-214084Y33015D02*
X-183096D01*
Y44572D02*
Y46985D01*
Y33015D02*
Y35428D01*
X-498602Y-3048D02*
X-479298D01*
X-498602Y-14732D02*
X-479298D01*
Y-3048D01*
X-498602Y-14732D02*
Y-3048D01*
X-562102Y-46482D02*
Y-34798D01*
X-542798Y-46482D02*
Y-34798D01*
X-562102Y-46482D02*
X-542798D01*
X-562102Y-34798D02*
X-542798D01*
X-507238Y-35052D02*
Y-23368D01*
X-526542Y-35052D02*
Y-23368D01*
X-507238D01*
X-526542Y-35052D02*
X-507238D01*
X-361442Y15748D02*
Y27432D01*
X-342138Y15748D02*
Y27432D01*
X-361442Y15748D02*
X-342138D01*
X-361442Y27432D02*
X-342138D01*
X-123952Y39878D02*
Y51562D01*
X-104648Y39878D02*
Y51562D01*
X-123952Y39878D02*
X-104648D01*
X-123952Y51562D02*
X-104648D01*
X-49657Y38608D02*
Y50292D01*
X-30353Y38608D02*
Y50292D01*
X-49657Y38608D02*
X-30353D01*
X-49657Y50292D02*
X-30353D01*
X-265938Y20828D02*
Y32512D01*
X-285242Y20828D02*
Y32512D01*
X-265938D01*
X-285242Y20828D02*
X-265938D01*
X176756Y44572D02*
Y46985D01*
Y33015D02*
Y35428D01*
Y46985D02*
X207744D01*
X176756Y33015D02*
X207744D01*
Y44572D02*
Y46985D01*
Y33015D02*
Y35428D01*
D33*
X-67310Y36068D02*
Y47752D01*
X-80010Y36068D02*
Y47752D01*
X-233255Y30988D02*
Y42672D01*
X-245954Y30988D02*
Y42672D01*
X-206591Y33015D02*
Y46985D01*
X-190589Y33015D02*
Y46985D01*
X-193764Y34920D02*
Y45080D01*
X-194272Y34920D02*
Y45080D01*
X-194780Y34920D02*
Y45080D01*
X-194617Y40000D02*
X-191732D01*
X-205448D02*
X-203416D01*
Y34920D02*
Y45080D01*
X-194617Y40000D01*
X-203416Y34920D02*
X-194617Y40000D01*
X-482600Y-14732D02*
Y-3048D01*
X-495300Y-14732D02*
Y-3048D01*
X-558800Y-46482D02*
Y-34798D01*
X-546100Y-46482D02*
Y-34798D01*
X-510540Y-35052D02*
Y-23368D01*
X-523240Y-35052D02*
Y-23368D01*
X-358140Y15748D02*
Y27432D01*
X-345440Y15748D02*
Y27432D01*
X-120650Y39878D02*
Y51562D01*
X-107950Y39878D02*
Y51562D01*
X-46355Y38608D02*
Y50292D01*
X-33655Y38608D02*
Y50292D01*
X-269240Y20828D02*
Y32512D01*
X-281940Y20828D02*
Y32512D01*
X188277Y40000D02*
X197076Y45080D01*
X188277Y40000D02*
X197076Y34920D01*
Y45080D01*
Y40000D02*
X199108D01*
X185392D02*
X188277D01*
X188440Y34920D02*
Y45080D01*
X187932Y34920D02*
Y45080D01*
X187424Y34920D02*
Y45080D01*
X184249Y33015D02*
Y46985D01*
X200251Y33015D02*
Y46985D01*
D34*
X-203162Y31745D02*
X-197864Y26447D01*
X-199742Y30475D02*
X-197864Y26447D01*
X-201892Y28325D02*
X-197864Y26447D01*
X-196812Y28325D02*
X-192784Y26447D01*
X-194662Y30475D02*
X-192784Y26447D01*
X-198082Y31745D02*
X-192784Y26447D01*
X186444Y53553D02*
X191742Y48255D01*
X186444Y53553D02*
X188322Y49525D01*
X186444Y53553D02*
X190472Y51675D01*
X191524Y53553D02*
X195552Y51675D01*
X191524Y53553D02*
X193402Y49525D01*
X191524Y53553D02*
X196822Y48255D01*
M02*
