M48
;Layer_Color=9474304
;FILE_FORMAT=4:4
METRIC,LZ
;TYPE=PLATED
T1F00S00C0.3048
T2F00S00C2.3000
%
T01
X00237759Y0003302
X00282702Y00013462
X00304665Y00024892
X0035179Y00001524
X00399915Y00012392
X0043561Y00001524
X0044069Y-00014986
X00509983Y-00015259
X0053213Y-0004572
X00192024Y00036576
X00149411Y00029852
X0013462Y0003429
X0009271Y0003937
X0005588Y000508
X0005207Y00013208
X0002032Y00034984
X00007245Y00031156
X00000501Y00037331
X0Y00049523
X-00019939Y000381
X-0001397Y000254
X-0002794Y-00003334
X-00037303Y00001032
X-0004572Y-0000254
X-00100674Y00034219
X-00093821Y00044609
X-00146327Y00043331
X-00156045Y00030734
X-00197734Y00037714
X-00204803Y00024892
X-00241129Y0003937
X-00255778Y00025745
X-0030988Y0
X-0037719Y0002159
X-0042037Y000127
X-00442143Y00004069
X-00447658Y-00013462
X-00439602Y-00017788
X-00423179Y-0001524
X-00488191Y-00010149
X-0048895Y-0003683
X-0052324Y-00040386
X-0053086Y-00052578
T02
X0054738Y-00066267
X00144385Y-00007666
X-00149614
X-00552621Y-00066267
M30
