G04*
G04 #@! TF.GenerationSoftware,Altium Limited,Altium Designer,21.3.2 (30)*
G04*
G04 Layer_Color=32896*
%FSLAX43Y43*%
%MOMM*%
G71*
G04*
G04 #@! TF.SameCoordinates,7B8A77F7-BE70-4231-B636-A4ED740270BE*
G04*
G04*
G04 #@! TF.FilePolarity,Positive*
G04*
G01*
G75*
%ADD34C,0.102*%
%ADD36C,0.076*%
D34*
X71041Y-2884D02*
Y-1716D01*
X69110Y-2884D02*
Y-1716D01*
Y-2884D02*
X71041D01*
X69110Y-1716D02*
X71041D01*
X43651Y3816D02*
Y4984D01*
X45581Y3816D02*
Y4984D01*
X43651D02*
X45581D01*
X43651Y3816D02*
X45581D01*
X66281Y-1084D02*
Y84D01*
X64351Y-1084D02*
Y84D01*
Y-1084D02*
X66281D01*
X64351Y84D02*
X66281D01*
X47884Y2519D02*
Y4449D01*
X46716Y2519D02*
Y4449D01*
X47884D01*
X46716Y2519D02*
X47884D01*
X49684Y2451D02*
Y4381D01*
X48516Y2451D02*
Y4381D01*
X49684D01*
X48516Y2451D02*
X49684D01*
X73251Y-4216D02*
X75181D01*
X73251Y-5384D02*
X75181D01*
X73251D02*
Y-4216D01*
X75181Y-5384D02*
Y-4216D01*
X72651Y-3484D02*
Y-2316D01*
X74581Y-3484D02*
Y-2316D01*
X72651D02*
X74581D01*
X72651Y-3484D02*
X74581D01*
X59681Y2016D02*
Y3184D01*
X57751Y2016D02*
Y3184D01*
Y2016D02*
X59681D01*
X57751Y3184D02*
X59681D01*
X39951Y4984D02*
X41881D01*
X39951Y3816D02*
X41881D01*
X39951D02*
Y4984D01*
X41881Y3816D02*
Y4984D01*
X8249Y-1184D02*
Y-16D01*
X6319Y-1184D02*
Y-16D01*
Y-1184D02*
X8249D01*
X6319Y-16D02*
X8249D01*
X68351Y-784D02*
Y384D01*
X70281Y-784D02*
Y384D01*
X68351D02*
X70281D01*
X68351Y-784D02*
X70281D01*
X63251Y816D02*
Y1984D01*
X65181Y816D02*
Y1984D01*
X63251D02*
X65181D01*
X63251Y816D02*
X65181D01*
X58451Y216D02*
Y1384D01*
X60381Y216D02*
Y1384D01*
X58451D02*
X60381D01*
X58451Y216D02*
X60381D01*
X12649Y516D02*
Y1684D01*
X10719Y516D02*
Y1684D01*
Y516D02*
X12649D01*
X10719Y1684D02*
X12649D01*
X19381Y416D02*
Y1584D01*
X17451Y416D02*
Y1584D01*
Y416D02*
X19381D01*
X17451Y1584D02*
X19381D01*
D36*
X70711Y-2884D02*
Y-1716D01*
X69441Y-2884D02*
Y-1716D01*
X43981Y3816D02*
Y4984D01*
X45251Y3816D02*
Y4984D01*
X65951Y-1084D02*
Y84D01*
X64681Y-1084D02*
Y84D01*
X46716Y4119D02*
X47884D01*
X46716Y2849D02*
X47884D01*
X48516Y4051D02*
X49684D01*
X48516Y2781D02*
X49684D01*
X73581Y-5384D02*
Y-4216D01*
X74851Y-5384D02*
Y-4216D01*
X72981Y-3484D02*
Y-2316D01*
X74251Y-3484D02*
Y-2316D01*
X59351Y2016D02*
Y3184D01*
X58081Y2016D02*
Y3184D01*
X40281Y3816D02*
Y4984D01*
X41551Y3816D02*
Y4984D01*
X7919Y-1184D02*
Y-16D01*
X6649Y-1184D02*
Y-16D01*
X68681Y-784D02*
Y384D01*
X69951Y-784D02*
Y384D01*
X63581Y816D02*
Y1984D01*
X64851Y816D02*
Y1984D01*
X58781Y216D02*
Y1384D01*
X60051Y216D02*
Y1384D01*
X12319Y516D02*
Y1684D01*
X11049Y516D02*
Y1684D01*
X19051Y416D02*
Y1584D01*
X17781Y416D02*
Y1584D01*
M02*
