G04*
G04 #@! TF.GenerationSoftware,Altium Limited,Altium Designer,21.3.2 (30)*
G04*
G04 Layer_Physical_Order=1*
G04 Layer_Color=255*
%FSLAX43Y43*%
%MOMM*%
G71*
G04*
G04 #@! TF.SameCoordinates,7B8A77F7-BE70-4231-B636-A4ED740270BE*
G04*
G04*
G04 #@! TF.FilePolarity,Positive*
G04*
G01*
G75*
%ADD13R,0.889X1.270*%
%ADD14R,1.270X0.889*%
%ADD15R,0.300X1.000*%
%ADD16R,1.650X1.300*%
%ADD17R,1.321X1.143*%
%ADD24C,0.305*%
%ADD25C,0.254*%
%ADD26C,2.300*%
%ADD27C,0.610*%
D13*
X71155Y-2300D02*
D03*
X68996D02*
D03*
X43536Y4400D02*
D03*
X45695D02*
D03*
X66396Y-500D02*
D03*
X64237D02*
D03*
X6236Y-2300D02*
D03*
X8396D02*
D03*
X3895Y-4600D02*
D03*
X1737D02*
D03*
X2204Y-2600D02*
D03*
X4364D02*
D03*
X73136Y-4800D02*
D03*
X75296D02*
D03*
X72536Y-2900D02*
D03*
X74696D02*
D03*
X59796Y2600D02*
D03*
X57637D02*
D03*
X39836Y4400D02*
D03*
X41995D02*
D03*
X8363Y-600D02*
D03*
X6205D02*
D03*
X68237Y-200D02*
D03*
X70396D02*
D03*
X63137Y1400D02*
D03*
X65296D02*
D03*
X58336Y800D02*
D03*
X60495D02*
D03*
X12764Y1100D02*
D03*
X10604D02*
D03*
X19496Y1000D02*
D03*
X17337D02*
D03*
X12764Y-600D02*
D03*
X10604D02*
D03*
X36204Y4700D02*
D03*
X38363D02*
D03*
X32536D02*
D03*
X34695D02*
D03*
X19295Y2800D02*
D03*
X17136D02*
D03*
D14*
X47300Y4563D02*
D03*
Y2405D02*
D03*
X49100Y4496D02*
D03*
Y2336D02*
D03*
X29200Y2204D02*
D03*
Y4364D02*
D03*
X27400Y4595D02*
D03*
Y2437D02*
D03*
D15*
X43150Y700D02*
D03*
X42650D02*
D03*
X42150D02*
D03*
X39650D02*
D03*
X39150D02*
D03*
X37650D02*
D03*
X37150D02*
D03*
X33650D02*
D03*
X34150D02*
D03*
X34650D02*
D03*
X35150D02*
D03*
X35650D02*
D03*
X36150D02*
D03*
X36650D02*
D03*
X38150D02*
D03*
X38650D02*
D03*
X40150D02*
D03*
X40650D02*
D03*
X41150D02*
D03*
X41650D02*
D03*
D16*
X31375Y-1200D02*
D03*
X45425D02*
D03*
D17*
X51200Y3800D02*
D03*
Y1133D02*
D03*
X25500Y1100D02*
D03*
Y3767D02*
D03*
D24*
X51200Y3800D02*
X52018D01*
X52318Y4100D01*
X41000Y4400D02*
Y4600D01*
X40641Y4041D02*
X41000Y4400D01*
X40224Y3241D02*
X40641Y3658D01*
X38341Y3241D02*
X40224D01*
X40641Y3658D02*
Y4041D01*
X36650Y1317D02*
X37133Y1800D01*
X36650Y700D02*
Y1317D01*
X37133Y1800D02*
X38400D01*
X54000Y3200D02*
X55204D01*
X53600Y3600D02*
X54000Y3200D01*
X55204D02*
X56769Y1635D01*
X57565D01*
X57917Y1283D01*
X58044D01*
X58400Y927D01*
Y800D02*
Y927D01*
X61300Y804D02*
Y2524D01*
Y804D02*
X61700Y404D01*
X56135Y4007D02*
X56577Y3565D01*
X60377D01*
X60742Y3200D01*
X60981D01*
X61479Y2703D01*
X61300Y2524D02*
X61479Y2703D01*
X62685D01*
X63380D01*
X46717Y3224D02*
Y3306D01*
Y3224D02*
X46817Y3124D01*
Y2697D02*
Y3124D01*
X47046Y2468D02*
X47300D01*
X46817Y2697D02*
X47046Y2468D01*
X64273Y1027D02*
X64320Y1073D01*
X63380Y2703D02*
X64320Y1763D01*
Y1073D02*
Y1763D01*
X64273Y1027D02*
X64320D01*
X67392Y-1335D02*
X68565D01*
X67347Y-1290D02*
X67392Y-1335D01*
X68565D02*
X68735Y-1165D01*
X68818D01*
X69011Y-972D01*
Y-895D02*
X69209Y-697D01*
X69011Y-972D02*
Y-895D01*
X69209Y-697D02*
Y-661D01*
X28402Y2812D02*
Y3197D01*
Y2812D02*
X28946Y2268D01*
X29200D01*
X38355Y-1945D02*
Y-1237D01*
X37740Y-1662D02*
Y-1170D01*
X37164Y-3136D02*
X38355Y-1945D01*
X38150Y-760D02*
Y700D01*
X38355Y-1237D02*
X38650Y-942D01*
Y700D01*
X37740Y-1170D02*
X38150Y-760D01*
X37251Y-2151D02*
X37740Y-1662D01*
X35987Y-3136D02*
X37164D01*
X35678Y-1930D02*
X36250Y-2501D01*
X35665Y-1767D02*
X35678Y-1780D01*
Y-1930D02*
Y-1780D01*
X35182Y-2332D02*
Y-1949D01*
Y-2332D02*
X35987Y-3136D01*
X32409Y824D02*
X35182Y-1949D01*
X35665Y-1767D02*
Y-437D01*
X36150Y48D01*
Y700D01*
X33103Y1047D02*
X33450Y700D01*
X33103Y1047D02*
Y1178D01*
X33450Y700D02*
X33650D01*
X33044Y1236D02*
X33103Y1178D01*
X31200Y3200D02*
X32900D01*
X30700Y3700D02*
X31200Y3200D01*
X30400Y3100D02*
X31293Y2207D01*
X31575D01*
X32409Y824D02*
Y1373D01*
X31575Y2207D02*
X32409Y1373D01*
X30700Y3700D02*
Y4800D01*
X30362Y5138D02*
X30700Y4800D01*
X28235Y4945D02*
X28428Y5138D01*
X30362D01*
X28035Y4735D02*
X28235Y4935D01*
Y4945D01*
X27400Y4532D02*
X27603Y4735D01*
X28035D01*
X33193Y-2107D02*
X33251Y-2049D01*
X33188Y-1088D02*
X34500Y-2400D01*
X33188Y-1088D02*
Y-637D01*
X30413Y-2180D02*
X32337D01*
X32409Y-2107D02*
X33193D01*
X32337Y-2180D02*
X32409Y-2107D01*
X30860Y1400D02*
X31151D01*
X33188Y-637D01*
X30100Y-1867D02*
X30413Y-2180D01*
X30100Y-1867D02*
Y917D01*
X27017D02*
X30100D01*
X30830Y1430D02*
X30860Y1400D01*
X25900Y-200D02*
X27017Y917D01*
X28031Y1500D02*
X28101Y1430D01*
X30830D01*
X25900Y1500D02*
X28031D01*
X25500Y1100D02*
X25900Y1500D01*
X24873Y-200D02*
X25900D01*
X24313Y360D02*
X24873Y-200D01*
X22827Y100D02*
X23087Y360D01*
X24313D01*
X21800Y100D02*
X22827D01*
X21400Y1700D02*
Y1751D01*
X14990Y1732D02*
X15100Y1621D01*
X13332Y1732D02*
X14990D01*
X12700Y1100D02*
X13332Y1732D01*
X15100Y1466D02*
Y1621D01*
Y1466D02*
X16583Y-17D01*
X14612Y446D02*
Y1059D01*
X14311Y145D02*
X14612Y446D01*
X14311Y-201D02*
Y145D01*
X19232Y2800D02*
X20000D01*
X20200Y2593D02*
Y2600D01*
X20000Y2800D02*
X20200Y2600D01*
X12700Y-600D02*
X13912D01*
X14311Y-201D01*
X20400Y1000D02*
Y1083D01*
X19432Y1000D02*
X20400D01*
X20783Y1083D02*
X21400Y1700D01*
X20400Y1083D02*
X20783D01*
D25*
X50169Y4432D02*
X50447Y4710D01*
X52663Y1951D02*
Y3020D01*
X52927Y3284D02*
Y4352D01*
X50447Y4710D02*
X52570D01*
X52927Y4352D01*
X52663Y3020D02*
X52927Y3284D01*
X41200Y3668D02*
X41424Y3892D01*
X41200Y2400D02*
Y3668D01*
X41678Y3892D02*
X41932Y4146D01*
X41424Y3892D02*
X41678D01*
X38669Y2631D02*
X39150Y2150D01*
X38088Y2631D02*
X38669D01*
X36837Y3877D02*
X37153D01*
X37620Y3409D01*
Y3099D02*
Y3409D01*
X36268Y4446D02*
X36837Y3877D01*
X37620Y3099D02*
X38088Y2631D01*
X39107Y-1132D02*
Y700D01*
X39150D02*
Y2150D01*
X49100Y4432D02*
X50169D01*
X49910Y2956D02*
Y3024D01*
X49100Y2400D02*
X49354D01*
X49910Y2956D01*
Y3024D02*
X49978Y3092D01*
Y3169D01*
X48700Y1400D02*
X49100Y1800D01*
Y2400D01*
X45500Y1400D02*
X48700D01*
X44600Y500D02*
X45500Y1400D01*
X45490Y452D02*
X45847Y810D01*
X46099D02*
X46189Y900D01*
X45044Y-245D02*
X45490Y201D01*
X45847Y810D02*
X46099D01*
X45490Y201D02*
Y452D01*
X46100Y200D02*
X46200D01*
X46189Y900D02*
X49800D01*
X46200Y200D02*
X46800Y-400D01*
X44474Y-245D02*
X45044D01*
X44295Y-424D02*
X44474Y-245D01*
X44295Y-856D02*
Y-424D01*
X46800Y-2000D02*
Y-400D01*
X49800Y900D02*
X50235Y465D01*
X46300Y-2500D02*
X46800Y-2000D01*
X41100Y-2500D02*
X46300D01*
X41431Y-1890D02*
Y-1359D01*
X41150Y-1078D02*
X41431Y-1359D01*
X41150Y-1078D02*
Y700D01*
X40600Y-2000D02*
X41100Y-2500D01*
X40600Y-2000D02*
Y69D01*
X40605Y74D02*
Y155D01*
X40650Y200D01*
X40600Y69D02*
X40605Y74D01*
X40650Y200D02*
Y700D01*
X39900Y-2100D02*
Y-1000D01*
X39650Y-750D02*
X39900Y-1000D01*
X39650Y-750D02*
Y700D01*
X41650Y-950D02*
X42032Y-1332D01*
X43819D01*
X41650Y-950D02*
Y700D01*
X42299Y-900D02*
X43419D01*
X42150Y-751D02*
X42299Y-900D01*
X43568Y-751D02*
Y-517D01*
X42150Y-751D02*
Y700D01*
X42760Y-290D02*
Y-194D01*
X43419Y-900D02*
X43568Y-751D01*
X43600Y-259D02*
X43669Y-190D01*
X43600Y-484D02*
Y-259D01*
X43568Y-517D02*
X43600Y-484D01*
X42650Y-85D02*
X42760Y-194D01*
X51553Y-710D02*
X51910Y-352D01*
X50690D02*
Y-20D01*
X51910Y-332D02*
X52031D01*
X50235Y435D02*
X50690Y-20D01*
Y-352D02*
X51048Y-710D01*
X51553D01*
X51910Y-352D02*
Y-332D01*
X51300Y-100D02*
Y100D01*
X50235Y435D02*
Y465D01*
X52031Y-332D02*
X52697Y335D01*
X51300Y100D02*
X51457Y257D01*
X51987D01*
X52393Y663D02*
Y681D01*
X52799Y1088D01*
X51987Y257D02*
X52393Y663D01*
X57726Y-100D02*
X57766Y-140D01*
X54439Y-100D02*
X57726D01*
X57766Y-140D02*
X60740D01*
X54004Y335D02*
X54439Y-100D01*
X52697Y335D02*
X54004D01*
X60740Y-140D02*
X61238Y-638D01*
X52799Y1088D02*
X55118D01*
X55585Y1555D01*
X51845Y1133D02*
X52663Y1951D01*
X53949D01*
X51200Y1133D02*
X51845D01*
X56735Y2567D02*
X56767Y2600D01*
X57700D01*
X43819Y-1332D02*
X44295Y-856D01*
X61238Y-638D02*
X62491D01*
X62669Y-460D01*
X62745D01*
X60432Y673D02*
Y1054D01*
X60813Y292D02*
X60940D01*
X61952Y-206D02*
X62058Y-100D01*
X60432Y673D02*
X60813Y292D01*
X61438Y-206D02*
X61952D01*
X62242Y-100D02*
X62492Y150D01*
X62058Y-100D02*
X62242D01*
X60940Y292D02*
X61438Y-206D01*
X58894Y2733D02*
X58901Y2725D01*
X58975D01*
X59100Y2600D01*
X59732D01*
X59086Y1457D02*
X59235Y1308D01*
X57700Y2346D02*
Y2600D01*
X57954Y2092D02*
X58208D01*
X57700Y2346D02*
X57954Y2092D01*
X58208D02*
X58560Y1740D01*
X59235Y1308D02*
X60178D01*
X58560Y1740D02*
X58907D01*
X59086Y1561D01*
Y1457D02*
Y1561D01*
X60178Y1308D02*
X60432Y1054D01*
X62040Y2043D02*
Y2055D01*
Y2043D02*
X62235Y1849D01*
X62358D01*
X62381Y1871D01*
Y1908D01*
X62819D01*
X63200Y1400D02*
Y1527D01*
X62819Y1908D02*
X63200Y1527D01*
X62492Y150D02*
X63232D01*
X63792Y-410D01*
X64210D02*
X64300Y-500D01*
X63792Y-410D02*
X64210D01*
X42600Y3273D02*
X43600Y4273D01*
X45378Y3892D02*
X45632Y4146D01*
X45124Y3892D02*
X45378D01*
X43150Y1918D02*
X45124Y3892D01*
X43150Y700D02*
Y1918D01*
X45632Y4146D02*
Y4400D01*
X41932Y4146D02*
Y4400D01*
X41200Y2400D02*
X41700Y1900D01*
X40769D02*
X41700D01*
X40150Y1281D02*
X40769Y1900D01*
X40150Y700D02*
Y1281D01*
X43600Y4273D02*
Y4400D01*
X40900Y5400D02*
X44100D01*
X39900Y4400D02*
X40900Y5400D01*
X45632Y4500D02*
X47300D01*
X39600Y4700D02*
X39900Y4400D01*
X38300Y4700D02*
X39600D01*
X44100Y5400D02*
X45100Y4400D01*
X45632D01*
X47300Y4500D02*
X47368Y4432D01*
X49100D01*
X63666Y-1440D02*
X64807D01*
X66075Y-1748D02*
X66174Y-1650D01*
X66750D01*
X64807Y-1440D02*
X65747Y-500D01*
X65361Y-1748D02*
X66075D01*
X68400Y1000D02*
X69132D01*
X70332Y-200D01*
X68000Y1400D02*
X68400Y1000D01*
X67437Y790D02*
X68300Y-73D01*
X67400Y790D02*
X67437D01*
X68300Y-200D02*
Y-73D01*
X65232Y1400D02*
X68000D01*
X64300Y-500D02*
X65232Y432D01*
Y1400D01*
X62745Y-519D02*
Y-460D01*
X65747Y-500D02*
X66332D01*
X62745Y-519D02*
X63666Y-1440D01*
X42650Y-85D02*
Y700D01*
X66750Y-1650D02*
X67000Y-1900D01*
X67800D01*
X68247Y-2347D01*
Y-3061D02*
Y-2347D01*
X68425Y-3240D02*
X70152D01*
X68247Y-3061D02*
X68425Y-3240D01*
X69734Y-1052D02*
X70332Y-454D01*
X69680Y-1052D02*
X69734D01*
X69500Y-1232D02*
X69680Y-1052D01*
X69500Y-2151D02*
Y-1232D01*
X69351Y-2300D02*
X69500Y-2151D01*
X69060Y-2300D02*
X69351D01*
X70640Y-708D02*
X72730D01*
X73645Y-1623D01*
Y-1659D02*
Y-1623D01*
Y-1659D02*
X74632Y-2646D01*
Y-3154D02*
Y-2900D01*
Y-3154D02*
Y-2646D01*
X74000Y-3786D02*
X74632Y-3154D01*
X73578Y-3786D02*
X74000D01*
X73200Y-4165D02*
X73578Y-3786D01*
X73200Y-4800D02*
Y-4165D01*
X70332Y-400D02*
X70640Y-708D01*
X70152Y-3240D02*
X71092Y-2300D01*
X71692Y-1700D01*
X72460D01*
X72660Y-1500D01*
X70332Y-400D02*
Y-200D01*
X75232Y-4800D02*
X76500D01*
X76900Y-4400D01*
X7418Y-2682D02*
X7950D01*
X72600Y-2900D02*
X73700D01*
X27400Y2500D02*
Y3057D01*
X28389Y4046D01*
X28946D02*
X29200Y4300D01*
X28389Y4046D02*
X28946D01*
X36268Y4446D02*
Y4700D01*
X38990Y-1500D02*
X39044Y-1446D01*
Y-1195D01*
X39107Y-1132D01*
X34618Y3267D02*
X36900D01*
X33712Y4173D02*
X34618Y3267D01*
X33300Y4700D02*
X33712Y4288D01*
Y4173D02*
Y4288D01*
X32600Y4700D02*
X33300D01*
X38046Y4954D02*
Y5554D01*
X37960Y5640D02*
X38046Y5554D01*
Y4954D02*
X38300Y4700D01*
X35305Y5500D02*
X35494D01*
X35634Y5640D01*
X37960D01*
X34632Y4827D02*
X35305Y5500D01*
X34632Y4700D02*
Y4827D01*
X33700Y5400D02*
X34019Y5081D01*
X34251D01*
X34632Y4700D01*
X26033Y4733D02*
X26100Y4800D01*
X25589Y3767D02*
X26033Y4212D01*
Y4733D01*
X25500Y3767D02*
X25589D01*
X37650Y-450D02*
Y700D01*
X36800Y-1300D02*
X37650Y-450D01*
X36590Y-410D02*
X36621D01*
X37150Y119D02*
Y700D01*
X36621Y-410D02*
X37150Y119D01*
X26767Y2500D02*
X27400D01*
X25500Y3767D02*
X26767Y2500D01*
X25167Y4100D02*
X25500Y3767D01*
X19085Y4100D02*
X25167D01*
X17800Y3654D02*
X18639D01*
X19085Y4100D01*
X17200Y3054D02*
X17800Y3654D01*
X17200Y2800D02*
Y3054D01*
Y1200D02*
X17400Y1000D01*
X17200Y1200D02*
Y2800D01*
X14600D02*
X17200D01*
X14200Y2400D02*
X14600Y2800D01*
X11200Y2400D02*
X14200D01*
X10668Y1868D02*
X11200Y2400D01*
X10668Y1100D02*
Y1868D01*
X8979Y-600D02*
X9500Y-1121D01*
X8300Y-600D02*
X8979D01*
X3025Y-4800D02*
X3225Y-4600D01*
X3832D01*
X2994Y-4800D02*
X3025D01*
X7950Y-2682D02*
X8332Y-2300D01*
X2268Y-2600D02*
Y-2354D01*
X2522Y-2100D01*
X3106D01*
X1800Y-4346D02*
X2542Y-3604D01*
X1800Y-4600D02*
Y-4346D01*
X2542Y-3604D02*
X2711D01*
X3715Y-2600D01*
X4300D01*
X4600Y-2300D01*
X6300D01*
X6268Y-2268D02*
X6300Y-2300D01*
X6268Y-2268D02*
Y-600D01*
X6649D01*
X7589Y340D01*
X8340D01*
X9100Y1100D01*
X10668D01*
Y-600D02*
Y1100D01*
D26*
X23700Y-1120D02*
D03*
X53300D02*
D03*
X2000Y-8100D02*
D03*
X75000D02*
D03*
D27*
X52318Y4100D02*
D03*
X41000Y4600D02*
D03*
X38341Y3241D02*
D03*
X38400Y1800D02*
D03*
X49978Y3169D02*
D03*
X44600Y500D02*
D03*
X46100Y200D02*
D03*
X41431Y-1890D02*
D03*
X39900Y-2100D02*
D03*
X43669Y-190D02*
D03*
X42760Y-290D02*
D03*
X51300Y-100D02*
D03*
X55585Y1555D02*
D03*
X53949Y1951D02*
D03*
X56735Y2567D02*
D03*
X61700Y404D02*
D03*
X53600Y3600D02*
D03*
X58894Y2733D02*
D03*
X56135Y4007D02*
D03*
X62040Y2055D02*
D03*
X42600Y3273D02*
D03*
X41700Y1900D02*
D03*
X46717Y3306D02*
D03*
X65361Y-1748D02*
D03*
X67400Y790D02*
D03*
X62685Y2703D02*
D03*
X64320Y1027D02*
D03*
X62745Y-460D02*
D03*
X67347Y-1290D02*
D03*
X72660Y-1500D02*
D03*
X69209Y-661D02*
D03*
X76900Y-4400D02*
D03*
X7418Y-2682D02*
D03*
X73700Y-2900D02*
D03*
X28402Y3197D02*
D03*
X38990Y-1500D02*
D03*
X36900Y3267D02*
D03*
X33700Y5400D02*
D03*
X26100Y4800D02*
D03*
X37251Y-2151D02*
D03*
X36250Y-2501D02*
D03*
X36800Y-1300D02*
D03*
X36590Y-410D02*
D03*
X33044Y1236D02*
D03*
X32900Y3200D02*
D03*
X30400Y3100D02*
D03*
X34500Y-2400D02*
D03*
X33251Y-2049D02*
D03*
X21800Y100D02*
D03*
X21400Y1751D02*
D03*
X14612Y1059D02*
D03*
X16583Y-17D02*
D03*
X9500Y-1121D02*
D03*
X2994Y-4800D02*
D03*
X20200Y2593D02*
D03*
X3106Y-2100D02*
D03*
M02*
