G04*
G04 #@! TF.GenerationSoftware,Altium Limited,Altium Designer,21.3.2 (30)*
G04*
G04 Layer_Color=16711935*
%FSLAX43Y43*%
%MOMM*%
G71*
G04*
G04 #@! TF.SameCoordinates,7B8A77F7-BE70-4231-B636-A4ED740270BE*
G04*
G04*
G04 #@! TF.FilePolarity,Positive*
G04*
G01*
G75*
%ADD10C,0.127*%
D10*
X-1500Y-6100D02*
X-1483Y-5754D01*
X-1431Y-5398D01*
X-1262Y-4792D01*
X-980Y-4171D01*
X-574Y-3532D01*
X-27Y-2874D01*
X598Y-2265D01*
X1363Y-1642D01*
X2282Y-1007D01*
X3366Y-364D01*
X4629Y283D01*
X6078Y928D01*
X7723Y1565D01*
X9786Y2254D01*
X12098Y2915D01*
X14657Y3535D01*
X17453Y4104D01*
X20469Y4612D01*
X23684Y5046D01*
X27068Y5400D01*
X30587Y5663D01*
X34202Y5831D01*
X37870Y5898D01*
X41547Y5865D01*
X44826Y5749D01*
X48043Y5554D01*
X51168Y5282D01*
X54173Y4941D01*
X57033Y4534D01*
X59730Y4070D01*
X62245Y3557D01*
X64814Y2938D01*
X67135Y2279D01*
X69206Y1590D01*
X71028Y884D01*
X72609Y168D01*
X73961Y-548D01*
X75098Y-1257D01*
X76038Y-1955D01*
X76799Y-2638D01*
X77346Y-3238D01*
X77774Y-3824D01*
X78096Y-4398D01*
X78320Y-4962D01*
X78457Y-5543D01*
X78500Y-6100D01*
Y-8100D02*
Y-6100D01*
X78450Y-8545D02*
X78500Y-8100D01*
X78302Y-8968D02*
X78450Y-8545D01*
X78064Y-9347D02*
X78302Y-8968D01*
X77747Y-9664D02*
X78064Y-9347D01*
X77368Y-9902D02*
X77747Y-9664D01*
X76945Y-10050D02*
X77368Y-9902D01*
X76500Y-10100D02*
X76945Y-10050D01*
X73500Y-10100D02*
X76500D01*
X73055Y-10050D02*
X73500Y-10100D01*
X72632Y-9902D02*
X73055Y-10050D01*
X72253Y-9664D02*
X72632Y-9902D01*
X71936Y-9347D02*
X72253Y-9664D01*
X71698Y-8968D02*
X71936Y-9347D01*
X71550Y-8545D02*
X71698Y-8968D01*
X71500Y-8100D02*
X71550Y-8545D01*
X71500Y-8100D02*
Y-6100D01*
X70569Y-5271D02*
X71500Y-6100D01*
X69604Y-4517D02*
X70569Y-5271D01*
X68481Y-3756D02*
X69604Y-4517D01*
X67320Y-3092D02*
X68481Y-3756D01*
X66120Y-2522D02*
X67320Y-3092D01*
X65003Y-2088D02*
X66120Y-2522D01*
X63848Y-1728D02*
X65003Y-2088D01*
X62652Y-1443D02*
X63848Y-1728D01*
X61399Y-1231D02*
X62652Y-1443D01*
X60110Y-1100D02*
X61399Y-1231D01*
X57000Y-525D02*
X60110Y-1100D01*
X55800Y-1120D02*
X57000Y-525D01*
X55745Y-1640D02*
X55800Y-1120D01*
X55584Y-2137D02*
X55745Y-1640D01*
X55323Y-2590D02*
X55584Y-2137D01*
X54973Y-2978D02*
X55323Y-2590D01*
X54550Y-3285D02*
X54973Y-2978D01*
X54073Y-3498D02*
X54550Y-3285D01*
X53561Y-3606D02*
X54073Y-3498D01*
X53039Y-3606D02*
X53561D01*
X52527Y-3498D02*
X53039Y-3606D01*
X52050Y-3285D02*
X52527Y-3498D01*
X51627Y-2978D02*
X52050Y-3285D01*
X51277Y-2590D02*
X51627Y-2978D01*
X51016Y-2137D02*
X51277Y-2590D01*
X50855Y-1640D02*
X51016Y-2137D01*
X50800Y-1120D02*
X50855Y-1640D01*
X49700Y400D02*
X50800Y-1120D01*
X47500Y580D02*
X49700Y400D01*
X47500Y-2100D02*
Y580D01*
X47450Y-2545D02*
X47500Y-2100D01*
X47302Y-2968D02*
X47450Y-2545D01*
X47064Y-3347D02*
X47302Y-2968D01*
X46747Y-3664D02*
X47064Y-3347D01*
X46368Y-3902D02*
X46747Y-3664D01*
X45945Y-4050D02*
X46368Y-3902D01*
X45500Y-4100D02*
X45945Y-4050D01*
X31500Y-4100D02*
X45500D01*
X31055Y-4050D02*
X31500Y-4100D01*
X30632Y-3902D02*
X31055Y-4050D01*
X30253Y-3664D02*
X30632Y-3902D01*
X29936Y-3347D02*
X30253Y-3664D01*
X29698Y-2968D02*
X29936Y-3347D01*
X29550Y-2545D02*
X29698Y-2968D01*
X29500Y-2100D02*
X29550Y-2545D01*
X29500Y-2100D02*
Y580D01*
X27300Y400D02*
X29500Y580D01*
X26200Y-1120D02*
X27300Y400D01*
X26145Y-1640D02*
X26200Y-1120D01*
X25984Y-2137D02*
X26145Y-1640D01*
X25723Y-2590D02*
X25984Y-2137D01*
X25373Y-2978D02*
X25723Y-2590D01*
X24950Y-3285D02*
X25373Y-2978D01*
X24473Y-3498D02*
X24950Y-3285D01*
X23961Y-3606D02*
X24473Y-3498D01*
X23439Y-3606D02*
X23961D01*
X22927Y-3498D02*
X23439Y-3606D01*
X22450Y-3285D02*
X22927Y-3498D01*
X22027Y-2978D02*
X22450Y-3285D01*
X21677Y-2590D02*
X22027Y-2978D01*
X21416Y-2137D02*
X21677Y-2590D01*
X21255Y-1640D02*
X21416Y-2137D01*
X21200Y-1120D02*
X21255Y-1640D01*
X20000Y-525D02*
X21200Y-1120D01*
X16890Y-1100D02*
X20000Y-525D01*
X15601Y-1231D02*
X16890Y-1100D01*
X14348Y-1443D02*
X15601Y-1231D01*
X13152Y-1728D02*
X14348Y-1443D01*
X11997Y-2088D02*
X13152Y-1728D01*
X10880Y-2522D02*
X11997Y-2088D01*
X9680Y-3092D02*
X10880Y-2522D01*
X8519Y-3756D02*
X9680Y-3092D01*
X7396Y-4517D02*
X8519Y-3756D01*
X6431Y-5271D02*
X7396Y-4517D01*
X5500Y-6100D02*
X6431Y-5271D01*
X5500Y-8100D02*
Y-6100D01*
X5450Y-8545D02*
X5500Y-8100D01*
X5302Y-8968D02*
X5450Y-8545D01*
X5064Y-9347D02*
X5302Y-8968D01*
X4747Y-9664D02*
X5064Y-9347D01*
X4368Y-9902D02*
X4747Y-9664D01*
X3945Y-10050D02*
X4368Y-9902D01*
X3500Y-10100D02*
X3945Y-10050D01*
X500Y-10100D02*
X3500D01*
X55Y-10050D02*
X500Y-10100D01*
X-368Y-9902D02*
X55Y-10050D01*
X-747Y-9664D02*
X-368Y-9902D01*
X-1064Y-9347D02*
X-747Y-9664D01*
X-1302Y-8968D02*
X-1064Y-9347D01*
X-1450Y-8545D02*
X-1302Y-8968D01*
X-1500Y-8100D02*
X-1450Y-8545D01*
X-1500Y-8100D02*
Y-6100D01*
M02*
