G04*
G04 #@! TF.GenerationSoftware,Altium Limited,Altium Designer,21.3.2 (30)*
G04*
G04 Layer_Color=32896*
%FSLAX43Y43*%
%MOMM*%
G71*
G04*
G04 #@! TF.SameCoordinates,7B8A77F7-BE70-4231-B636-A4ED740270BE*
G04*
G04*
G04 #@! TF.FilePolarity,Positive*
G04*
G01*
G75*
%ADD12C,0.200*%
%ADD32C,0.500*%
%ADD33C,0.100*%
%ADD34C,0.102*%
D12*
X67975Y1200D02*
G03*
X68875Y1200I450J0D01*
G01*
X34625Y4900D02*
G03*
X35525Y4900I450J0D01*
G01*
X28375D02*
G03*
X29275Y4900I450J0D01*
G01*
X15075Y2900D02*
G03*
X15975Y2900I450J0D01*
G01*
X22025Y4200D02*
G03*
X22925Y4200I450J0D01*
G01*
X47775Y4900D02*
G03*
X48675Y4900I450J0D01*
G01*
X41225D02*
G03*
X42125Y4900I450J0D01*
G01*
X60675Y2900D02*
G03*
X61575Y2900I450J0D01*
G01*
X53965Y4200D02*
G03*
X54865Y4200I450J0D01*
G01*
X73375Y-2200D02*
G03*
X74275Y-2200I450J0D01*
G01*
X2375Y-2300D02*
G03*
X3275Y-2300I450J0D01*
G01*
X8625Y1100D02*
G03*
X9525Y1100I450J0D01*
G01*
X67385Y1200D02*
X67975D01*
X68875D02*
X69465D01*
X67385Y-2400D02*
Y1200D01*
Y-2400D02*
X69465D01*
Y1200D01*
X36115Y1300D02*
Y4900D01*
X34035Y1300D02*
X36115D01*
X34035D02*
Y4900D01*
X35525D02*
X36115D01*
X34035D02*
X34625D01*
X29865Y1300D02*
Y4900D01*
X27785Y1300D02*
X29865D01*
X27785D02*
Y4900D01*
X29275D02*
X29865D01*
X27785D02*
X28375D01*
X16565Y-700D02*
Y2900D01*
X14485Y-700D02*
X16565D01*
X14485D02*
Y2900D01*
X15975D02*
X16565D01*
X14485D02*
X15075D01*
X21435Y4200D02*
X22025D01*
X22925D02*
X23515D01*
X21435Y600D02*
Y4200D01*
Y600D02*
X23515D01*
Y4200D01*
X49265Y1300D02*
Y4900D01*
X47185Y1300D02*
X49265D01*
X47185D02*
Y4900D01*
X48675D02*
X49265D01*
X47185D02*
X47775D01*
X40635D02*
X41225D01*
X42125D02*
X42715D01*
X40635Y1300D02*
Y4900D01*
Y1300D02*
X42715D01*
Y4900D01*
X62165Y-700D02*
Y2900D01*
X60085Y-700D02*
X62165D01*
X60085D02*
Y2900D01*
X61575D02*
X62165D01*
X60085D02*
X60675D01*
X53375Y4200D02*
X53965D01*
X54865D02*
X55455D01*
X53375Y600D02*
Y4200D01*
Y600D02*
X55455D01*
Y4200D01*
X72785Y-2200D02*
X73375D01*
X74275D02*
X74865D01*
X72785Y-5800D02*
Y-2200D01*
Y-5800D02*
X74865D01*
Y-2200D01*
X3865Y-5900D02*
Y-2300D01*
X1785Y-5900D02*
X3865D01*
X1785D02*
Y-2300D01*
X3275D02*
X3865D01*
X1785D02*
X2375D01*
X8035Y1100D02*
X8625D01*
X9525D02*
X10115D01*
X8035Y-2500D02*
Y1100D01*
Y-2500D02*
X10115D01*
Y1100D01*
D32*
X2500Y5825D02*
D03*
D33*
X6523Y18224D02*
X6606Y18307D01*
X6773D01*
X6856Y18224D01*
Y17890D01*
X6773Y17807D01*
X6606D01*
X6523Y17890D01*
Y18057D01*
X6689D01*
X6356Y17807D02*
Y18307D01*
X6023Y17807D01*
Y18307D01*
X5856D02*
Y17807D01*
X5606D01*
X5523Y17890D01*
Y18224D01*
X5606Y18307D01*
X5856D01*
X6137Y5424D02*
Y4924D01*
X5971Y5090D01*
X5804Y4924D01*
Y5424D01*
X8750Y41D02*
X9167D01*
X9250Y-42D01*
Y-208D01*
X9167Y-292D01*
X8750D01*
X9250Y-458D02*
Y-625D01*
Y-542D01*
X8750D01*
X8833Y-458D01*
X9250Y-875D02*
Y-1041D01*
Y-958D01*
X8750D01*
X8833Y-875D01*
X-8200Y-5875D02*
X-7783D01*
X-7700Y-5959D01*
Y-6125D01*
X-7783Y-6208D01*
X-8200D01*
X-7700Y-6375D02*
Y-6542D01*
Y-6458D01*
X-8200D01*
X-8117Y-6375D01*
X-7700Y-7125D02*
Y-6792D01*
X-8033Y-7125D01*
X-8117D01*
X-8200Y-7041D01*
Y-6875D01*
X-8117Y-6792D01*
X68200Y-183D02*
X68617D01*
X68700Y-267D01*
Y-433D01*
X68617Y-517D01*
X68200D01*
X68700Y-1017D02*
Y-683D01*
X68367Y-1017D01*
X68283D01*
X68200Y-933D01*
Y-767D01*
X68283Y-683D01*
X54640Y3117D02*
X55057D01*
X55140Y3033D01*
Y2867D01*
X55057Y2783D01*
X54640D01*
X55140Y2367D02*
X54640D01*
X54890Y2617D01*
Y2283D01*
X60900Y1517D02*
X61317D01*
X61400Y1433D01*
Y1267D01*
X61317Y1183D01*
X60900D01*
X60983Y1017D02*
X60900Y933D01*
Y767D01*
X60983Y683D01*
X61067D01*
X61150Y767D01*
Y850D01*
Y767D01*
X61233Y683D01*
X61317D01*
X61400Y767D01*
Y933D01*
X61317Y1017D01*
X41300Y3717D02*
X41717D01*
X41800Y3633D01*
Y3467D01*
X41717Y3383D01*
X41300D01*
Y2883D02*
X41383Y3050D01*
X41550Y3217D01*
X41717D01*
X41800Y3133D01*
Y2967D01*
X41717Y2883D01*
X41633D01*
X41550Y2967D01*
Y3217D01*
X48250Y3517D02*
X48667D01*
X48750Y3433D01*
Y3267D01*
X48667Y3183D01*
X48250D01*
Y2683D02*
Y3017D01*
X48500D01*
X48417Y2850D01*
Y2767D01*
X48500Y2683D01*
X48667D01*
X48750Y2767D01*
Y2933D01*
X48667Y3017D01*
D34*
X34996Y3423D02*
X35419D01*
X35504Y3339D01*
Y3169D01*
X35419Y3085D01*
X34996D01*
Y2915D02*
Y2577D01*
X35081D01*
X35419Y2915D01*
X35504D01*
X29046Y3723D02*
X29469D01*
X29554Y3639D01*
Y3469D01*
X29469Y3385D01*
X29046D01*
X29131Y3215D02*
X29046Y3131D01*
Y2961D01*
X29131Y2877D01*
X29215D01*
X29300Y2961D01*
X29385Y2877D01*
X29469D01*
X29554Y2961D01*
Y3131D01*
X29469Y3215D01*
X29385D01*
X29300Y3131D01*
X29215Y3215D01*
X29131D01*
X29300Y3131D02*
Y2961D01*
X22296Y2723D02*
X22719D01*
X22804Y2639D01*
Y2469D01*
X22719Y2385D01*
X22296D01*
X22719Y2215D02*
X22804Y2131D01*
Y1961D01*
X22719Y1877D01*
X22381D01*
X22296Y1961D01*
Y2131D01*
X22381Y2215D01*
X22465D01*
X22550Y2131D01*
Y1877D01*
X15396Y1435D02*
X15819D01*
X15904Y1350D01*
Y1181D01*
X15819Y1096D01*
X15396D01*
X15904Y927D02*
Y758D01*
Y842D01*
X15396D01*
X15481Y927D01*
Y504D02*
X15396Y419D01*
Y250D01*
X15481Y165D01*
X15819D01*
X15904Y250D01*
Y419D01*
X15819Y504D01*
X15481D01*
M02*
