G04*
G04 #@! TF.GenerationSoftware,Altium Limited,Altium Designer,21.3.2 (30)*
G04*
G04 Layer_Color=255*
%FSLAX43Y43*%
%MOMM*%
G71*
G04*
G04 #@! TF.SameCoordinates,7B8A77F7-BE70-4231-B636-A4ED740270BE*
G04*
G04*
G04 #@! TF.FilePolarity,Positive*
G04*
G01*
G75*
%ADD26C,2.300*%
%ADD28O,1.000X0.500*%
%ADD29R,1.000X0.500*%
D26*
X23700Y-1120D02*
D03*
X53300D02*
D03*
X2000Y-8100D02*
D03*
X75000D02*
D03*
D28*
X66300Y-1500D02*
D03*
Y300D02*
D03*
X70550Y-1500D02*
D03*
X37200Y2200D02*
D03*
X32950Y4000D02*
D03*
Y2200D02*
D03*
X30950D02*
D03*
X26700Y4000D02*
D03*
Y2200D02*
D03*
X17650Y200D02*
D03*
X13400Y2000D02*
D03*
Y200D02*
D03*
X20350Y1500D02*
D03*
Y3300D02*
D03*
X24600Y1500D02*
D03*
X50350Y2200D02*
D03*
X46100Y4000D02*
D03*
Y2200D02*
D03*
X39550D02*
D03*
Y4000D02*
D03*
X43800Y2200D02*
D03*
X63250Y200D02*
D03*
X59000Y2000D02*
D03*
Y200D02*
D03*
X52290Y1500D02*
D03*
Y3300D02*
D03*
X56540Y1500D02*
D03*
X71700Y-4900D02*
D03*
Y-3100D02*
D03*
X75950Y-4900D02*
D03*
X4950Y-5000D02*
D03*
X700Y-3200D02*
D03*
Y-5000D02*
D03*
X6950Y-1600D02*
D03*
Y200D02*
D03*
X11200Y-1600D02*
D03*
D29*
X70550Y300D02*
D03*
X37200Y4000D02*
D03*
X30950D02*
D03*
X17650Y2000D02*
D03*
X24600Y3300D02*
D03*
X50350Y4000D02*
D03*
X43800D02*
D03*
X63250Y2000D02*
D03*
X56540Y3300D02*
D03*
X75950Y-3100D02*
D03*
X4950Y-3200D02*
D03*
X11200Y200D02*
D03*
M02*
