G04*
G04 #@! TF.GenerationSoftware,Altium Limited,Altium Designer,21.3.2 (30)*
G04*
G04 Layer_Color=2752767*
%FSLAX43Y43*%
%MOMM*%
G71*
G04*
G04 #@! TF.SameCoordinates,E583AE15-D421-4EF2-A5E4-CEDEED2159FB*
G04*
G04*
G04 #@! TF.FilePolarity,Positive*
G04*
G01*
G75*
%ADD107C,0.051*%
D107*
X65052Y59559D02*
X65255Y59762D01*
X65458Y59559D01*
X65255Y59356D01*
X65052Y59559D01*
X64546Y54399D02*
X64749Y54602D01*
X64952Y54399D01*
X64749Y54196D01*
X64546Y54399D01*
X75497Y65750D02*
X75700Y65953D01*
X75903Y65750D01*
X75700Y65547D01*
X75497Y65750D01*
X65497Y67050D02*
X65700Y67253D01*
X65903Y67050D01*
X65700Y66847D01*
X65497Y67050D01*
X56597Y76750D02*
X56800Y76953D01*
X57003Y76750D01*
X56800Y76547D01*
X56597Y76750D01*
X56297Y71600D02*
X56500Y71803D01*
X56703Y71600D01*
X56500Y71397D01*
X56297Y71600D01*
X54198Y69850D02*
X54401Y70053D01*
X54604Y69850D01*
X54401Y69647D01*
X54198Y69850D01*
X106447Y60000D02*
X106650Y60203D01*
X106853Y60000D01*
X106650Y59797D01*
X106447Y60000D01*
X113271Y59225D02*
X113475Y59429D01*
X113678Y59225D01*
X113475Y59022D01*
X113271Y59225D01*
X67350Y62520D02*
X67553Y62723D01*
X67756Y62520D01*
X67553Y62317D01*
X67350Y62520D01*
Y61100D02*
X67553Y61303D01*
X67756Y61100D01*
X67553Y60897D01*
X67350Y61100D01*
X44547Y61573D02*
X44750Y61776D01*
X44953Y61573D01*
X44750Y61370D01*
X44547Y61573D01*
X47152Y53163D02*
X47355Y53366D01*
X47558Y53163D01*
X47355Y52959D01*
X47152Y53163D01*
X45347Y52900D02*
X45550Y53103D01*
X45753Y52900D01*
X45550Y52697D01*
X45347Y52900D01*
X23197Y59900D02*
X23400Y60103D01*
X23603Y59900D01*
X23400Y59697D01*
X23197Y59900D01*
X24340Y58500D02*
X24543Y58703D01*
X24746Y58500D01*
X24543Y58297D01*
X24340Y58500D01*
X35047Y64850D02*
X35250Y65053D01*
X35453Y64850D01*
X35250Y64647D01*
X35047Y64850D01*
X20494Y63300D02*
X20697Y63503D01*
X20900Y63300D01*
X20697Y63097D01*
X20494Y63300D01*
X46097Y56401D02*
X46300Y56604D01*
X46503Y56401D01*
X46300Y56198D01*
X46097Y56401D01*
X45692Y58304D02*
X45896Y58508D01*
X46099Y58304D01*
X45896Y58101D01*
X45692Y58304D01*
X44386Y58462D02*
X44590Y58665D01*
X44793Y58462D01*
X44590Y58259D01*
X44386Y58462D01*
X36408Y59512D02*
X36612Y59715D01*
X36815Y59512D01*
X36612Y59308D01*
X36408Y59512D01*
X22497Y66563D02*
X22700Y66766D01*
X22903Y66563D01*
X22700Y66360D01*
X22497Y66563D01*
X16077Y60250D02*
X16280Y60453D01*
X16483Y60250D01*
X16280Y60047D01*
X16077Y60250D01*
X14347Y58300D02*
X14550Y58503D01*
X14753Y58300D01*
X14550Y58097D01*
X14347Y58300D01*
X19654Y65907D02*
X19857Y66111D01*
X20061Y65907D01*
X19857Y65704D01*
X19654Y65907D01*
X51247Y69097D02*
Y69503D01*
X51653D01*
Y69097D01*
X51247D01*
X51348Y69198D02*
Y69402D01*
X51552D01*
Y69198D01*
X51348D01*
X82897Y56200D02*
X83100Y56403D01*
X83303Y56200D01*
X83100Y55997D01*
X82897Y56200D01*
X82197Y57130D02*
X82400Y57333D01*
X82603Y57130D01*
X82400Y56927D01*
X82197Y57130D01*
X93597Y63950D02*
X93800Y64153D01*
X94003Y63950D01*
X93800Y63747D01*
X93597Y63950D01*
X92947Y61550D02*
X93150Y61753D01*
X93353Y61550D01*
X93150Y61347D01*
X92947Y61550D01*
X86347Y59800D02*
X86550Y60003D01*
X86753Y59800D01*
X86550Y59597D01*
X86347Y59800D01*
X87947Y60250D02*
X88150Y60453D01*
X88353Y60250D01*
X88150Y60047D01*
X87947Y60250D01*
X93828Y56519D02*
X94031Y56722D01*
X94234Y56519D01*
X94031Y56316D01*
X93828Y56519D01*
X95147Y56911D02*
X95350Y57114D01*
X95553Y56911D01*
X95350Y56708D01*
X95147Y56911D01*
X84497Y60200D02*
X84700Y60403D01*
X84903Y60200D01*
X84700Y59997D01*
X84497Y60200D01*
X82815Y64050D02*
X83018Y64253D01*
X83221Y64050D01*
X83018Y63847D01*
X82815Y64050D01*
X88347Y63550D02*
X88550Y63753D01*
X88753Y63550D01*
X88550Y63347D01*
X88347Y63550D01*
X105606Y65840D02*
X105810Y66044D01*
X106013Y65840D01*
X105810Y65637D01*
X105606Y65840D01*
X114757Y65800D02*
X114960Y66003D01*
X115163Y65800D01*
X114960Y65597D01*
X114757Y65800D01*
X105997Y64750D02*
X106200Y64953D01*
X106403Y64750D01*
X106200Y64547D01*
X105997Y64750D01*
X113559Y65088D02*
X113762Y65291D01*
X113966Y65088D01*
X113762Y64884D01*
X113559Y65088D01*
X53997Y70751D02*
X54200Y70954D01*
X54403Y70751D01*
X54200Y70547D01*
X53997Y70751D01*
X75415Y57043D02*
X75618Y57246D01*
X75821Y57043D01*
X75618Y56839D01*
X75415Y57043D01*
X75897Y56400D02*
X76100Y56603D01*
X76303Y56400D01*
X76100Y56197D01*
X75897Y56400D01*
X75247Y55750D02*
X75450Y55953D01*
X75653Y55750D01*
X75450Y55547D01*
X75247Y55750D01*
X78250Y57757D02*
X78454Y57960D01*
X78657Y57757D01*
X78454Y57554D01*
X78250Y57757D01*
X69597Y68070D02*
X69800Y68274D01*
X70003Y68070D01*
X69800Y67867D01*
X69597Y68070D01*
X70747Y63500D02*
X70950Y63703D01*
X71153Y63500D01*
X70950Y63297D01*
X70747Y63500D01*
X70366Y56850D02*
X70570Y57053D01*
X70773Y56850D01*
X70570Y56647D01*
X70366Y56850D01*
X67697Y55450D02*
X67900Y55653D01*
X68103Y55450D01*
X67900Y55247D01*
X67697Y55450D01*
X69698Y51663D02*
X69901Y51867D01*
X70104Y51663D01*
X69901Y51460D01*
X69698Y51663D01*
X68907Y53684D02*
X69110Y53888D01*
X69313Y53684D01*
X69110Y53481D01*
X68907Y53684D01*
X60209Y50588D02*
X60412Y50791D01*
X60616Y50588D01*
X60412Y50384D01*
X60209Y50588D01*
X60909Y51208D02*
X61112Y51411D01*
X61315Y51208D01*
X61112Y51005D01*
X60909Y51208D01*
X60942Y76702D02*
X61145Y76906D01*
X61348Y76702D01*
X61145Y76499D01*
X60942Y76702D01*
X61947Y77216D02*
X62150Y77419D01*
X62353Y77216D01*
X62150Y77013D01*
X61947Y77216D01*
X65241Y67850D02*
X65445Y68053D01*
X65648Y67850D01*
X65445Y67647D01*
X65241Y67850D01*
X59797Y77100D02*
X60000Y77303D01*
X60203Y77100D01*
X60000Y76897D01*
X59797Y77100D01*
X61461Y71164D02*
X61664Y71367D01*
X61868Y71164D01*
X61664Y70961D01*
X61461Y71164D01*
X62407Y71390D02*
X62610Y71593D01*
X62813Y71390D01*
X62610Y71187D01*
X62407Y71390D01*
X58597Y77150D02*
X58800Y77353D01*
X59003Y77150D01*
X58800Y76947D01*
X58597Y77150D01*
X49436Y55597D02*
Y56003D01*
X49842D01*
Y55597D01*
X49436D01*
X49537Y55698D02*
Y55902D01*
X49740D01*
Y55698D01*
X49537D01*
X44373Y65726D02*
X44576Y65929D01*
X44779Y65726D01*
X44576Y65523D01*
X44373Y65726D01*
X44878Y63732D02*
X45081Y63935D01*
X45284Y63732D01*
X45081Y63529D01*
X44878Y63732D01*
X42547Y63500D02*
X42750Y63703D01*
X42953Y63500D01*
X42750Y63297D01*
X42547Y63500D01*
X40054Y58776D02*
X40257Y58979D01*
X40460Y58776D01*
X40257Y58573D01*
X40054Y58776D01*
X54544Y49786D02*
X54747Y49990D01*
X54951Y49786D01*
X54747Y49583D01*
X54544Y49786D01*
X54145Y51080D02*
X54348Y51283D01*
X54551Y51080D01*
X54348Y50877D01*
X54145Y51080D01*
X54997Y50450D02*
X55200Y50653D01*
X55403Y50450D01*
X55200Y50247D01*
X54997Y50450D01*
X52697Y53800D02*
X52900Y54003D01*
X53103Y53800D01*
X52900Y53597D01*
X52697Y53800D01*
X74197Y62450D02*
X74400Y62653D01*
X74603Y62450D01*
X74400Y62247D01*
X74197Y62450D01*
X75360Y59889D02*
X75564Y60092D01*
X75767Y59889D01*
X75564Y59686D01*
X75360Y59889D01*
X73547Y60893D02*
X73750Y61096D01*
X73953Y60893D01*
X73750Y60690D01*
X73547Y60893D01*
X75647Y64350D02*
X75850Y64553D01*
X76053Y64350D01*
X75850Y64147D01*
X75647Y64350D01*
X43697Y58050D02*
X43900Y58253D01*
X44103Y58050D01*
X43900Y57847D01*
X43697Y58050D01*
X35047Y59400D02*
X35250Y59603D01*
X35453Y59400D01*
X35250Y59197D01*
X35047Y59400D01*
X12492Y59689D02*
X12695Y59892D01*
X12899Y59689D01*
X12695Y59486D01*
X12492Y59689D01*
X5497Y59050D02*
X5700Y59253D01*
X5903Y59050D01*
X5700Y58847D01*
X5497Y59050D01*
X12247Y58250D02*
X12450Y58453D01*
X12653Y58250D01*
X12450Y58047D01*
X12247Y58250D01*
X6797Y59000D02*
X7000Y59203D01*
X7203Y59000D01*
X7000Y58797D01*
X6797Y59000D01*
X6947Y67250D02*
X7150Y67453D01*
X7353Y67250D01*
X7150Y67047D01*
X6947Y67250D01*
X11747Y66000D02*
X11950Y66203D01*
X12153Y66000D01*
X11950Y65797D01*
X11747Y66000D01*
X13147Y66500D02*
X13350Y66703D01*
X13553Y66500D01*
X13350Y66297D01*
X13147Y66500D01*
X8797Y67150D02*
X9000Y67353D01*
X9203Y67150D01*
X9000Y66947D01*
X8797Y67150D01*
M02*
