M48
;Layer_Color=9474304
;FILE_FORMAT=4:3
METRIC,LZ
;TYPE=PLATED
T1F00S00C0.300
T3F00S00C0.508
%
T01
X00057Y005905
X0007Y0059
X001245Y005825
X0012695Y0059689
X001455Y00583
X001628Y006025
X00234Y00599
X0024543Y00585
X00242Y00639
X00227Y0066563
X0019857Y0065907
X001335Y00665
X0009Y006715
X003525Y00594
X0036612Y0059512
X0040257Y0058776
X00439Y005805
X004459Y0058462
X0045896Y0058304
X00463Y0056401
X004555Y00529
X0047355Y0053163
X005035Y005145
X0054348Y005108
X00552Y005045
X0054747Y0049786
X00529Y00538
X0060412Y0050588
X0061112Y0051208
X0064749Y0054399
X0065255Y0059559
X00657Y006705
X0065445Y006785
X0065839Y007
X006261Y007139
X0061664Y0071164
X00565Y00716
X00542Y0070751
X0054401Y006985
X0050187Y00689
X0045081Y0063732
X004275Y00635
X00419Y00553
X00568Y007675
X00588Y007715
X006Y00771
X0061145Y0076702
X006215Y0077216
X0063947Y0074797
X00698Y006807
X00711Y006685
X007095Y00635
X0069585Y006339
X0067553Y006252
Y00611
X00679Y005545
X006911Y0053684
X0069901Y0051663
X006964Y005046
X006695Y005205
X007057Y005685
X00711Y005765
X007385Y0059049
X007375Y0060893
X00744Y006245
X007585Y006435
X0075564Y0059889
X0075618Y0057043
X00761Y00564
X007545Y005575
X0078454Y0057757
X007835Y0062
X00804Y006415
X0083018Y006405
X00847Y00602
X008655Y00598
X008815Y006025
X008855Y006355
X00938Y006395
X009315Y006155
X00928Y006055
X0094031Y0056519
X009535Y0056911
X00831Y00562
X00824Y005713
X007985Y00691
X010581Y006584
X01062Y006475
X0113762Y0065088
X011496Y00658
T03
X0049639Y00558
X005145Y00693
M30
