G04*
G04 #@! TF.GenerationSoftware,Altium Limited,Altium Designer,21.3.2 (30)*
G04*
G04 Layer_Physical_Order=1*
G04 Layer_Color=255*
%FSLAX43Y43*%
%MOMM*%
G71*
G04*
G04 #@! TF.SameCoordinates,E583AE15-D421-4EF2-A5E4-CEDEED2159FB*
G04*
G04*
G04 #@! TF.FilePolarity,Positive*
G04*
G01*
G75*
%ADD15C,0.254*%
%ADD17C,0.203*%
%ADD20R,0.300X1.000*%
%ADD21R,0.300X1.200*%
%ADD22R,0.550X1.200*%
%ADD23R,1.200X0.300*%
%ADD24R,1.067X1.524*%
%ADD25R,1.575X1.270*%
%ADD26R,1.524X1.067*%
%ADD27R,2.100X0.500*%
%ADD28O,2.100X0.500*%
%ADD29R,1.270X1.016*%
%ADD30R,2.000X1.000*%
%ADD31R,1.270X0.889*%
%ADD32R,1.200X0.350*%
%ADD33R,1.016X1.270*%
%ADD34R,0.790X0.260*%
%ADD35R,0.260X0.790*%
%ADD36R,1.650X1.300*%
%ADD37R,1.626X1.194*%
%ADD38O,1.200X2.500*%
%ADD39R,1.200X2.500*%
%ADD40R,1.194X1.626*%
%ADD70C,0.305*%
%ADD71C,0.508*%
%ADD72C,2.000*%
%ADD73C,1.300*%
%ADD74R,1.300X1.300*%
%ADD75C,2.200*%
%ADD76C,2.300*%
%ADD77C,2.300*%
%ADD78C,0.700*%
%ADD79C,1.500*%
%ADD80R,1.500X1.500*%
%ADD81R,1.500X1.500*%
%ADD82C,0.600*%
%ADD83C,1.016*%
D15*
X57700Y52400D02*
Y53500D01*
X58349Y53350D02*
X62682D01*
X58223Y52423D02*
Y53224D01*
X58349Y53350D01*
X58200Y52400D02*
X58223Y52423D01*
X64600Y54250D02*
X64749Y54399D01*
X63582Y54250D02*
X64600D01*
X62682Y53350D02*
X63582Y54250D01*
X56773Y75773D02*
Y76723D01*
X56750Y75750D02*
X56773Y75773D01*
Y76723D02*
X56800Y76750D01*
X56250Y71350D02*
X56500Y71600D01*
X56250Y69650D02*
Y71350D01*
Y69650D02*
X56700Y69200D01*
Y67900D02*
Y69200D01*
X66950Y50900D02*
Y52050D01*
X66900Y50850D02*
X66950Y50900D01*
X79600Y68850D02*
X79850Y69100D01*
X78600Y68850D02*
X79600D01*
X71100Y65298D02*
Y66850D01*
X92750Y60550D02*
X92800D01*
X92300Y61000D02*
X92750Y60550D01*
X91050Y61000D02*
X92300D01*
X65839Y69989D02*
Y70000D01*
X65700Y69850D02*
X65839Y69989D01*
X64818Y69850D02*
X65700D01*
X68029Y61829D02*
X68137Y61937D01*
X67963Y61829D02*
X68029D01*
X68137Y61937D02*
X68669D01*
X69050Y62318D01*
X69585Y63390D02*
Y63435D01*
X69563Y63456D02*
X69585Y63435D01*
X69563Y63456D02*
Y63956D01*
X69169Y64350D02*
X69563Y63956D01*
X69050Y64350D02*
X69169D01*
X49450Y68900D02*
X50187D01*
X49100Y68550D02*
X49450Y68900D01*
X41900Y54450D02*
Y55300D01*
Y54450D02*
X42150Y54200D01*
X50231Y51569D02*
X50350Y51450D01*
X49150Y51950D02*
X49531Y51569D01*
X50231D01*
X24200Y63900D02*
X24250Y63950D01*
X25850D01*
X46999Y52900D02*
X47261Y53163D01*
X47355D01*
X45550Y52900D02*
X46999D01*
X16150Y60250D02*
Y60800D01*
Y60250D02*
X16280D01*
X16150Y60800D02*
X19150Y63800D01*
X14550Y58300D02*
X15650Y59400D01*
Y61000D01*
X18650Y64000D01*
Y66500D01*
X20950Y68800D01*
X28150D01*
X28921Y69571D01*
X19150Y63800D02*
Y66250D01*
X21200Y68300D01*
X28400D01*
X29214Y69114D01*
X26350Y60950D02*
X29250Y63850D01*
X31307D01*
X25850Y60950D02*
X26350D01*
X33857Y66900D02*
X35157Y68200D01*
X33857Y66400D02*
Y66900D01*
X31307Y63850D02*
X33857Y66400D01*
X33400Y67089D02*
X34968Y68657D01*
X33400Y66589D02*
Y67089D01*
X31361Y64550D02*
X33400Y66589D01*
X28450Y64550D02*
X31361D01*
X25850Y62450D02*
X26350D01*
X28450Y64550D01*
X81203Y56200D02*
X83100D01*
X80903Y56500D02*
X81203Y56200D01*
X79100Y56500D02*
X80903D01*
X91050Y64000D02*
X91100Y63950D01*
X93800D01*
X92573Y62127D02*
X93150Y61550D01*
X91050Y62500D02*
X91423Y62127D01*
X92573D01*
X69640Y50460D02*
X71400D01*
X45348Y63559D02*
X47943D01*
X48202Y63300D01*
X48750D01*
X45175Y63732D02*
X45348Y63559D01*
X45081Y63732D02*
X45175D01*
X49065Y65421D02*
X49336Y65150D01*
X48423Y65421D02*
X49065D01*
X45570Y68274D02*
X48423Y65421D01*
X105810Y65840D02*
X105850Y65800D01*
X114960D01*
X75450Y55750D02*
X78350D01*
X79100Y56500D01*
X66450Y55650D02*
X67606D01*
X67806Y55450D01*
X67900D01*
X74795Y52450D02*
X76400D01*
Y53000D01*
Y50460D02*
Y51730D01*
Y52450D01*
Y53000D02*
Y54270D01*
X73850Y55920D02*
Y57650D01*
X71400Y54270D02*
X72200D01*
X73850Y55920D01*
X68669Y57281D02*
X69050Y56900D01*
X68412Y57281D02*
X68669D01*
X69150Y57000D02*
Y57550D01*
X67812Y57300D02*
X68393D01*
X69773Y58350D02*
X69900D01*
X69050Y56900D02*
X69150Y57000D01*
X67185Y56673D02*
X67812Y57300D01*
X68393D02*
X68412Y57281D01*
X69050Y54868D02*
X69431Y55249D01*
X69929D01*
X70069Y55389D02*
X70671D01*
X70737Y55455D01*
X69929Y55249D02*
X70069Y55389D01*
X67043Y56673D02*
X67185D01*
X67043Y56673D02*
X67043Y56673D01*
X66473Y56673D02*
X67043D01*
X66450Y56650D02*
X66473Y56673D01*
X68973Y59150D02*
X69773Y58350D01*
X66450Y59150D02*
X68973D01*
X69150Y57550D02*
Y57789D01*
X69150Y57789D01*
X69212D01*
X69773Y58350D01*
X70128Y57650D02*
X71100D01*
X69150Y57550D02*
X70028D01*
X70128Y57650D01*
X60412Y50588D02*
Y51400D01*
X60677Y51665D01*
Y52377D02*
X60700Y52400D01*
X60677Y51665D02*
Y52377D01*
X61112Y51208D02*
X61178Y51274D01*
X61884Y50516D02*
Y50880D01*
X61768Y50995D02*
Y51443D01*
X61700Y51511D02*
Y52400D01*
X61178Y51274D02*
Y51452D01*
X61700Y51511D02*
X61768Y51443D01*
Y50995D02*
X61884Y50880D01*
Y50516D02*
X61950Y50450D01*
X61178Y51452D02*
X61200Y51474D01*
Y52400D01*
X63881Y74864D02*
X63947Y74797D01*
X63786Y74864D02*
X63881D01*
X63273Y75377D02*
X63786Y74864D01*
X42750Y63500D02*
X44422D01*
X44199Y67706D02*
X47855Y64050D01*
X44199Y67706D02*
Y67706D01*
X43705Y68200D02*
X44199Y67706D01*
X35157Y68200D02*
X43705D01*
X44656Y67896D02*
X48045Y64507D01*
X44656Y67896D02*
Y68140D01*
X44139Y68657D02*
X44656Y68140D01*
X34968Y68657D02*
X44139D01*
X45113Y68085D02*
X48234Y64964D01*
X45113Y68085D02*
Y68330D01*
X44329Y69114D02*
X45113Y68330D01*
X29214Y69114D02*
X44329D01*
X28921Y69571D02*
X44518D01*
X45570Y68519D01*
Y68274D02*
Y68519D01*
X72950Y67750D02*
X73300Y67400D01*
X74216Y67466D02*
Y67914D01*
X74552Y68250D01*
X73300Y67400D02*
X74150D01*
X74216Y67466D01*
X74552Y68250D02*
X74800D01*
X75649Y68850D02*
X76568D01*
X75400D02*
X75649D01*
X74800Y68250D02*
X75400Y68850D01*
X75500Y67300D02*
Y68701D01*
X78000Y67300D02*
Y68123D01*
X78600Y68723D02*
Y68850D01*
X78000Y68123D02*
X78600Y68723D01*
X48895Y66723D02*
X49100Y66518D01*
X47855Y64050D02*
X48150D01*
X48045Y64507D02*
X48339D01*
X48013Y66723D02*
X48895D01*
X48234Y64964D02*
X48876D01*
X50234Y71100D02*
X50950D01*
X49802Y70550D02*
Y70668D01*
X50234Y71100D01*
X44820Y63102D02*
X46733D01*
X44422Y63500D02*
X44820Y63102D01*
X46733D02*
X46800Y63035D01*
X47821D01*
X48876Y64964D02*
X49169Y64671D01*
X48339Y64507D02*
X48632Y64214D01*
X48150Y64050D02*
X48443Y63757D01*
X47821Y63035D02*
X48400Y62456D01*
X48632Y64214D02*
X49286D01*
X48443Y63757D02*
X49097D01*
X49286Y64214D02*
X50000Y63500D01*
X48750Y63300D02*
X49000Y63050D01*
X49097Y63757D02*
X49500Y63354D01*
X49834Y64650D02*
X50950D01*
X49169Y64671D02*
X49813D01*
X49834Y64650D01*
X49336Y65150D02*
X50950D01*
X48400Y59550D02*
Y62456D01*
X50000Y60388D02*
Y63500D01*
X49500Y60241D02*
Y63354D01*
X49000Y60095D02*
X49945Y59150D01*
X49000Y60095D02*
Y63050D01*
X48400Y59550D02*
X49300Y58650D01*
X50950D01*
X49945Y59150D02*
X50950D01*
X49500Y60241D02*
X50068Y59673D01*
X50927D02*
X50950Y59650D01*
X50068Y59673D02*
X50927D01*
X50215Y60173D02*
X50927D01*
X50950Y60150D01*
X50000Y60388D02*
X50215Y60173D01*
X54200Y51322D02*
X54348Y51174D01*
Y51080D02*
Y51174D01*
X54200Y51322D02*
Y52400D01*
X55188Y50462D02*
X55200Y50450D01*
X54723Y51596D02*
X55188Y51131D01*
Y50462D02*
Y51131D01*
X54723Y51596D02*
Y52377D01*
X54700Y52400D02*
X54723Y52377D01*
X53079Y53734D02*
X53677Y53135D01*
X52966Y53734D02*
X53079D01*
X52900Y53800D02*
X52966Y53734D01*
X53677Y52423D02*
Y53135D01*
Y52423D02*
X53700Y52400D01*
X74888Y59560D02*
Y61588D01*
X75000Y61700D02*
Y62201D01*
X75043Y62244D01*
X74888Y61588D02*
X75000Y61700D01*
X75199Y59249D02*
X75469D01*
X74888Y59560D02*
X75199Y59249D01*
X75043Y62244D02*
Y64077D01*
X74780Y64080D02*
X75040D01*
X75043Y64077D01*
X75469Y59249D02*
X75850Y58868D01*
X74304Y58104D02*
X74959D01*
X75723Y58868D01*
X75850D01*
X73850Y57650D02*
X74304Y58104D01*
X75500Y61250D02*
Y62150D01*
Y61250D02*
X75850Y60900D01*
X53148Y75747D02*
X53747D01*
X53750Y75750D01*
X66450Y63150D02*
X68651D01*
X68850Y62518D02*
Y62951D01*
X68651Y63150D02*
X68850Y62951D01*
Y62518D02*
X69050Y62318D01*
X67350Y58650D02*
X67600Y58400D01*
X66450Y58650D02*
X67350D01*
X73850Y59049D02*
Y59882D01*
X78300Y61950D02*
X78350Y62000D01*
X78300Y61800D02*
Y61950D01*
X78108Y61131D02*
Y61608D01*
X78300Y61800D01*
X77600Y60750D02*
X77727D01*
X78108Y61131D01*
X75500Y62150D02*
Y63360D01*
Y62150D02*
X75850D01*
X75900Y62100D01*
X79350Y61777D02*
X79387Y61814D01*
X79350Y60750D02*
Y61777D01*
X81667Y67250D02*
X81732Y67185D01*
X80450Y67250D02*
X81667D01*
X80250Y64050D02*
X80350Y64150D01*
X80400D01*
X80013Y64050D02*
X80250D01*
X78720Y64580D02*
X79483D01*
X80013Y64050D01*
X80130Y66080D02*
X80450Y66400D01*
Y67250D01*
X78720Y66080D02*
X80130D01*
X80088Y65580D02*
X80450Y65218D01*
X78720Y65580D02*
X80088D01*
X75500Y68701D02*
X75649Y68850D01*
X12684Y59700D02*
X12695Y59689D01*
X6350Y59700D02*
X12684D01*
X5700Y59050D02*
X6350Y59700D01*
X9067Y59000D02*
X9817Y58250D01*
X12450D01*
X7000Y59000D02*
X9067D01*
X52700Y67900D02*
Y68227D01*
X49400Y68250D02*
X52677D01*
X49100Y68550D02*
X49400Y68250D01*
X52677D02*
X52700Y68227D01*
X50477Y53150D02*
Y54127D01*
X50500Y54150D02*
X50950D01*
X50477Y54127D02*
X50500Y54150D01*
X49277Y51950D02*
X50477Y53150D01*
X49150Y51950D02*
X49277D01*
X63273Y75377D02*
Y75727D01*
X63250Y75750D02*
X63273Y75727D01*
X66450Y64150D02*
X68723D01*
X68923Y64350D01*
X68223Y63650D02*
X68723Y64150D01*
X68923Y64350D02*
X69050D01*
X66450Y63650D02*
X68223D01*
X66519Y51358D02*
X66900Y50977D01*
X65965Y51358D02*
X66519D01*
X65396Y51927D02*
X65965Y51358D01*
X64723Y51927D02*
X65396D01*
X64700Y51950D02*
X64723Y51927D01*
X66900Y50850D02*
Y50977D01*
X64700Y51950D02*
Y52400D01*
X66900Y50650D02*
Y50777D01*
X64200Y69105D02*
X64818Y69723D01*
Y69850D01*
X64200Y67900D02*
Y69105D01*
D17*
X55600Y72636D02*
G03*
X55600Y73364I-990J364D01*
G01*
X63748Y53125D02*
X63925Y53302D01*
X63248Y53199D02*
X63757Y53708D01*
X65716D01*
X63248Y52448D02*
Y53199D01*
X63925Y53302D02*
X65547D01*
X63748Y52448D02*
Y53125D01*
X65350Y65769D02*
Y66593D01*
X65700Y66943D02*
Y67050D01*
X65350Y66593D02*
X65700Y66943D01*
X66450Y66150D02*
Y67400D01*
X66000Y67850D02*
X66450Y67400D01*
X65445Y67850D02*
X66000D01*
X65547Y53302D02*
X65769Y53080D01*
X58205Y72181D02*
Y73673D01*
X58250Y74800D02*
Y75750D01*
X57750Y74703D02*
X58611Y73842D01*
X57250Y74628D02*
X58205Y73673D01*
X58250Y74800D02*
X58995Y74055D01*
X57750Y74703D02*
Y75750D01*
X57250Y74628D02*
Y75750D01*
X55600Y73364D02*
Y74295D01*
X56250Y74945D01*
Y75750D01*
X55412Y69303D02*
Y72003D01*
X55818Y69471D02*
Y72171D01*
X55006Y69135D02*
Y71068D01*
X53774Y72300D02*
X55006Y71068D01*
X55600Y72390D02*
X55660Y72330D01*
X58205Y72181D02*
X59855Y70532D01*
X58611Y72350D02*
X60261Y70700D01*
X55600Y72390D02*
Y72636D01*
X58611Y72350D02*
Y73842D01*
X55660Y72330D02*
X55818Y72171D01*
X54610Y72805D02*
X55412Y72003D01*
X54610Y72805D02*
Y73000D01*
X54401Y69743D02*
X54600Y69544D01*
Y68966D02*
Y69544D01*
X54606Y68670D02*
Y68960D01*
X55012Y68839D02*
Y69128D01*
X53390Y69431D02*
Y69441D01*
X54606Y68670D02*
X54652Y68625D01*
X55012Y68839D02*
X55152Y68700D01*
X53155Y68928D02*
X53178D01*
X53383Y69448D02*
X53390Y69441D01*
X53796Y70299D02*
X54200Y70703D01*
X53796Y69599D02*
X54106Y69290D01*
Y68886D02*
Y69290D01*
X54200Y70703D02*
Y70751D01*
X54600Y68966D02*
X54606Y68960D01*
X53700Y67900D02*
Y69121D01*
X55006Y69135D02*
X55012Y69128D01*
X53010Y69073D02*
X53155Y68928D01*
X55444Y68982D02*
Y69271D01*
X55818Y69471D02*
X55850Y69440D01*
X53390Y69431D02*
X53700Y69121D01*
X53383Y69448D02*
Y69839D01*
X53796Y69599D02*
Y70299D01*
X55850Y69150D02*
Y69440D01*
X54401Y69743D02*
Y69850D01*
X52903Y69073D02*
X53010D01*
X54106Y68886D02*
X54200Y68792D01*
X55412Y69303D02*
X55444Y69271D01*
X54200Y67900D02*
Y68792D01*
X55850Y69150D02*
X56200Y68800D01*
X55152Y67948D02*
Y68700D01*
X55444Y68982D02*
X55700Y68726D01*
X56200Y67900D02*
Y68800D01*
X55700Y67900D02*
Y68726D01*
X54652Y67948D02*
Y68625D01*
X55152Y67948D02*
X55200Y67900D01*
X52850Y70372D02*
X53383Y69839D01*
X39600Y51808D02*
Y52768D01*
X70036Y66058D02*
X70300Y66322D01*
Y67500D01*
X72350Y69550D01*
X66778Y70922D02*
Y70937D01*
Y70922D02*
X66850Y70850D01*
Y69850D02*
Y70850D01*
X66450Y62150D02*
X67257D01*
X67553Y62446D01*
Y62520D01*
X67477Y61176D02*
Y61299D01*
X66498Y61602D02*
X67175D01*
X67477Y61299D01*
Y61176D02*
X67553Y61100D01*
X66450Y61650D02*
X66498Y61602D01*
X71166Y59366D02*
X71200Y59400D01*
X70134Y59366D02*
X71166D01*
X69900Y59600D02*
X70134Y59366D01*
X69900Y59600D02*
Y60382D01*
X70150Y74500D02*
Y75400D01*
Y74500D02*
X70250Y74400D01*
X73648Y69750D02*
X74450D01*
X73348Y70050D02*
X73648Y69750D01*
X72950Y62350D02*
Y63260D01*
X73000Y63310D01*
X64795Y50850D02*
X64868Y50777D01*
X64200Y51445D02*
X64795Y50850D01*
X64868D01*
X63900D02*
X64795D01*
X63750Y50700D02*
X63900Y50850D01*
X63287Y49913D02*
X67533D01*
X62700Y51248D02*
X62961Y50987D01*
X62700Y51248D02*
Y52400D01*
X62961Y50239D02*
X63287Y49913D01*
X62961Y50239D02*
Y50987D01*
X62200Y51174D02*
X62555Y50819D01*
Y50045D02*
Y50819D01*
Y50045D02*
X63093Y49507D01*
X62200Y51174D02*
Y52400D01*
X63093Y49507D02*
X67701D01*
X44950Y54650D02*
Y55237D01*
X44450Y54150D02*
X44950Y54650D01*
X45987Y51963D02*
X46141Y51809D01*
X45888Y51963D02*
X45987D01*
X46693Y51809D02*
X47150Y51352D01*
X46141Y51809D02*
X46693D01*
X25850Y59450D02*
X27500D01*
X33850Y64314D02*
Y64750D01*
X33318Y63782D02*
X33850Y64314D01*
X33318Y62851D02*
X33437Y62732D01*
X34700D01*
X33318Y62851D02*
Y63782D01*
X47861Y51861D02*
X48213Y52213D01*
Y52583D02*
X48390Y52760D01*
X48213Y52213D02*
Y52583D01*
X48498Y52760D02*
X48617Y52879D01*
X47861Y51809D02*
Y51861D01*
X48617Y52879D02*
Y53576D01*
X48390Y52760D02*
X48498D01*
X49023Y53982D02*
X49277D01*
X47150Y51352D02*
X47404D01*
X47861Y51809D01*
X48617Y53576D02*
X49023Y53982D01*
X49977Y55077D02*
X50050Y55150D01*
X49798Y55077D02*
X49977D01*
X49654Y54933D02*
X49798Y55077D01*
X47683Y54933D02*
X49654D01*
X47150Y54400D02*
X47683Y54933D01*
X52010Y69456D02*
X52850Y70296D01*
X51606Y69456D02*
X52010D01*
X51450Y69300D02*
X51606Y69456D01*
X80486Y57300D02*
X80656Y57130D01*
X82400D01*
X78850Y57300D02*
X80486D01*
X91050Y65500D02*
X92733D01*
X61060Y71050D02*
X61073Y71036D01*
Y70900D02*
Y71036D01*
X60653Y70882D02*
X60667Y70868D01*
Y70731D02*
Y70868D01*
X60261Y70563D02*
Y70700D01*
X59855Y70395D02*
Y70532D01*
X69642Y53397D02*
X69755Y53509D01*
X69642Y53361D02*
Y53397D01*
X70048Y53228D02*
X70161Y53341D01*
X70048Y53193D02*
Y53228D01*
X72900Y53000D02*
X74500Y54600D01*
X70600Y53000D02*
X72900D01*
X69868Y52268D02*
X70600Y53000D01*
X69698Y52268D02*
X69868D01*
X69697Y52267D02*
X69698Y52268D01*
X69092Y52267D02*
X69697D01*
X106200Y64750D02*
X106300D01*
X106638Y65088D01*
X113762D01*
X52850Y70372D02*
Y70550D01*
Y70296D02*
Y70372D01*
X54652Y67948D02*
X54700Y67900D01*
X49433Y74331D02*
X50731D01*
X49250Y74148D02*
X49433Y74331D01*
X69227Y70050D02*
X70300D01*
X68689Y70589D02*
X69227Y70050D01*
X68689Y70589D02*
Y71661D01*
X67800Y72550D02*
X68689Y71661D01*
X67649Y72550D02*
X67800D01*
X66637Y73562D02*
X67649Y72550D01*
X66637Y73562D02*
Y74213D01*
X62850Y78000D02*
X66637Y74213D01*
X54400Y78000D02*
X62850D01*
X50731Y74331D02*
X54400Y78000D01*
X49702Y76698D02*
Y76998D01*
X49250Y77450D02*
X49702Y76998D01*
X70250Y64200D02*
X70950Y63500D01*
X70250Y64200D02*
Y64528D01*
X70036Y64741D02*
X70250Y64528D01*
X70036Y64741D02*
Y66058D01*
X72350Y69550D02*
Y70700D01*
X70150Y72900D02*
X72350Y70700D01*
X69600Y72900D02*
X70150D01*
X68939Y73561D02*
X69600Y72900D01*
X68939Y73561D02*
Y75211D01*
X68255Y75895D02*
X68939Y75211D01*
X67606Y75895D02*
X68255D01*
X66761Y76740D02*
X67606Y75895D01*
X66761Y76740D02*
Y78316D01*
X66475Y78602D02*
X66761Y78316D01*
X64575Y78602D02*
X66475D01*
X64380Y78406D02*
X64575Y78602D01*
X54232Y78406D02*
X64380D01*
X52524Y76698D02*
X54232Y78406D01*
X49702Y76698D02*
X52524D01*
X66450Y60650D02*
X66498Y60602D01*
X67175D02*
X67327Y60450D01*
X66498Y60602D02*
X67175D01*
X68963Y60569D02*
Y61015D01*
X68844Y60450D02*
X68963Y60569D01*
X67327Y60450D02*
X68844D01*
X69248Y61300D02*
X69617D01*
X68963Y61015D02*
X69248Y61300D01*
X75650Y57000D02*
X75944Y57294D01*
X75618Y57032D02*
Y57043D01*
Y57032D02*
X75650Y57000D01*
X75944Y57294D02*
X77991D01*
X78454Y57757D01*
X77950Y56400D02*
X78850Y57300D01*
X76100Y56400D02*
X77950D01*
X69870Y68000D02*
X71400Y69530D01*
X78454Y57757D02*
X78458D01*
X69800Y68070D02*
X69870Y68000D01*
X71400Y69530D02*
Y70570D01*
X68533Y73367D02*
X69748Y72152D01*
X69818D01*
X71400Y70570D01*
X67999Y74198D02*
X68533Y73665D01*
Y73367D02*
Y73665D01*
X67850Y74198D02*
X67999D01*
X67902Y77448D02*
X70250D01*
X67850Y77500D02*
X67902Y77448D01*
X67850Y68013D02*
Y71176D01*
X68256Y68181D02*
Y71344D01*
X69406Y66507D02*
Y67031D01*
X68256Y68181D02*
X69406Y67031D01*
X67850Y68013D02*
X69000Y66863D01*
Y66676D02*
Y66863D01*
X64986Y50732D02*
X65889D01*
X64868Y50850D02*
X64986Y50732D01*
X64868Y50650D02*
Y50777D01*
X69520Y55800D02*
X70570Y56850D01*
X68405Y55800D02*
X69520D01*
X68055Y56150D02*
X68405Y55800D01*
X66450Y56150D02*
X68055D01*
X71367Y51697D02*
X71400Y51730D01*
X69901Y51663D02*
X69934Y51697D01*
X71367D01*
X74500Y54600D02*
Y56850D01*
X75350Y57700D02*
X77350D01*
X77616Y57966D01*
X74500Y56850D02*
X75350Y57700D01*
X70600Y54270D02*
X71400D01*
X70161Y53831D02*
X70600Y54270D01*
X67533Y49913D02*
X67710Y50090D01*
Y52460D01*
X67900Y52650D01*
X68200D01*
X68223Y52673D01*
X69529D01*
X70048Y53193D01*
X70161Y53341D02*
Y53831D01*
X67701Y49507D02*
X68116Y49922D01*
Y52066D01*
X68296Y52246D01*
X69071D01*
X69092Y52267D01*
X77600Y58718D02*
X77616Y58702D01*
Y57966D02*
Y58702D01*
X69987Y54235D02*
Y54437D01*
X69755Y54003D02*
X69987Y54235D01*
X69755Y53509D02*
Y54003D01*
X70400Y54850D02*
X71650D01*
X69987Y54437D02*
X70400Y54850D01*
X72350Y55550D02*
Y60573D01*
X72671Y60893D02*
X73750D01*
X72350Y60573D02*
X72671Y60893D01*
X71650Y54850D02*
X72350Y55550D01*
X67994Y53750D02*
X69044D01*
X69110Y53684D01*
X65769Y53080D02*
X69361D01*
X69642Y53361D01*
X67900Y53656D02*
X67994Y53750D01*
X65767Y53656D02*
X67900D01*
X61750Y76761D02*
X62150Y77161D01*
X61202Y75798D02*
Y76646D01*
X62150Y77161D02*
Y77216D01*
X61202Y75798D02*
X61250Y75750D01*
X61145Y76702D02*
X61202Y76646D01*
X61750Y75750D02*
Y76761D01*
X65350Y65769D02*
X65469Y65650D01*
X66450D01*
X59750Y76743D02*
X60000Y76993D01*
X59750Y75750D02*
Y76743D01*
X60000Y76993D02*
Y77100D01*
X61060Y71050D02*
Y72031D01*
X62200Y67900D02*
Y70700D01*
X59855Y70395D02*
X60200Y70049D01*
X60261Y70563D02*
X60700Y70124D01*
X60653Y72199D02*
X60745Y72291D01*
X60667Y70731D02*
X61200Y70198D01*
X60653Y70882D02*
Y72199D01*
X60169Y74587D02*
X61151Y73605D01*
X60127Y74055D02*
X60745Y73437D01*
X61664Y71164D02*
X61737D01*
X61060Y72031D02*
X61151Y72123D01*
X61737Y71164D02*
X62200Y70700D01*
X61200Y67900D02*
Y70198D01*
X60200Y67900D02*
Y70049D01*
X60700Y67900D02*
Y70124D01*
X61485Y70488D02*
X61512D01*
X61073Y70900D02*
X61485Y70488D01*
X61512D02*
X61700Y70300D01*
X62610Y71390D02*
X62700Y71300D01*
Y67900D02*
Y71300D01*
X59250Y75798D02*
X59298Y75750D01*
X59250Y75798D02*
Y76700D01*
X58800Y77150D02*
X59250Y76700D01*
X50050Y55150D02*
X50950D01*
X49639Y55580D02*
Y55800D01*
Y55580D02*
X50050Y55169D01*
Y55150D02*
Y55169D01*
X63697Y74193D02*
X65509D01*
X65825Y73201D02*
Y73876D01*
X62975Y76552D02*
X63724D01*
X65509Y74193D02*
X65825Y73876D01*
X62977Y74912D02*
X63697Y74193D01*
X66231Y73369D02*
X68256Y71344D01*
X62400Y74912D02*
X62977D01*
X66231Y73369D02*
Y74045D01*
X65825Y73201D02*
X67850Y71176D01*
X63724Y76552D02*
X66231Y74045D01*
X47850Y68094D02*
Y72600D01*
X46737Y68920D02*
X46936Y68722D01*
X47850Y68094D02*
X48211Y67734D01*
X46936Y68434D02*
Y68722D01*
X46450Y68920D02*
X46737D01*
X46936Y68434D02*
X48042Y67328D01*
X48211Y67734D02*
X51117D01*
X48042Y67328D02*
X49860D01*
X54747Y49786D02*
X54806Y49845D01*
X55451D01*
X55805Y50199D02*
Y50705D01*
X55451Y49845D02*
X55805Y50199D01*
Y50705D02*
X56200Y51100D01*
Y52400D01*
X74752Y64552D02*
X74780Y64580D01*
X74300Y64552D02*
X74752D01*
X74000Y64252D02*
X74300Y64552D01*
X74000Y63504D02*
Y64252D01*
X74400Y62450D02*
Y63104D01*
X74000Y63504D02*
X74400Y63104D01*
X75564Y59889D02*
X75625Y59950D01*
X76787Y59277D02*
X77346Y58718D01*
X76787Y59277D02*
Y59501D01*
X77346Y58718D02*
X77600D01*
X76338Y59950D02*
X76787Y59501D01*
X75625Y59950D02*
X76338D01*
X73100Y65568D02*
X73964D01*
X72950Y65718D02*
X73100Y65568D01*
X74752Y66052D02*
X74780Y66080D01*
X74300Y66052D02*
X74752D01*
X74083Y65835D02*
X74300Y66052D01*
X74083Y65687D02*
Y65835D01*
X73964Y65568D02*
X74083Y65687D01*
X72823Y64382D02*
X72950D01*
X72013Y63572D02*
X72823Y64382D01*
X72013Y62833D02*
Y63572D01*
X71430Y62250D02*
X72013Y62833D01*
X71100Y62250D02*
X71430D01*
X70567Y61717D02*
X71100Y62250D01*
X70033Y61717D02*
X70567D01*
X69617Y61300D02*
X70033Y61717D01*
X78080Y66580D02*
X78720D01*
X75850Y64350D02*
X78080Y66580D01*
X77600Y58718D02*
X79350D01*
X46450Y74000D02*
X47850Y72600D01*
X51852Y55301D02*
X52258Y55707D01*
X51117Y67734D02*
X52258Y66593D01*
Y55707D02*
Y66593D01*
X50998Y55698D02*
X51675D01*
X50977Y67300D02*
X51852Y66425D01*
X51675Y55698D02*
X51852Y55875D01*
Y66425D01*
X49860Y67328D02*
X49888Y67300D01*
X50977D01*
X51852Y53698D02*
Y55301D01*
X52700Y52400D02*
Y52850D01*
X51852Y53698D02*
X52700Y52850D01*
X50950Y55650D02*
X50998Y55698D01*
X49945Y54650D02*
X50950D01*
X49277Y53982D02*
X49945Y54650D01*
X62750Y75750D02*
X62798Y75798D01*
Y76375D01*
X62975Y76552D01*
X66450Y64650D02*
X67549D01*
X69406Y66507D01*
X62298Y75014D02*
Y75853D01*
Y75014D02*
X62400Y74912D01*
X66450Y65150D02*
X67474D01*
X69000Y66676D01*
X65716Y53708D02*
X65767Y53656D01*
X63200Y52400D02*
X63248Y52448D01*
X63700Y52400D02*
X63748Y52448D01*
X64200Y51445D02*
Y52400D01*
X53178Y67922D02*
Y68928D01*
Y67922D02*
X53200Y67900D01*
X52070Y73000D02*
X52400D01*
X53100Y72300D01*
X53774D01*
X66444Y69317D02*
X66850Y69723D01*
X66317Y69317D02*
X66444D01*
X66850Y69723D02*
Y69850D01*
X65913Y68913D02*
X66317Y69317D01*
X65263Y68913D02*
X65913D01*
X64700Y67900D02*
Y68350D01*
X65263Y68913D01*
X60798Y75125D02*
X61417Y74506D01*
X60750Y75750D02*
X60798Y75702D01*
Y75125D02*
Y75702D01*
X62790Y74506D02*
X63700Y73596D01*
X61417Y74506D02*
X62790D01*
X63700Y67900D02*
Y73596D01*
X61231Y74100D02*
X62622D01*
X60298Y75032D02*
Y75702D01*
Y75032D02*
X61231Y74100D01*
X60250Y75750D02*
X60298Y75702D01*
X63200Y70875D02*
X63285Y70960D01*
Y73437D01*
X62622Y74100D02*
X63285Y73437D01*
X63200Y67900D02*
Y70875D01*
X61700Y67900D02*
Y70300D01*
X58750Y74874D02*
Y75750D01*
Y74874D02*
X59037Y74587D01*
X60169D01*
X61151Y72123D02*
Y73605D01*
X58995Y74055D02*
X60127D01*
X60745Y72291D02*
Y73437D01*
D20*
X56750Y75750D02*
D03*
X56250D02*
D03*
X53750D02*
D03*
X54250D02*
D03*
X54750D02*
D03*
X57250D02*
D03*
X57750D02*
D03*
X59250D02*
D03*
X59750D02*
D03*
X63250D02*
D03*
X62750D02*
D03*
X62250D02*
D03*
X61750D02*
D03*
X61250D02*
D03*
X60750D02*
D03*
X60250D02*
D03*
X58750D02*
D03*
X58250D02*
D03*
X55750D02*
D03*
X55250D02*
D03*
D21*
X56700Y67900D02*
D03*
X56200D02*
D03*
X64700Y52400D02*
D03*
X64200D02*
D03*
X63700D02*
D03*
X63200D02*
D03*
X62700D02*
D03*
X62200D02*
D03*
X61700D02*
D03*
X61200D02*
D03*
X60700D02*
D03*
X60200D02*
D03*
X59700D02*
D03*
X59200D02*
D03*
X58700D02*
D03*
X58200D02*
D03*
X57700D02*
D03*
X57200D02*
D03*
X56700D02*
D03*
X56200D02*
D03*
X55700D02*
D03*
X55200D02*
D03*
X54700D02*
D03*
X54200D02*
D03*
X53700D02*
D03*
X53200D02*
D03*
X52700Y67900D02*
D03*
X53200D02*
D03*
X53700D02*
D03*
X54200D02*
D03*
X54700D02*
D03*
X55200D02*
D03*
X55700D02*
D03*
X57200D02*
D03*
X57700D02*
D03*
X58200D02*
D03*
X58700D02*
D03*
X59200D02*
D03*
X59700D02*
D03*
X60200D02*
D03*
X60700D02*
D03*
X61200D02*
D03*
X61700D02*
D03*
X62200D02*
D03*
X62700D02*
D03*
X63200D02*
D03*
X63700D02*
D03*
X64200D02*
D03*
X64700D02*
D03*
X52700Y52400D02*
D03*
D22*
X38400Y58950D02*
D03*
X37450D02*
D03*
X39350D02*
D03*
Y56350D02*
D03*
X38400D02*
D03*
X37450D02*
D03*
D23*
X66450Y62650D02*
D03*
X50950Y54150D02*
D03*
Y54650D02*
D03*
Y55150D02*
D03*
Y55650D02*
D03*
Y56150D02*
D03*
Y56650D02*
D03*
Y57150D02*
D03*
Y57650D02*
D03*
Y58150D02*
D03*
Y58650D02*
D03*
Y59150D02*
D03*
Y59650D02*
D03*
Y60150D02*
D03*
Y60650D02*
D03*
Y61150D02*
D03*
Y61650D02*
D03*
Y62150D02*
D03*
Y62650D02*
D03*
Y63150D02*
D03*
Y63650D02*
D03*
Y64150D02*
D03*
Y64650D02*
D03*
Y65150D02*
D03*
Y65650D02*
D03*
Y66150D02*
D03*
X66450D02*
D03*
Y65650D02*
D03*
Y65150D02*
D03*
Y64650D02*
D03*
Y64150D02*
D03*
Y63650D02*
D03*
Y63150D02*
D03*
Y62150D02*
D03*
Y61650D02*
D03*
Y61150D02*
D03*
Y60650D02*
D03*
Y60150D02*
D03*
Y59650D02*
D03*
Y59150D02*
D03*
Y58650D02*
D03*
Y58150D02*
D03*
Y57650D02*
D03*
Y57150D02*
D03*
Y56650D02*
D03*
Y56150D02*
D03*
Y55650D02*
D03*
Y55150D02*
D03*
Y54650D02*
D03*
Y54150D02*
D03*
D24*
X73450Y70050D02*
D03*
X70198D02*
D03*
D25*
X67850Y77500D02*
D03*
Y74198D02*
D03*
X49250Y74148D02*
D03*
Y77450D02*
D03*
X42150Y54200D02*
D03*
Y50898D02*
D03*
D26*
X70250Y74298D02*
D03*
Y77550D02*
D03*
X71100Y62148D02*
D03*
Y65400D02*
D03*
X44450Y51000D02*
D03*
Y54252D02*
D03*
D27*
X76400Y50460D02*
D03*
D28*
Y51730D02*
D03*
Y53000D02*
D03*
Y54270D02*
D03*
X71400Y50460D02*
D03*
Y51730D02*
D03*
Y53000D02*
D03*
Y54270D02*
D03*
D29*
X69050Y54868D02*
D03*
Y56900D02*
D03*
X36900Y62650D02*
D03*
Y60618D02*
D03*
X34700Y60700D02*
D03*
Y62732D02*
D03*
X80450Y65218D02*
D03*
Y67250D02*
D03*
X72950Y65718D02*
D03*
Y67750D02*
D03*
X69050Y62318D02*
D03*
Y64350D02*
D03*
X79350Y58718D02*
D03*
Y60750D02*
D03*
X75850Y58868D02*
D03*
Y60900D02*
D03*
X72950Y64382D02*
D03*
Y62350D02*
D03*
X69900Y58350D02*
D03*
Y60382D02*
D03*
X49100Y68550D02*
D03*
Y66518D02*
D03*
X49150Y51950D02*
D03*
Y53982D02*
D03*
D30*
X25850Y59450D02*
D03*
Y60950D02*
D03*
Y62450D02*
D03*
Y63950D02*
D03*
Y65450D02*
D03*
Y66950D02*
D03*
X91050Y65500D02*
D03*
Y64000D02*
D03*
Y62500D02*
D03*
Y61000D02*
D03*
Y59500D02*
D03*
Y58000D02*
D03*
D31*
X35650Y58164D02*
D03*
Y56005D02*
D03*
X38800Y62664D02*
D03*
Y60505D02*
D03*
X39600Y52704D02*
D03*
Y54863D02*
D03*
X77600Y58654D02*
D03*
Y60813D02*
D03*
X73850Y57786D02*
D03*
Y59945D02*
D03*
D32*
X47575Y56275D02*
D03*
Y56925D02*
D03*
Y57575D02*
D03*
Y58225D02*
D03*
X41725D02*
D03*
Y57575D02*
D03*
Y56925D02*
D03*
Y56275D02*
D03*
X46875Y60075D02*
D03*
Y60725D02*
D03*
Y61375D02*
D03*
Y62025D02*
D03*
X41025D02*
D03*
Y61375D02*
D03*
Y60725D02*
D03*
Y60075D02*
D03*
D33*
X78600Y68850D02*
D03*
X76568D02*
D03*
X66900Y50850D02*
D03*
X64868D02*
D03*
X66850Y69850D02*
D03*
X64818D02*
D03*
D34*
X74780Y64080D02*
D03*
Y64580D02*
D03*
Y65080D02*
D03*
Y65580D02*
D03*
Y66080D02*
D03*
Y66580D02*
D03*
X78720D02*
D03*
Y66080D02*
D03*
Y65580D02*
D03*
Y65080D02*
D03*
Y64580D02*
D03*
Y64080D02*
D03*
D35*
X75500Y67300D02*
D03*
X76000D02*
D03*
X76500D02*
D03*
X77000D02*
D03*
X77500D02*
D03*
X78000D02*
D03*
Y63360D02*
D03*
X77500D02*
D03*
X77000D02*
D03*
X76500D02*
D03*
X76000D02*
D03*
X75500D02*
D03*
D36*
X65525Y77650D02*
D03*
X51475D02*
D03*
D37*
X47150Y51314D02*
D03*
Y54438D02*
D03*
D38*
X29660Y67350D02*
D03*
X32200D02*
D03*
Y58500D02*
D03*
X84550Y66800D02*
D03*
X87090D02*
D03*
Y57950D02*
D03*
D39*
X29660Y58500D02*
D03*
X84550Y57950D02*
D03*
D40*
X49764Y70550D02*
D03*
X52888D02*
D03*
D70*
X65255Y59479D02*
Y59559D01*
Y59479D02*
X65350Y59384D01*
Y55329D02*
Y59384D01*
X63800Y55150D02*
X65171D01*
X65350Y55329D01*
X62650Y54000D02*
X63800Y55150D01*
X58200Y54000D02*
X62650D01*
X57700Y53500D02*
X58200Y54000D01*
X38277Y58827D02*
X38400Y58950D01*
X38277Y58404D02*
Y58827D01*
X38077Y58204D02*
X38277Y58404D01*
X38077Y58204D02*
Y58204D01*
X37693Y57820D02*
X38077Y58204D01*
X47827Y61400D02*
Y62346D01*
Y60906D02*
Y61400D01*
X47802Y61375D02*
X47827Y61400D01*
X46875Y61375D02*
X47802D01*
X40471Y56571D02*
X41150Y57250D01*
X41650D01*
X42050Y61100D02*
X42250Y60900D01*
X41473Y60748D02*
Y61100D01*
X42050D01*
X45804Y55746D02*
X46621D01*
X45275Y56275D02*
X45804Y55746D01*
X47150Y56275D02*
X47575D01*
X46621Y55746D02*
X47150Y56275D01*
X41725D02*
X45275D01*
X23400Y59900D02*
X23500Y59800D01*
Y58616D02*
Y59800D01*
X24306Y57844D02*
X24550Y57600D01*
X24271Y57844D02*
X24306D01*
X23500Y58616D02*
X24271Y57844D01*
X24550Y57600D02*
X27300D01*
X28002Y56898D01*
X30406D01*
X30729Y57679D02*
X31052Y58002D01*
X30729Y57221D02*
Y57679D01*
X30406Y56898D02*
X30729Y57221D01*
X31786Y58002D02*
X32200Y58416D01*
X31052Y58002D02*
X31786D01*
X32200Y58416D02*
Y58500D01*
X24543D02*
X29660D01*
X46293Y56407D02*
X46349Y56463D01*
X46300Y56401D02*
X46401D01*
X46450Y56450D01*
X46349Y56463D02*
Y56974D01*
X46425Y57050D01*
X47552Y58202D02*
X47575Y58225D01*
X46729Y58202D02*
X47552D01*
X45552Y57025D02*
X46729Y58202D01*
X45415Y59110D02*
X45624Y58901D01*
Y58656D02*
X45896Y58384D01*
X45624Y58656D02*
Y58901D01*
X45415Y59110D02*
Y59200D01*
X45896Y58304D02*
Y58384D01*
X45415Y59200D02*
Y61906D01*
X36612Y59512D02*
X36726Y59398D01*
X36375Y59749D02*
X36612Y59512D01*
X45328Y59200D02*
X45415D01*
X44590Y58462D02*
X45328Y59200D01*
X43900Y58003D02*
X44878Y57025D01*
X43900Y58003D02*
Y58050D01*
X44878Y57025D02*
X45552D01*
X22700Y66563D02*
X22739Y66602D01*
X25002D01*
X21500Y67350D02*
X24252D01*
X24704Y67802D02*
X27365D01*
X24252Y67350D02*
X24704Y67802D01*
X27365D02*
X27817Y67350D01*
X20057Y65907D02*
X21500Y67350D01*
X27817D02*
X29660D01*
X25002Y66602D02*
X25350Y66950D01*
X27499D01*
X19857Y65907D02*
X20057D01*
X24893D01*
X25350Y65450D01*
X25850D01*
X31143Y66540D02*
X31786D01*
X29199Y65250D02*
X29853D01*
X32200Y66953D02*
Y67350D01*
X31786Y66540D02*
X32200Y66953D01*
X29853Y65250D02*
X31143Y66540D01*
X27499Y66950D02*
X29199Y65250D01*
X93759Y55864D02*
X94302D01*
X84998Y56352D02*
X85350Y56000D01*
X93623D01*
X94302Y55864D02*
X95350Y56911D01*
X93623Y56000D02*
X93759Y55864D01*
X87858Y57182D02*
X88521Y56519D01*
X94031D01*
X86606Y59326D02*
X87090Y58842D01*
X86550Y59800D02*
X86606Y59744D01*
X87090Y57596D02*
Y58842D01*
X86606Y59326D02*
Y59744D01*
X88206Y59544D02*
X89750Y58000D01*
X88150Y60250D02*
X88206Y60194D01*
Y59544D02*
Y60194D01*
X88000Y62050D02*
X90550Y59500D01*
X83018Y62229D02*
Y64050D01*
X83197Y62050D02*
X88000D01*
X83018Y62229D02*
X83197Y62050D01*
X87090Y57596D02*
X87504Y57182D01*
X87858D01*
X84998Y56352D02*
Y57502D01*
X84550Y57950D02*
X84998Y57502D01*
X89750Y58000D02*
X91050D01*
X90550Y59500D02*
X91050D01*
X84550Y59970D02*
X84700Y60120D01*
X84550Y57950D02*
Y59970D01*
X84700Y60120D02*
Y60200D01*
X83075Y64106D02*
Y64675D01*
X84550Y66150D02*
Y66800D01*
X83075Y64675D02*
X84550Y66150D01*
X83018Y64050D02*
X83075Y64106D01*
X88550Y63550D02*
Y64690D01*
X87090Y66150D02*
Y66800D01*
Y66150D02*
X88550Y64690D01*
X44246Y50898D02*
X44450Y51102D01*
X42150Y50898D02*
X44246D01*
X46061Y62552D02*
X47621D01*
X47827Y62346D01*
X47664Y60743D02*
X47827Y60906D01*
X48527Y56604D02*
Y58573D01*
X47323Y59777D02*
Y60052D01*
X46875Y60075D02*
X47300D01*
X47323Y60052D01*
Y59777D02*
X48527Y58573D01*
X40673Y57673D02*
Y57796D01*
X41079Y58202D02*
X41702D01*
X40673Y57796D02*
X41079Y58202D01*
X41702D02*
X41725Y58225D01*
X39942Y57810D02*
X40257Y58125D01*
Y58776D01*
X38487Y57810D02*
X39942D01*
X41725Y56275D02*
X41748Y56298D01*
X42371D01*
X42677Y56604D01*
Y59480D01*
X42082Y60075D02*
X42677Y59480D01*
X41025Y60075D02*
X42082D01*
X47577Y58248D02*
Y58752D01*
X47575Y58245D02*
X47577Y58248D01*
X47575Y58225D02*
Y58245D01*
X46852Y62002D02*
X46875Y62025D01*
X46229Y62002D02*
X46852D01*
X45923Y61696D02*
X46229Y62002D01*
X45923Y59754D02*
Y61696D01*
Y59754D02*
X46423Y59253D01*
X47077D01*
X47577Y58752D01*
X41727Y58227D02*
Y58752D01*
X41725Y58225D02*
X41727Y58227D01*
X41002Y62002D02*
X41025Y62025D01*
X40379Y62002D02*
X41002D01*
X40073Y61696D02*
X40379Y62002D01*
X40073Y59754D02*
Y61696D01*
Y59754D02*
X40414Y59412D01*
X41067D01*
X41727Y58752D01*
X46425Y57050D02*
X46932Y57557D01*
X47557D01*
X47575Y57575D01*
X46425Y57050D02*
X46527Y56948D01*
X47127D01*
X47150Y56925D01*
X47575D01*
Y56275D02*
X47598Y56298D01*
X48221D01*
X48527Y56604D01*
X38929Y57302D02*
X40302D01*
X40673Y57673D01*
X38723Y57096D02*
X38929Y57302D01*
X38723Y56998D02*
Y57096D01*
X38400Y56675D02*
X38723Y56998D01*
X38400Y56350D02*
Y56675D01*
X41025Y60725D02*
X41450D01*
X41473Y60748D01*
X45415Y61906D02*
X46061Y62552D01*
X46893Y60743D02*
X47664D01*
X46875Y60725D02*
X46893Y60743D01*
X37773Y57096D02*
X38487Y57810D01*
X37773Y56998D02*
Y57096D01*
X37450Y56350D02*
Y56675D01*
X37773Y56998D01*
X36500Y57436D02*
X36884Y57820D01*
X36500Y56600D02*
Y57436D01*
X36884Y57820D02*
X37693D01*
X34656Y60700D02*
X34700D01*
X34300Y57164D02*
Y60344D01*
Y57164D02*
X35396Y56068D01*
X34300Y60344D02*
X34656Y60700D01*
X35396Y56068D02*
X35904D01*
X35913Y59964D02*
Y61363D01*
Y59964D02*
X36128Y59749D01*
X39600Y54800D02*
Y55775D01*
X39350Y56025D02*
Y56350D01*
Y56025D02*
X39600Y55775D01*
X35250Y59400D02*
X35650Y59000D01*
Y58100D02*
Y59000D01*
X36436Y56600D02*
X36500D01*
X35904Y56068D02*
X36436Y56600D01*
X36100Y61977D02*
X36773Y62650D01*
X36100Y61550D02*
Y61977D01*
X36773Y62650D02*
X36900D01*
X36128Y59749D02*
X36375D01*
X37450Y58950D02*
Y59275D01*
X37327Y59398D02*
X37450Y59275D01*
X36726Y59398D02*
X37327D01*
X35913Y61363D02*
X36100Y61550D01*
X38927Y60568D02*
X39283Y60212D01*
Y59017D02*
X39350Y58950D01*
X38800Y60568D02*
X38927D01*
X39283Y59017D02*
Y60212D01*
X37014Y60505D02*
X38736D01*
X38800Y60568D01*
X36900Y60618D02*
X37014Y60505D01*
X12700Y67150D02*
X13350Y66500D01*
X9000Y67150D02*
X12700D01*
D71*
X39602Y65098D02*
X39800Y64900D01*
X39602Y65098D02*
Y66348D01*
X39450Y66500D02*
X39602Y66348D01*
X38850Y63950D02*
X39800Y64900D01*
X38850Y62650D02*
Y63950D01*
X37450Y65050D02*
Y66500D01*
X36900Y64500D02*
X37450Y65050D01*
X36900Y62650D02*
Y64500D01*
X38800Y62600D02*
X38850Y62650D01*
D72*
X81750Y60750D02*
D03*
X58400Y50450D02*
D03*
D73*
X37450Y66500D02*
D03*
X39450D02*
D03*
D74*
X41450D02*
D03*
D75*
X58450Y94950D02*
D03*
Y69950D02*
D03*
D76*
X119400Y71500D02*
D03*
Y53500D02*
D03*
D77*
X-2500D02*
D03*
Y71500D02*
D03*
D78*
X109028Y63485D02*
D03*
Y62215D02*
D03*
X110425Y63485D02*
D03*
Y62215D02*
D03*
X111949Y63485D02*
D03*
Y62342D02*
D03*
X10397Y62515D02*
D03*
Y63785D02*
D03*
X9000Y62515D02*
D03*
Y63785D02*
D03*
X7476Y62515D02*
D03*
Y63658D02*
D03*
D79*
X46650Y76990D02*
D03*
Y74450D02*
D03*
Y71910D02*
D03*
X62230Y73000D02*
D03*
X59690D02*
D03*
X57150D02*
D03*
X54610D02*
D03*
X52070D02*
D03*
D80*
X46650Y69370D02*
D03*
D81*
X64770Y73000D02*
D03*
D82*
X65255Y59559D02*
D03*
X64749Y54399D02*
D03*
X79450Y63450D02*
D03*
X65700Y67050D02*
D03*
X56800Y76750D02*
D03*
X56500Y71600D02*
D03*
X52903Y69073D02*
D03*
X54401Y69850D02*
D03*
X66950Y52050D02*
D03*
X40471Y56571D02*
D03*
X39600Y51808D02*
D03*
X45651Y50221D02*
D03*
X79850Y69100D02*
D03*
X71100Y66850D02*
D03*
X66778Y70937D02*
D03*
X114550Y68022D02*
D03*
X106300Y58100D02*
D03*
X92800Y60550D02*
D03*
X65839Y70000D02*
D03*
X67963Y61829D02*
D03*
X67553Y62520D02*
D03*
Y61100D02*
D03*
X71200Y59400D02*
D03*
X69585Y63390D02*
D03*
X70150Y75400D02*
D03*
X74450Y69750D02*
D03*
X73000Y63310D02*
D03*
X63750Y50700D02*
D03*
X50187Y68900D02*
D03*
X44737Y60752D02*
D03*
X41900Y55300D02*
D03*
X44950Y55237D02*
D03*
X45888Y51963D02*
D03*
X50350Y51450D02*
D03*
X42250Y60900D02*
D03*
X24200Y63900D02*
D03*
X27500Y59450D02*
D03*
X33350Y59050D02*
D03*
X33850Y64750D02*
D03*
X47355Y53163D02*
D03*
X45550Y52900D02*
D03*
X23400Y59900D02*
D03*
X24543Y58500D02*
D03*
X31097Y67193D02*
D03*
X31395Y57096D02*
D03*
X3950Y56550D02*
D03*
X1700Y66450D02*
D03*
X2850Y64000D02*
D03*
X15100Y67250D02*
D03*
X46300Y56401D02*
D03*
X45896Y58304D02*
D03*
X44590Y58462D02*
D03*
X36612Y59512D02*
D03*
X43900Y58050D02*
D03*
X22700Y66563D02*
D03*
X16280Y60250D02*
D03*
X14550Y58300D02*
D03*
X19857Y65907D02*
D03*
X43700Y55550D02*
D03*
X83100Y56200D02*
D03*
X82400Y57130D02*
D03*
X93800Y63950D02*
D03*
X93150Y61550D02*
D03*
X86550Y59800D02*
D03*
X88150Y60250D02*
D03*
X94031Y56519D02*
D03*
X95350Y56911D02*
D03*
X92733Y65500D02*
D03*
X84700Y60200D02*
D03*
X83018Y64050D02*
D03*
X88550Y63550D02*
D03*
X69640Y50460D02*
D03*
X105810Y65840D02*
D03*
X114960Y65800D02*
D03*
X106200Y64750D02*
D03*
X113762Y65088D02*
D03*
X54200Y70751D02*
D03*
X75618Y57043D02*
D03*
X76100Y56400D02*
D03*
X75450Y55750D02*
D03*
X78454Y57757D02*
D03*
X69800Y68070D02*
D03*
X70950Y63500D02*
D03*
X65889Y50732D02*
D03*
X70570Y56850D02*
D03*
X67900Y55450D02*
D03*
X74795Y52450D02*
D03*
X69901Y51663D02*
D03*
X70737Y55455D02*
D03*
X71100Y57650D02*
D03*
X69110Y53684D02*
D03*
X60412Y50588D02*
D03*
X61112Y51208D02*
D03*
X61950Y50450D02*
D03*
X61145Y76702D02*
D03*
X62150Y77216D02*
D03*
X65445Y67850D02*
D03*
X60000Y77100D02*
D03*
X61664Y71164D02*
D03*
X62610Y71390D02*
D03*
X58800Y77150D02*
D03*
X63947Y74797D02*
D03*
X74150Y67400D02*
D03*
X48013Y66723D02*
D03*
X50950Y71100D02*
D03*
X45081Y63732D02*
D03*
X42750Y63500D02*
D03*
X40257Y58776D02*
D03*
X54747Y49786D02*
D03*
X54348Y51080D02*
D03*
X55200Y50450D02*
D03*
X52900Y53800D02*
D03*
X74400Y62450D02*
D03*
X75564Y59889D02*
D03*
X73750Y60893D02*
D03*
X53148Y75747D02*
D03*
X67600Y58400D02*
D03*
X73850Y59049D02*
D03*
X78350Y62000D02*
D03*
X75900Y62100D02*
D03*
X79387Y61814D02*
D03*
X81732Y67185D02*
D03*
X80400Y64150D02*
D03*
X75850Y64350D02*
D03*
X35250Y59400D02*
D03*
X12695Y59689D02*
D03*
X5700Y59050D02*
D03*
X12450Y58250D02*
D03*
X7000Y59000D02*
D03*
X13350Y66500D02*
D03*
X9000Y67150D02*
D03*
D83*
X51450Y69300D02*
D03*
X49639Y55800D02*
D03*
M02*
