G04*
G04 #@! TF.GenerationSoftware,Altium Limited,Altium Designer,21.3.2 (30)*
G04*
G04 Layer_Color=0*
%FSLAX43Y43*%
%MOMM*%
G71*
G04*
G04 #@! TF.SameCoordinates,E583AE15-D421-4EF2-A5E4-CEDEED2159FB*
G04*
G04*
G04 #@! TF.FilePolarity,Positive*
G04*
G01*
G75*
%ADD12C,0.200*%
G36*
X57897Y60337D02*
X57905Y60336D01*
X57913Y60335D01*
X57923Y60335D01*
X57934Y60332D01*
X57957Y60326D01*
X57980Y60318D01*
X57992Y60312D01*
X58004Y60306D01*
X58015Y60298D01*
X58026Y60290D01*
X58027Y60289D01*
X58029Y60288D01*
X58031Y60285D01*
X58034Y60281D01*
X58039Y60276D01*
X58044Y60271D01*
X58049Y60263D01*
X58054Y60255D01*
X58059Y60247D01*
X58065Y60237D01*
X58075Y60214D01*
X58083Y60188D01*
X58086Y60175D01*
X58088Y60160D01*
X58006Y60153D01*
Y60154D01*
Y60156D01*
X58005Y60159D01*
X58004Y60164D01*
X58001Y60174D01*
X57997Y60188D01*
X57992Y60201D01*
X57984Y60217D01*
X57975Y60231D01*
X57964Y60244D01*
X57962Y60245D01*
X57958Y60249D01*
X57951Y60253D01*
X57941Y60259D01*
X57930Y60264D01*
X57916Y60269D01*
X57900Y60273D01*
X57883Y60274D01*
X57877D01*
X57873Y60273D01*
X57862Y60272D01*
X57849Y60268D01*
X57834Y60263D01*
X57818Y60256D01*
X57801Y60245D01*
X57794Y60238D01*
X57787Y60231D01*
X57786Y60230D01*
X57785Y60229D01*
X57783Y60226D01*
X57780Y60224D01*
X57774Y60213D01*
X57766Y60200D01*
X57760Y60185D01*
X57753Y60165D01*
X57749Y60142D01*
X57747Y60130D01*
Y60117D01*
Y60116D01*
Y60114D01*
Y60111D01*
X57748Y60106D01*
Y60101D01*
X57749Y60094D01*
X57751Y60079D01*
X57756Y60062D01*
X57763Y60044D01*
X57772Y60028D01*
X57785Y60012D01*
Y60011D01*
X57787Y60010D01*
X57791Y60005D01*
X57799Y59999D01*
X57811Y59992D01*
X57825Y59985D01*
X57842Y59979D01*
X57861Y59974D01*
X57873Y59972D01*
X57890D01*
X57897Y59973D01*
X57907Y59974D01*
X57918Y59977D01*
X57929Y59980D01*
X57941Y59984D01*
X57953Y59990D01*
X57954Y59991D01*
X57958Y59992D01*
X57963Y59997D01*
X57971Y60002D01*
X57978Y60008D01*
X57985Y60016D01*
X57994Y60025D01*
X58000Y60035D01*
X58074Y60025D01*
X58012Y59696D01*
X57694D01*
Y59771D01*
X57950D01*
X57984Y59943D01*
X57983Y59943D01*
X57982Y59942D01*
X57979Y59940D01*
X57974Y59937D01*
X57969Y59934D01*
X57962Y59931D01*
X57947Y59923D01*
X57929Y59916D01*
X57909Y59909D01*
X57886Y59905D01*
X57875Y59903D01*
X57855D01*
X57849Y59904D01*
X57842Y59905D01*
X57834Y59906D01*
X57824Y59907D01*
X57814Y59910D01*
X57792Y59917D01*
X57780Y59921D01*
X57768Y59928D01*
X57756Y59934D01*
X57744Y59942D01*
X57733Y59951D01*
X57722Y59961D01*
X57721Y59962D01*
X57719Y59964D01*
X57716Y59967D01*
X57713Y59971D01*
X57708Y59978D01*
X57703Y59984D01*
X57698Y59992D01*
X57692Y60002D01*
X57688Y60012D01*
X57682Y60023D01*
X57677Y60036D01*
X57673Y60049D01*
X57669Y60063D01*
X57666Y60078D01*
X57664Y60094D01*
X57664Y60111D01*
Y60112D01*
Y60114D01*
Y60119D01*
X57664Y60126D01*
X57665Y60133D01*
X57666Y60141D01*
X57668Y60151D01*
X57670Y60162D01*
X57676Y60186D01*
X57685Y60211D01*
X57690Y60224D01*
X57698Y60236D01*
X57705Y60249D01*
X57714Y60261D01*
X57715Y60262D01*
X57717Y60264D01*
X57721Y60268D01*
X57726Y60273D01*
X57732Y60278D01*
X57739Y60286D01*
X57749Y60292D01*
X57759Y60299D01*
X57770Y60307D01*
X57783Y60313D01*
X57797Y60320D01*
X57812Y60326D01*
X57827Y60331D01*
X57845Y60335D01*
X57863Y60337D01*
X57883Y60338D01*
X57891D01*
X57897Y60337D01*
D02*
G37*
G36*
X58462D02*
X58470D01*
X58479Y60336D01*
X58489Y60335D01*
X58499Y60335D01*
X58522Y60331D01*
X58547Y60325D01*
X58571Y60318D01*
X58595Y60308D01*
X58596D01*
X58597Y60306D01*
X58600Y60304D01*
X58604Y60302D01*
X58614Y60295D01*
X58626Y60285D01*
X58640Y60272D01*
X58653Y60257D01*
X58666Y60238D01*
X58676Y60218D01*
Y60217D01*
X58677Y60215D01*
X58678Y60212D01*
X58680Y60207D01*
X58682Y60201D01*
X58683Y60194D01*
X58686Y60186D01*
X58688Y60176D01*
X58690Y60164D01*
X58693Y60152D01*
X58694Y60139D01*
X58696Y60126D01*
X58698Y60110D01*
X58699Y60093D01*
X58700Y60076D01*
Y60057D01*
Y59687D01*
X58615D01*
Y60057D01*
Y60058D01*
Y60061D01*
Y60065D01*
Y60071D01*
X58614Y60078D01*
Y60086D01*
X58613Y60103D01*
X58611Y60124D01*
X58608Y60144D01*
X58605Y60164D01*
X58603Y60172D01*
X58600Y60180D01*
X58599Y60182D01*
X58597Y60187D01*
X58593Y60193D01*
X58587Y60202D01*
X58581Y60212D01*
X58571Y60222D01*
X58560Y60232D01*
X58547Y60240D01*
X58546Y60241D01*
X58541Y60244D01*
X58533Y60247D01*
X58522Y60250D01*
X58509Y60255D01*
X58492Y60258D01*
X58474Y60261D01*
X58455Y60262D01*
X58446D01*
X58440Y60261D01*
X58432D01*
X58424Y60260D01*
X58403Y60256D01*
X58381Y60251D01*
X58360Y60244D01*
X58339Y60234D01*
X58330Y60227D01*
X58322Y60220D01*
X58321Y60219D01*
X58320Y60218D01*
X58318Y60215D01*
X58315Y60212D01*
X58313Y60206D01*
X58309Y60200D01*
X58305Y60192D01*
X58302Y60184D01*
X58298Y60174D01*
X58295Y60162D01*
X58291Y60148D01*
X58289Y60133D01*
X58286Y60116D01*
X58284Y60099D01*
X58282Y60078D01*
Y60057D01*
Y59687D01*
X58197D01*
Y60057D01*
Y60058D01*
Y60062D01*
Y60066D01*
Y60073D01*
X58198Y60081D01*
Y60090D01*
X58199Y60102D01*
X58200Y60113D01*
X58203Y60138D01*
X58206Y60164D01*
X58212Y60188D01*
X58216Y60200D01*
X58219Y60212D01*
Y60213D01*
X58220Y60214D01*
X58222Y60217D01*
X58224Y60221D01*
X58229Y60231D01*
X58238Y60244D01*
X58249Y60259D01*
X58262Y60274D01*
X58278Y60289D01*
X58299Y60303D01*
X58300D01*
X58302Y60305D01*
X58304Y60306D01*
X58309Y60309D01*
X58314Y60311D01*
X58322Y60314D01*
X58329Y60317D01*
X58339Y60321D01*
X58349Y60324D01*
X58360Y60327D01*
X58372Y60330D01*
X58386Y60333D01*
X58400Y60335D01*
X58414Y60336D01*
X58448Y60338D01*
X58456D01*
X58462Y60337D01*
D02*
G37*
D12*
X67150Y51700D02*
Y68600D01*
X50250D02*
X67150D01*
X50250Y51700D02*
Y68600D01*
Y51700D02*
X67150D01*
M02*
