G04*
G04 #@! TF.GenerationSoftware,Altium Limited,Altium Designer,21.3.2 (30)*
G04*
G04 Layer_Color=2752767*
%FSLAX43Y43*%
%MOMM*%
G71*
G04*
G04 #@! TF.SameCoordinates,E583AE15-D421-4EF2-A5E4-CEDEED2159FB*
G04*
G04*
G04 #@! TF.FilePolarity,Positive*
G04*
G01*
G75*
%ADD107C,0.051*%
D107*
X52700Y69073D02*
X52903Y69276D01*
X53106Y69073D01*
X52903Y68870D01*
X52700Y69073D01*
X40268Y56571D02*
X40471Y56775D01*
X40674Y56571D01*
X40471Y56368D01*
X40268Y56571D01*
X39397Y51808D02*
X39600Y52011D01*
X39803Y51808D01*
X39600Y51604D01*
X39397Y51808D01*
X66575Y70937D02*
X66778Y71141D01*
X66981Y70937D01*
X66778Y70734D01*
X66575Y70937D01*
X67759Y61829D02*
X67963Y62032D01*
X68166Y61829D01*
X67963Y61626D01*
X67759Y61829D01*
X70997Y59400D02*
X71200Y59603D01*
X71403Y59400D01*
X71200Y59197D01*
X70997Y59400D01*
X69947Y75400D02*
X70150Y75603D01*
X70353Y75400D01*
X70150Y75197D01*
X69947Y75400D01*
X74247Y69750D02*
X74450Y69953D01*
X74653Y69750D01*
X74450Y69547D01*
X74247Y69750D01*
X72797Y63310D02*
X73000Y63514D01*
X73203Y63310D01*
X73000Y63107D01*
X72797Y63310D01*
X63547Y50700D02*
X63750Y50903D01*
X63953Y50700D01*
X63750Y50497D01*
X63547Y50700D01*
X44747Y55237D02*
X44950Y55441D01*
X45153Y55237D01*
X44950Y55034D01*
X44747Y55237D01*
X45685Y51963D02*
X45888Y52166D01*
X46091Y51963D01*
X45888Y51760D01*
X45685Y51963D01*
X42047Y60900D02*
X42250Y61103D01*
X42453Y60900D01*
X42250Y60697D01*
X42047Y60900D01*
X27297Y59450D02*
X27500Y59653D01*
X27703Y59450D01*
X27500Y59247D01*
X27297Y59450D01*
X33647Y64750D02*
X33850Y64953D01*
X34053Y64750D01*
X33850Y64547D01*
X33647Y64750D01*
X92530Y65500D02*
X92733Y65703D01*
X92937Y65500D01*
X92733Y65297D01*
X92530Y65500D01*
X65686Y50732D02*
X65889Y50936D01*
X66092Y50732D01*
X65889Y50529D01*
X65686Y50732D01*
X74592Y52450D02*
X74795Y52653D01*
X74998Y52450D01*
X74795Y52247D01*
X74592Y52450D01*
X70534Y55455D02*
X70737Y55658D01*
X70940Y55455D01*
X70737Y55252D01*
X70534Y55455D01*
X61747Y50450D02*
X61950Y50653D01*
X62153Y50450D01*
X61950Y50247D01*
X61747Y50450D01*
X73947Y67400D02*
X74150Y67603D01*
X74353Y67400D01*
X74150Y67197D01*
X73947Y67400D01*
X47809Y66723D02*
X48013Y66926D01*
X48216Y66723D01*
X48013Y66520D01*
X47809Y66723D01*
X50747Y71100D02*
X50950Y71303D01*
X51153Y71100D01*
X50950Y70897D01*
X50747Y71100D01*
X52944Y75747D02*
X53148Y75950D01*
X53351Y75747D01*
X53148Y75543D01*
X52944Y75747D01*
X67397Y58400D02*
X67600Y58603D01*
X67803Y58400D01*
X67600Y58197D01*
X67397Y58400D01*
X75697Y62100D02*
X75900Y62303D01*
X76103Y62100D01*
X75900Y61897D01*
X75697Y62100D01*
X79184Y61814D02*
X79387Y62017D01*
X79590Y61814D01*
X79387Y61611D01*
X79184Y61814D01*
X81529Y67185D02*
X81732Y67388D01*
X81935Y67185D01*
X81732Y66982D01*
X81529Y67185D01*
M02*
