G04*
G04 #@! TF.GenerationSoftware,Altium Limited,Altium Designer,21.3.2 (30)*
G04*
G04 Layer_Color=16711935*
%FSLAX43Y43*%
%MOMM*%
G71*
G04*
G04 #@! TF.SameCoordinates,E583AE15-D421-4EF2-A5E4-CEDEED2159FB*
G04*
G04*
G04 #@! TF.FilePolarity,Negative*
G04*
G01*
G75*
%ADD43R,1.118X1.575*%
%ADD48R,1.321X1.067*%
%ADD50R,1.321X0.940*%
%ADD52R,1.067X1.321*%
%ADD60C,2.051*%
%ADD61C,1.351*%
%ADD62R,1.351X1.351*%
%ADD63C,2.251*%
%ADD64C,2.351*%
%ADD65C,2.351*%
%ADD66C,0.751*%
%ADD67C,1.551*%
%ADD68R,1.551X1.551*%
%ADD69R,1.551X1.551*%
G04:AMPARAMS|DCode=94|XSize=0.951mm|YSize=1.321mm|CornerRadius=0.25mm|HoleSize=0mm|Usage=FLASHONLY|Rotation=270.000|XOffset=0mm|YOffset=0mm|HoleType=Round|Shape=RoundedRectangle|*
%AMROUNDEDRECTD94*
21,1,0.951,0.820,0,0,270.0*
21,1,0.450,1.321,0,0,270.0*
1,1,0.501,-0.410,-0.225*
1,1,0.501,-0.410,0.225*
1,1,0.501,0.410,0.225*
1,1,0.501,0.410,-0.225*
%
%ADD94ROUNDEDRECTD94*%
G04:AMPARAMS|DCode=95|XSize=1.051mm|YSize=1.321mm|CornerRadius=0.275mm|HoleSize=0mm|Usage=FLASHONLY|Rotation=90.000|XOffset=0mm|YOffset=0mm|HoleType=Round|Shape=RoundedRectangle|*
%AMROUNDEDRECTD95*
21,1,1.051,0.770,0,0,90.0*
21,1,0.500,1.321,0,0,90.0*
1,1,0.551,0.385,0.250*
1,1,0.551,0.385,-0.250*
1,1,0.551,-0.385,-0.250*
1,1,0.551,-0.385,0.250*
%
%ADD95ROUNDEDRECTD95*%
%ADD96R,1.551X2.451*%
%ADD97R,0.851X1.351*%
G04:AMPARAMS|DCode=98|XSize=0.951mm|YSize=1.501mm|CornerRadius=0.075mm|HoleSize=0mm|Usage=FLASHONLY|Rotation=90.000|XOffset=0mm|YOffset=0mm|HoleType=Round|Shape=RoundedRectangle|*
%AMROUNDEDRECTD98*
21,1,0.951,1.351,0,0,90.0*
21,1,0.801,1.501,0,0,90.0*
1,1,0.150,0.676,0.401*
1,1,0.150,0.676,-0.401*
1,1,0.150,-0.676,-0.401*
1,1,0.150,-0.676,0.401*
%
%ADD98ROUNDEDRECTD98*%
G04:AMPARAMS|DCode=99|XSize=3.201mm|YSize=1.501mm|CornerRadius=0.076mm|HoleSize=0mm|Usage=FLASHONLY|Rotation=90.000|XOffset=0mm|YOffset=0mm|HoleType=Round|Shape=RoundedRectangle|*
%AMROUNDEDRECTD99*
21,1,3.201,1.349,0,0,90.0*
21,1,3.049,1.501,0,0,90.0*
1,1,0.152,0.674,1.524*
1,1,0.152,0.674,-1.524*
1,1,0.152,-0.674,-1.524*
1,1,0.152,-0.674,1.524*
%
%ADD99ROUNDEDRECTD99*%
G04:AMPARAMS|DCode=100|XSize=2.551mm|YSize=4.551mm|CornerRadius=0.65mm|HoleSize=0mm|Usage=FLASHONLY|Rotation=90.000|XOffset=0mm|YOffset=0mm|HoleType=Round|Shape=RoundedRectangle|*
%AMROUNDEDRECTD100*
21,1,2.551,3.250,0,0,90.0*
21,1,1.250,4.551,0,0,90.0*
1,1,1.301,1.625,0.625*
1,1,1.301,1.625,-0.625*
1,1,1.301,-1.625,-0.625*
1,1,1.301,-1.625,0.625*
%
%ADD100ROUNDEDRECTD100*%
G04:AMPARAMS|DCode=101|XSize=0.451mm|YSize=1.251mm|CornerRadius=0.075mm|HoleSize=0mm|Usage=FLASHONLY|Rotation=0.000|XOffset=0mm|YOffset=0mm|HoleType=Round|Shape=RoundedRectangle|*
%AMROUNDEDRECTD101*
21,1,0.451,1.100,0,0,0.0*
21,1,0.300,1.251,0,0,0.0*
1,1,0.151,0.150,-0.550*
1,1,0.151,-0.150,-0.550*
1,1,0.151,-0.150,0.550*
1,1,0.151,0.150,0.550*
%
%ADD101ROUNDEDRECTD101*%
%ADD102R,2.337X1.676*%
%ADD103R,1.626X1.270*%
D43*
X5850Y68000D02*
D03*
X2598D02*
D03*
X108300Y58050D02*
D03*
X105048D02*
D03*
X10050Y68200D02*
D03*
X13302D02*
D03*
X112950Y57500D02*
D03*
X109698D02*
D03*
D48*
X114450Y66950D02*
D03*
Y68982D02*
D03*
X30800Y63418D02*
D03*
Y65450D02*
D03*
X30850Y60700D02*
D03*
Y58668D02*
D03*
X4500Y64400D02*
D03*
Y62368D02*
D03*
D50*
X44576Y64679D02*
D03*
Y62521D02*
D03*
X42696Y64712D02*
D03*
Y62553D02*
D03*
X50215Y64630D02*
D03*
Y62471D02*
D03*
X48335Y64630D02*
D03*
Y62471D02*
D03*
X46456Y64630D02*
D03*
Y62471D02*
D03*
D52*
X84768Y64050D02*
D03*
X86800D02*
D03*
X87100Y61800D02*
D03*
X85068D02*
D03*
X20100Y60200D02*
D03*
X18068D02*
D03*
X18150Y67300D02*
D03*
X20182D02*
D03*
X107250Y67800D02*
D03*
X105218D02*
D03*
X8200Y58500D02*
D03*
X10232D02*
D03*
D60*
X81750Y60750D02*
D03*
X58400Y50450D02*
D03*
D61*
X37450Y66500D02*
D03*
X39450D02*
D03*
D62*
X41450D02*
D03*
D63*
X58450Y94950D02*
D03*
Y69950D02*
D03*
D64*
X119400Y71500D02*
D03*
Y53500D02*
D03*
D65*
X-2500D02*
D03*
Y71500D02*
D03*
D66*
X109028Y63485D02*
D03*
Y62215D02*
D03*
X110425Y63485D02*
D03*
Y62215D02*
D03*
X111949Y63485D02*
D03*
Y62342D02*
D03*
X10397Y62515D02*
D03*
Y63785D02*
D03*
X9000Y62515D02*
D03*
Y63785D02*
D03*
X7476Y62515D02*
D03*
Y63658D02*
D03*
D67*
X46650Y76990D02*
D03*
Y74450D02*
D03*
Y71910D02*
D03*
X62230Y73000D02*
D03*
X59690D02*
D03*
X57150D02*
D03*
X54610D02*
D03*
X52070D02*
D03*
D68*
X46650Y69370D02*
D03*
D69*
X64770Y73000D02*
D03*
D94*
X64350Y57300D02*
D03*
Y60300D02*
D03*
Y66300D02*
D03*
Y64800D02*
D03*
Y63300D02*
D03*
Y61800D02*
D03*
Y58800D02*
D03*
X64326Y55826D02*
D03*
D95*
X77350Y56900D02*
D03*
Y58400D02*
D03*
Y59900D02*
D03*
Y61400D02*
D03*
Y62900D02*
D03*
Y64400D02*
D03*
Y65900D02*
D03*
Y55400D02*
D03*
D96*
X52110Y50650D02*
D03*
X41850D02*
D03*
D97*
X50237Y59650D02*
D03*
X48037D02*
D03*
X49137D02*
D03*
X46937D02*
D03*
X45837D02*
D03*
X44737D02*
D03*
X43637D02*
D03*
X42530Y59636D02*
D03*
D98*
X28675Y65600D02*
D03*
Y63300D02*
D03*
Y61000D02*
D03*
D99*
X22525Y63300D02*
D03*
D100*
X110425Y62850D02*
D03*
X9000Y63150D02*
D03*
D101*
X112700Y60000D02*
D03*
X112050D02*
D03*
X111400D02*
D03*
X110750D02*
D03*
X110100D02*
D03*
X109450D02*
D03*
X108800D02*
D03*
X108150D02*
D03*
X112700Y65700D02*
D03*
X112050D02*
D03*
X111400D02*
D03*
X110750D02*
D03*
X110100D02*
D03*
X109450D02*
D03*
X108800D02*
D03*
X108150D02*
D03*
X6725Y66000D02*
D03*
X7375D02*
D03*
X8025D02*
D03*
X9975D02*
D03*
X10625D02*
D03*
X11275D02*
D03*
X6725Y60300D02*
D03*
X7375D02*
D03*
X8025D02*
D03*
X8675D02*
D03*
X9325D02*
D03*
X9975D02*
D03*
X10625D02*
D03*
X11275D02*
D03*
X9325Y66000D02*
D03*
X8675D02*
D03*
D102*
X33650Y63148D02*
D03*
Y66450D02*
D03*
X33700Y60752D02*
D03*
Y57450D02*
D03*
D103*
X109202Y68550D02*
D03*
X112250D02*
D03*
X9048Y56450D02*
D03*
X6000D02*
D03*
M02*
