G04*
G04 #@! TF.GenerationSoftware,Altium Limited,Altium Designer,21.3.2 (30)*
G04*
G04 Layer_Physical_Order=1*
G04 Layer_Color=255*
%FSLAX43Y43*%
%MOMM*%
G71*
G04*
G04 #@! TF.SameCoordinates,FC902942-77D8-4BC3-8EBF-9AFE0F54990F*
G04*
G04*
G04 #@! TF.FilePolarity,Positive*
G04*
G01*
G75*
%ADD16C,0.203*%
%ADD18R,1.067X1.524*%
%ADD19R,1.270X1.016*%
%ADD20R,0.300X1.000*%
%ADD21R,0.300X1.200*%
%ADD22R,0.550X1.200*%
%ADD23R,1.200X0.300*%
%ADD24R,1.575X1.270*%
%ADD25R,1.524X1.067*%
%ADD26R,2.100X0.500*%
%ADD27O,2.100X0.500*%
%ADD28R,2.000X1.000*%
%ADD29R,0.889X1.270*%
%ADD30R,1.270X0.889*%
%ADD31R,1.200X0.350*%
%ADD32R,1.016X1.270*%
%ADD33R,0.790X0.260*%
%ADD34R,0.260X0.790*%
%ADD35R,1.650X1.300*%
%ADD36R,1.626X1.194*%
%ADD37O,1.200X2.500*%
%ADD38R,1.200X2.500*%
%ADD39R,1.194X1.626*%
%ADD68C,0.254*%
%ADD69C,0.305*%
%ADD70C,0.508*%
%ADD71C,1.500*%
%ADD72C,2.000*%
%ADD73C,2.200*%
%ADD74C,2.300*%
%ADD75C,2.300*%
%ADD76C,0.700*%
%ADD77R,1.500X1.500*%
%ADD78R,1.500X1.500*%
%ADD79C,0.600*%
D16*
X55600Y72636D02*
G03*
X55600Y73364I-990J364D01*
G01*
X35150Y60700D02*
Y61698D01*
X34726Y60276D02*
X35150Y60700D01*
Y61698D02*
X35352Y61900D01*
X34294Y59176D02*
X34726Y59608D01*
Y60276D01*
X33583Y59176D02*
X34294D01*
X33457Y59050D02*
X33583Y59176D01*
X33350Y59050D02*
X33457D01*
X39850Y51750D02*
X40104D01*
X40810Y52456D01*
X41274D01*
X41350Y52532D01*
X49702Y76698D02*
Y76998D01*
X50731Y74331D02*
X54400Y78000D01*
X49702Y76698D02*
X52524D01*
X49250Y77450D02*
X49702Y76998D01*
X52524Y76698D02*
X54232Y78406D01*
X49433Y74331D02*
X50731D01*
X78901Y58568D02*
X79020Y58687D01*
X78309Y58550D02*
X78901Y58568D01*
X63227Y49973D02*
X64235Y49913D01*
X65599Y49845D02*
X66101D01*
X62961Y50239D02*
X63227Y49973D01*
X64986Y50732D02*
X65850Y50450D01*
X65431Y49439D02*
X66269D01*
X62555Y50045D02*
X63033Y49567D01*
X77768Y58550D02*
X78309D01*
X64235Y49913D02*
X65599Y49845D01*
X67701Y49507D02*
X68116Y49922D01*
X64926Y50792D02*
X64986Y50732D01*
X66101Y49845D02*
X67533Y49913D01*
X66269Y49439D02*
X67701Y49507D01*
X64868Y50850D02*
X64926Y50792D01*
X79020Y58687D02*
Y59124D01*
X67533Y49913D02*
X67710Y50090D01*
X63033Y49567D02*
X65431Y49439D01*
X64102Y50850D02*
X64868D01*
X63852Y50600D02*
X64102Y50850D01*
X63800Y50600D02*
X63852D01*
X67175Y61602D02*
X67355Y61422D01*
Y61398D02*
Y61422D01*
Y61398D02*
X67553Y61199D01*
Y61092D02*
Y61199D01*
Y62446D02*
Y62541D01*
X74110Y58655D02*
X74137Y58682D01*
Y60511D02*
X74400Y60775D01*
X74137Y58682D02*
Y60511D01*
X71332Y57027D02*
X72259Y57954D01*
X74400Y60775D02*
Y63104D01*
X72259Y57954D02*
Y60511D01*
X72440Y60692D01*
X68251Y53055D02*
X68513Y53317D01*
X65547Y53302D02*
X65794Y53055D01*
X68251D01*
X70063Y59437D02*
X70274D01*
X69900Y59600D02*
Y60382D01*
Y59600D02*
X70063Y59437D01*
X70274D02*
X70350Y59361D01*
X65767Y53656D02*
X68220D01*
X77450Y58868D02*
Y59551D01*
Y58868D02*
X77600Y58718D01*
X79250Y57698D02*
Y58618D01*
X78508Y56956D02*
X79250Y57698D01*
Y58618D02*
X79350Y58718D01*
X79020Y59124D02*
X79350Y58718D01*
X77600D02*
X77768Y58550D01*
X106638Y65088D02*
X113648D01*
X106200Y64750D02*
X106300D01*
X106638Y65088D01*
X76376Y64526D02*
Y64876D01*
X78080Y66580D01*
X76300Y64450D02*
X76376Y64526D01*
X61042Y70897D02*
X61700Y70239D01*
X60636Y70729D02*
Y72029D01*
X58205Y72181D02*
X59823Y70563D01*
X60230Y70561D02*
Y70731D01*
X60700Y67900D02*
Y70090D01*
X61647Y71148D02*
X61752D01*
X61042Y70897D02*
Y71860D01*
X61151Y71969D01*
X58611Y72350D02*
X60230Y70731D01*
X61151Y71969D02*
Y73605D01*
X60169Y74587D02*
X61151Y73605D01*
X61200Y67900D02*
Y70165D01*
X59823Y70393D02*
Y70563D01*
X60636Y72029D02*
X60745Y72138D01*
X60200Y67900D02*
Y70016D01*
X61700Y67900D02*
Y70239D01*
X60636Y70729D02*
X61200Y70165D01*
X61752Y71148D02*
X62200Y70700D01*
X60127Y74055D02*
X60745Y73437D01*
X60230Y70561D02*
X60700Y70090D01*
X59823Y70393D02*
X60200Y70016D01*
X60745Y72138D02*
Y73437D01*
X74000Y64252D02*
X74300Y64552D01*
X74000Y63504D02*
X74400Y63104D01*
X74000Y63504D02*
Y64252D01*
X79369Y57069D02*
X82461D01*
X78850Y56550D02*
X79369Y57069D01*
X74687Y56550D02*
X78850D01*
X74519Y56956D02*
X78508D01*
X75276Y57707D02*
X78152D01*
X74932Y57362D02*
X75276Y57707D01*
X73810Y55673D02*
X74687Y56550D01*
X73319Y56839D02*
X73395Y56915D01*
X73903D01*
X74351Y57362D01*
X73841Y56278D02*
X74519Y56956D01*
X73560Y56278D02*
X73841D01*
X74351Y57362D02*
X74932D01*
X72844Y55562D02*
X73560Y56278D01*
X69870Y68000D02*
X71400Y69530D01*
X69870Y68000D02*
X69929Y67941D01*
X70300Y67457D02*
X72350Y69507D01*
Y70700D01*
X70300Y66322D02*
Y67457D01*
X65445Y67850D02*
X66000D01*
X65700Y66943D02*
Y67050D01*
X70450Y56393D02*
Y56500D01*
X70103Y55944D02*
Y56045D01*
X69959Y55800D02*
X70103Y55944D01*
Y56045D02*
X70450Y56393D01*
X68405Y55800D02*
X69959D01*
X62200Y51174D02*
Y52400D01*
Y51174D02*
X62555Y50819D01*
X61750Y76761D02*
X62150Y77161D01*
Y77216D01*
X61750Y75750D02*
Y76761D01*
X72844Y53644D02*
Y55562D01*
X72440Y60692D02*
X72668D01*
X70372Y54822D02*
X70695D01*
X69069Y53317D02*
X70048Y54297D01*
X70695Y54822D02*
X71332Y55459D01*
Y57027D01*
X70048Y54297D02*
Y54498D01*
X70372Y54822D01*
X72200Y53000D02*
X72844Y53644D01*
X72668Y60692D02*
X72956Y60980D01*
X73750D01*
X63248Y53199D02*
X63757Y53708D01*
X63248Y52448D02*
Y53199D01*
X63748Y52448D02*
Y53125D01*
X63925Y53302D02*
X65547D01*
X63748Y53125D02*
X63925Y53302D01*
X63757Y53708D02*
X65716D01*
X65767Y53656D01*
X68513Y53317D02*
X69069D01*
X68681Y52911D02*
X69241D01*
X68089Y52074D02*
Y52319D01*
X69351Y52505D02*
X69380Y52475D01*
X68495Y51906D02*
Y52151D01*
X68116Y51526D02*
X68495Y51906D01*
X69380Y52475D02*
X69904Y53000D01*
X68849Y52505D02*
X69351D01*
X67710Y51694D02*
X68089Y52074D01*
X69241Y52911D02*
X70600Y54270D01*
X68089Y52319D02*
X68681Y52911D01*
X68495Y52151D02*
X68849Y52505D01*
X69904Y53000D02*
X72200D01*
X68116Y49922D02*
Y51526D01*
X67710Y50090D02*
Y51694D01*
X70663Y51730D02*
Y51731D01*
X70170Y52224D02*
X70663Y51731D01*
X70170Y52224D02*
Y52287D01*
X70663Y51730D02*
X71400D01*
X70600Y54270D02*
X71400D01*
X78080Y66580D02*
X78720D01*
X65350Y65769D02*
Y66593D01*
X65700Y66943D01*
X66450Y66150D02*
Y67400D01*
X66000Y67850D02*
X66450Y67400D01*
X58205Y72181D02*
Y73673D01*
X58250Y74800D02*
Y75750D01*
X57750Y74703D02*
X58611Y73842D01*
X57250Y74628D02*
X58205Y73673D01*
X58250Y74800D02*
X58995Y74055D01*
X57750Y74703D02*
Y75750D01*
X57250Y74628D02*
Y75750D01*
X55600Y73364D02*
Y74295D01*
X56250Y74945D01*
Y75750D01*
X55412Y69303D02*
Y72003D01*
X55818Y69471D02*
Y72171D01*
X55006Y69135D02*
Y71068D01*
X53774Y72300D02*
X55006Y71068D01*
X55600Y72390D02*
X55660Y72330D01*
X55600Y72390D02*
Y72636D01*
X58611Y72350D02*
Y73842D01*
X55660Y72330D02*
X55818Y72171D01*
X54610Y72805D02*
X55412Y72003D01*
X54610Y72805D02*
Y73000D01*
X54401Y69743D02*
X54600Y69544D01*
Y68966D02*
Y69544D01*
X54606Y68670D02*
Y68960D01*
X55012Y68839D02*
Y69128D01*
X53390Y69431D02*
Y69441D01*
X54606Y68670D02*
X54652Y68625D01*
X55012Y68839D02*
X55152Y68700D01*
X53155Y68928D02*
X53178D01*
X53383Y69448D02*
X53390Y69441D01*
X53796Y70299D02*
X54200Y70703D01*
X53796Y69599D02*
X54106Y69290D01*
Y68886D02*
Y69290D01*
X54200Y70703D02*
Y70751D01*
X54600Y68966D02*
X54606Y68960D01*
X53700Y67900D02*
Y69121D01*
X55006Y69135D02*
X55012Y69128D01*
X53010Y69073D02*
X53155Y68928D01*
X55444Y68982D02*
Y69271D01*
X55818Y69471D02*
X55850Y69440D01*
X53390Y69431D02*
X53700Y69121D01*
X53383Y69448D02*
Y69839D01*
X53796Y69599D02*
Y70299D01*
X55850Y69150D02*
Y69440D01*
X54401Y69743D02*
Y69850D01*
X52903Y69073D02*
X53010D01*
X54106Y68886D02*
X54200Y68792D01*
X55412Y69303D02*
X55444Y69271D01*
X54200Y67900D02*
Y68792D01*
X55850Y69150D02*
X56200Y68800D01*
X55152Y67948D02*
Y68700D01*
X55444Y68982D02*
X55700Y68726D01*
X56200Y67900D02*
Y68800D01*
X55700Y67900D02*
Y68726D01*
X54652Y67948D02*
Y68625D01*
X55152Y67948D02*
X55200Y67900D01*
X52850Y70372D02*
X53383Y69839D01*
X70036Y66058D02*
X70300Y66322D01*
X66778Y70922D02*
Y70937D01*
Y70922D02*
X66850Y70850D01*
Y69850D02*
Y70850D01*
X66450Y62150D02*
X67257D01*
X67553Y62446D01*
X66498Y61602D02*
X67175D01*
X66450Y61650D02*
X66498Y61602D01*
X70150Y74500D02*
Y75400D01*
Y74500D02*
X70250Y74400D01*
X73648Y69750D02*
X74450D01*
X73348Y70050D02*
X73648Y69750D01*
X72950Y62350D02*
Y63260D01*
X73000Y63310D01*
X64200Y51445D02*
X64795Y50850D01*
X62700Y51248D02*
X62961Y50987D01*
X62700Y51248D02*
Y52400D01*
X62961Y50239D02*
Y50987D01*
X62555Y50045D02*
Y50819D01*
X44950Y54650D02*
Y55237D01*
X44450Y54150D02*
X44950Y54650D01*
X45987Y51963D02*
X46141Y51809D01*
X45888Y51963D02*
X45987D01*
X46693Y51809D02*
X47150Y51352D01*
X46141Y51809D02*
X46693D01*
X25850Y59450D02*
X27500D01*
X47861Y51861D02*
X48213Y52213D01*
Y52583D02*
X48390Y52760D01*
X48213Y52213D02*
Y52583D01*
X48498Y52760D02*
X48617Y52879D01*
X47861Y51809D02*
Y51861D01*
X48617Y52879D02*
Y53576D01*
X48390Y52760D02*
X48498D01*
X49023Y53982D02*
X49277D01*
X47150Y51352D02*
X47404D01*
X47861Y51809D01*
X48617Y53576D02*
X49023Y53982D01*
X49977Y55077D02*
X50050Y55150D01*
X49798Y55077D02*
X49977D01*
X49654Y54933D02*
X49798Y55077D01*
X47683Y54933D02*
X49654D01*
X47150Y54400D02*
X47683Y54933D01*
X52010Y69456D02*
X52850Y70296D01*
X51606Y69456D02*
X52010D01*
X51450Y69300D02*
X51606Y69456D01*
X91050Y65500D02*
X92733D01*
X52850Y70372D02*
Y70550D01*
Y70296D02*
Y70372D01*
X54652Y67948D02*
X54700Y67900D01*
X49250Y74148D02*
X49433Y74331D01*
X69227Y70050D02*
X70300D01*
X68689Y70589D02*
X69227Y70050D01*
X68689Y70589D02*
Y71661D01*
X67800Y72550D02*
X68689Y71661D01*
X67649Y72550D02*
X67800D01*
X66637Y73562D02*
X67649Y72550D01*
X66637Y73562D02*
Y74213D01*
X62850Y78000D02*
X66637Y74213D01*
X54400Y78000D02*
X62850D01*
X70250Y64200D02*
X70950Y63500D01*
X70250Y64200D02*
Y64528D01*
X70036Y64741D02*
X70250Y64528D01*
X70036Y64741D02*
Y66058D01*
X70150Y72900D02*
X72350Y70700D01*
X69600Y72900D02*
X70150D01*
X68939Y73561D02*
X69600Y72900D01*
X68939Y73561D02*
Y75211D01*
X68255Y75895D02*
X68939Y75211D01*
X67606Y75895D02*
X68255D01*
X66761Y76740D02*
X67606Y75895D01*
X66761Y76740D02*
Y78316D01*
X66475Y78602D02*
X66761Y78316D01*
X64575Y78602D02*
X66475D01*
X64380Y78406D02*
X64575Y78602D01*
X54232Y78406D02*
X64380D01*
X66450Y60650D02*
X66498Y60602D01*
X67175D02*
X67327Y60450D01*
X66498Y60602D02*
X67175D01*
X68963Y60569D02*
Y61015D01*
X68844Y60450D02*
X68963Y60569D01*
X67327Y60450D02*
X68844D01*
X69248Y61300D02*
X69617D01*
X68963Y61015D02*
X69248Y61300D01*
X71400Y69530D02*
Y70570D01*
X68533Y73367D02*
X69748Y72152D01*
X69818D01*
X71400Y70570D01*
X67999Y74198D02*
X68533Y73665D01*
Y73367D02*
Y73665D01*
X67850Y74198D02*
X67999D01*
X67902Y77448D02*
X70250D01*
X67850Y77500D02*
X67902Y77448D01*
X67850Y68013D02*
Y71176D01*
X68256Y68181D02*
Y71344D01*
X69406Y66507D02*
Y67031D01*
X68256Y68181D02*
X69406Y67031D01*
X67850Y68013D02*
X69000Y66863D01*
Y66676D02*
Y66863D01*
X68055Y56150D02*
X68405Y55800D01*
X66450Y56150D02*
X68055D01*
X61202Y75798D02*
Y76646D01*
Y75798D02*
X61250Y75750D01*
X61145Y76702D02*
X61202Y76646D01*
X65350Y65769D02*
X65469Y65650D01*
X66450D01*
X59750Y76743D02*
X60000Y76993D01*
X59750Y75750D02*
Y76743D01*
X60000Y76993D02*
Y77100D01*
X62200Y67900D02*
Y70700D01*
X62610Y71390D02*
X62700Y71300D01*
Y67900D02*
Y71300D01*
X59250Y75798D02*
X59298Y75750D01*
X59250Y75798D02*
Y76700D01*
X58800Y77150D02*
X59250Y76700D01*
X50050Y55150D02*
X50950D01*
X49639Y55580D02*
Y55800D01*
Y55580D02*
X50050Y55169D01*
Y55150D02*
Y55169D01*
X63697Y74193D02*
X65509D01*
X65825Y73201D02*
Y73876D01*
X62975Y76552D02*
X63724D01*
X65509Y74193D02*
X65825Y73876D01*
X62977Y74912D02*
X63697Y74193D01*
X66231Y73369D02*
X68256Y71344D01*
X62400Y74912D02*
X62977D01*
X66231Y73369D02*
Y74045D01*
X65825Y73201D02*
X67850Y71176D01*
X63724Y76552D02*
X66231Y74045D01*
X47850Y68094D02*
Y72600D01*
X46737Y68920D02*
X46936Y68722D01*
X47850Y68094D02*
X48211Y67734D01*
X46936Y68434D02*
Y68722D01*
X46450Y68920D02*
X46737D01*
X46936Y68434D02*
X48042Y67328D01*
X48211Y67734D02*
X51117D01*
X48042Y67328D02*
X49860D01*
X54747Y49786D02*
X54806Y49845D01*
X55451D01*
X55805Y50199D02*
Y50705D01*
X55451Y49845D02*
X55805Y50199D01*
Y50705D02*
X56200Y51100D01*
Y52400D01*
X74752Y64552D02*
X74780Y64580D01*
X74300Y64552D02*
X74752D01*
X73100Y65568D02*
X73964D01*
X72950Y65718D02*
X73100Y65568D01*
X74752Y66052D02*
X74780Y66080D01*
X74300Y66052D02*
X74752D01*
X74083Y65835D02*
X74300Y66052D01*
X74083Y65687D02*
Y65835D01*
X73964Y65568D02*
X74083Y65687D01*
X72823Y64382D02*
X72950D01*
X72013Y63572D02*
X72823Y64382D01*
X72013Y62833D02*
Y63572D01*
X71430Y62250D02*
X72013Y62833D01*
X71100Y62250D02*
X71430D01*
X70567Y61717D02*
X71100Y62250D01*
X70033Y61717D02*
X70567D01*
X69617Y61300D02*
X70033Y61717D01*
X46450Y74000D02*
X47850Y72600D01*
X51852Y55301D02*
X52258Y55707D01*
X51117Y67734D02*
X52258Y66593D01*
Y55707D02*
Y66593D01*
X50998Y55698D02*
X51675D01*
X50977Y67300D02*
X51852Y66425D01*
X51675Y55698D02*
X51852Y55875D01*
Y66425D01*
X49860Y67328D02*
X49888Y67300D01*
X50977D01*
X51852Y53698D02*
Y55301D01*
X52700Y52400D02*
Y52850D01*
X51852Y53698D02*
X52700Y52850D01*
X50950Y55650D02*
X50998Y55698D01*
X49945Y54650D02*
X50950D01*
X49277Y53982D02*
X49945Y54650D01*
X62750Y75750D02*
X62798Y75798D01*
Y76375D01*
X62975Y76552D01*
X66450Y64650D02*
X67549D01*
X69406Y66507D01*
X62298Y75014D02*
Y75853D01*
Y75014D02*
X62400Y74912D01*
X66450Y65150D02*
X67474D01*
X69000Y66676D01*
X63200Y52400D02*
X63248Y52448D01*
X63700Y52400D02*
X63748Y52448D01*
X64200Y51445D02*
Y52400D01*
X53178Y67922D02*
Y68928D01*
Y67922D02*
X53200Y67900D01*
X52070Y73000D02*
X52400D01*
X53100Y72300D01*
X53774D01*
X66444Y69317D02*
X66850Y69723D01*
X66317Y69317D02*
X66444D01*
X66850Y69723D02*
Y69850D01*
X65913Y68913D02*
X66317Y69317D01*
X65263Y68913D02*
X65913D01*
X64700Y67900D02*
Y68350D01*
X65263Y68913D01*
X60798Y75125D02*
X61417Y74506D01*
X60750Y75750D02*
X60798Y75702D01*
Y75125D02*
Y75702D01*
X62790Y74506D02*
X63700Y73596D01*
X61417Y74506D02*
X62790D01*
X63700Y67900D02*
Y73596D01*
X61231Y74100D02*
X62622D01*
X60298Y75032D02*
Y75702D01*
Y75032D02*
X61231Y74100D01*
X60250Y75750D02*
X60298Y75702D01*
X63200Y70875D02*
X63285Y70960D01*
Y73437D01*
X62622Y74100D02*
X63285Y73437D01*
X63200Y67900D02*
Y70875D01*
X58750Y74874D02*
Y75750D01*
Y74874D02*
X59037Y74587D01*
X60169D01*
X58995Y74055D02*
X60127D01*
D18*
X35250Y61900D02*
D03*
X38502D02*
D03*
X73450Y70050D02*
D03*
X70198D02*
D03*
D19*
X36200Y59900D02*
D03*
Y57868D02*
D03*
X69050Y54868D02*
D03*
Y56900D02*
D03*
X34700Y57550D02*
D03*
Y59582D02*
D03*
X80450Y65218D02*
D03*
Y67250D02*
D03*
X72950Y65718D02*
D03*
Y67750D02*
D03*
X69050Y62318D02*
D03*
Y64350D02*
D03*
X79350Y58718D02*
D03*
Y60750D02*
D03*
X75850Y58868D02*
D03*
Y60900D02*
D03*
X72950Y64382D02*
D03*
Y62350D02*
D03*
X69900Y58350D02*
D03*
Y60382D02*
D03*
X49100Y68550D02*
D03*
Y66518D02*
D03*
X49150Y51950D02*
D03*
Y53982D02*
D03*
D20*
X56750Y75750D02*
D03*
X56250D02*
D03*
X53750D02*
D03*
X54250D02*
D03*
X54750D02*
D03*
X57250D02*
D03*
X57750D02*
D03*
X59250D02*
D03*
X59750D02*
D03*
X63250D02*
D03*
X62750D02*
D03*
X62250D02*
D03*
X61750D02*
D03*
X61250D02*
D03*
X60750D02*
D03*
X60250D02*
D03*
X58750D02*
D03*
X58250D02*
D03*
X55750D02*
D03*
X55250D02*
D03*
D21*
X56700Y67900D02*
D03*
X56200D02*
D03*
X64700Y52400D02*
D03*
X64200D02*
D03*
X63700D02*
D03*
X63200D02*
D03*
X62700D02*
D03*
X62200D02*
D03*
X61700D02*
D03*
X61200D02*
D03*
X60700D02*
D03*
X60200D02*
D03*
X59700D02*
D03*
X59200D02*
D03*
X58700D02*
D03*
X58200D02*
D03*
X57700D02*
D03*
X57200D02*
D03*
X56700D02*
D03*
X56200D02*
D03*
X55700D02*
D03*
X55200D02*
D03*
X54700D02*
D03*
X54200D02*
D03*
X53700D02*
D03*
X53200D02*
D03*
X52700Y67900D02*
D03*
X53200D02*
D03*
X53700D02*
D03*
X54200D02*
D03*
X54700D02*
D03*
X55200D02*
D03*
X55700D02*
D03*
X57200D02*
D03*
X57700D02*
D03*
X58200D02*
D03*
X58700D02*
D03*
X59200D02*
D03*
X59700D02*
D03*
X60200D02*
D03*
X60700D02*
D03*
X61200D02*
D03*
X61700D02*
D03*
X62200D02*
D03*
X62700D02*
D03*
X63200D02*
D03*
X63700D02*
D03*
X64200D02*
D03*
X64700D02*
D03*
X52700Y52400D02*
D03*
D22*
X38700Y57800D02*
D03*
X37750D02*
D03*
X39650D02*
D03*
Y55200D02*
D03*
X38700D02*
D03*
X37750D02*
D03*
D23*
X66450Y62650D02*
D03*
X50950Y54150D02*
D03*
Y54650D02*
D03*
Y55150D02*
D03*
Y55650D02*
D03*
Y56150D02*
D03*
Y56650D02*
D03*
Y57150D02*
D03*
Y57650D02*
D03*
Y58150D02*
D03*
Y58650D02*
D03*
Y59150D02*
D03*
Y59650D02*
D03*
Y60150D02*
D03*
Y60650D02*
D03*
Y61150D02*
D03*
Y61650D02*
D03*
Y62150D02*
D03*
Y62650D02*
D03*
Y63150D02*
D03*
Y63650D02*
D03*
Y64150D02*
D03*
Y64650D02*
D03*
Y65150D02*
D03*
Y65650D02*
D03*
Y66150D02*
D03*
X66450D02*
D03*
Y65650D02*
D03*
Y65150D02*
D03*
Y64650D02*
D03*
Y64150D02*
D03*
Y63650D02*
D03*
Y63150D02*
D03*
Y62150D02*
D03*
Y61650D02*
D03*
Y61150D02*
D03*
Y60650D02*
D03*
Y60150D02*
D03*
Y59650D02*
D03*
Y59150D02*
D03*
Y58650D02*
D03*
Y58150D02*
D03*
Y57650D02*
D03*
Y57150D02*
D03*
Y56650D02*
D03*
Y56150D02*
D03*
Y55650D02*
D03*
Y55150D02*
D03*
Y54650D02*
D03*
Y54150D02*
D03*
D24*
X67850Y77500D02*
D03*
Y74198D02*
D03*
X49250Y74148D02*
D03*
Y77450D02*
D03*
X42150Y54200D02*
D03*
Y50898D02*
D03*
D25*
X70250Y74298D02*
D03*
Y77550D02*
D03*
X71100Y62148D02*
D03*
Y65400D02*
D03*
X44450Y51000D02*
D03*
Y54252D02*
D03*
D26*
X76400Y50460D02*
D03*
D27*
Y51730D02*
D03*
Y53000D02*
D03*
Y54270D02*
D03*
X71400Y50460D02*
D03*
Y51730D02*
D03*
Y53000D02*
D03*
Y54270D02*
D03*
D28*
X25850Y59450D02*
D03*
Y60950D02*
D03*
Y62450D02*
D03*
Y63950D02*
D03*
Y65450D02*
D03*
Y66950D02*
D03*
X91050Y65500D02*
D03*
Y64000D02*
D03*
Y62500D02*
D03*
Y61000D02*
D03*
Y59500D02*
D03*
Y58000D02*
D03*
D29*
X33637Y56100D02*
D03*
X35796D02*
D03*
X37486Y59550D02*
D03*
X39646D02*
D03*
D30*
X39850Y51687D02*
D03*
Y53846D02*
D03*
X77600Y58654D02*
D03*
Y60813D02*
D03*
X73200Y57786D02*
D03*
Y59945D02*
D03*
D31*
X47575Y56275D02*
D03*
Y56925D02*
D03*
Y57575D02*
D03*
Y58225D02*
D03*
X41725D02*
D03*
Y57575D02*
D03*
Y56925D02*
D03*
Y56275D02*
D03*
X46875Y60075D02*
D03*
Y60725D02*
D03*
Y61375D02*
D03*
Y62025D02*
D03*
X41025D02*
D03*
Y61375D02*
D03*
Y60725D02*
D03*
Y60075D02*
D03*
D32*
X78600Y68850D02*
D03*
X76568D02*
D03*
X66900Y50850D02*
D03*
X64868D02*
D03*
X66850Y69850D02*
D03*
X64818D02*
D03*
D33*
X74780Y64080D02*
D03*
Y64580D02*
D03*
Y65080D02*
D03*
Y65580D02*
D03*
Y66080D02*
D03*
Y66580D02*
D03*
X78720D02*
D03*
Y66080D02*
D03*
Y65580D02*
D03*
Y65080D02*
D03*
Y64580D02*
D03*
Y64080D02*
D03*
D34*
X75500Y67300D02*
D03*
X76000D02*
D03*
X76500D02*
D03*
X77000D02*
D03*
X77500D02*
D03*
X78000D02*
D03*
Y63360D02*
D03*
X77500D02*
D03*
X77000D02*
D03*
X76500D02*
D03*
X76000D02*
D03*
X75500D02*
D03*
D35*
X65525Y77650D02*
D03*
X51475D02*
D03*
D36*
X47150Y51314D02*
D03*
Y54438D02*
D03*
D37*
X29660Y67350D02*
D03*
X32200D02*
D03*
Y58500D02*
D03*
X84550Y66800D02*
D03*
X87090D02*
D03*
Y57950D02*
D03*
D38*
X29660Y58500D02*
D03*
X84550Y57950D02*
D03*
D39*
X49764Y70550D02*
D03*
X52888D02*
D03*
D68*
X37250Y59850D02*
Y63100D01*
Y59850D02*
X37550Y59550D01*
X39550Y66378D02*
Y66600D01*
X40912Y56938D02*
X41100Y57125D01*
X40700Y56725D02*
X40912Y56938D01*
X41350Y57527D02*
X41550D01*
X41573Y57550D02*
X41700D01*
X41550Y57527D02*
X41573Y57550D01*
X41700D02*
X41725Y57575D01*
X40700Y55700D02*
X40850Y55550D01*
X40700Y55700D02*
Y56725D01*
X42150Y54200D02*
X42550Y54600D01*
Y55300D01*
X26350Y62450D02*
X28668Y64768D01*
X31716Y64907D02*
X32125Y65316D01*
X31716Y64259D02*
Y64907D01*
X31307Y63850D02*
X31716Y64259D01*
X32584Y65773D02*
X33400Y66589D01*
X31936Y65773D02*
X32584D01*
X30930Y64768D02*
X31936Y65773D01*
X28668Y64768D02*
X30930D01*
X32773Y65316D02*
X33857Y66400D01*
X32125Y65316D02*
X32773D01*
X41025Y60725D02*
Y61375D01*
X74104Y67801D02*
X74552Y68250D01*
X74000Y67350D02*
X74104Y67454D01*
Y67801D01*
X73331Y67369D02*
X73981D01*
X72950Y67750D02*
X73331Y67369D01*
X73981D02*
X74000Y67350D01*
X92734Y60416D02*
X92800Y60350D01*
X92734Y60416D02*
Y60566D01*
X92300Y61000D02*
X92734Y60566D01*
X80706Y63994D02*
X80750Y63950D01*
X80069Y63994D02*
X80706D01*
X79483Y64580D02*
X80069Y63994D01*
X53100Y75700D02*
X53727D01*
X53750Y75723D01*
Y75750D01*
X49802Y70550D02*
X50102Y70850D01*
X51250D01*
X63489Y55030D02*
X64308D01*
X63412Y55600D02*
X64400D01*
X64308Y55030D02*
X64388Y54950D01*
X61712Y53900D02*
X63412Y55600D01*
X58341Y53900D02*
X61712D01*
X58488Y53400D02*
X61859D01*
X64388Y54950D02*
X65300D01*
X61859Y53400D02*
X63489Y55030D01*
X65965Y51358D02*
X66519D01*
X65396Y51927D02*
X65965Y51358D01*
X67963Y61783D02*
X68030Y61849D01*
X68387Y61937D02*
X68669D01*
X68299Y61849D02*
X68387Y61937D01*
X68030Y61849D02*
X68299D01*
X68070Y63171D02*
X68923Y62318D01*
X66450Y63150D02*
X66471Y63171D01*
X68070D01*
X68923Y62318D02*
X69050D01*
X72864Y59628D02*
X73118Y59882D01*
X72864Y59049D02*
Y59628D01*
X73375Y58025D02*
X74880D01*
X73118Y59882D02*
X73200D01*
X74880Y58025D02*
X75723Y58868D01*
X73200Y57850D02*
X73375Y58025D01*
X66650Y52356D02*
Y52450D01*
X66950Y50900D02*
Y52056D01*
X66650Y52356D02*
X66950Y52056D01*
X69969Y50460D02*
X71400D01*
X69650Y50150D02*
X69659D01*
X69969Y50460D01*
X70756Y57550D02*
X70856Y57650D01*
X70950D01*
X71604Y58705D02*
Y58789D01*
X69150Y57550D02*
X70756D01*
X71175Y59219D02*
X71604Y58789D01*
X14500Y58250D02*
X14550Y58300D01*
X9817Y58250D02*
X14500D01*
X56773Y76773D02*
X56800Y76800D01*
X56773Y75773D02*
Y76773D01*
X44345Y63577D02*
X44820Y63102D01*
X42777Y63577D02*
X44345D01*
X16150Y60250D02*
X16187D01*
X16150D02*
Y60800D01*
X14550Y58300D02*
X15556Y59306D01*
Y60906D01*
X18650Y64000D01*
X106450Y65800D02*
X114960D01*
X106150Y66100D02*
X106450Y65800D01*
X78300Y61950D02*
X78350Y62000D01*
X78300Y61800D02*
Y61950D01*
X78108Y61608D02*
X78300Y61800D01*
X78108Y61131D02*
Y61608D01*
X77727Y60750D02*
X78108Y61131D01*
X79350Y61777D02*
X79387Y61814D01*
X79350Y60750D02*
Y61777D01*
X77100Y62050D02*
X77250Y62200D01*
X77100Y62023D02*
Y62050D01*
X75977Y60900D02*
X77100Y62023D01*
X75850Y60900D02*
X75977D01*
X75043Y62244D02*
Y64077D01*
X75040Y64080D02*
X75043Y64077D01*
X75000Y61700D02*
Y62201D01*
X74780Y64080D02*
X75040D01*
X75000Y62201D02*
X75043Y62244D01*
X74888Y61588D02*
X75000Y61700D01*
X74888Y59560D02*
Y61588D01*
X75500Y61250D02*
Y63360D01*
X75199Y59249D02*
X75469D01*
X75500Y61250D02*
X75850Y60900D01*
X75469Y59249D02*
X75850Y58868D01*
X74888Y59560D02*
X75199Y59249D01*
X79410Y56500D02*
X80903D01*
X77909Y54999D02*
X79410Y56500D01*
X73512Y54999D02*
X77909D01*
X81203Y56200D02*
X83100D01*
X80903Y56500D02*
X81203Y56200D01*
X73449Y54936D02*
X73512Y54999D01*
X69563Y63456D02*
X69585Y63435D01*
X69169Y64350D02*
X69563Y63956D01*
Y63456D02*
Y63956D01*
X69585Y63390D02*
Y63435D01*
X69050Y64350D02*
X69169D01*
X68923D02*
X69050D01*
X91100Y63950D02*
X93800D01*
X70173Y55249D02*
X70355Y55430D01*
X70444D01*
X45550Y52900D02*
X45988Y53338D01*
X47500D01*
X52966Y53734D02*
X53079D01*
X53677Y53135D01*
X52900Y53800D02*
X52966Y53734D01*
X54723Y51665D02*
X55188Y51199D01*
X54723Y51665D02*
Y52377D01*
X55188Y50462D02*
Y51199D01*
X61768Y50995D02*
Y51443D01*
Y50995D02*
X61884Y50880D01*
X60412Y50588D02*
Y51400D01*
X55188Y50462D02*
X55200Y50450D01*
X74500Y52450D02*
X76400D01*
X74450Y52400D02*
X74500Y52450D01*
X74534Y53600D02*
X74550D01*
X72777Y51842D02*
X74534Y53600D01*
X70900Y60806D02*
X71100Y61006D01*
X70900Y60000D02*
Y60806D01*
X71100Y61006D02*
Y61100D01*
X70900Y60000D02*
X71175Y59725D01*
Y59219D02*
Y59725D01*
X71600Y60465D02*
X72458Y61322D01*
Y61337D01*
X71600Y60450D02*
Y60465D01*
X71764Y55280D02*
Y56541D01*
X71424Y54384D02*
Y54940D01*
X71764Y55280D01*
X69431Y55249D02*
X70173D01*
X64750Y55950D02*
X64850D01*
X64400Y55600D02*
X64750Y55950D01*
X58223Y53135D02*
X58488Y53400D01*
X57723Y53282D02*
X58341Y53900D01*
X57723Y52423D02*
Y53282D01*
X57700Y52400D02*
X57723Y52423D01*
X57300Y53656D02*
Y53750D01*
X57200Y52400D02*
Y53556D01*
X57300Y53656D01*
X58223Y52423D02*
Y53135D01*
X75723Y58868D02*
X75850D01*
X71764Y56541D02*
X73073Y57850D01*
X73200D01*
X71400Y54360D02*
X71424Y54384D01*
X71400Y54270D02*
Y54360D01*
X58200Y52400D02*
X58223Y52423D01*
X61112Y51070D02*
X61178Y51136D01*
Y51452D01*
X69100Y51900D02*
X69250D01*
X69997Y51153D01*
X72777Y51491D02*
Y51842D01*
X69997Y51153D02*
X72439D01*
X72777Y51491D01*
X56750Y75750D02*
X56773Y75773D01*
X56250Y71350D02*
X56500Y71600D01*
X56250Y69650D02*
Y71350D01*
Y69650D02*
X56700Y69200D01*
Y67900D02*
Y69200D01*
X66900Y50850D02*
X66950Y50900D01*
X79600Y68850D02*
X79850Y69100D01*
X78600Y68850D02*
X79600D01*
X71100Y65298D02*
Y66850D01*
X91050Y61000D02*
X92300D01*
X65839Y69989D02*
Y70000D01*
X65700Y69850D02*
X65839Y69989D01*
X64818Y69850D02*
X65700D01*
X68669Y61937D02*
X69050Y62318D01*
X49450Y68900D02*
X50187D01*
X49100Y68550D02*
X49450Y68900D01*
X50231Y51569D02*
X50350Y51450D01*
X49150Y51950D02*
X49531Y51569D01*
X50231D01*
X24200Y63900D02*
X24250Y63950D01*
X25850D01*
X16150Y60800D02*
X19150Y63800D01*
X18650Y64000D02*
Y66500D01*
X20950Y68800D01*
X28150D01*
X28921Y69571D01*
X19150Y63800D02*
Y66250D01*
X21200Y68300D01*
X28400D01*
X29214Y69114D01*
X26350Y60950D02*
X29250Y63850D01*
X31307D01*
X25850Y60950D02*
X26350D01*
X33857Y66900D02*
X35157Y68200D01*
X33857Y66400D02*
Y66900D01*
X33400Y67089D02*
X34968Y68657D01*
X33400Y66589D02*
Y67089D01*
X25850Y62450D02*
X26350D01*
X91050Y64000D02*
X91100Y63950D01*
X92573Y62127D02*
X93150Y61550D01*
X91050Y62500D02*
X91423Y62127D01*
X92573D01*
X45348Y63559D02*
X47943D01*
X48202Y63300D01*
X48750D01*
X45175Y63732D02*
X45348Y63559D01*
X45081Y63732D02*
X45175D01*
X49065Y65421D02*
X49336Y65150D01*
X48423Y65421D02*
X49065D01*
X45570Y68274D02*
X48423Y65421D01*
X66450Y55650D02*
X67606D01*
X76400Y52450D02*
Y53000D01*
Y50460D02*
Y51730D01*
Y52450D01*
Y53000D02*
Y54270D01*
X68669Y57281D02*
X69050Y56900D01*
X68412Y57281D02*
X68669D01*
X69150Y57000D02*
Y57550D01*
X67812Y57300D02*
X68393D01*
X69773Y58350D02*
X69900D01*
X69050Y56900D02*
X69150Y57000D01*
X67185Y56673D02*
X67812Y57300D01*
X68393D02*
X68412Y57281D01*
X69050Y54868D02*
X69431Y55249D01*
X67043Y56673D02*
X67185D01*
X67043Y56673D02*
X67043Y56673D01*
X66473Y56673D02*
X67043D01*
X66450Y56650D02*
X66473Y56673D01*
X68973Y59150D02*
X69773Y58350D01*
X66450Y59150D02*
X68973D01*
X69150Y57550D02*
Y57789D01*
X69150Y57789D01*
X69212D01*
X69773Y58350D01*
X60412Y51400D02*
X60677Y51665D01*
Y52377D02*
X60700Y52400D01*
X60677Y51665D02*
Y52377D01*
X61884Y50516D02*
Y50880D01*
X61700Y51511D02*
Y52400D01*
Y51511D02*
X61768Y51443D01*
X61884Y50516D02*
X61950Y50450D01*
X61178Y51452D02*
X61200Y51474D01*
Y52400D01*
X63881Y74864D02*
X63947Y74797D01*
X63786Y74864D02*
X63881D01*
X63273Y75377D02*
X63786Y74864D01*
X44199Y67706D02*
X47855Y64050D01*
X44199Y67706D02*
Y67706D01*
X43705Y68200D02*
X44199Y67706D01*
X35157Y68200D02*
X43705D01*
X44656Y67896D02*
X48045Y64507D01*
X44656Y67896D02*
Y68140D01*
X44139Y68657D02*
X44656Y68140D01*
X34968Y68657D02*
X44139D01*
X45113Y68085D02*
X48234Y64964D01*
X45113Y68085D02*
Y68330D01*
X44329Y69114D02*
X45113Y68330D01*
X29214Y69114D02*
X44329D01*
X28921Y69571D02*
X44518D01*
X45570Y68519D01*
Y68274D02*
Y68519D01*
X74552Y68250D02*
X74800D01*
X75649Y68850D02*
X76568D01*
X75400D02*
X75649D01*
X74800Y68250D02*
X75400Y68850D01*
X75500Y67300D02*
Y68701D01*
X78000Y67300D02*
Y68123D01*
X78600Y68723D02*
Y68850D01*
X78000Y68123D02*
X78600Y68723D01*
X48895Y66723D02*
X49100Y66518D01*
X47855Y64050D02*
X48150D01*
X48045Y64507D02*
X48339D01*
X48013Y66723D02*
X48895D01*
X48234Y64964D02*
X48876D01*
X44820Y63102D02*
X46733D01*
X46800Y63035D01*
X47821D01*
X48876Y64964D02*
X49169Y64671D01*
X48339Y64507D02*
X48632Y64214D01*
X48150Y64050D02*
X48443Y63757D01*
X47821Y63035D02*
X48400Y62456D01*
X48632Y64214D02*
X49286D01*
X48443Y63757D02*
X49097D01*
X49286Y64214D02*
X50000Y63500D01*
X48750Y63300D02*
X49000Y63050D01*
X49097Y63757D02*
X49500Y63354D01*
X49834Y64650D02*
X50950D01*
X49169Y64671D02*
X49813D01*
X49834Y64650D01*
X49336Y65150D02*
X50950D01*
X48400Y59550D02*
Y62456D01*
X50000Y60388D02*
Y63500D01*
X49500Y60241D02*
Y63354D01*
X49000Y60095D02*
X49945Y59150D01*
X49000Y60095D02*
Y63050D01*
X48400Y59550D02*
X49300Y58650D01*
X50950D01*
X49945Y59150D02*
X50950D01*
X49500Y60241D02*
X50068Y59673D01*
X50927D02*
X50950Y59650D01*
X50068Y59673D02*
X50927D01*
X50215Y60173D02*
X50927D01*
X50950Y60150D01*
X50000Y60388D02*
X50215Y60173D01*
X54200Y51322D02*
Y52400D01*
X54700D02*
X54723Y52377D01*
X53677Y52423D02*
Y53135D01*
Y52423D02*
X53700Y52400D01*
X67350Y58650D02*
X67600Y58400D01*
X66450Y58650D02*
X67350D01*
X77600Y60750D02*
X77727D01*
X81667Y67250D02*
X81732Y67185D01*
X80450Y67250D02*
X81667D01*
X78720Y64580D02*
X79483D01*
X80130Y66080D02*
X80450Y66400D01*
Y67250D01*
X78720Y66080D02*
X80130D01*
X80088Y65580D02*
X80450Y65218D01*
X78720Y65580D02*
X80088D01*
X75500Y68701D02*
X75649Y68850D01*
X12684Y59700D02*
X12695Y59689D01*
X6350Y59700D02*
X12684D01*
X5700Y59050D02*
X6350Y59700D01*
X9067Y59000D02*
X9817Y58250D01*
X7000Y59000D02*
X9067D01*
X52700Y67900D02*
Y68227D01*
X49400Y68250D02*
X52677D01*
X49100Y68550D02*
X49400Y68250D01*
X52677D02*
X52700Y68227D01*
X50477Y53150D02*
Y54127D01*
X50500Y54150D02*
X50950D01*
X50477Y54127D02*
X50500Y54150D01*
X49277Y51950D02*
X50477Y53150D01*
X49150Y51950D02*
X49277D01*
X63273Y75377D02*
Y75727D01*
X63250Y75750D02*
X63273Y75727D01*
X66450Y64150D02*
X68723D01*
X68923Y64350D01*
X68223Y63650D02*
X68723Y64150D01*
X66450Y63650D02*
X68223D01*
X66519Y51358D02*
X66900Y50977D01*
X64723Y51927D02*
X65396D01*
X64700Y51950D02*
X64723Y51927D01*
X66900Y50850D02*
Y50977D01*
X64700Y51950D02*
Y52400D01*
X64200Y69105D02*
X64818Y69723D01*
Y69850D01*
X64200Y67900D02*
Y69105D01*
D69*
X39582Y59550D02*
X39700Y59668D01*
Y60800D01*
X35844Y59544D02*
X36050Y59750D01*
X36333D01*
X36539Y59544D01*
Y58940D02*
Y59544D01*
X38400Y61900D02*
Y64950D01*
X36750Y66600D02*
X38400Y64950D01*
Y61900D02*
X38600Y61700D01*
X36633Y57435D02*
Y57512D01*
X36277Y57868D02*
X36633Y57512D01*
X36200Y57868D02*
X36277D01*
X36693Y56956D02*
X36750Y56900D01*
X36693Y56956D02*
Y57375D01*
X36633Y57435D02*
X36693Y57375D01*
X39582Y57868D02*
Y59550D01*
Y57868D02*
X39650Y57800D01*
X37750Y58125D02*
X38073Y58448D01*
Y58546D01*
X38279Y58752D01*
X38352D02*
X38383Y58783D01*
X37750Y57800D02*
Y58125D01*
X38279Y58752D02*
X38352D01*
X38383Y61483D02*
X38600Y61700D01*
X38383Y58783D02*
Y61483D01*
X40912Y56938D02*
X41713D01*
X41725Y56925D01*
X41748Y58202D02*
X42544D01*
X42700Y58046D01*
X41725Y58225D02*
X41748Y58202D01*
X43450Y57750D02*
X43691Y57509D01*
X43450Y57750D02*
Y57875D01*
X42082Y60075D02*
X43342Y58815D01*
Y57983D02*
Y58815D01*
Y57983D02*
X43450Y57875D01*
X43850Y58193D02*
Y59185D01*
X43056Y59979D02*
X43850Y59185D01*
Y58193D02*
X44347Y57696D01*
X42876Y57397D02*
Y57477D01*
X42700Y57653D02*
X42876Y57477D01*
X42700Y57653D02*
Y58046D01*
X43691Y56902D02*
Y57509D01*
Y56902D02*
X44050Y56543D01*
Y56275D02*
Y56543D01*
Y56275D02*
X45275D01*
X41725D02*
X44050D01*
X44837Y56987D02*
X44875Y57025D01*
X44646Y56987D02*
X44837D01*
X44590Y56931D02*
X44646Y56987D01*
X44875Y57025D02*
X45552D01*
X46729Y58202D01*
X43056Y59979D02*
Y61616D01*
X42646Y62025D02*
X43056Y61616D01*
X41025Y62025D02*
X42646D01*
X37568Y56244D02*
X38377Y57054D01*
X36900Y55550D02*
X37627D01*
Y55648D01*
X35876Y56244D02*
X37568D01*
X35732Y56100D02*
X35876Y56244D01*
X36750Y56970D02*
X37132Y57352D01*
X36750Y56900D02*
Y56970D01*
X34715Y56279D02*
Y57535D01*
X34700Y57550D02*
X34715Y57535D01*
Y56279D02*
X34894Y56100D01*
X35732D01*
X37750Y57475D02*
Y57800D01*
X37132Y57352D02*
X37627D01*
X37750Y57475D01*
X38700D02*
Y57800D01*
X38377Y57152D02*
X38700Y57475D01*
X38377Y57054D02*
Y57152D01*
X32740Y56134D02*
X33666D01*
X33700Y56100D01*
X30694Y57321D02*
X31143Y57770D01*
X31786D01*
X32200Y58183D01*
Y58500D01*
X30694Y57186D02*
Y57321D01*
X30406Y56898D02*
X30694Y57186D01*
X45350Y61841D02*
X46061Y62552D01*
X45350Y59200D02*
Y61841D01*
X45415Y59110D02*
Y59200D01*
Y59110D02*
X45624Y58901D01*
Y58656D02*
Y58901D01*
Y58656D02*
X45896Y58384D01*
X46195Y56820D02*
X46425Y57050D01*
X46195Y56489D02*
Y56820D01*
X47827Y61400D02*
Y62346D01*
Y60906D02*
Y61400D01*
X47802Y61375D02*
X47827Y61400D01*
X46875Y61375D02*
X47802D01*
X45328Y59200D02*
X45415D01*
X44590Y58462D02*
X45328Y59200D01*
X46061Y62552D02*
X47621D01*
X47827Y62346D01*
X47664Y60743D02*
X47827Y60906D01*
X46425Y57050D02*
X46932Y57557D01*
X47557D01*
X47575Y57575D01*
X46425Y57050D02*
X46527Y56948D01*
X47127D01*
X47150Y56925D01*
X47575D01*
X46893Y60743D02*
X47664D01*
X46875Y60725D02*
X46893Y60743D01*
X39641Y56417D02*
X40450Y57227D01*
X39494Y56417D02*
X39641D01*
X40450Y57227D02*
Y57573D01*
X39023Y55946D02*
X39494Y56417D01*
X39023Y55848D02*
Y55946D01*
X37627Y55450D02*
Y55648D01*
X37750Y55200D02*
Y55327D01*
X37627Y55450D02*
X37750Y55327D01*
X38700Y55200D02*
Y55525D01*
X39023Y55848D01*
X41702Y58202D02*
X41725Y58225D01*
X41079Y58202D02*
X41702D01*
X40450Y57573D02*
X41079Y58202D01*
X39650Y53982D02*
Y55200D01*
Y53982D02*
X39850Y53782D01*
X41025Y60725D02*
X41048Y60748D01*
X42018D02*
X42320Y61050D01*
X42400D01*
X41048Y60748D02*
X42018D01*
X23500Y58616D02*
X24271Y57844D01*
X29853Y65250D02*
X31143Y66540D01*
X31786D01*
X32200Y66953D02*
Y67350D01*
X31786Y66540D02*
X32200Y66953D01*
X45804Y55746D02*
X46621D01*
X45275Y56275D02*
X45804Y55746D01*
X47150Y56275D02*
X47575D01*
X46621Y55746D02*
X47150Y56275D01*
X23400Y59900D02*
X23500Y59800D01*
Y58616D02*
Y59800D01*
X24306Y57844D02*
X24550Y57600D01*
X24271Y57844D02*
X24306D01*
X24550Y57600D02*
X27300D01*
X28002Y56898D01*
X30406D01*
X24543Y58500D02*
X29660D01*
X47552Y58202D02*
X47575Y58225D01*
X46729Y58202D02*
X47552D01*
X22739Y66602D02*
X25002D01*
X21500Y67350D02*
X24252D01*
X24704Y67802D02*
X27365D01*
X24252Y67350D02*
X24704Y67802D01*
X27365D02*
X27817Y67350D01*
X20057Y65907D02*
X21500Y67350D01*
X27817D02*
X29660D01*
X25002Y66602D02*
X25350Y66950D01*
X27499D01*
X19857Y65907D02*
X20057D01*
X24893D01*
X25350Y65450D01*
X25850D01*
X29199Y65250D02*
X29853D01*
X27499Y66950D02*
X29199Y65250D01*
X93759Y55864D02*
X94302D01*
X84998Y56352D02*
X85350Y56000D01*
X93623D01*
X94302Y55864D02*
X95350Y56911D01*
X93623Y56000D02*
X93759Y55864D01*
X87858Y57182D02*
X88521Y56519D01*
X94031D01*
X86606Y59326D02*
X87090Y58842D01*
X86550Y59800D02*
X86606Y59744D01*
X87090Y57596D02*
Y58842D01*
X86606Y59326D02*
Y59744D01*
X88206Y59544D02*
X89750Y58000D01*
X88150Y60250D02*
X88206Y60194D01*
Y59544D02*
Y60194D01*
X88000Y62050D02*
X90550Y59500D01*
X83018Y62229D02*
Y64050D01*
X83197Y62050D02*
X88000D01*
X83018Y62229D02*
X83197Y62050D01*
X87090Y57596D02*
X87504Y57182D01*
X87858D01*
X84998Y56352D02*
Y57502D01*
X84550Y57950D02*
X84998Y57502D01*
X89750Y58000D02*
X91050D01*
X90550Y59500D02*
X91050D01*
X84550Y59970D02*
X84700Y60120D01*
X84550Y57950D02*
Y59970D01*
X83075Y64106D02*
Y64675D01*
X84550Y66150D02*
Y66800D01*
X83075Y64675D02*
X84550Y66150D01*
X83018Y64050D02*
X83075Y64106D01*
X88550Y63550D02*
Y64690D01*
X87090Y66150D02*
Y66800D01*
Y66150D02*
X88550Y64690D01*
X44246Y50898D02*
X44450Y51102D01*
X42150Y50898D02*
X44246D01*
X48527Y56604D02*
Y58573D01*
X47323Y59777D02*
Y60052D01*
X46875Y60075D02*
X47300D01*
X47323Y60052D01*
Y59777D02*
X48527Y58573D01*
X41025Y60075D02*
X42082D01*
X47577Y58248D02*
Y58752D01*
X47575Y58245D02*
X47577Y58248D01*
X47575Y58225D02*
Y58245D01*
X46852Y62002D02*
X46875Y62025D01*
X46229Y62002D02*
X46852D01*
X45923Y61696D02*
X46229Y62002D01*
X45923Y59754D02*
Y61696D01*
Y59754D02*
X46423Y59253D01*
X47077D01*
X47577Y58752D01*
X47575Y56275D02*
X47598Y56298D01*
X48221D01*
X48527Y56604D01*
X12700Y67150D02*
X13350Y66500D01*
X9000Y67150D02*
X12700D01*
D70*
X41100Y57125D02*
X41350Y57375D01*
Y57527D01*
D71*
X42350Y66600D02*
D03*
X36750D02*
D03*
X39550D02*
D03*
X46650Y76990D02*
D03*
Y74450D02*
D03*
Y71910D02*
D03*
X62230Y73000D02*
D03*
X59690D02*
D03*
X57150D02*
D03*
X54610D02*
D03*
X52070D02*
D03*
D72*
X81750Y60750D02*
D03*
X58400Y50450D02*
D03*
D73*
X58450Y94950D02*
D03*
Y69950D02*
D03*
D74*
X119400Y71500D02*
D03*
Y53500D02*
D03*
D75*
X-2500D02*
D03*
Y71500D02*
D03*
D76*
X109028Y63485D02*
D03*
Y62215D02*
D03*
X110425Y63485D02*
D03*
Y62215D02*
D03*
X111949Y63485D02*
D03*
Y62342D02*
D03*
X10397Y62515D02*
D03*
Y63785D02*
D03*
X9000Y62515D02*
D03*
Y63785D02*
D03*
X7476Y62515D02*
D03*
Y63658D02*
D03*
D77*
X46650Y69370D02*
D03*
D78*
X64770Y73000D02*
D03*
D79*
X37250Y63100D02*
D03*
X39700Y60800D02*
D03*
X36539Y58940D02*
D03*
X40850Y55550D02*
D03*
X42876Y57397D02*
D03*
X44347Y57696D02*
D03*
X44590Y56931D02*
D03*
X36900Y55550D02*
D03*
X36750Y56900D02*
D03*
X32740Y56134D02*
D03*
X45896Y58384D02*
D03*
X44590Y58462D02*
D03*
X46195Y56489D02*
D03*
X42550Y55300D02*
D03*
X41350Y52532D02*
D03*
X74037Y67350D02*
D03*
X92800Y60350D02*
D03*
X80750Y63950D02*
D03*
X53100Y75700D02*
D03*
X51250Y70850D02*
D03*
X42400Y61050D02*
D03*
X63750Y54400D02*
D03*
X65850Y50450D02*
D03*
X63800Y50600D02*
D03*
X67963Y61783D02*
D03*
X67553Y61092D02*
D03*
Y62541D02*
D03*
X74110Y58655D02*
D03*
X72864Y59049D02*
D03*
X66650Y52450D02*
D03*
X69650Y50150D02*
D03*
X70950Y57650D02*
D03*
X71604Y58705D02*
D03*
X70350Y59361D02*
D03*
X45715Y50650D02*
D03*
X68220Y53846D02*
D03*
X73319Y56839D02*
D03*
X14550Y58300D02*
D03*
X95350Y56911D02*
D03*
X70170Y52287D02*
D03*
X42777Y63577D02*
D03*
X56800Y76800D02*
D03*
X16187Y60250D02*
D03*
X94031Y56519D02*
D03*
X62150Y77216D02*
D03*
X56500Y71600D02*
D03*
X54401Y69850D02*
D03*
X51450Y69300D02*
D03*
X49639Y55800D02*
D03*
X22620Y66563D02*
D03*
X19857Y65907D02*
D03*
X77450Y59551D02*
D03*
X7000Y59000D02*
D03*
X5700Y59050D02*
D03*
X23400Y59900D02*
D03*
X13350Y66500D02*
D03*
X9000Y67150D02*
D03*
X113648Y65098D02*
D03*
X106150Y66100D02*
D03*
X114960Y65800D02*
D03*
X79387Y61814D02*
D03*
X78350Y62000D02*
D03*
X77250Y62200D02*
D03*
X76300Y64450D02*
D03*
X60000Y77100D02*
D03*
X61647Y71148D02*
D03*
X62610Y71390D02*
D03*
X73750Y60980D02*
D03*
X78152Y57707D02*
D03*
X73810Y55673D02*
D03*
X83100Y56200D02*
D03*
X73449Y54936D02*
D03*
X82461Y57069D02*
D03*
X86550Y59800D02*
D03*
X69929Y67941D02*
D03*
X65445Y67855D02*
D03*
X65700Y67050D02*
D03*
X69585Y63390D02*
D03*
X70950Y63500D02*
D03*
X84700Y60120D02*
D03*
X93150Y61550D02*
D03*
X93800Y63950D02*
D03*
X88550Y63550D02*
D03*
X83018Y64050D02*
D03*
X24543Y58500D02*
D03*
X70444Y55430D02*
D03*
X67900Y55450D02*
D03*
X45550Y52900D02*
D03*
X47500Y53338D02*
D03*
X52900Y53800D02*
D03*
X54376Y51120D02*
D03*
X61112Y51070D02*
D03*
X60412Y50588D02*
D03*
X55188Y50462D02*
D03*
X54747Y49786D02*
D03*
X44694Y61573D02*
D03*
Y60752D02*
D03*
X61145Y76702D02*
D03*
X70450Y56500D02*
D03*
X58800Y77150D02*
D03*
X54200Y70751D02*
D03*
X74550Y53600D02*
D03*
X74450Y52400D02*
D03*
X71600Y60450D02*
D03*
X72458Y61337D02*
D03*
X71100Y61100D02*
D03*
X64850Y55950D02*
D03*
X65300Y54950D02*
D03*
X57300Y53750D02*
D03*
X69100Y51900D02*
D03*
X31097Y67193D02*
D03*
X52903Y69073D02*
D03*
X79850Y69100D02*
D03*
X71100Y66850D02*
D03*
X66778Y70937D02*
D03*
X106650Y60000D02*
D03*
X113475Y59225D02*
D03*
X114550Y68022D02*
D03*
X106300Y58100D02*
D03*
X65839Y70000D02*
D03*
X70150Y75400D02*
D03*
X74450Y69750D02*
D03*
X73000Y63310D02*
D03*
X50187Y68900D02*
D03*
X44950Y55237D02*
D03*
X45888Y51963D02*
D03*
X50350Y51450D02*
D03*
X24200Y63900D02*
D03*
X27500Y59450D02*
D03*
X33350Y59050D02*
D03*
X35250Y64850D02*
D03*
X20697Y63300D02*
D03*
X3950Y56550D02*
D03*
X1700Y66450D02*
D03*
X2850Y64000D02*
D03*
X15100Y67250D02*
D03*
X43700Y55550D02*
D03*
X88150Y60250D02*
D03*
X92733Y65500D02*
D03*
X106200Y64750D02*
D03*
X61950Y50450D02*
D03*
X44576Y65726D02*
D03*
X63947Y74797D02*
D03*
X48013Y66723D02*
D03*
X45081Y63732D02*
D03*
X67600Y58400D02*
D03*
X81732Y67185D02*
D03*
X12695Y59689D02*
D03*
X7150Y67250D02*
D03*
X11950Y66000D02*
D03*
M02*
