M48
;Layer_Color=9474304
;FILE_FORMAT=4:3
METRIC,LZ
;TYPE=PLATED
T1F00S00C0.300
T2F00S00C0.400
T3F00S00C0.900
T4F00S00C1.200
T5F00S00C2.000
T6F00S00C2.200
T7F00S00C2.300
%
T01
X000395Y005655
X00057Y005905
X0007Y0059
X0012695Y0059689
X001455Y00583
X0016187Y006025
X0020697Y00633
X0019857Y0065907
X002262Y0066563
X00242Y00639
X00234Y00599
X0024543Y00585
X00151Y006725
X001335Y00665
X001195Y0066
X0009Y006715
X000715Y006725
X00017Y006645
X000285Y0064
X00275Y005945
X003335Y005905
X0036539Y005894
X003675Y00569
X00369Y005555
X004085Y005555
X004255Y00553
X00437Y005555
X004495Y0055237
X004459Y0056931
X0044347Y0057696
X004459Y0058462
X0045896Y0058384
X0046195Y0056489
X0049639Y00558
X00475Y0053338
X004555Y00529
X0045888Y0051963
X0045715Y005065
X005035Y005145
X0054376Y005112
X0055188Y0050462
X0054747Y0049786
X00529Y00538
X00573Y005375
X0060412Y0050588
X0061112Y005107
X006195Y005045
X00638Y00506
X006585Y005045
X00653Y005495
X006485Y005595
X006375Y00544
X00657Y006705
X0065445Y0067855
X0065839Y007
X006261Y007139
X0061647Y0071148
X00565Y00716
X00542Y0070751
X0054401Y006985
X0052903Y0069073
X005145Y00693
X0050187Y00689
X005125Y007085
X00531Y00757
X00568Y00768
X00588Y007715
X006Y00771
X0061145Y0076702
X006215Y0077216
X0063947Y0074797
X0048013Y0066723
X0044576Y0065726
X0045081Y0063732
X0042777Y0063577
X00424Y006105
X0044694Y0060752
Y0061573
X00397Y00608
X003725Y00631
X003525Y006485
X0031097Y0067193
X003274Y0056134
X0042876Y0057397
X004135Y0052532
X006665Y005245
X006822Y0053846
X00679Y005545
X0070444Y005543
X007045Y00565
X007095Y005765
X0071604Y0058705
X0072864Y0059049
X007411Y0058655
X0073319Y0056839
X007381Y0055673
X0073449Y0054936
X007455Y00536
X007445Y00524
X007017Y0052287
X00691Y00519
X006965Y005015
X007035Y0059361
X00716Y006045
X00711Y00611
X0072458Y0061337
X007375Y006098
X0073Y006331
X007095Y00635
X0069585Y006339
X0067553Y0062541
X0067963Y0061783
X0067553Y0061092
X00676Y00584
X007745Y0059551
X0078152Y0057707
X007835Y0062
X0079387Y0061814
X007725Y00622
X00763Y006445
X008075Y006395
X0083018Y006405
X0081732Y0067185
X007985Y00691
X007445Y006975
X0074037Y006735
X00711Y006685
X0069929Y0067941
X0066778Y0070937
X007015Y00754
X00847Y006012
X008655Y00598
X008815Y006025
X008855Y006355
X00938Y006395
X0092733Y00655
X009315Y006155
X00928Y006035
X0094031Y0056519
X009535Y0056911
X00831Y00562
X0082461Y0057069
X01063Y00581
X010665Y006
X01062Y006475
X010615Y00661
X0113648Y0065098
X011496Y00658
X011455Y0068022
X0113475Y0059225
T02
X0007476Y0062515
Y0063658
X0009Y0063785
Y0062515
X0010397
Y0063785
X0109028Y0063485
Y0062215
X0110425
Y0063485
X0111949
Y0062342
T03
X004665Y006937
Y007191
Y007445
Y007699
X005207Y0073
X005461
X005715
X005969
X006223
X006477
T04
X003675Y00666
X003955
X004235
T05
X00584Y005045
X008175Y006075
T06
X005845Y006995
Y009495
T07
X-00025Y00535
Y00715
X01194
Y00535
M30
