G04*
G04 #@! TF.GenerationSoftware,Altium Limited,Altium Designer,21.3.2 (30)*
G04*
G04 Layer_Physical_Order=2*
G04 Layer_Color=36540*
%FSLAX43Y43*%
%MOMM*%
G71*
G04*
G04 #@! TF.SameCoordinates,FC902942-77D8-4BC3-8EBF-9AFE0F54990F*
G04*
G04*
G04 #@! TF.FilePolarity,Positive*
G04*
G01*
G75*
%ADD16C,0.203*%
%ADD71C,1.500*%
%ADD72C,2.000*%
%ADD76C,0.700*%
%ADD79C,0.600*%
G36*
X59500Y97900D02*
X60170D01*
X60556Y97513D01*
X60697D01*
X61252Y96959D01*
Y96543D01*
X61450Y96345D01*
Y83600D01*
X61507Y83542D01*
Y82623D01*
X61955Y82175D01*
Y81852D01*
X62702Y81105D01*
X63024D01*
X63472Y80657D01*
X64392D01*
X64450Y80600D01*
X67242D01*
X67446Y80396D01*
X68680D01*
X69279Y79798D01*
X69989D01*
X70948Y78839D01*
X71092D01*
X72211Y77720D01*
Y77290D01*
X72995Y76506D01*
Y75527D01*
X73399Y75123D01*
Y73651D01*
X73450Y73600D01*
X73400Y73550D01*
Y72522D01*
X73678Y72244D01*
Y71610D01*
X74328Y70960D01*
Y70878D01*
X74410D01*
X75060Y70228D01*
X75694D01*
X75922Y70000D01*
X115150D01*
Y72112D01*
X115358Y72320D01*
Y73174D01*
X115962Y73778D01*
Y74072D01*
X116828Y74938D01*
X117122D01*
X117725Y75542D01*
X118579D01*
X118787Y75750D01*
X120012D01*
X120220Y75542D01*
X121074D01*
X121678Y74938D01*
X121972D01*
X122838Y74072D01*
Y73778D01*
X123442Y73174D01*
Y72320D01*
X123650Y72112D01*
Y53500D01*
X123597Y53447D01*
Y52342D01*
X123187Y51931D01*
Y51350D01*
X122405Y50569D01*
Y50495D01*
X122345D01*
X121563Y49713D01*
X120968D01*
X120557Y49302D01*
X119452D01*
X119400Y49250D01*
X119348Y49302D01*
X118242D01*
X117831Y49713D01*
X117250D01*
X116468Y50495D01*
X116395D01*
Y50569D01*
X115613Y51350D01*
Y51931D01*
X115202Y52342D01*
Y53447D01*
X115150Y53500D01*
Y55000D01*
X81450D01*
X81392Y54942D01*
X80473D01*
X80024Y54494D01*
X79702D01*
X78955Y53748D01*
Y53425D01*
X78507Y52977D01*
Y52307D01*
X78450Y52250D01*
Y51722D01*
X78221Y51494D01*
Y50860D01*
X77571Y50210D01*
Y50129D01*
X77490D01*
X76839Y49478D01*
X76206D01*
X75977Y49250D01*
X59325D01*
X59280Y49377D01*
X59505Y49602D01*
X59687Y49917D01*
X59744Y50130D01*
X59813Y50152D01*
X59882Y50155D01*
X59994Y50043D01*
X60150Y49953D01*
X60323Y49907D01*
X60502D01*
X60675Y49953D01*
X60831Y50043D01*
X60957Y50169D01*
X61047Y50325D01*
X61064Y50389D01*
X61201D01*
X61375Y50435D01*
X61530Y50525D01*
X61657Y50652D01*
X61746Y50807D01*
X61793Y50980D01*
Y51159D01*
X61746Y51333D01*
X61657Y51488D01*
X61530Y51615D01*
X61375Y51704D01*
X61201Y51751D01*
X61022D01*
X60849Y51704D01*
X60694Y51615D01*
X60567Y51488D01*
X60477Y51333D01*
X60460Y51269D01*
X60323D01*
X60150Y51222D01*
X59994Y51132D01*
X59868Y51006D01*
X59830Y50940D01*
X59694Y50958D01*
X59687Y50983D01*
X59505Y51298D01*
X59248Y51555D01*
X58933Y51737D01*
X58582Y51831D01*
X58218D01*
X57867Y51737D01*
X57552Y51555D01*
X57295Y51298D01*
X57113Y50983D01*
X57019Y50632D01*
Y50268D01*
X57113Y49917D01*
X57295Y49602D01*
X57520Y49377D01*
X57475Y49250D01*
X55340D01*
X55315Y49310D01*
X55297Y49377D01*
X55382Y49524D01*
X55428Y49697D01*
Y49821D01*
X55451Y49827D01*
X55606Y49917D01*
X55733Y50044D01*
X55823Y50199D01*
X55869Y50372D01*
Y50551D01*
X55823Y50725D01*
X55733Y50880D01*
X55606Y51007D01*
X55451Y51096D01*
X55278Y51143D01*
X55099D01*
X55044Y51260D01*
X55011Y51383D01*
X54921Y51538D01*
X54794Y51665D01*
X54639Y51755D01*
X54466Y51801D01*
X54286D01*
X54113Y51755D01*
X53958Y51665D01*
X53831Y51538D01*
X53742Y51383D01*
X53695Y51210D01*
Y51031D01*
X53742Y50857D01*
X53831Y50702D01*
X53958Y50575D01*
X54113Y50486D01*
X54270Y50444D01*
X54294Y50397D01*
X54310Y50312D01*
X54202Y50205D01*
X54113Y50049D01*
X54066Y49876D01*
Y49697D01*
X54113Y49524D01*
X54197Y49377D01*
X54180Y49310D01*
X54155Y49250D01*
X41450D01*
X41392Y49307D01*
X40472D01*
X40025Y49755D01*
X39702D01*
X38955Y50502D01*
Y50825D01*
X38507Y51273D01*
Y51928D01*
X38450Y51986D01*
Y52527D01*
X38221Y52756D01*
Y53389D01*
X37571Y54040D01*
Y54121D01*
X37490D01*
X36869Y54742D01*
X36911Y54869D01*
X36990D01*
X37163Y54915D01*
X37318Y55005D01*
X37445Y55132D01*
X37535Y55287D01*
X37581Y55460D01*
Y55640D01*
X37535Y55813D01*
X37445Y55968D01*
X37318Y56095D01*
X37163Y56184D01*
X37138Y56191D01*
X37120Y56327D01*
X37168Y56355D01*
X37295Y56482D01*
X37385Y56637D01*
X37431Y56810D01*
Y56990D01*
X37385Y57163D01*
X37295Y57318D01*
X37168Y57445D01*
X37013Y57534D01*
X36840Y57581D01*
X36660D01*
X36487Y57534D01*
X36332Y57445D01*
X36205Y57318D01*
X36115Y57163D01*
X36069Y56990D01*
Y56810D01*
X36115Y56637D01*
X36205Y56482D01*
X36332Y56355D01*
X36487Y56265D01*
X36512Y56259D01*
X36530Y56122D01*
X36482Y56095D01*
X36355Y55968D01*
X36265Y55813D01*
X36219Y55640D01*
Y55460D01*
X36265Y55287D01*
X36355Y55132D01*
X36482Y55005D01*
X36637Y54915D01*
X36700Y54898D01*
X36683Y54771D01*
X36206D01*
X35977Y55000D01*
X1750D01*
Y52887D01*
X1542Y52679D01*
Y51826D01*
X938Y51222D01*
Y50928D01*
X72Y50062D01*
X-222D01*
X-826Y49458D01*
X-1680D01*
X-1888Y49250D01*
X-3113D01*
X-3321Y49458D01*
X-4174D01*
X-4778Y50062D01*
X-5072D01*
X-5939Y50928D01*
Y51222D01*
X-6542Y51826D01*
Y52679D01*
X-6750Y52887D01*
Y71500D01*
X-6698Y71552D01*
Y72657D01*
X-6287Y73068D01*
Y73650D01*
X-5505Y74431D01*
Y74505D01*
X-5431D01*
X-4650Y75287D01*
X-4069D01*
X-3658Y75698D01*
X-2553D01*
X-2500Y75750D01*
X-2448Y75698D01*
X-1343D01*
X-932Y75287D01*
X-351D01*
X431Y74505D01*
X505D01*
Y74431D01*
X1287Y73650D01*
Y73068D01*
X1697Y72657D01*
Y71552D01*
X1750Y71500D01*
Y70000D01*
X40450D01*
X40507Y70058D01*
X41427D01*
X41875Y70505D01*
X42198D01*
X42944Y71252D01*
Y71574D01*
X43392Y72022D01*
Y72942D01*
X43450Y73000D01*
Y74393D01*
X43653Y74596D01*
Y75831D01*
X44252Y76429D01*
Y76853D01*
X44689Y77290D01*
Y77839D01*
X45689Y78839D01*
X45952D01*
X46911Y79798D01*
X47621D01*
X48219Y80396D01*
X49454D01*
X49657Y80600D01*
X52978D01*
X53206Y80828D01*
X53839D01*
X54490Y81479D01*
X54571D01*
Y81560D01*
X55222Y82210D01*
Y82844D01*
X55450Y83072D01*
Y95950D01*
X55500Y96000D01*
Y96700D01*
X55886Y97086D01*
Y97197D01*
X56441Y97752D01*
X56857D01*
X57055Y97950D01*
X59450D01*
X59500Y97900D01*
D02*
G37*
%LPC*%
G36*
X58596Y96431D02*
X58304D01*
X58018Y96374D01*
X57748Y96262D01*
X57506Y96100D01*
X57299Y95894D01*
X57137Y95651D01*
X57026Y95382D01*
X56969Y95096D01*
Y94804D01*
X57026Y94518D01*
X57137Y94248D01*
X57299Y94006D01*
X57506Y93799D01*
X57748Y93637D01*
X58018Y93526D01*
X58304Y93469D01*
X58596D01*
X58882Y93526D01*
X59151Y93637D01*
X59394Y93799D01*
X59600Y94006D01*
X59762Y94248D01*
X59874Y94518D01*
X59931Y94804D01*
Y95096D01*
X59874Y95382D01*
X59762Y95651D01*
X59600Y95894D01*
X59394Y96100D01*
X59151Y96262D01*
X58882Y96374D01*
X58596Y96431D01*
D02*
G37*
G36*
X62240Y77897D02*
X62060D01*
X61887Y77851D01*
X61732Y77761D01*
X61605Y77634D01*
X61515Y77479D01*
X61502Y77429D01*
X61408Y77337D01*
X61360Y77350D01*
X61235Y77383D01*
X61056D01*
X60882Y77337D01*
X60788Y77282D01*
X60643Y77331D01*
X60635Y77363D01*
X60545Y77518D01*
X60418Y77645D01*
X60263Y77735D01*
X60090Y77781D01*
X59910D01*
X59737Y77735D01*
X59582Y77645D01*
X59497Y77560D01*
X59352Y77564D01*
X59340Y77573D01*
X59218Y77695D01*
X59063Y77785D01*
X58890Y77831D01*
X58710D01*
X58537Y77785D01*
X58382Y77695D01*
X58255Y77568D01*
X58165Y77413D01*
X58119Y77240D01*
Y77060D01*
X58165Y76887D01*
X58255Y76732D01*
X58382Y76605D01*
X58537Y76515D01*
X58710Y76469D01*
X58890D01*
X59063Y76515D01*
X59218Y76605D01*
X59303Y76690D01*
X59448Y76686D01*
X59460Y76677D01*
X59582Y76555D01*
X59737Y76465D01*
X59910Y76419D01*
X60090D01*
X60263Y76465D01*
X60358Y76520D01*
X60502Y76472D01*
X60511Y76440D01*
X60600Y76284D01*
X60727Y76157D01*
X60882Y76068D01*
X61056Y76021D01*
X61235D01*
X61408Y76068D01*
X61563Y76157D01*
X61690Y76284D01*
X61780Y76440D01*
X61793Y76489D01*
X61887Y76581D01*
X61935Y76569D01*
X62060Y76535D01*
X62240D01*
X62413Y76581D01*
X62568Y76671D01*
X62695Y76798D01*
X62785Y76953D01*
X62831Y77126D01*
Y77306D01*
X62785Y77479D01*
X62695Y77634D01*
X62568Y77761D01*
X62413Y77851D01*
X62240Y77897D01*
D02*
G37*
G36*
X56890Y77481D02*
X56710D01*
X56537Y77435D01*
X56382Y77345D01*
X56255Y77218D01*
X56165Y77063D01*
X56119Y76890D01*
Y76710D01*
X56165Y76537D01*
X56255Y76382D01*
X56382Y76255D01*
X56537Y76165D01*
X56710Y76119D01*
X56890D01*
X57063Y76165D01*
X57218Y76255D01*
X57345Y76382D01*
X57435Y76537D01*
X57481Y76710D01*
Y76890D01*
X57435Y77063D01*
X57345Y77218D01*
X57218Y77345D01*
X57063Y77435D01*
X56890Y77481D01*
D02*
G37*
G36*
X46799Y78121D02*
X46501D01*
X46213Y78044D01*
X45956Y77895D01*
X45745Y77684D01*
X45596Y77427D01*
X45519Y77139D01*
Y76841D01*
X45596Y76553D01*
X45745Y76296D01*
X45956Y76085D01*
X46213Y75936D01*
X46501Y75859D01*
X46799D01*
X47087Y75936D01*
X47344Y76085D01*
X47555Y76296D01*
X47704Y76553D01*
X47781Y76841D01*
Y77139D01*
X47704Y77427D01*
X47555Y77684D01*
X47344Y77895D01*
X47087Y78044D01*
X46799Y78121D01*
D02*
G37*
G36*
Y75581D02*
X46501D01*
X46213Y75504D01*
X45956Y75355D01*
X45745Y75144D01*
X45596Y74887D01*
X45519Y74599D01*
Y74301D01*
X45596Y74013D01*
X45745Y73756D01*
X45956Y73545D01*
X46213Y73396D01*
X46501Y73319D01*
X46799D01*
X47087Y73396D01*
X47344Y73545D01*
X47555Y73756D01*
X47704Y74013D01*
X47781Y74301D01*
Y74599D01*
X47704Y74887D01*
X47555Y75144D01*
X47344Y75355D01*
X47087Y75504D01*
X46799Y75581D01*
D02*
G37*
G36*
X62484Y73971D02*
Y73254D01*
X63201D01*
X63166Y73388D01*
X63033Y73616D01*
X62846Y73803D01*
X62618Y73936D01*
X62484Y73971D01*
D02*
G37*
G36*
X61976Y73971D02*
X61842Y73936D01*
X61614Y73803D01*
X61427Y73616D01*
X61294Y73388D01*
X61259Y73254D01*
X61976D01*
Y73971D01*
D02*
G37*
G36*
X46904Y72881D02*
Y72164D01*
X47621D01*
X47586Y72298D01*
X47453Y72526D01*
X47266Y72713D01*
X47038Y72846D01*
X46904Y72881D01*
D02*
G37*
G36*
X46396Y72881D02*
X46262Y72846D01*
X46034Y72713D01*
X45847Y72526D01*
X45714Y72298D01*
X45679Y72164D01*
X46396D01*
Y72881D01*
D02*
G37*
G36*
X64037Y75478D02*
X63858D01*
X63684Y75432D01*
X63529Y75342D01*
X63402Y75215D01*
X63313Y75060D01*
X63266Y74887D01*
Y74708D01*
X63313Y74534D01*
X63402Y74379D01*
X63529Y74252D01*
X63569Y74229D01*
X63639Y74131D01*
Y71869D01*
X65901D01*
Y74131D01*
X64409D01*
X64373Y74232D01*
X64371Y74258D01*
X64492Y74379D01*
X64582Y74534D01*
X64628Y74708D01*
Y74887D01*
X64582Y75060D01*
X64492Y75215D01*
X64365Y75342D01*
X64210Y75432D01*
X64037Y75478D01*
D02*
G37*
G36*
X59839Y74131D02*
X59541D01*
X59253Y74054D01*
X58996Y73905D01*
X58785Y73694D01*
X58636Y73437D01*
X58559Y73149D01*
Y72851D01*
X58636Y72563D01*
X58785Y72306D01*
X58996Y72095D01*
X59253Y71946D01*
X59541Y71869D01*
X59839D01*
X60127Y71946D01*
X60384Y72095D01*
X60595Y72306D01*
X60744Y72563D01*
X60821Y72851D01*
Y73149D01*
X60744Y73437D01*
X60595Y73694D01*
X60384Y73905D01*
X60127Y74054D01*
X59839Y74131D01*
D02*
G37*
G36*
X54759D02*
X54461D01*
X54173Y74054D01*
X53916Y73905D01*
X53705Y73694D01*
X53556Y73437D01*
X53479Y73149D01*
Y72851D01*
X53556Y72563D01*
X53705Y72306D01*
X53916Y72095D01*
X54173Y71946D01*
X54461Y71869D01*
X54759D01*
X55047Y71946D01*
X55304Y72095D01*
X55515Y72306D01*
X55664Y72563D01*
X55741Y72851D01*
Y73149D01*
X55664Y73437D01*
X55515Y73694D01*
X55304Y73905D01*
X55047Y74054D01*
X54759Y74131D01*
D02*
G37*
G36*
X52219D02*
X51921D01*
X51633Y74054D01*
X51376Y73905D01*
X51165Y73694D01*
X51016Y73437D01*
X50939Y73149D01*
Y72851D01*
X51016Y72563D01*
X51165Y72306D01*
X51376Y72095D01*
X51633Y71946D01*
X51921Y71869D01*
X52219D01*
X52507Y71946D01*
X52764Y72095D01*
X52975Y72306D01*
X53124Y72563D01*
X53201Y72851D01*
Y73149D01*
X53124Y73437D01*
X52975Y73694D01*
X52764Y73905D01*
X52507Y74054D01*
X52219Y74131D01*
D02*
G37*
G36*
X63201Y72746D02*
X62230D01*
X61259D01*
X61294Y72612D01*
X61427Y72384D01*
X61614Y72197D01*
X61842Y72064D01*
X62079Y72001D01*
X62110Y71942D01*
X62126Y71869D01*
X62065Y71808D01*
X62015Y71721D01*
X61910Y71783D01*
X61736Y71829D01*
X61557D01*
X61384Y71783D01*
X61229Y71693D01*
X61102Y71566D01*
X61012Y71411D01*
X60966Y71238D01*
Y71058D01*
X61012Y70885D01*
X61102Y70730D01*
X61229Y70603D01*
X61384Y70513D01*
X61557Y70467D01*
X61736D01*
X61910Y70513D01*
X62065Y70603D01*
X62192Y70730D01*
X62242Y70816D01*
X62347Y70755D01*
X62521Y70709D01*
X62700D01*
X62873Y70755D01*
X63028Y70845D01*
X63155Y70972D01*
X63245Y71127D01*
X63291Y71300D01*
Y71479D01*
X63245Y71653D01*
X63155Y71808D01*
X63028Y71935D01*
X62873Y72024D01*
X62825Y72037D01*
X62807Y72174D01*
X62846Y72197D01*
X63033Y72384D01*
X63166Y72612D01*
X63201Y72746D01*
D02*
G37*
G36*
X47621Y71656D02*
X46904D01*
Y70939D01*
X47038Y70974D01*
X47266Y71107D01*
X47453Y71294D01*
X47586Y71522D01*
X47621Y71656D01*
D02*
G37*
G36*
X46396D02*
X45679D01*
X45714Y71522D01*
X45847Y71294D01*
X46034Y71107D01*
X46262Y70974D01*
X46396Y70939D01*
Y71656D01*
D02*
G37*
G36*
X57299Y74131D02*
X57001D01*
X56713Y74054D01*
X56456Y73905D01*
X56245Y73694D01*
X56096Y73437D01*
X56019Y73149D01*
Y72851D01*
X56096Y72563D01*
X56214Y72360D01*
X56217Y72342D01*
X56188Y72220D01*
X56173Y72198D01*
X56082Y72145D01*
X55955Y72018D01*
X55865Y71863D01*
X55819Y71690D01*
Y71510D01*
X55865Y71337D01*
X55955Y71182D01*
X56082Y71055D01*
X56237Y70965D01*
X56410Y70919D01*
X56590D01*
X56763Y70965D01*
X56918Y71055D01*
X57045Y71182D01*
X57135Y71337D01*
X57181Y71510D01*
Y71690D01*
X57167Y71742D01*
X57264Y71869D01*
X57299D01*
X57587Y71946D01*
X57844Y72095D01*
X58055Y72306D01*
X58204Y72563D01*
X58281Y72851D01*
Y73149D01*
X58204Y73437D01*
X58055Y73694D01*
X57844Y73905D01*
X57587Y74054D01*
X57299Y74131D01*
D02*
G37*
G36*
X-2349Y73031D02*
X-2651D01*
X-2947Y72972D01*
X-3225Y72857D01*
X-3476Y72689D01*
X-3689Y72476D01*
X-3857Y72225D01*
X-3972Y71946D01*
X-4031Y71651D01*
Y71349D01*
X-3972Y71053D01*
X-3857Y70775D01*
X-3689Y70524D01*
X-3476Y70311D01*
X-3225Y70143D01*
X-2947Y70028D01*
X-2651Y69969D01*
X-2349D01*
X-2054Y70028D01*
X-1775Y70143D01*
X-1524Y70311D01*
X-1311Y70524D01*
X-1143Y70775D01*
X-1028Y71053D01*
X-969Y71349D01*
Y71651D01*
X-1028Y71946D01*
X-1143Y72225D01*
X-1311Y72476D01*
X-1524Y72689D01*
X-1775Y72857D01*
X-2054Y72972D01*
X-2349Y73031D01*
D02*
G37*
G36*
X119551Y73031D02*
X119249D01*
X118953Y72972D01*
X118675Y72857D01*
X118424Y72689D01*
X118211Y72476D01*
X118043Y72225D01*
X117928Y71946D01*
X117869Y71651D01*
Y71349D01*
X117928Y71053D01*
X118043Y70775D01*
X118211Y70524D01*
X118424Y70311D01*
X118675Y70143D01*
X118953Y70028D01*
X119249Y69969D01*
X119551D01*
X119846Y70028D01*
X120125Y70143D01*
X120376Y70311D01*
X120589Y70524D01*
X120757Y70775D01*
X120872Y71053D01*
X120931Y71349D01*
Y71651D01*
X120872Y71946D01*
X120757Y72225D01*
X120589Y72476D01*
X120376Y72689D01*
X120125Y72857D01*
X119846Y72972D01*
X119551Y73031D01*
D02*
G37*
G36*
X51540Y69981D02*
X51360D01*
X51187Y69935D01*
X51032Y69845D01*
X50905Y69718D01*
X50815Y69563D01*
X50784Y69446D01*
X50652Y69402D01*
X50648Y69403D01*
X50606Y69445D01*
X50450Y69535D01*
X50277Y69581D01*
X50098D01*
X49925Y69535D01*
X49769Y69445D01*
X49642Y69318D01*
X49553Y69163D01*
X49506Y68990D01*
Y68810D01*
X49553Y68637D01*
X49642Y68482D01*
X49769Y68355D01*
X49925Y68265D01*
X50098Y68219D01*
X50277D01*
X50450Y68265D01*
X50606Y68355D01*
X50732Y68482D01*
X50822Y68637D01*
X50853Y68754D01*
X50985Y68798D01*
X50990Y68797D01*
X51032Y68755D01*
X51187Y68665D01*
X51360Y68619D01*
X51540D01*
X51713Y68665D01*
X51868Y68755D01*
X51995Y68882D01*
X52085Y69037D01*
X52131Y69210D01*
Y69390D01*
X52085Y69563D01*
X51995Y69718D01*
X51868Y69845D01*
X51713Y69935D01*
X51540Y69981D01*
D02*
G37*
G36*
X65928Y70681D02*
X65749D01*
X65576Y70635D01*
X65421Y70545D01*
X65294Y70418D01*
X65204Y70263D01*
X65158Y70090D01*
Y69910D01*
X65204Y69737D01*
X65294Y69582D01*
X65421Y69455D01*
X65576Y69365D01*
X65749Y69319D01*
X65928D01*
X66102Y69365D01*
X66257Y69455D01*
X66384Y69582D01*
X66473Y69737D01*
X66520Y69910D01*
Y70090D01*
X66473Y70263D01*
X66384Y70418D01*
X66257Y70545D01*
X66102Y70635D01*
X65928Y70681D01*
D02*
G37*
G36*
X54290Y71432D02*
X54110D01*
X53937Y71385D01*
X53782Y71296D01*
X53655Y71169D01*
X53565Y71014D01*
X53519Y70840D01*
Y70661D01*
X53565Y70488D01*
X53655Y70333D01*
X53782Y70206D01*
X53811Y70189D01*
X53767Y70113D01*
X53720Y69940D01*
Y69760D01*
X53767Y69587D01*
X53856Y69432D01*
X53983Y69305D01*
X54138Y69215D01*
X54312Y69169D01*
X54491D01*
X54664Y69215D01*
X54819Y69305D01*
X54946Y69432D01*
X55036Y69587D01*
X55082Y69760D01*
Y69940D01*
X55036Y70113D01*
X54946Y70268D01*
X54819Y70395D01*
X54791Y70412D01*
X54835Y70488D01*
X54881Y70661D01*
Y70840D01*
X54835Y71014D01*
X54745Y71169D01*
X54618Y71296D01*
X54463Y71385D01*
X54290Y71432D01*
D02*
G37*
G36*
X58596Y71431D02*
X58304D01*
X58018Y71374D01*
X57748Y71262D01*
X57506Y71100D01*
X57299Y70894D01*
X57137Y70651D01*
X57026Y70382D01*
X56969Y70096D01*
Y69804D01*
X57026Y69518D01*
X57137Y69248D01*
X57299Y69006D01*
X57506Y68799D01*
X57748Y68637D01*
X58018Y68526D01*
X58304Y68469D01*
X58596D01*
X58882Y68526D01*
X59151Y68637D01*
X59394Y68799D01*
X59600Y69006D01*
X59762Y69248D01*
X59874Y69518D01*
X59931Y69804D01*
Y70096D01*
X59874Y70382D01*
X59762Y70651D01*
X59600Y70894D01*
X59394Y71100D01*
X59151Y71262D01*
X58882Y71374D01*
X58596Y71431D01*
D02*
G37*
G36*
X79940Y69781D02*
X79760D01*
X79587Y69735D01*
X79432Y69645D01*
X79305Y69518D01*
X79215Y69363D01*
X79169Y69190D01*
Y69010D01*
X79215Y68837D01*
X79305Y68682D01*
X79432Y68555D01*
X79587Y68465D01*
X79760Y68419D01*
X79940D01*
X80113Y68465D01*
X80268Y68555D01*
X80395Y68682D01*
X80485Y68837D01*
X80531Y69010D01*
Y69190D01*
X80485Y69363D01*
X80395Y69518D01*
X80268Y69645D01*
X80113Y69735D01*
X79940Y69781D01*
D02*
G37*
G36*
X47781Y70501D02*
X45519D01*
Y68239D01*
X47781D01*
Y70501D01*
D02*
G37*
G36*
X70019Y68622D02*
X69840D01*
X69666Y68576D01*
X69511Y68486D01*
X69384Y68359D01*
X69295Y68204D01*
X69248Y68031D01*
Y67852D01*
X69295Y67678D01*
X69384Y67523D01*
X69511Y67396D01*
X69666Y67307D01*
X69840Y67260D01*
X70019D01*
X70192Y67307D01*
X70347Y67396D01*
X70474Y67523D01*
X70564Y67678D01*
X70610Y67852D01*
Y68031D01*
X70564Y68204D01*
X70474Y68359D01*
X70347Y68486D01*
X70192Y68576D01*
X70019Y68622D01*
D02*
G37*
G36*
X7240Y67931D02*
X7060D01*
X6887Y67885D01*
X6732Y67795D01*
X6605Y67668D01*
X6515Y67513D01*
X6469Y67340D01*
Y67160D01*
X6515Y66987D01*
X6605Y66832D01*
X6732Y66705D01*
X6887Y66615D01*
X7060Y66569D01*
X7240D01*
X7413Y66615D01*
X7568Y66705D01*
X7695Y66832D01*
X7785Y66987D01*
X7831Y67160D01*
Y67340D01*
X7785Y67513D01*
X7695Y67668D01*
X7568Y67795D01*
X7413Y67885D01*
X7240Y67931D01*
D02*
G37*
G36*
X9090Y67831D02*
X8910D01*
X8737Y67785D01*
X8582Y67695D01*
X8455Y67568D01*
X8365Y67413D01*
X8319Y67240D01*
Y67060D01*
X8365Y66887D01*
X8455Y66732D01*
X8582Y66605D01*
X8737Y66515D01*
X8910Y66469D01*
X9090D01*
X9263Y66515D01*
X9418Y66605D01*
X9545Y66732D01*
X9635Y66887D01*
X9681Y67060D01*
Y67240D01*
X9635Y67413D01*
X9545Y67568D01*
X9418Y67695D01*
X9263Y67785D01*
X9090Y67831D01*
D02*
G37*
G36*
X65534Y68536D02*
X65355D01*
X65182Y68490D01*
X65027Y68400D01*
X64900Y68273D01*
X64810Y68118D01*
X64764Y67945D01*
Y67766D01*
X64810Y67592D01*
X64900Y67437D01*
X65027Y67310D01*
X65060Y67291D01*
X65019Y67140D01*
Y66960D01*
X65065Y66787D01*
X65155Y66632D01*
X65282Y66505D01*
X65437Y66415D01*
X65610Y66369D01*
X65790D01*
X65963Y66415D01*
X66118Y66505D01*
X66245Y66632D01*
X66335Y66787D01*
X66381Y66960D01*
Y67140D01*
X66335Y67313D01*
X66245Y67468D01*
X66118Y67595D01*
X66085Y67614D01*
X66126Y67766D01*
Y67945D01*
X66079Y68118D01*
X65990Y68273D01*
X65863Y68400D01*
X65708Y68490D01*
X65534Y68536D01*
D02*
G37*
G36*
X13440Y67181D02*
X13260D01*
X13087Y67135D01*
X12932Y67045D01*
X12805Y66918D01*
X12715Y66763D01*
X12669Y66590D01*
Y66410D01*
X12689Y66336D01*
X12571Y66287D01*
X12495Y66418D01*
X12368Y66545D01*
X12213Y66635D01*
X12040Y66681D01*
X11860D01*
X11687Y66635D01*
X11532Y66545D01*
X11405Y66418D01*
X11315Y66263D01*
X11269Y66090D01*
Y65910D01*
X11315Y65737D01*
X11405Y65582D01*
X11532Y65455D01*
X11687Y65365D01*
X11860Y65319D01*
X12040D01*
X12213Y65365D01*
X12368Y65455D01*
X12495Y65582D01*
X12585Y65737D01*
X12631Y65910D01*
Y66090D01*
X12611Y66164D01*
X12729Y66213D01*
X12805Y66082D01*
X12932Y65955D01*
X13087Y65865D01*
X13260Y65819D01*
X13440D01*
X13613Y65865D01*
X13768Y65955D01*
X13895Y66082D01*
X13985Y66237D01*
X14031Y66410D01*
Y66590D01*
X13985Y66763D01*
X13895Y66918D01*
X13768Y67045D01*
X13613Y67135D01*
X13440Y67181D01*
D02*
G37*
G36*
X71190Y67531D02*
X71010D01*
X70837Y67485D01*
X70682Y67395D01*
X70555Y67268D01*
X70465Y67113D01*
X70419Y66940D01*
Y66760D01*
X70465Y66587D01*
X70555Y66432D01*
X70682Y66305D01*
X70837Y66215D01*
X71010Y66169D01*
X71190D01*
X71363Y66215D01*
X71518Y66305D01*
X71645Y66432D01*
X71735Y66587D01*
X71781Y66760D01*
Y66940D01*
X71735Y67113D01*
X71645Y67268D01*
X71518Y67395D01*
X71363Y67485D01*
X71190Y67531D01*
D02*
G37*
G36*
X22710Y67244D02*
X22530D01*
X22357Y67198D01*
X22202Y67108D01*
X22075Y66981D01*
X21986Y66826D01*
X21939Y66653D01*
Y66473D01*
X21986Y66300D01*
X22075Y66145D01*
X22202Y66018D01*
X22357Y65928D01*
X22530Y65882D01*
X22710D01*
X22883Y65928D01*
X23038Y66018D01*
X23165Y66145D01*
X23255Y66300D01*
X23301Y66473D01*
Y66653D01*
X23255Y66826D01*
X23165Y66981D01*
X23038Y67108D01*
X22883Y67198D01*
X22710Y67244D01*
D02*
G37*
G36*
X115050Y66481D02*
X114870D01*
X114697Y66435D01*
X114542Y66345D01*
X114415Y66218D01*
X114325Y66063D01*
X114279Y65890D01*
Y65710D01*
X114325Y65537D01*
X114215Y65480D01*
X114193Y65517D01*
X114067Y65643D01*
X113911Y65733D01*
X113738Y65779D01*
X113559D01*
X113386Y65733D01*
X113230Y65643D01*
X113103Y65517D01*
X113014Y65361D01*
X112967Y65188D01*
Y65009D01*
X113014Y64836D01*
X113103Y64680D01*
X113230Y64553D01*
X113386Y64464D01*
X113559Y64417D01*
X113738D01*
X113911Y64464D01*
X114067Y64553D01*
X114193Y64680D01*
X114283Y64836D01*
X114329Y65009D01*
Y65188D01*
X114283Y65361D01*
X114394Y65419D01*
X114415Y65382D01*
X114542Y65255D01*
X114697Y65165D01*
X114870Y65119D01*
X115050D01*
X115223Y65165D01*
X115378Y65255D01*
X115505Y65382D01*
X115595Y65537D01*
X115641Y65710D01*
Y65890D01*
X115595Y66063D01*
X115505Y66218D01*
X115378Y66345D01*
X115223Y66435D01*
X115050Y66481D01*
D02*
G37*
G36*
X42499Y67731D02*
X42201D01*
X41913Y67654D01*
X41656Y67505D01*
X41445Y67294D01*
X41296Y67037D01*
X41219Y66749D01*
Y66451D01*
X41296Y66163D01*
X41445Y65906D01*
X41656Y65695D01*
X41913Y65546D01*
X42201Y65469D01*
X42499D01*
X42787Y65546D01*
X43044Y65695D01*
X43255Y65906D01*
X43404Y66163D01*
X43481Y66451D01*
Y66749D01*
X43404Y67037D01*
X43255Y67294D01*
X43044Y67505D01*
X42787Y67654D01*
X42499Y67731D01*
D02*
G37*
G36*
X39699D02*
X39401D01*
X39113Y67654D01*
X38856Y67505D01*
X38645Y67294D01*
X38496Y67037D01*
X38419Y66749D01*
Y66451D01*
X38496Y66163D01*
X38645Y65906D01*
X38856Y65695D01*
X39113Y65546D01*
X39401Y65469D01*
X39699D01*
X39987Y65546D01*
X40244Y65695D01*
X40455Y65906D01*
X40604Y66163D01*
X40681Y66451D01*
Y66749D01*
X40604Y67037D01*
X40455Y67294D01*
X40244Y67505D01*
X39987Y67654D01*
X39699Y67731D01*
D02*
G37*
G36*
X36899D02*
X36601D01*
X36313Y67654D01*
X36056Y67505D01*
X35845Y67294D01*
X35696Y67037D01*
X35619Y66749D01*
Y66451D01*
X35696Y66163D01*
X35845Y65906D01*
X36056Y65695D01*
X36313Y65546D01*
X36601Y65469D01*
X36899D01*
X37187Y65546D01*
X37444Y65695D01*
X37655Y65906D01*
X37804Y66163D01*
X37881Y66451D01*
Y66749D01*
X37804Y67037D01*
X37655Y67294D01*
X37444Y67505D01*
X37187Y67654D01*
X36899Y67731D01*
D02*
G37*
G36*
X19947Y66588D02*
X19768D01*
X19594Y66542D01*
X19439Y66452D01*
X19312Y66325D01*
X19223Y66170D01*
X19176Y65997D01*
Y65818D01*
X19223Y65644D01*
X19312Y65489D01*
X19439Y65362D01*
X19594Y65273D01*
X19768Y65226D01*
X19947D01*
X20120Y65273D01*
X20275Y65362D01*
X20402Y65489D01*
X20492Y65644D01*
X20538Y65818D01*
Y65997D01*
X20492Y66170D01*
X20402Y66325D01*
X20275Y66452D01*
X20120Y66542D01*
X19947Y66588D01*
D02*
G37*
G36*
X44665Y66407D02*
X44486D01*
X44313Y66360D01*
X44158Y66271D01*
X44031Y66144D01*
X43941Y65989D01*
X43895Y65815D01*
Y65636D01*
X43941Y65463D01*
X44031Y65308D01*
X44158Y65181D01*
X44313Y65091D01*
X44486Y65045D01*
X44665D01*
X44839Y65091D01*
X44994Y65181D01*
X45121Y65308D01*
X45210Y65463D01*
X45257Y65636D01*
Y65815D01*
X45210Y65989D01*
X45121Y66144D01*
X44994Y66271D01*
X44839Y66360D01*
X44665Y66407D01*
D02*
G37*
G36*
X35340Y65531D02*
X35160D01*
X34987Y65485D01*
X34832Y65395D01*
X34705Y65268D01*
X34615Y65113D01*
X34569Y64940D01*
Y64760D01*
X34615Y64587D01*
X34705Y64432D01*
X34832Y64305D01*
X34987Y64215D01*
X35160Y64169D01*
X35340D01*
X35513Y64215D01*
X35668Y64305D01*
X35795Y64432D01*
X35885Y64587D01*
X35931Y64760D01*
Y64940D01*
X35885Y65113D01*
X35795Y65268D01*
X35668Y65395D01*
X35513Y65485D01*
X35340Y65531D01*
D02*
G37*
G36*
X106240Y66781D02*
X106060D01*
X105887Y66735D01*
X105732Y66645D01*
X105605Y66518D01*
X105515Y66363D01*
X105469Y66190D01*
Y66010D01*
X105515Y65837D01*
X105605Y65682D01*
X105732Y65555D01*
X105855Y65484D01*
X105870Y65382D01*
X105861Y65341D01*
X105782Y65295D01*
X105655Y65168D01*
X105565Y65013D01*
X105519Y64840D01*
Y64660D01*
X105565Y64487D01*
X105655Y64332D01*
X105782Y64205D01*
X105937Y64115D01*
X106110Y64069D01*
X106290D01*
X106463Y64115D01*
X106618Y64205D01*
X106745Y64332D01*
X106835Y64487D01*
X106881Y64660D01*
Y64840D01*
X106835Y65013D01*
X106745Y65168D01*
X106618Y65295D01*
X106495Y65366D01*
X106480Y65468D01*
X106489Y65509D01*
X106568Y65555D01*
X106695Y65682D01*
X106785Y65837D01*
X106831Y66010D01*
Y66190D01*
X106785Y66363D01*
X106695Y66518D01*
X106568Y66645D01*
X106413Y66735D01*
X106240Y66781D01*
D02*
G37*
G36*
X9254Y64334D02*
Y64039D01*
X9549D01*
X9512Y64127D01*
X9342Y64297D01*
X9254Y64334D01*
D02*
G37*
G36*
X8746Y64334D02*
X8658Y64297D01*
X8488Y64127D01*
X8451Y64039D01*
X8746D01*
Y64334D01*
D02*
G37*
G36*
X10651Y64334D02*
Y64039D01*
X10946D01*
X10909Y64127D01*
X10739Y64297D01*
X10651Y64334D01*
D02*
G37*
G36*
X10143Y64334D02*
X10055Y64297D01*
X9885Y64127D01*
X9848Y64039D01*
X10143D01*
Y64334D01*
D02*
G37*
G36*
X7730Y64207D02*
Y63912D01*
X8025D01*
X7988Y64000D01*
X7818Y64170D01*
X7730Y64207D01*
D02*
G37*
G36*
X7222Y64207D02*
X7134Y64170D01*
X6964Y64000D01*
X6927Y63912D01*
X7222D01*
Y64207D01*
D02*
G37*
G36*
X76390Y65131D02*
X76210D01*
X76037Y65085D01*
X75882Y64995D01*
X75755Y64868D01*
X75665Y64713D01*
X75619Y64540D01*
Y64360D01*
X75665Y64187D01*
X75755Y64032D01*
X75882Y63905D01*
X76037Y63815D01*
X76210Y63769D01*
X76390D01*
X76563Y63815D01*
X76718Y63905D01*
X76845Y64032D01*
X76935Y64187D01*
X76981Y64360D01*
Y64540D01*
X76935Y64713D01*
X76845Y64868D01*
X76718Y64995D01*
X76563Y65085D01*
X76390Y65131D01*
D02*
G37*
G36*
X112203Y64034D02*
Y63739D01*
X112497D01*
X112461Y63827D01*
X112291Y63997D01*
X112203Y64034D01*
D02*
G37*
G36*
X110679D02*
Y63739D01*
X110974D01*
X110937Y63827D01*
X110767Y63997D01*
X110679Y64034D01*
D02*
G37*
G36*
X110171Y64034D02*
X110083Y63997D01*
X109913Y63827D01*
X109877Y63739D01*
X110171D01*
Y64034D01*
D02*
G37*
G36*
X111695D02*
X111607Y63997D01*
X111437Y63827D01*
X111401Y63739D01*
X111695D01*
Y64034D01*
D02*
G37*
G36*
X109282Y64034D02*
Y63739D01*
X109577D01*
X109540Y63827D01*
X109370Y63997D01*
X109282Y64034D01*
D02*
G37*
G36*
X108774Y64034D02*
X108686Y63997D01*
X108516Y63827D01*
X108479Y63739D01*
X108774D01*
Y64034D01*
D02*
G37*
G36*
X71040Y64181D02*
X70860D01*
X70687Y64135D01*
X70532Y64045D01*
X70405Y63918D01*
X70315Y63763D01*
X70311Y63747D01*
X70175Y63729D01*
X70130Y63808D01*
X70003Y63935D01*
X69848Y64024D01*
X69674Y64071D01*
X69495D01*
X69322Y64024D01*
X69167Y63935D01*
X69040Y63808D01*
X68950Y63652D01*
X68904Y63479D01*
Y63300D01*
X68950Y63127D01*
X69040Y62971D01*
X69167Y62845D01*
X69322Y62755D01*
X69495Y62709D01*
X69674D01*
X69848Y62755D01*
X70003Y62845D01*
X70130Y62971D01*
X70219Y63127D01*
X70223Y63142D01*
X70360Y63160D01*
X70405Y63082D01*
X70532Y62955D01*
X70687Y62865D01*
X70860Y62819D01*
X71040D01*
X71213Y62865D01*
X71368Y62955D01*
X71495Y63082D01*
X71585Y63237D01*
X71631Y63410D01*
Y63590D01*
X71585Y63763D01*
X71495Y63918D01*
X71368Y64045D01*
X71213Y64135D01*
X71040Y64181D01*
D02*
G37*
G36*
X83108Y64731D02*
X82929D01*
X82755Y64685D01*
X82600Y64595D01*
X82473Y64468D01*
X82384Y64313D01*
X82337Y64140D01*
Y63960D01*
X82384Y63787D01*
X82473Y63632D01*
X82600Y63505D01*
X82755Y63415D01*
X82929Y63369D01*
X83108D01*
X83281Y63415D01*
X83436Y63505D01*
X83563Y63632D01*
X83653Y63787D01*
X83699Y63960D01*
Y64140D01*
X83653Y64313D01*
X83563Y64468D01*
X83436Y64595D01*
X83281Y64685D01*
X83108Y64731D01*
D02*
G37*
G36*
X93890Y64631D02*
X93710D01*
X93537Y64585D01*
X93382Y64495D01*
X93255Y64368D01*
X93165Y64213D01*
X93119Y64040D01*
Y63860D01*
X93165Y63687D01*
X93255Y63532D01*
X93382Y63405D01*
X93537Y63315D01*
X93710Y63269D01*
X93890D01*
X94063Y63315D01*
X94218Y63405D01*
X94345Y63532D01*
X94435Y63687D01*
X94481Y63860D01*
Y64040D01*
X94435Y64213D01*
X94345Y64368D01*
X94218Y64495D01*
X94063Y64585D01*
X93890Y64631D01*
D02*
G37*
G36*
X80840D02*
X80660D01*
X80487Y64585D01*
X80332Y64495D01*
X80205Y64368D01*
X80115Y64213D01*
X80069Y64040D01*
Y63860D01*
X80115Y63687D01*
X80205Y63532D01*
X80332Y63405D01*
X80487Y63315D01*
X80660Y63269D01*
X80840D01*
X81013Y63315D01*
X81168Y63405D01*
X81295Y63532D01*
X81385Y63687D01*
X81431Y63860D01*
Y64040D01*
X81385Y64213D01*
X81295Y64368D01*
X81168Y64495D01*
X81013Y64585D01*
X80840Y64631D01*
D02*
G37*
G36*
X24290Y64581D02*
X24110D01*
X23937Y64535D01*
X23782Y64445D01*
X23655Y64318D01*
X23565Y64163D01*
X23519Y63990D01*
Y63810D01*
X23565Y63637D01*
X23655Y63482D01*
X23782Y63355D01*
X23937Y63265D01*
X24110Y63219D01*
X24290D01*
X24463Y63265D01*
X24618Y63355D01*
X24745Y63482D01*
X24835Y63637D01*
X24881Y63810D01*
Y63990D01*
X24835Y64163D01*
X24745Y64318D01*
X24618Y64445D01*
X24463Y64535D01*
X24290Y64581D01*
D02*
G37*
G36*
X45171Y64413D02*
X44991D01*
X44818Y64366D01*
X44663Y64277D01*
X44536Y64150D01*
X44446Y63995D01*
X44400Y63821D01*
Y63642D01*
X44446Y63469D01*
X44536Y63314D01*
X44663Y63187D01*
X44818Y63097D01*
X44991Y63051D01*
X45171D01*
X45344Y63097D01*
X45499Y63187D01*
X45626Y63314D01*
X45716Y63469D01*
X45762Y63642D01*
Y63821D01*
X45716Y63995D01*
X45626Y64150D01*
X45499Y64277D01*
X45344Y64366D01*
X45171Y64413D01*
D02*
G37*
G36*
X42867Y64258D02*
X42687D01*
X42514Y64212D01*
X42359Y64122D01*
X42232Y63995D01*
X42142Y63840D01*
X42096Y63667D01*
Y63487D01*
X42142Y63314D01*
X42232Y63159D01*
X42359Y63032D01*
X42514Y62942D01*
X42687Y62896D01*
X42867D01*
X43040Y62942D01*
X43195Y63032D01*
X43322Y63159D01*
X43412Y63314D01*
X43458Y63487D01*
Y63667D01*
X43412Y63840D01*
X43322Y63995D01*
X43195Y64122D01*
X43040Y64212D01*
X42867Y64258D01*
D02*
G37*
G36*
X88640Y64231D02*
X88460D01*
X88287Y64185D01*
X88132Y64095D01*
X88005Y63968D01*
X87915Y63813D01*
X87869Y63640D01*
Y63460D01*
X87915Y63287D01*
X88005Y63132D01*
X88132Y63005D01*
X88287Y62915D01*
X88460Y62869D01*
X88640D01*
X88813Y62915D01*
X88968Y63005D01*
X89095Y63132D01*
X89185Y63287D01*
X89231Y63460D01*
Y63640D01*
X89185Y63813D01*
X89095Y63968D01*
X88968Y64095D01*
X88813Y64185D01*
X88640Y64231D01*
D02*
G37*
G36*
X9549Y63531D02*
X9000D01*
X8451D01*
X8488Y63443D01*
X8658Y63273D01*
X8789Y63219D01*
Y63081D01*
X8658Y63027D01*
X8488Y62857D01*
X8451Y62769D01*
X9000D01*
X9549D01*
X9512Y62857D01*
X9342Y63027D01*
X9211Y63081D01*
Y63219D01*
X9342Y63273D01*
X9512Y63443D01*
X9549Y63531D01*
D02*
G37*
G36*
X8025Y63404D02*
X7476D01*
X6927D01*
X6964Y63316D01*
X7121Y63159D01*
X7128Y63086D01*
X7121Y63014D01*
X6964Y62857D01*
X6927Y62769D01*
X7476D01*
X8025D01*
X7988Y62857D01*
X7831Y63014D01*
X7824Y63086D01*
X7831Y63159D01*
X7988Y63316D01*
X8025Y63404D01*
D02*
G37*
G36*
X10946Y63531D02*
X10397D01*
X9848D01*
X9885Y63443D01*
X10055Y63273D01*
X10186Y63219D01*
Y63081D01*
X10055Y63027D01*
X9885Y62857D01*
X9848Y62769D01*
X10397D01*
X10946D01*
X10909Y62857D01*
X10739Y63027D01*
X10608Y63081D01*
Y63219D01*
X10739Y63273D01*
X10909Y63443D01*
X10946Y63531D01*
D02*
G37*
G36*
X20787Y63981D02*
X20607D01*
X20434Y63935D01*
X20279Y63845D01*
X20152Y63718D01*
X20062Y63563D01*
X20016Y63390D01*
Y63210D01*
X20062Y63037D01*
X20152Y62882D01*
X20279Y62755D01*
X20434Y62665D01*
X20607Y62619D01*
X20787D01*
X20960Y62665D01*
X21115Y62755D01*
X21242Y62882D01*
X21332Y63037D01*
X21378Y63210D01*
Y63390D01*
X21332Y63563D01*
X21242Y63718D01*
X21115Y63845D01*
X20960Y63935D01*
X20787Y63981D01*
D02*
G37*
G36*
X112498Y63231D02*
X111949D01*
X111400D01*
X111437Y63143D01*
X111594Y62986D01*
X111601Y62914D01*
X111594Y62841D01*
X111437Y62684D01*
X111400Y62596D01*
X111949D01*
X112498D01*
X112461Y62684D01*
X112304Y62841D01*
X112297Y62914D01*
X112304Y62986D01*
X112461Y63143D01*
X112498Y63231D01*
D02*
G37*
G36*
X109821Y63365D02*
Y63365D01*
X109913Y63143D01*
X110083Y62973D01*
X110214Y62919D01*
Y62781D01*
X110083Y62727D01*
X109913Y62557D01*
X109876Y62469D01*
X110425D01*
X110974D01*
X110937Y62557D01*
X110767Y62727D01*
X110636Y62781D01*
Y62919D01*
X110767Y62973D01*
X110937Y63143D01*
X110974Y63231D01*
X110425D01*
X109876D01*
X109821Y63365D01*
D02*
G37*
G36*
X109577Y63231D02*
X109028D01*
X108479D01*
X108516Y63143D01*
X108686Y62973D01*
X108817Y62919D01*
Y62781D01*
X108686Y62727D01*
X108516Y62557D01*
X108479Y62469D01*
X109028D01*
X109577D01*
X109540Y62557D01*
X109370Y62727D01*
X109239Y62781D01*
Y62919D01*
X109370Y62973D01*
X109540Y63143D01*
X109577Y63231D01*
D02*
G37*
G36*
X37340Y63781D02*
X37160D01*
X36987Y63735D01*
X36832Y63645D01*
X36705Y63518D01*
X36615Y63363D01*
X36569Y63190D01*
Y63010D01*
X36615Y62837D01*
X36705Y62682D01*
X36832Y62555D01*
X36987Y62465D01*
X37160Y62419D01*
X37340D01*
X37513Y62465D01*
X37668Y62555D01*
X37795Y62682D01*
X37885Y62837D01*
X37931Y63010D01*
Y63190D01*
X37885Y63363D01*
X37795Y63518D01*
X37668Y63645D01*
X37513Y63735D01*
X37340Y63781D01*
D02*
G37*
G36*
X10143Y62261D02*
X9848D01*
X9885Y62173D01*
X10055Y62003D01*
X10143Y61966D01*
Y62261D01*
D02*
G37*
G36*
X8746Y62261D02*
X8451D01*
X8488Y62173D01*
X8658Y62003D01*
X8746Y61966D01*
Y62261D01*
D02*
G37*
G36*
X7222D02*
X6927D01*
X6964Y62173D01*
X7134Y62003D01*
X7222Y61966D01*
Y62261D01*
D02*
G37*
G36*
X9604Y62635D02*
Y62395D01*
X9549Y62261D01*
X9254D01*
Y61966D01*
X9342Y62003D01*
X9512Y62173D01*
X9604Y62395D01*
Y62635D01*
X9604Y62635D01*
D02*
G37*
G36*
X8025Y62261D02*
X7730D01*
Y61966D01*
X7818Y62003D01*
X7988Y62173D01*
X8025Y62261D01*
D02*
G37*
G36*
X10946Y62261D02*
X10651D01*
Y61966D01*
X10739Y62003D01*
X10909Y62173D01*
X10946Y62261D01*
D02*
G37*
G36*
X111695Y62088D02*
X111400D01*
X111437Y62000D01*
X111607Y61830D01*
X111695Y61793D01*
Y62088D01*
D02*
G37*
G36*
X112498D02*
X112203D01*
Y61793D01*
X112291Y61830D01*
X112461Y62000D01*
X112498Y62088D01*
D02*
G37*
G36*
X110171Y61961D02*
X109876D01*
X109913Y61873D01*
X110083Y61703D01*
X110171Y61666D01*
Y61961D01*
D02*
G37*
G36*
X109577Y61961D02*
X109282D01*
Y61666D01*
X109370Y61703D01*
X109540Y61873D01*
X109577Y61961D01*
D02*
G37*
G36*
X108774D02*
X108479D01*
X108516Y61873D01*
X108686Y61703D01*
X108774Y61666D01*
Y61961D01*
D02*
G37*
G36*
X110974Y61961D02*
X110679D01*
Y61666D01*
X110767Y61703D01*
X110937Y61873D01*
X110974Y61961D01*
D02*
G37*
G36*
X72547Y62018D02*
X72368D01*
X72195Y61972D01*
X72040Y61882D01*
X71913Y61755D01*
X71823Y61600D01*
X71798Y61507D01*
X71662Y61489D01*
X71645Y61518D01*
X71518Y61645D01*
X71363Y61735D01*
X71190Y61781D01*
X71010D01*
X70837Y61735D01*
X70682Y61645D01*
X70555Y61518D01*
X70465Y61363D01*
X70419Y61190D01*
Y61010D01*
X70465Y60837D01*
X70555Y60682D01*
X70682Y60555D01*
X70837Y60465D01*
X70919Y60443D01*
Y60360D01*
X70965Y60187D01*
X71055Y60032D01*
X71182Y59905D01*
X71337Y59815D01*
X71510Y59769D01*
X71690D01*
X71863Y59815D01*
X72018Y59905D01*
X72145Y60032D01*
X72235Y60187D01*
X72281Y60360D01*
Y60540D01*
X72274Y60567D01*
X72341Y60635D01*
X72381Y60656D01*
X72547D01*
X72721Y60702D01*
X72876Y60792D01*
X72947Y60863D01*
X73087Y60824D01*
X73115Y60717D01*
X73205Y60562D01*
X73332Y60435D01*
X73487Y60346D01*
X73660Y60299D01*
X73840D01*
X74013Y60346D01*
X74168Y60435D01*
X74295Y60562D01*
X74385Y60717D01*
X74431Y60891D01*
Y61070D01*
X74385Y61243D01*
X74295Y61398D01*
X74168Y61525D01*
X74013Y61615D01*
X73840Y61661D01*
X73660D01*
X73487Y61615D01*
X73332Y61525D01*
X73261Y61454D01*
X73121Y61494D01*
X73092Y61600D01*
X73003Y61755D01*
X72876Y61882D01*
X72721Y61972D01*
X72547Y62018D01*
D02*
G37*
G36*
X78440Y62681D02*
X78260D01*
X78087Y62635D01*
X77932Y62545D01*
X77805Y62418D01*
X77715Y62263D01*
X77669Y62090D01*
Y61910D01*
X77715Y61737D01*
X77805Y61582D01*
X77932Y61455D01*
X78087Y61365D01*
X78260Y61319D01*
X78440D01*
X78613Y61365D01*
X78768Y61455D01*
X78895Y61582D01*
X78985Y61737D01*
X79031Y61910D01*
Y62090D01*
X78985Y62263D01*
X78895Y62418D01*
X78768Y62545D01*
X78613Y62635D01*
X78440Y62681D01*
D02*
G37*
G36*
X82004Y61980D02*
Y61004D01*
X82980D01*
X82919Y61234D01*
X82753Y61520D01*
X82520Y61753D01*
X82234Y61919D01*
X82004Y61980D01*
D02*
G37*
G36*
X81496D02*
X81266Y61919D01*
X80980Y61753D01*
X80747Y61520D01*
X80581Y61234D01*
X80520Y61004D01*
X81496D01*
Y61980D01*
D02*
G37*
G36*
X44784Y62254D02*
X44605D01*
X44432Y62207D01*
X44276Y62118D01*
X44149Y61991D01*
X44060Y61836D01*
X44013Y61662D01*
Y61483D01*
X44060Y61310D01*
X44149Y61155D01*
X44276Y61028D01*
X44432Y60938D01*
X44605Y60892D01*
X44784D01*
X44957Y60938D01*
X45113Y61028D01*
X45239Y61155D01*
X45329Y61310D01*
X45375Y61483D01*
Y61662D01*
X45329Y61836D01*
X45239Y61991D01*
X45113Y62118D01*
X44957Y62207D01*
X44784Y62254D01*
D02*
G37*
G36*
X67643Y63222D02*
X67464D01*
X67290Y63176D01*
X67135Y63086D01*
X67008Y62959D01*
X66919Y62804D01*
X66872Y62631D01*
Y62451D01*
X66919Y62278D01*
X67008Y62123D01*
X67135Y61996D01*
X67290Y61906D01*
X67380Y61882D01*
Y61751D01*
X67290Y61727D01*
X67135Y61637D01*
X67008Y61510D01*
X66919Y61355D01*
X66872Y61182D01*
Y61002D01*
X66919Y60829D01*
X67008Y60674D01*
X67135Y60547D01*
X67290Y60458D01*
X67464Y60411D01*
X67643D01*
X67816Y60458D01*
X67971Y60547D01*
X68098Y60674D01*
X68188Y60829D01*
X68234Y61002D01*
Y61182D01*
X68188Y61355D01*
X68098Y61510D01*
X67971Y61637D01*
X67816Y61727D01*
X67726Y61751D01*
Y61882D01*
X67816Y61906D01*
X67971Y61996D01*
X68098Y62123D01*
X68188Y62278D01*
X68234Y62451D01*
Y62631D01*
X68188Y62804D01*
X68098Y62959D01*
X67971Y63086D01*
X67816Y63176D01*
X67643Y63222D01*
D02*
G37*
G36*
X39790Y61481D02*
X39610D01*
X39437Y61435D01*
X39282Y61345D01*
X39155Y61218D01*
X39065Y61063D01*
X39019Y60890D01*
Y60710D01*
X39065Y60537D01*
X39155Y60382D01*
X39282Y60255D01*
X39437Y60165D01*
X39610Y60119D01*
X39790D01*
X39963Y60165D01*
X40118Y60255D01*
X40245Y60382D01*
X40335Y60537D01*
X40381Y60710D01*
Y60890D01*
X40335Y61063D01*
X40245Y61218D01*
X40118Y61345D01*
X39963Y61435D01*
X39790Y61481D01*
D02*
G37*
G36*
X93240Y62231D02*
X93061D01*
X92887Y62185D01*
X92732Y62095D01*
X92605Y61968D01*
X92516Y61813D01*
X92469Y61640D01*
Y61461D01*
X92516Y61287D01*
X92605Y61132D01*
X92617Y61120D01*
X92584Y60997D01*
X92537Y60985D01*
X92382Y60895D01*
X92255Y60768D01*
X92165Y60613D01*
X92119Y60440D01*
Y60260D01*
X92165Y60087D01*
X92255Y59932D01*
X92382Y59805D01*
X92537Y59715D01*
X92710Y59669D01*
X92890D01*
X93063Y59715D01*
X93218Y59805D01*
X93345Y59932D01*
X93435Y60087D01*
X93481Y60260D01*
Y60440D01*
X93435Y60613D01*
X93345Y60768D01*
X93333Y60780D01*
X93366Y60903D01*
X93413Y60916D01*
X93568Y61005D01*
X93695Y61132D01*
X93785Y61287D01*
X93831Y61461D01*
Y61640D01*
X93785Y61813D01*
X93695Y61968D01*
X93568Y62095D01*
X93413Y62185D01*
X93240Y62231D01*
D02*
G37*
G36*
X88240Y60931D02*
X88060D01*
X87887Y60885D01*
X87732Y60795D01*
X87605Y60668D01*
X87515Y60513D01*
X87469Y60340D01*
Y60160D01*
X87515Y59987D01*
X87605Y59832D01*
X87732Y59705D01*
X87887Y59615D01*
X88060Y59569D01*
X88240D01*
X88413Y59615D01*
X88568Y59705D01*
X88695Y59832D01*
X88785Y59987D01*
X88831Y60160D01*
Y60340D01*
X88785Y60513D01*
X88695Y60668D01*
X88568Y60795D01*
X88413Y60885D01*
X88240Y60931D01*
D02*
G37*
G36*
X16276Y60931D02*
X16097D01*
X15924Y60885D01*
X15768Y60795D01*
X15642Y60668D01*
X15552Y60513D01*
X15506Y60340D01*
Y60160D01*
X15552Y59987D01*
X15642Y59832D01*
X15768Y59705D01*
X15924Y59615D01*
X16097Y59569D01*
X16276D01*
X16449Y59615D01*
X16605Y59705D01*
X16732Y59832D01*
X16821Y59987D01*
X16868Y60160D01*
Y60340D01*
X16821Y60513D01*
X16732Y60668D01*
X16605Y60795D01*
X16449Y60885D01*
X16276Y60931D01*
D02*
G37*
G36*
X82980Y60496D02*
X82004D01*
Y59520D01*
X82234Y59581D01*
X82520Y59747D01*
X82753Y59980D01*
X82919Y60266D01*
X82980Y60496D01*
D02*
G37*
G36*
X81496D02*
X80520D01*
X80581Y60266D01*
X80747Y59980D01*
X80980Y59747D01*
X81266Y59581D01*
X81496Y59520D01*
Y60496D01*
D02*
G37*
G36*
X84790Y60801D02*
X84610D01*
X84437Y60755D01*
X84282Y60665D01*
X84155Y60538D01*
X84065Y60383D01*
X84019Y60210D01*
Y60030D01*
X84065Y59857D01*
X84155Y59702D01*
X84282Y59575D01*
X84437Y59486D01*
X84610Y59439D01*
X84790D01*
X84963Y59486D01*
X85118Y59575D01*
X85245Y59702D01*
X85335Y59857D01*
X85381Y60030D01*
Y60210D01*
X85335Y60383D01*
X85245Y60538D01*
X85118Y60665D01*
X84963Y60755D01*
X84790Y60801D01*
D02*
G37*
G36*
X106740Y60681D02*
X106560D01*
X106387Y60635D01*
X106232Y60545D01*
X106105Y60418D01*
X106015Y60263D01*
X105969Y60090D01*
Y59910D01*
X106015Y59737D01*
X106105Y59582D01*
X106232Y59455D01*
X106387Y59365D01*
X106560Y59319D01*
X106740D01*
X106913Y59365D01*
X107068Y59455D01*
X107195Y59582D01*
X107285Y59737D01*
X107331Y59910D01*
Y60090D01*
X107285Y60263D01*
X107195Y60418D01*
X107068Y60545D01*
X106913Y60635D01*
X106740Y60681D01*
D02*
G37*
G36*
X23490Y60581D02*
X23310D01*
X23137Y60535D01*
X22982Y60445D01*
X22855Y60318D01*
X22765Y60163D01*
X22719Y59990D01*
Y59810D01*
X22765Y59637D01*
X22855Y59482D01*
X22982Y59355D01*
X23137Y59265D01*
X23310Y59219D01*
X23490D01*
X23663Y59265D01*
X23818Y59355D01*
X23945Y59482D01*
X24035Y59637D01*
X24081Y59810D01*
Y59990D01*
X24035Y60163D01*
X23945Y60318D01*
X23818Y60445D01*
X23663Y60535D01*
X23490Y60581D01*
D02*
G37*
G36*
X72954Y59730D02*
X72774D01*
X72601Y59683D01*
X72446Y59594D01*
X72319Y59467D01*
X72229Y59311D01*
X72211Y59241D01*
X72069Y59203D01*
X72023Y59250D01*
X71867Y59340D01*
X71694Y59386D01*
X71515D01*
X71342Y59340D01*
X71186Y59250D01*
X71060Y59123D01*
X70970Y58968D01*
X70923Y58795D01*
Y58615D01*
X70966Y58458D01*
X70932Y58375D01*
X70907Y58331D01*
X70860D01*
X70687Y58285D01*
X70532Y58195D01*
X70405Y58068D01*
X70315Y57913D01*
X70269Y57740D01*
Y57560D01*
X70315Y57387D01*
X70361Y57308D01*
X70361Y57287D01*
X70300Y57165D01*
X70187Y57135D01*
X70032Y57045D01*
X69905Y56918D01*
X69815Y56763D01*
X69769Y56590D01*
Y56410D01*
X69815Y56237D01*
X69905Y56082D01*
X70032Y55955D01*
X70187Y55865D01*
X70360Y55819D01*
X70540D01*
X70713Y55865D01*
X70868Y55955D01*
X70995Y56082D01*
X71085Y56237D01*
X71131Y56410D01*
Y56590D01*
X71085Y56763D01*
X71039Y56842D01*
X71039Y56863D01*
X71100Y56985D01*
X71213Y57015D01*
X71368Y57105D01*
X71495Y57232D01*
X71585Y57387D01*
X71631Y57560D01*
Y57740D01*
X71589Y57897D01*
X71622Y57980D01*
X71647Y58024D01*
X71694D01*
X71867Y58070D01*
X72023Y58160D01*
X72149Y58287D01*
X72239Y58442D01*
X72258Y58512D01*
X72399Y58550D01*
X72446Y58504D01*
X72601Y58414D01*
X72774Y58368D01*
X72954D01*
X73127Y58414D01*
X73282Y58504D01*
X73308Y58529D01*
X73449Y58491D01*
X73476Y58393D01*
X73565Y58237D01*
X73692Y58110D01*
X73848Y58021D01*
X74021Y57974D01*
X74200D01*
X74373Y58021D01*
X74529Y58110D01*
X74655Y58237D01*
X74745Y58393D01*
X74791Y58566D01*
Y58745D01*
X74745Y58918D01*
X74655Y59074D01*
X74529Y59200D01*
X74373Y59290D01*
X74200Y59336D01*
X74021D01*
X73848Y59290D01*
X73692Y59200D01*
X73667Y59175D01*
X73525Y59213D01*
X73499Y59311D01*
X73409Y59467D01*
X73282Y59594D01*
X73127Y59683D01*
X72954Y59730D01*
D02*
G37*
G36*
X86640Y60481D02*
X86460D01*
X86287Y60435D01*
X86132Y60345D01*
X86005Y60218D01*
X85915Y60063D01*
X85869Y59890D01*
Y59710D01*
X85915Y59537D01*
X86005Y59382D01*
X86132Y59255D01*
X86287Y59165D01*
X86460Y59119D01*
X86640D01*
X86813Y59165D01*
X86968Y59255D01*
X87095Y59382D01*
X87185Y59537D01*
X87231Y59710D01*
Y59890D01*
X87185Y60063D01*
X87095Y60218D01*
X86968Y60345D01*
X86813Y60435D01*
X86640Y60481D01*
D02*
G37*
G36*
X12785Y60370D02*
X12606D01*
X12432Y60324D01*
X12277Y60234D01*
X12150Y60107D01*
X12061Y59952D01*
X12014Y59779D01*
Y59599D01*
X12061Y59426D01*
X12150Y59271D01*
X12277Y59144D01*
X12432Y59054D01*
X12606Y59008D01*
X12785D01*
X12958Y59054D01*
X13113Y59144D01*
X13240Y59271D01*
X13330Y59426D01*
X13376Y59599D01*
Y59779D01*
X13330Y59952D01*
X13240Y60107D01*
X13113Y60234D01*
X12958Y60324D01*
X12785Y60370D01*
D02*
G37*
G36*
X77540Y60232D02*
X77360D01*
X77187Y60186D01*
X77032Y60096D01*
X76905Y59970D01*
X76815Y59814D01*
X76769Y59641D01*
Y59462D01*
X76815Y59289D01*
X76905Y59133D01*
X77032Y59006D01*
X77187Y58917D01*
X77360Y58870D01*
X77540D01*
X77713Y58917D01*
X77868Y59006D01*
X77995Y59133D01*
X78085Y59289D01*
X78131Y59462D01*
Y59641D01*
X78085Y59814D01*
X77995Y59970D01*
X77868Y60096D01*
X77713Y60186D01*
X77540Y60232D01*
D02*
G37*
G36*
X113564Y59906D02*
X113385D01*
X113212Y59860D01*
X113056Y59770D01*
X112930Y59644D01*
X112840Y59488D01*
X112794Y59315D01*
Y59136D01*
X112840Y58963D01*
X112930Y58807D01*
X113056Y58681D01*
X113212Y58591D01*
X113385Y58544D01*
X113564D01*
X113737Y58591D01*
X113893Y58681D01*
X114020Y58807D01*
X114109Y58963D01*
X114156Y59136D01*
Y59315D01*
X114109Y59488D01*
X114020Y59644D01*
X113893Y59770D01*
X113737Y59860D01*
X113564Y59906D01*
D02*
G37*
G36*
X5790Y59731D02*
X5610D01*
X5437Y59685D01*
X5282Y59595D01*
X5155Y59468D01*
X5065Y59313D01*
X5019Y59140D01*
Y58960D01*
X5065Y58787D01*
X5155Y58632D01*
X5282Y58505D01*
X5437Y58415D01*
X5610Y58369D01*
X5790D01*
X5963Y58415D01*
X6118Y58505D01*
X6245Y58632D01*
X6262Y58662D01*
X6409D01*
X6455Y58582D01*
X6582Y58455D01*
X6737Y58365D01*
X6910Y58319D01*
X7090D01*
X7263Y58365D01*
X7418Y58455D01*
X7545Y58582D01*
X7635Y58737D01*
X7681Y58910D01*
Y59090D01*
X7635Y59263D01*
X7545Y59418D01*
X7418Y59545D01*
X7263Y59635D01*
X7090Y59681D01*
X6910D01*
X6737Y59635D01*
X6582Y59545D01*
X6455Y59418D01*
X6438Y59388D01*
X6291D01*
X6245Y59468D01*
X6118Y59595D01*
X5963Y59685D01*
X5790Y59731D01*
D02*
G37*
G36*
X36628Y59621D02*
X36449D01*
X36276Y59574D01*
X36121Y59485D01*
X35994Y59358D01*
X35904Y59202D01*
X35858Y59029D01*
Y58850D01*
X35904Y58677D01*
X35994Y58521D01*
X36121Y58395D01*
X36276Y58305D01*
X36449Y58259D01*
X36628D01*
X36802Y58305D01*
X36957Y58395D01*
X37084Y58521D01*
X37173Y58677D01*
X37220Y58850D01*
Y59029D01*
X37173Y59202D01*
X37084Y59358D01*
X36957Y59485D01*
X36802Y59574D01*
X36628Y59621D01*
D02*
G37*
G36*
X24632Y59181D02*
X24453D01*
X24280Y59135D01*
X24125Y59045D01*
X23998Y58918D01*
X23908Y58763D01*
X23862Y58590D01*
Y58410D01*
X23908Y58237D01*
X23998Y58082D01*
X24125Y57955D01*
X24280Y57865D01*
X24453Y57819D01*
X24632D01*
X24806Y57865D01*
X24961Y57955D01*
X25088Y58082D01*
X25177Y58237D01*
X25224Y58410D01*
Y58590D01*
X25177Y58763D01*
X25088Y58918D01*
X24961Y59045D01*
X24806Y59135D01*
X24632Y59181D01*
D02*
G37*
G36*
X44679Y59143D02*
X44500D01*
X44327Y59096D01*
X44171Y59007D01*
X44045Y58880D01*
X43955Y58725D01*
X43909Y58551D01*
Y58372D01*
X43942Y58249D01*
X43929Y58241D01*
X43802Y58114D01*
X43712Y57959D01*
X43666Y57786D01*
Y57607D01*
X43712Y57433D01*
X43802Y57278D01*
X43929Y57151D01*
X43942Y57144D01*
X43909Y57020D01*
Y56841D01*
X43955Y56668D01*
X44045Y56512D01*
X44171Y56386D01*
X44327Y56296D01*
X44500Y56250D01*
X44679D01*
X44852Y56296D01*
X45008Y56386D01*
X45135Y56512D01*
X45224Y56668D01*
X45271Y56841D01*
Y57020D01*
X45224Y57193D01*
X45135Y57349D01*
X45008Y57476D01*
X44995Y57483D01*
X45028Y57607D01*
Y57786D01*
X44995Y57909D01*
X45008Y57917D01*
X45135Y58044D01*
X45150Y58070D01*
X45294Y58065D01*
X45351Y57966D01*
X45477Y57839D01*
X45633Y57750D01*
X45806Y57703D01*
X45985D01*
X46158Y57750D01*
X46314Y57839D01*
X46441Y57966D01*
X46530Y58121D01*
X46577Y58295D01*
Y58474D01*
X46530Y58647D01*
X46441Y58802D01*
X46314Y58929D01*
X46158Y59019D01*
X45985Y59065D01*
X45806D01*
X45633Y59019D01*
X45477Y58929D01*
X45351Y58802D01*
X45336Y58776D01*
X45192Y58781D01*
X45135Y58880D01*
X45008Y59007D01*
X44852Y59096D01*
X44679Y59143D01*
D02*
G37*
G36*
X14640Y58981D02*
X14460D01*
X14287Y58935D01*
X14132Y58845D01*
X14005Y58718D01*
X13915Y58563D01*
X13869Y58390D01*
Y58210D01*
X13915Y58037D01*
X14005Y57882D01*
X14132Y57755D01*
X14287Y57665D01*
X14460Y57619D01*
X14640D01*
X14813Y57665D01*
X14968Y57755D01*
X15095Y57882D01*
X15185Y58037D01*
X15231Y58210D01*
Y58390D01*
X15185Y58563D01*
X15095Y58718D01*
X14968Y58845D01*
X14813Y58935D01*
X14640Y58981D01*
D02*
G37*
G36*
X78242Y58388D02*
X78062D01*
X77889Y58341D01*
X77734Y58252D01*
X77607Y58125D01*
X77517Y57970D01*
X77471Y57796D01*
Y57617D01*
X77517Y57444D01*
X77607Y57289D01*
X77734Y57162D01*
X77889Y57072D01*
X78062Y57026D01*
X78242D01*
X78415Y57072D01*
X78570Y57162D01*
X78697Y57289D01*
X78786Y57444D01*
X78833Y57617D01*
Y57796D01*
X78786Y57970D01*
X78697Y58125D01*
X78570Y58252D01*
X78415Y58341D01*
X78242Y58388D01*
D02*
G37*
G36*
X95440Y57592D02*
X95260D01*
X95087Y57546D01*
X94932Y57456D01*
X94805Y57329D01*
X94715Y57174D01*
X94672Y57012D01*
X94630Y56992D01*
X94542Y56971D01*
X94449Y57064D01*
X94294Y57154D01*
X94120Y57200D01*
X93941D01*
X93768Y57154D01*
X93613Y57064D01*
X93486Y56937D01*
X93396Y56782D01*
X93350Y56609D01*
Y56430D01*
X93396Y56256D01*
X93486Y56101D01*
X93613Y55974D01*
X93768Y55885D01*
X93941Y55838D01*
X94120D01*
X94294Y55885D01*
X94449Y55974D01*
X94576Y56101D01*
X94665Y56256D01*
X94709Y56419D01*
X94751Y56439D01*
X94839Y56459D01*
X94932Y56366D01*
X95087Y56277D01*
X95260Y56230D01*
X95440D01*
X95613Y56277D01*
X95768Y56366D01*
X95895Y56493D01*
X95985Y56648D01*
X96031Y56822D01*
Y57001D01*
X95985Y57174D01*
X95895Y57329D01*
X95768Y57456D01*
X95613Y57546D01*
X95440Y57592D01*
D02*
G37*
G36*
X42966Y58078D02*
X42786D01*
X42613Y58031D01*
X42458Y57942D01*
X42331Y57815D01*
X42242Y57660D01*
X42195Y57486D01*
Y57307D01*
X42242Y57134D01*
X42331Y56979D01*
X42458Y56852D01*
X42613Y56762D01*
X42786Y56716D01*
X42966D01*
X43139Y56762D01*
X43294Y56852D01*
X43421Y56979D01*
X43511Y57134D01*
X43557Y57307D01*
Y57486D01*
X43511Y57660D01*
X43421Y57815D01*
X43294Y57942D01*
X43139Y58031D01*
X42966Y58078D01*
D02*
G37*
G36*
X46285Y57170D02*
X46106D01*
X45932Y57123D01*
X45777Y57034D01*
X45650Y56907D01*
X45561Y56751D01*
X45514Y56578D01*
Y56399D01*
X45561Y56226D01*
X45650Y56070D01*
X45777Y55944D01*
X45932Y55854D01*
X46106Y55808D01*
X46285D01*
X46458Y55854D01*
X46613Y55944D01*
X46740Y56070D01*
X46830Y56226D01*
X46876Y56399D01*
Y56578D01*
X46830Y56751D01*
X46740Y56907D01*
X46613Y57034D01*
X46458Y57123D01*
X46285Y57170D01*
D02*
G37*
G36*
X82550Y57750D02*
X82371D01*
X82198Y57704D01*
X82043Y57614D01*
X81916Y57488D01*
X81826Y57332D01*
X81780Y57159D01*
Y56980D01*
X81826Y56807D01*
X81916Y56651D01*
X82043Y56525D01*
X82198Y56435D01*
X82318Y56403D01*
X82419Y56290D01*
Y56110D01*
X82465Y55937D01*
X82555Y55782D01*
X82682Y55655D01*
X82837Y55565D01*
X83010Y55519D01*
X83190D01*
X83363Y55565D01*
X83518Y55655D01*
X83645Y55782D01*
X83735Y55937D01*
X83781Y56110D01*
Y56290D01*
X83735Y56463D01*
X83645Y56618D01*
X83518Y56745D01*
X83363Y56835D01*
X83243Y56867D01*
X83142Y56980D01*
Y57159D01*
X83095Y57332D01*
X83006Y57488D01*
X82879Y57614D01*
X82724Y57704D01*
X82550Y57750D01*
D02*
G37*
G36*
X32829Y56815D02*
X32650D01*
X32477Y56769D01*
X32321Y56679D01*
X32195Y56552D01*
X32105Y56397D01*
X32059Y56224D01*
Y56044D01*
X32105Y55871D01*
X32195Y55716D01*
X32321Y55589D01*
X32477Y55499D01*
X32650Y55453D01*
X32829D01*
X33002Y55499D01*
X33158Y55589D01*
X33285Y55716D01*
X33374Y55871D01*
X33421Y56044D01*
Y56224D01*
X33374Y56397D01*
X33285Y56552D01*
X33158Y56679D01*
X33002Y56769D01*
X32829Y56815D01*
D02*
G37*
G36*
X49728Y56481D02*
X49549D01*
X49376Y56435D01*
X49221Y56345D01*
X49094Y56218D01*
X49004Y56063D01*
X48958Y55890D01*
Y55710D01*
X49004Y55537D01*
X49094Y55382D01*
X49221Y55255D01*
X49376Y55165D01*
X49549Y55119D01*
X49728D01*
X49902Y55165D01*
X50057Y55255D01*
X50184Y55382D01*
X50273Y55537D01*
X50320Y55710D01*
Y55890D01*
X50273Y56063D01*
X50184Y56218D01*
X50057Y56345D01*
X49902Y56435D01*
X49728Y56481D01*
D02*
G37*
G36*
X67990Y56131D02*
X67810D01*
X67637Y56085D01*
X67482Y55995D01*
X67355Y55868D01*
X67265Y55713D01*
X67219Y55540D01*
Y55360D01*
X67265Y55187D01*
X67355Y55032D01*
X67482Y54905D01*
X67637Y54815D01*
X67810Y54769D01*
X67990D01*
X68163Y54815D01*
X68318Y54905D01*
X68445Y55032D01*
X68535Y55187D01*
X68581Y55360D01*
Y55540D01*
X68535Y55713D01*
X68445Y55868D01*
X68318Y55995D01*
X68163Y56085D01*
X67990Y56131D01*
D02*
G37*
G36*
X42640Y55981D02*
X42460D01*
X42287Y55935D01*
X42132Y55845D01*
X42005Y55718D01*
X41915Y55563D01*
X41869Y55390D01*
Y55210D01*
X41915Y55037D01*
X42005Y54882D01*
X42132Y54755D01*
X42287Y54665D01*
X42460Y54619D01*
X42640D01*
X42813Y54665D01*
X42968Y54755D01*
X43095Y54882D01*
X43185Y55037D01*
X43231Y55210D01*
Y55390D01*
X43185Y55563D01*
X43095Y55718D01*
X42968Y55845D01*
X42813Y55935D01*
X42640Y55981D01*
D02*
G37*
G36*
X64940Y56631D02*
X64760D01*
X64587Y56585D01*
X64432Y56495D01*
X64305Y56368D01*
X64215Y56213D01*
X64169Y56040D01*
Y55860D01*
X64215Y55687D01*
X64305Y55532D01*
X64432Y55405D01*
X64580Y55319D01*
X64642Y55270D01*
X64665Y55213D01*
X64619Y55040D01*
Y54860D01*
X64665Y54687D01*
X64755Y54532D01*
X64882Y54405D01*
X65037Y54315D01*
X65210Y54269D01*
X65390D01*
X65563Y54315D01*
X65718Y54405D01*
X65845Y54532D01*
X65935Y54687D01*
X65981Y54860D01*
Y55040D01*
X65935Y55213D01*
X65845Y55368D01*
X65718Y55495D01*
X65570Y55581D01*
X65508Y55630D01*
X65485Y55687D01*
X65531Y55860D01*
Y56040D01*
X65485Y56213D01*
X65395Y56368D01*
X65268Y56495D01*
X65113Y56585D01*
X64940Y56631D01*
D02*
G37*
G36*
X73409Y57520D02*
X73229D01*
X73056Y57473D01*
X72901Y57384D01*
X72774Y57257D01*
X72684Y57102D01*
X72638Y56928D01*
Y56749D01*
X72684Y56576D01*
X72774Y56421D01*
X72901Y56294D01*
X73056Y56204D01*
X73172Y56173D01*
X73180Y56166D01*
X73230Y56053D01*
X73231Y56031D01*
X73176Y55936D01*
X73129Y55763D01*
Y55583D01*
X73140Y55544D01*
X73031Y55481D01*
X72904Y55354D01*
X72815Y55199D01*
X72768Y55025D01*
Y54846D01*
X72815Y54673D01*
X72904Y54518D01*
X73031Y54391D01*
X73186Y54301D01*
X73359Y54255D01*
X73539D01*
X73712Y54301D01*
X73867Y54391D01*
X73994Y54518D01*
X74084Y54673D01*
X74130Y54846D01*
Y55025D01*
X74119Y55065D01*
X74229Y55128D01*
X74355Y55255D01*
X74445Y55410D01*
X74491Y55583D01*
Y55763D01*
X74445Y55936D01*
X74355Y56091D01*
X74229Y56218D01*
X74073Y56308D01*
X73957Y56339D01*
X73949Y56345D01*
X73899Y56459D01*
X73899Y56481D01*
X73953Y56576D01*
X74000Y56749D01*
Y56928D01*
X73953Y57102D01*
X73864Y57257D01*
X73737Y57384D01*
X73582Y57473D01*
X73409Y57520D01*
D02*
G37*
G36*
X63840Y55081D02*
X63660D01*
X63487Y55035D01*
X63332Y54945D01*
X63205Y54818D01*
X63115Y54663D01*
X63069Y54490D01*
Y54310D01*
X63115Y54137D01*
X63205Y53982D01*
X63332Y53855D01*
X63487Y53765D01*
X63660Y53719D01*
X63840D01*
X64013Y53765D01*
X64168Y53855D01*
X64295Y53982D01*
X64385Y54137D01*
X64431Y54310D01*
Y54490D01*
X64385Y54663D01*
X64295Y54818D01*
X64168Y54945D01*
X64013Y55035D01*
X63840Y55081D01*
D02*
G37*
G36*
X68310Y54527D02*
X68130D01*
X67957Y54481D01*
X67802Y54391D01*
X67675Y54264D01*
X67585Y54109D01*
X67539Y53936D01*
Y53757D01*
X67585Y53583D01*
X67675Y53428D01*
X67802Y53301D01*
X67957Y53212D01*
X68130Y53165D01*
X68310D01*
X68483Y53212D01*
X68638Y53301D01*
X68765Y53428D01*
X68855Y53583D01*
X68901Y53757D01*
Y53936D01*
X68855Y54109D01*
X68765Y54264D01*
X68638Y54391D01*
X68483Y54481D01*
X68310Y54527D01*
D02*
G37*
G36*
X52990Y54481D02*
X52810D01*
X52637Y54435D01*
X52482Y54345D01*
X52355Y54218D01*
X52265Y54063D01*
X52219Y53890D01*
Y53710D01*
X52265Y53537D01*
X52355Y53382D01*
X52482Y53255D01*
X52637Y53165D01*
X52810Y53119D01*
X52990D01*
X53163Y53165D01*
X53318Y53255D01*
X53445Y53382D01*
X53535Y53537D01*
X53581Y53710D01*
Y53890D01*
X53535Y54063D01*
X53445Y54218D01*
X53318Y54345D01*
X53163Y54435D01*
X52990Y54481D01*
D02*
G37*
G36*
X57390Y54431D02*
X57210D01*
X57037Y54385D01*
X56882Y54295D01*
X56755Y54168D01*
X56665Y54013D01*
X56619Y53840D01*
Y53660D01*
X56665Y53487D01*
X56755Y53332D01*
X56882Y53205D01*
X57037Y53115D01*
X57210Y53069D01*
X57390D01*
X57563Y53115D01*
X57718Y53205D01*
X57845Y53332D01*
X57935Y53487D01*
X57981Y53660D01*
Y53840D01*
X57935Y54013D01*
X57845Y54168D01*
X57718Y54295D01*
X57563Y54385D01*
X57390Y54431D01*
D02*
G37*
G36*
X74640Y54281D02*
X74460D01*
X74287Y54234D01*
X74132Y54145D01*
X74005Y54018D01*
X73915Y53863D01*
X73869Y53690D01*
Y53510D01*
X73915Y53337D01*
X74005Y53182D01*
X74132Y53055D01*
X74287Y52965D01*
X74460Y52919D01*
X74640D01*
X74813Y52965D01*
X74968Y53055D01*
X75095Y53182D01*
X75184Y53337D01*
X75231Y53510D01*
Y53690D01*
X75184Y53863D01*
X75095Y54018D01*
X74968Y54145D01*
X74813Y54234D01*
X74640Y54281D01*
D02*
G37*
G36*
X47590Y54019D02*
X47410D01*
X47237Y53973D01*
X47082Y53883D01*
X46955Y53756D01*
X46865Y53601D01*
X46819Y53428D01*
Y53248D01*
X46865Y53075D01*
X46955Y52920D01*
X47082Y52793D01*
X47237Y52703D01*
X47410Y52657D01*
X47590D01*
X47763Y52703D01*
X47918Y52793D01*
X48045Y52920D01*
X48135Y53075D01*
X48181Y53248D01*
Y53428D01*
X48135Y53601D01*
X48045Y53756D01*
X47918Y53883D01*
X47763Y53973D01*
X47590Y54019D01*
D02*
G37*
G36*
X70259Y52968D02*
X70080D01*
X69907Y52922D01*
X69752Y52832D01*
X69625Y52705D01*
X69549Y52574D01*
X69468Y52522D01*
X69419Y52502D01*
X69363Y52535D01*
X69190Y52581D01*
X69010D01*
X68837Y52535D01*
X68682Y52445D01*
X68555Y52318D01*
X68465Y52163D01*
X68419Y51990D01*
Y51810D01*
X68465Y51637D01*
X68555Y51482D01*
X68682Y51355D01*
X68837Y51265D01*
X69010Y51219D01*
X69190D01*
X69363Y51265D01*
X69518Y51355D01*
X69645Y51482D01*
X69721Y51613D01*
X69802Y51665D01*
X69851Y51685D01*
X69907Y51653D01*
X70080Y51606D01*
X70259D01*
X70433Y51653D01*
X70588Y51742D01*
X70715Y51869D01*
X70804Y52024D01*
X70851Y52198D01*
Y52377D01*
X70804Y52550D01*
X70715Y52705D01*
X70588Y52832D01*
X70433Y52922D01*
X70259Y52968D01*
D02*
G37*
G36*
X45640Y53581D02*
X45460D01*
X45287Y53535D01*
X45132Y53445D01*
X45005Y53318D01*
X44915Y53163D01*
X44869Y52990D01*
Y52810D01*
X44915Y52637D01*
X45005Y52482D01*
X45132Y52355D01*
X45287Y52265D01*
X45460Y52219D01*
X45640D01*
X45813Y52265D01*
X45968Y52355D01*
X46095Y52482D01*
X46185Y52637D01*
X46231Y52810D01*
Y52990D01*
X46185Y53163D01*
X46095Y53318D01*
X45968Y53445D01*
X45813Y53535D01*
X45640Y53581D01*
D02*
G37*
G36*
X-2349Y55031D02*
X-2651D01*
X-2947Y54972D01*
X-3225Y54857D01*
X-3476Y54689D01*
X-3689Y54476D01*
X-3857Y54225D01*
X-3972Y53946D01*
X-4031Y53651D01*
Y53349D01*
X-3972Y53053D01*
X-3857Y52775D01*
X-3689Y52524D01*
X-3476Y52311D01*
X-3225Y52143D01*
X-2947Y52028D01*
X-2651Y51969D01*
X-2349D01*
X-2054Y52028D01*
X-1775Y52143D01*
X-1524Y52311D01*
X-1311Y52524D01*
X-1143Y52775D01*
X-1028Y53053D01*
X-969Y53349D01*
Y53651D01*
X-1028Y53946D01*
X-1143Y54225D01*
X-1311Y54476D01*
X-1524Y54689D01*
X-1775Y54857D01*
X-2054Y54972D01*
X-2349Y55031D01*
D02*
G37*
G36*
X119551Y55031D02*
X119249D01*
X118953Y54972D01*
X118675Y54857D01*
X118424Y54689D01*
X118211Y54476D01*
X118043Y54225D01*
X117928Y53946D01*
X117869Y53651D01*
Y53349D01*
X117928Y53053D01*
X118043Y52775D01*
X118211Y52524D01*
X118424Y52311D01*
X118675Y52143D01*
X118953Y52028D01*
X119249Y51969D01*
X119551D01*
X119846Y52028D01*
X120125Y52143D01*
X120376Y52311D01*
X120589Y52524D01*
X120757Y52775D01*
X120872Y53053D01*
X120931Y53349D01*
Y53651D01*
X120872Y53946D01*
X120757Y54225D01*
X120589Y54476D01*
X120376Y54689D01*
X120125Y54857D01*
X119846Y54972D01*
X119551Y55031D01*
D02*
G37*
G36*
X66740Y53131D02*
X66560D01*
X66387Y53085D01*
X66232Y52995D01*
X66105Y52868D01*
X66015Y52713D01*
X65969Y52540D01*
Y52360D01*
X66015Y52187D01*
X66105Y52032D01*
X66232Y51905D01*
X66387Y51815D01*
X66560Y51769D01*
X66740D01*
X66913Y51815D01*
X67068Y51905D01*
X67195Y52032D01*
X67285Y52187D01*
X67331Y52360D01*
Y52540D01*
X67285Y52713D01*
X67195Y52868D01*
X67068Y52995D01*
X66913Y53085D01*
X66740Y53131D01*
D02*
G37*
G36*
X50440Y52131D02*
X50260D01*
X50087Y52085D01*
X49932Y51995D01*
X49805Y51868D01*
X49715Y51713D01*
X49669Y51540D01*
Y51360D01*
X49715Y51187D01*
X49805Y51032D01*
X49932Y50905D01*
X50087Y50815D01*
X50260Y50769D01*
X50440D01*
X50613Y50815D01*
X50768Y50905D01*
X50895Y51032D01*
X50985Y51187D01*
X51031Y51360D01*
Y51540D01*
X50985Y51713D01*
X50895Y51868D01*
X50768Y51995D01*
X50613Y52085D01*
X50440Y52131D01*
D02*
G37*
G36*
X69740Y50831D02*
X69560D01*
X69387Y50785D01*
X69232Y50695D01*
X69105Y50568D01*
X69015Y50413D01*
X68969Y50240D01*
Y50060D01*
X69015Y49887D01*
X69105Y49732D01*
X69232Y49605D01*
X69387Y49515D01*
X69560Y49469D01*
X69740D01*
X69913Y49515D01*
X70068Y49605D01*
X70195Y49732D01*
X70285Y49887D01*
X70331Y50060D01*
Y50240D01*
X70285Y50413D01*
X70195Y50568D01*
X70068Y50695D01*
X69913Y50785D01*
X69740Y50831D01*
D02*
G37*
%LPD*%
D16*
X30999Y67170D02*
X31022Y67193D01*
X31097D01*
X66753Y70937D02*
X66778D01*
X73000Y63250D02*
Y63310D01*
X92733Y65500D02*
X92835Y65399D01*
D71*
X46650Y71910D02*
D03*
X62230Y73000D02*
D03*
D72*
X81750Y60750D02*
D03*
D76*
X109028Y63485D02*
D03*
Y62215D02*
D03*
X110425Y63485D02*
D03*
Y62215D02*
D03*
X111949Y63485D02*
D03*
Y62342D02*
D03*
X10397Y62515D02*
D03*
Y63785D02*
D03*
X9000Y62515D02*
D03*
Y63785D02*
D03*
X7476Y62515D02*
D03*
Y63658D02*
D03*
D79*
X40850Y55550D02*
D03*
X41350Y52532D02*
D03*
X74037Y67350D02*
D03*
X53100Y75700D02*
D03*
X51250Y70850D02*
D03*
X42400Y61050D02*
D03*
X65850Y50450D02*
D03*
X63800Y50600D02*
D03*
X67963Y61783D02*
D03*
X70350Y59361D02*
D03*
X45715Y50650D02*
D03*
X79387Y61814D02*
D03*
X77250Y62200D02*
D03*
X70444Y55430D02*
D03*
X44694Y60752D02*
D03*
X74450Y52400D02*
D03*
X31097Y67193D02*
D03*
X52903Y69073D02*
D03*
X66778Y70937D02*
D03*
X114550Y68022D02*
D03*
X106300Y58100D02*
D03*
X70150Y75400D02*
D03*
X74450Y69750D02*
D03*
X73000Y63310D02*
D03*
X44950Y55237D02*
D03*
X45888Y51963D02*
D03*
X27500Y59450D02*
D03*
X33350Y59050D02*
D03*
X3950Y56550D02*
D03*
X1700Y66450D02*
D03*
X2850Y64000D02*
D03*
X15100Y67250D02*
D03*
X43700Y55550D02*
D03*
X92733Y65500D02*
D03*
X61950Y50450D02*
D03*
X48013Y66723D02*
D03*
X67600Y58400D02*
D03*
X81732Y67185D02*
D03*
M02*
