G04*
G04 #@! TF.GenerationSoftware,Altium Limited,Altium Designer,21.3.2 (30)*
G04*
G04 Layer_Physical_Order=3*
G04 Layer_Color=16440176*
%FSLAX43Y43*%
%MOMM*%
G71*
G04*
G04 #@! TF.SameCoordinates,6B99F035-4501-4E24-B99D-2801729016C6*
G04*
G04*
G04 #@! TF.FilePolarity,Positive*
G04*
G01*
G75*
%ADD16C,0.203*%
%ADD66C,0.254*%
%ADD69C,1.500*%
%ADD76R,1.500X1.500*%
%ADD77C,0.600*%
G36*
X59500Y97900D02*
X60170D01*
X60556Y97513D01*
X60697D01*
X61252Y96959D01*
Y96543D01*
X61450Y96345D01*
Y83600D01*
X61507Y83542D01*
Y82623D01*
X61955Y82175D01*
Y81852D01*
X62702Y81105D01*
X63024D01*
X63472Y80657D01*
X64392D01*
X64450Y80600D01*
X67242D01*
X67446Y80396D01*
X68680D01*
X69279Y79798D01*
X69989D01*
X70948Y78839D01*
X71092D01*
X72211Y77720D01*
Y77290D01*
X72995Y76506D01*
Y75527D01*
X73399Y75123D01*
Y73651D01*
X73450Y73600D01*
X73400Y73550D01*
Y72522D01*
X73678Y72244D01*
Y71610D01*
X74328Y70960D01*
Y70878D01*
X74410D01*
X74818Y70470D01*
X74740Y70369D01*
X74713Y70385D01*
X74540Y70431D01*
X74360D01*
X74187Y70385D01*
X74032Y70295D01*
X73905Y70168D01*
X73815Y70013D01*
X73769Y69840D01*
Y69660D01*
X73815Y69487D01*
X73905Y69332D01*
X74032Y69205D01*
X74187Y69115D01*
X74360Y69069D01*
X74540D01*
X74713Y69115D01*
X74868Y69205D01*
X74995Y69332D01*
X75085Y69487D01*
X75131Y69660D01*
Y69840D01*
X75085Y70013D01*
X75025Y70116D01*
X75107Y70228D01*
X75694D01*
X75922Y70000D01*
X115150D01*
Y72112D01*
X115358Y72320D01*
Y73174D01*
X115962Y73778D01*
Y74072D01*
X116828Y74938D01*
X117122D01*
X117725Y75542D01*
X118579D01*
X118787Y75750D01*
X120012D01*
X120220Y75542D01*
X121074D01*
X121678Y74938D01*
X121972D01*
X122838Y74072D01*
Y73778D01*
X123442Y73174D01*
Y72320D01*
X123650Y72112D01*
Y53500D01*
X123597Y53447D01*
Y52342D01*
X123187Y51931D01*
Y51350D01*
X122405Y50569D01*
Y50495D01*
X122345D01*
X121563Y49713D01*
X120968D01*
X120557Y49302D01*
X119452D01*
X119400Y49250D01*
X119348Y49302D01*
X118242D01*
X117831Y49713D01*
X117250D01*
X116468Y50495D01*
X116395D01*
Y50569D01*
X115613Y51350D01*
Y51931D01*
X115202Y52342D01*
Y53447D01*
X115150Y53500D01*
Y55000D01*
X81450D01*
X81392Y54942D01*
X80473D01*
X80024Y54494D01*
X79702D01*
X78955Y53748D01*
Y53425D01*
X78507Y52977D01*
Y52307D01*
X78450Y52250D01*
Y51722D01*
X78221Y51494D01*
Y50860D01*
X77571Y50210D01*
Y50129D01*
X77490D01*
X76839Y49478D01*
X76206D01*
X75977Y49250D01*
X59325D01*
X59280Y49377D01*
X59505Y49602D01*
X59687Y49917D01*
X59744Y50130D01*
X59813Y50152D01*
X59882Y50155D01*
X59994Y50043D01*
X60150Y49953D01*
X60323Y49907D01*
X60502D01*
X60675Y49953D01*
X60831Y50043D01*
X60957Y50169D01*
X61047Y50325D01*
X61064Y50389D01*
X61201D01*
X61290Y50281D01*
X61315Y50187D01*
X61405Y50032D01*
X61532Y49905D01*
X61687Y49815D01*
X61860Y49769D01*
X62040D01*
X62213Y49815D01*
X62368Y49905D01*
X62495Y50032D01*
X62585Y50187D01*
X62631Y50360D01*
Y50540D01*
X62585Y50713D01*
X62495Y50868D01*
X62368Y50995D01*
X62213Y51085D01*
X62040Y51131D01*
X61860D01*
X61772Y51239D01*
X61746Y51333D01*
X61657Y51488D01*
X61530Y51615D01*
X61375Y51704D01*
X61201Y51751D01*
X61022D01*
X60849Y51704D01*
X60694Y51615D01*
X60567Y51488D01*
X60477Y51333D01*
X60460Y51269D01*
X60323D01*
X60150Y51222D01*
X59994Y51132D01*
X59868Y51006D01*
X59830Y50940D01*
X59694Y50958D01*
X59687Y50983D01*
X59505Y51298D01*
X59248Y51555D01*
X58933Y51737D01*
X58582Y51831D01*
X58218D01*
X57867Y51737D01*
X57552Y51555D01*
X57295Y51298D01*
X57113Y50983D01*
X57019Y50632D01*
Y50268D01*
X57113Y49917D01*
X57295Y49602D01*
X57520Y49377D01*
X57475Y49250D01*
X55340D01*
X55315Y49310D01*
X55297Y49377D01*
X55382Y49524D01*
X55428Y49697D01*
Y49821D01*
X55451Y49827D01*
X55606Y49917D01*
X55733Y50044D01*
X55823Y50199D01*
X55869Y50372D01*
Y50551D01*
X55823Y50725D01*
X55733Y50880D01*
X55606Y51007D01*
X55451Y51096D01*
X55278Y51143D01*
X55099D01*
X55044Y51260D01*
X55011Y51383D01*
X54921Y51538D01*
X54794Y51665D01*
X54639Y51755D01*
X54466Y51801D01*
X54286D01*
X54113Y51755D01*
X53958Y51665D01*
X53831Y51538D01*
X53742Y51383D01*
X53695Y51210D01*
Y51031D01*
X53742Y50857D01*
X53831Y50702D01*
X53958Y50575D01*
X54113Y50486D01*
X54270Y50444D01*
X54294Y50397D01*
X54310Y50312D01*
X54202Y50205D01*
X54113Y50049D01*
X54066Y49876D01*
Y49697D01*
X54113Y49524D01*
X54197Y49377D01*
X54180Y49310D01*
X54155Y49250D01*
X41450D01*
X41392Y49307D01*
X40472D01*
X40025Y49755D01*
X39702D01*
X38955Y50502D01*
Y50825D01*
X38507Y51273D01*
Y51928D01*
X38450Y51986D01*
Y52527D01*
X38221Y52756D01*
Y53389D01*
X37571Y54040D01*
Y54121D01*
X37490D01*
X36839Y54771D01*
X36206D01*
X35977Y55000D01*
X1750D01*
Y52887D01*
X1542Y52679D01*
Y51826D01*
X938Y51222D01*
Y50928D01*
X72Y50062D01*
X-222D01*
X-826Y49458D01*
X-1680D01*
X-1888Y49250D01*
X-3113D01*
X-3321Y49458D01*
X-4174D01*
X-4778Y50062D01*
X-5072D01*
X-5939Y50928D01*
Y51222D01*
X-6542Y51826D01*
Y52679D01*
X-6750Y52887D01*
Y71500D01*
X-6698Y71552D01*
Y72657D01*
X-6287Y73068D01*
Y73650D01*
X-5505Y74431D01*
Y74505D01*
X-5431D01*
X-4650Y75287D01*
X-4069D01*
X-3658Y75698D01*
X-2553D01*
X-2500Y75750D01*
X-2448Y75698D01*
X-1343D01*
X-932Y75287D01*
X-351D01*
X431Y74505D01*
X505D01*
Y74431D01*
X1287Y73650D01*
Y73068D01*
X1697Y72657D01*
Y71552D01*
X1750Y71500D01*
Y70000D01*
X40450D01*
X40507Y70058D01*
X41427D01*
X41875Y70505D01*
X42198D01*
X42944Y71252D01*
Y71574D01*
X43392Y72022D01*
Y72942D01*
X43450Y73000D01*
Y74393D01*
X43653Y74596D01*
Y75831D01*
X44252Y76429D01*
Y76853D01*
X44689Y77290D01*
Y77839D01*
X45689Y78839D01*
X45952D01*
X46911Y79798D01*
X47621D01*
X48219Y80396D01*
X49454D01*
X49657Y80600D01*
X52978D01*
X53206Y80828D01*
X53839D01*
X54490Y81479D01*
X54571D01*
Y81560D01*
X55222Y82210D01*
Y82844D01*
X55450Y83072D01*
Y95950D01*
X55500Y96000D01*
Y96700D01*
X55886Y97086D01*
Y97197D01*
X56441Y97752D01*
X56857D01*
X57055Y97950D01*
X59450D01*
X59500Y97900D01*
D02*
G37*
%LPC*%
G36*
X58596Y96431D02*
X58304D01*
X58018Y96374D01*
X57748Y96262D01*
X57506Y96100D01*
X57299Y95894D01*
X57137Y95651D01*
X57026Y95382D01*
X56969Y95096D01*
Y94804D01*
X57026Y94518D01*
X57137Y94248D01*
X57299Y94006D01*
X57506Y93799D01*
X57748Y93637D01*
X58018Y93526D01*
X58304Y93469D01*
X58596D01*
X58882Y93526D01*
X59151Y93637D01*
X59394Y93799D01*
X59600Y94006D01*
X59762Y94248D01*
X59874Y94518D01*
X59931Y94804D01*
Y95096D01*
X59874Y95382D01*
X59762Y95651D01*
X59600Y95894D01*
X59394Y96100D01*
X59151Y96262D01*
X58882Y96374D01*
X58596Y96431D01*
D02*
G37*
G36*
X62240Y77897D02*
X62060D01*
X61887Y77851D01*
X61732Y77761D01*
X61605Y77634D01*
X61515Y77479D01*
X61502Y77429D01*
X61408Y77337D01*
X61360Y77350D01*
X61235Y77383D01*
X61056D01*
X60882Y77337D01*
X60788Y77282D01*
X60643Y77331D01*
X60635Y77363D01*
X60545Y77518D01*
X60418Y77645D01*
X60263Y77735D01*
X60090Y77781D01*
X59910D01*
X59737Y77735D01*
X59582Y77645D01*
X59497Y77560D01*
X59352Y77564D01*
X59340Y77573D01*
X59218Y77695D01*
X59063Y77785D01*
X58890Y77831D01*
X58710D01*
X58537Y77785D01*
X58382Y77695D01*
X58255Y77568D01*
X58165Y77413D01*
X58119Y77240D01*
Y77060D01*
X58165Y76887D01*
X58255Y76732D01*
X58382Y76605D01*
X58537Y76515D01*
X58710Y76469D01*
X58890D01*
X59063Y76515D01*
X59218Y76605D01*
X59303Y76690D01*
X59448Y76686D01*
X59460Y76677D01*
X59582Y76555D01*
X59737Y76465D01*
X59910Y76419D01*
X60090D01*
X60263Y76465D01*
X60358Y76520D01*
X60502Y76472D01*
X60511Y76440D01*
X60600Y76284D01*
X60727Y76157D01*
X60882Y76068D01*
X61056Y76021D01*
X61235D01*
X61408Y76068D01*
X61563Y76157D01*
X61690Y76284D01*
X61780Y76440D01*
X61793Y76489D01*
X61887Y76581D01*
X61935Y76569D01*
X62060Y76535D01*
X62240D01*
X62413Y76581D01*
X62568Y76671D01*
X62695Y76798D01*
X62785Y76953D01*
X62831Y77126D01*
Y77306D01*
X62785Y77479D01*
X62695Y77634D01*
X62568Y77761D01*
X62413Y77851D01*
X62240Y77897D01*
D02*
G37*
G36*
X46904Y77961D02*
Y77244D01*
X47621D01*
X47586Y77378D01*
X47453Y77606D01*
X47266Y77793D01*
X47038Y77926D01*
X46904Y77961D01*
D02*
G37*
G36*
X46396Y77961D02*
X46262Y77926D01*
X46034Y77793D01*
X45847Y77606D01*
X45714Y77378D01*
X45679Y77244D01*
X46396D01*
Y77961D01*
D02*
G37*
G36*
X56890Y77481D02*
X56710D01*
X56537Y77435D01*
X56382Y77345D01*
X56255Y77218D01*
X56165Y77063D01*
X56119Y76890D01*
Y76710D01*
X56165Y76537D01*
X56255Y76382D01*
X56382Y76255D01*
X56537Y76165D01*
X56710Y76119D01*
X56890D01*
X57063Y76165D01*
X57218Y76255D01*
X57345Y76382D01*
X57435Y76537D01*
X57481Y76710D01*
Y76890D01*
X57435Y77063D01*
X57345Y77218D01*
X57218Y77345D01*
X57063Y77435D01*
X56890Y77481D01*
D02*
G37*
G36*
X47621Y76736D02*
X46904D01*
Y76019D01*
X47038Y76054D01*
X47266Y76187D01*
X47453Y76374D01*
X47586Y76602D01*
X47621Y76736D01*
D02*
G37*
G36*
X46396D02*
X45679D01*
X45714Y76602D01*
X45847Y76374D01*
X46034Y76187D01*
X46262Y76054D01*
X46396Y76019D01*
Y76736D01*
D02*
G37*
G36*
X53190Y76381D02*
X53010D01*
X52837Y76335D01*
X52682Y76245D01*
X52555Y76118D01*
X52465Y75963D01*
X52419Y75790D01*
Y75610D01*
X52465Y75437D01*
X52555Y75282D01*
X52682Y75155D01*
X52837Y75065D01*
X53010Y75019D01*
X53190D01*
X53363Y75065D01*
X53518Y75155D01*
X53645Y75282D01*
X53735Y75437D01*
X53781Y75610D01*
Y75790D01*
X53735Y75963D01*
X53645Y76118D01*
X53518Y76245D01*
X53363Y76335D01*
X53190Y76381D01*
D02*
G37*
G36*
X70240Y76081D02*
X70060D01*
X69887Y76035D01*
X69732Y75945D01*
X69605Y75818D01*
X69515Y75663D01*
X69469Y75490D01*
Y75310D01*
X69515Y75137D01*
X69605Y74982D01*
X69732Y74855D01*
X69887Y74765D01*
X70060Y74719D01*
X70240D01*
X70413Y74765D01*
X70568Y74855D01*
X70695Y74982D01*
X70785Y75137D01*
X70831Y75310D01*
Y75490D01*
X70785Y75663D01*
X70695Y75818D01*
X70568Y75945D01*
X70413Y76035D01*
X70240Y76081D01*
D02*
G37*
G36*
X46799Y75581D02*
X46501D01*
X46213Y75504D01*
X45956Y75355D01*
X45745Y75144D01*
X45596Y74887D01*
X45519Y74599D01*
Y74301D01*
X45596Y74013D01*
X45745Y73756D01*
X45956Y73545D01*
X46213Y73396D01*
X46501Y73319D01*
X46799D01*
X47087Y73396D01*
X47344Y73545D01*
X47555Y73756D01*
X47704Y74013D01*
X47781Y74301D01*
Y74599D01*
X47704Y74887D01*
X47555Y75144D01*
X47344Y75355D01*
X47087Y75504D01*
X46799Y75581D01*
D02*
G37*
G36*
X65774Y74004D02*
X65024D01*
Y73254D01*
X65774D01*
Y74004D01*
D02*
G37*
G36*
X64516D02*
X63766D01*
Y73254D01*
X64516D01*
Y74004D01*
D02*
G37*
G36*
X65774Y72746D02*
X65024D01*
Y71996D01*
X65774D01*
Y72746D01*
D02*
G37*
G36*
X64516D02*
X63766D01*
Y71996D01*
X64516D01*
Y72746D01*
D02*
G37*
G36*
X59839Y74131D02*
X59541D01*
X59253Y74054D01*
X58996Y73905D01*
X58785Y73694D01*
X58636Y73437D01*
X58559Y73149D01*
Y72851D01*
X58636Y72563D01*
X58785Y72306D01*
X58996Y72095D01*
X59253Y71946D01*
X59541Y71869D01*
X59839D01*
X60127Y71946D01*
X60384Y72095D01*
X60595Y72306D01*
X60744Y72563D01*
X60821Y72851D01*
Y73149D01*
X60744Y73437D01*
X60595Y73694D01*
X60384Y73905D01*
X60127Y74054D01*
X59839Y74131D01*
D02*
G37*
G36*
X54759D02*
X54461D01*
X54173Y74054D01*
X53916Y73905D01*
X53705Y73694D01*
X53556Y73437D01*
X53479Y73149D01*
Y72851D01*
X53556Y72563D01*
X53705Y72306D01*
X53916Y72095D01*
X54173Y71946D01*
X54461Y71869D01*
X54759D01*
X55047Y71946D01*
X55304Y72095D01*
X55515Y72306D01*
X55664Y72563D01*
X55741Y72851D01*
Y73149D01*
X55664Y73437D01*
X55515Y73694D01*
X55304Y73905D01*
X55047Y74054D01*
X54759Y74131D01*
D02*
G37*
G36*
X52219D02*
X51921D01*
X51633Y74054D01*
X51376Y73905D01*
X51165Y73694D01*
X51016Y73437D01*
X50939Y73149D01*
Y72851D01*
X51016Y72563D01*
X51165Y72306D01*
X51376Y72095D01*
X51633Y71946D01*
X51921Y71869D01*
X52219D01*
X52507Y71946D01*
X52764Y72095D01*
X52975Y72306D01*
X53124Y72563D01*
X53201Y72851D01*
Y73149D01*
X53124Y73437D01*
X52975Y73694D01*
X52764Y73905D01*
X52507Y74054D01*
X52219Y74131D01*
D02*
G37*
G36*
X62379D02*
X62081D01*
X61793Y74054D01*
X61536Y73905D01*
X61325Y73694D01*
X61176Y73437D01*
X61099Y73149D01*
Y72851D01*
X61176Y72563D01*
X61325Y72306D01*
X61536Y72095D01*
X61793Y71946D01*
X61862Y71928D01*
X61863Y71927D01*
X61887Y71789D01*
X61886Y71789D01*
X61736Y71829D01*
X61557D01*
X61384Y71783D01*
X61229Y71693D01*
X61102Y71566D01*
X61012Y71411D01*
X60966Y71238D01*
Y71058D01*
X61012Y70885D01*
X61102Y70730D01*
X61229Y70603D01*
X61384Y70513D01*
X61557Y70467D01*
X61736D01*
X61910Y70513D01*
X62065Y70603D01*
X62192Y70730D01*
X62242Y70816D01*
X62347Y70755D01*
X62521Y70709D01*
X62700D01*
X62873Y70755D01*
X63028Y70845D01*
X63155Y70972D01*
X63245Y71127D01*
X63291Y71300D01*
Y71479D01*
X63245Y71653D01*
X63155Y71808D01*
X63028Y71935D01*
X62965Y71972D01*
X62952Y72010D01*
X62954Y72124D01*
X63135Y72306D01*
X63284Y72563D01*
X63361Y72851D01*
Y73149D01*
X63284Y73437D01*
X63135Y73694D01*
X62924Y73905D01*
X62667Y74054D01*
X62379Y74131D01*
D02*
G37*
G36*
X57299D02*
X57001D01*
X56713Y74054D01*
X56456Y73905D01*
X56245Y73694D01*
X56096Y73437D01*
X56019Y73149D01*
Y72851D01*
X56096Y72563D01*
X56214Y72360D01*
X56217Y72342D01*
X56188Y72220D01*
X56173Y72198D01*
X56082Y72145D01*
X55955Y72018D01*
X55865Y71863D01*
X55819Y71690D01*
Y71510D01*
X55865Y71337D01*
X55955Y71182D01*
X56082Y71055D01*
X56237Y70965D01*
X56410Y70919D01*
X56590D01*
X56763Y70965D01*
X56918Y71055D01*
X57045Y71182D01*
X57135Y71337D01*
X57181Y71510D01*
Y71690D01*
X57167Y71742D01*
X57264Y71869D01*
X57299D01*
X57587Y71946D01*
X57844Y72095D01*
X58055Y72306D01*
X58204Y72563D01*
X58281Y72851D01*
Y73149D01*
X58204Y73437D01*
X58055Y73694D01*
X57844Y73905D01*
X57587Y74054D01*
X57299Y74131D01*
D02*
G37*
G36*
X46799Y73041D02*
X46501D01*
X46213Y72964D01*
X45956Y72815D01*
X45745Y72604D01*
X45596Y72347D01*
X45519Y72059D01*
Y71761D01*
X45596Y71473D01*
X45745Y71216D01*
X45956Y71005D01*
X46213Y70856D01*
X46501Y70779D01*
X46799D01*
X47087Y70856D01*
X47344Y71005D01*
X47555Y71216D01*
X47704Y71473D01*
X47781Y71761D01*
Y72059D01*
X47704Y72347D01*
X47555Y72604D01*
X47344Y72815D01*
X47087Y72964D01*
X46799Y73041D01*
D02*
G37*
G36*
X66868Y71618D02*
X66688D01*
X66515Y71572D01*
X66360Y71482D01*
X66233Y71356D01*
X66143Y71200D01*
X66097Y71027D01*
Y70848D01*
X66143Y70675D01*
X66233Y70519D01*
X66360Y70392D01*
X66515Y70303D01*
X66688Y70256D01*
X66868D01*
X67041Y70303D01*
X67196Y70392D01*
X67323Y70519D01*
X67413Y70675D01*
X67459Y70848D01*
Y71027D01*
X67413Y71200D01*
X67323Y71356D01*
X67196Y71482D01*
X67041Y71572D01*
X66868Y71618D01*
D02*
G37*
G36*
X51340Y71531D02*
X51160D01*
X50987Y71485D01*
X50832Y71395D01*
X50705Y71268D01*
X50615Y71113D01*
X50569Y70940D01*
Y70760D01*
X50615Y70587D01*
X50705Y70432D01*
X50832Y70305D01*
X50987Y70215D01*
X51160Y70169D01*
X51340D01*
X51513Y70215D01*
X51668Y70305D01*
X51795Y70432D01*
X51885Y70587D01*
X51931Y70760D01*
Y70940D01*
X51885Y71113D01*
X51795Y71268D01*
X51668Y71395D01*
X51513Y71485D01*
X51340Y71531D01*
D02*
G37*
G36*
X-2349Y73031D02*
X-2651D01*
X-2947Y72972D01*
X-3225Y72857D01*
X-3476Y72689D01*
X-3689Y72476D01*
X-3857Y72225D01*
X-3972Y71946D01*
X-4031Y71651D01*
Y71349D01*
X-3972Y71053D01*
X-3857Y70775D01*
X-3689Y70524D01*
X-3476Y70311D01*
X-3225Y70143D01*
X-2947Y70028D01*
X-2651Y69969D01*
X-2349D01*
X-2054Y70028D01*
X-1775Y70143D01*
X-1524Y70311D01*
X-1311Y70524D01*
X-1143Y70775D01*
X-1028Y71053D01*
X-969Y71349D01*
Y71651D01*
X-1028Y71946D01*
X-1143Y72225D01*
X-1311Y72476D01*
X-1524Y72689D01*
X-1775Y72857D01*
X-2054Y72972D01*
X-2349Y73031D01*
D02*
G37*
G36*
X119551Y73031D02*
X119249D01*
X118953Y72972D01*
X118675Y72857D01*
X118424Y72689D01*
X118211Y72476D01*
X118043Y72225D01*
X117928Y71946D01*
X117869Y71651D01*
Y71349D01*
X117928Y71053D01*
X118043Y70775D01*
X118211Y70524D01*
X118424Y70311D01*
X118675Y70143D01*
X118953Y70028D01*
X119249Y69969D01*
X119551D01*
X119846Y70028D01*
X120125Y70143D01*
X120376Y70311D01*
X120589Y70524D01*
X120757Y70775D01*
X120872Y71053D01*
X120931Y71349D01*
Y71651D01*
X120872Y71946D01*
X120757Y72225D01*
X120589Y72476D01*
X120376Y72689D01*
X120125Y72857D01*
X119846Y72972D01*
X119551Y73031D01*
D02*
G37*
G36*
X54290Y71432D02*
X54110D01*
X53937Y71385D01*
X53782Y71296D01*
X53655Y71169D01*
X53565Y71014D01*
X53519Y70840D01*
Y70661D01*
X53565Y70488D01*
X53655Y70333D01*
X53782Y70206D01*
X53811Y70189D01*
X53767Y70113D01*
X53720Y69940D01*
Y69760D01*
X53767Y69587D01*
X53856Y69432D01*
X53983Y69305D01*
X54138Y69215D01*
X54312Y69169D01*
X54491D01*
X54664Y69215D01*
X54819Y69305D01*
X54946Y69432D01*
X55036Y69587D01*
X55082Y69760D01*
Y69940D01*
X55036Y70113D01*
X54946Y70268D01*
X54819Y70395D01*
X54791Y70412D01*
X54835Y70488D01*
X54881Y70661D01*
Y70840D01*
X54835Y71014D01*
X54745Y71169D01*
X54618Y71296D01*
X54463Y71385D01*
X54290Y71432D01*
D02*
G37*
G36*
X58596Y71431D02*
X58304D01*
X58018Y71374D01*
X57748Y71262D01*
X57506Y71100D01*
X57299Y70894D01*
X57137Y70651D01*
X57026Y70382D01*
X56969Y70096D01*
Y69804D01*
X57026Y69518D01*
X57137Y69248D01*
X57299Y69006D01*
X57506Y68799D01*
X57748Y68637D01*
X58018Y68526D01*
X58304Y68469D01*
X58596D01*
X58882Y68526D01*
X59151Y68637D01*
X59394Y68799D01*
X59600Y69006D01*
X59762Y69248D01*
X59874Y69518D01*
X59931Y69804D01*
Y70096D01*
X59874Y70382D01*
X59762Y70651D01*
X59600Y70894D01*
X59394Y71100D01*
X59151Y71262D01*
X58882Y71374D01*
X58596Y71431D01*
D02*
G37*
G36*
X51540Y69981D02*
X51360D01*
X51187Y69935D01*
X51032Y69845D01*
X50905Y69718D01*
X50815Y69563D01*
X50769Y69390D01*
Y69210D01*
X50815Y69037D01*
X50905Y68882D01*
X51032Y68755D01*
X51187Y68665D01*
X51360Y68619D01*
X51540D01*
X51713Y68665D01*
X51868Y68755D01*
X51995Y68882D01*
X52085Y69037D01*
X52095Y69076D01*
X52222Y69059D01*
Y68983D01*
X52268Y68810D01*
X52358Y68655D01*
X52485Y68528D01*
X52640Y68438D01*
X52813Y68392D01*
X52993D01*
X53166Y68438D01*
X53321Y68528D01*
X53448Y68655D01*
X53538Y68810D01*
X53584Y68983D01*
Y69163D01*
X53538Y69336D01*
X53448Y69491D01*
X53321Y69618D01*
X53166Y69708D01*
X52993Y69754D01*
X52813D01*
X52640Y69708D01*
X52485Y69618D01*
X52358Y69491D01*
X52268Y69336D01*
X52258Y69297D01*
X52131Y69314D01*
Y69390D01*
X52085Y69563D01*
X51995Y69718D01*
X51868Y69845D01*
X51713Y69935D01*
X51540Y69981D01*
D02*
G37*
G36*
X47781Y70501D02*
X45519D01*
Y68239D01*
X47781D01*
Y70501D01*
D02*
G37*
G36*
X114640Y68703D02*
X114460D01*
X114287Y68656D01*
X114132Y68567D01*
X114005Y68440D01*
X113915Y68284D01*
X113869Y68111D01*
Y67932D01*
X113915Y67759D01*
X114005Y67603D01*
X114132Y67477D01*
X114287Y67387D01*
X114460Y67341D01*
X114640D01*
X114813Y67387D01*
X114968Y67477D01*
X115095Y67603D01*
X115185Y67759D01*
X115231Y67932D01*
Y68111D01*
X115185Y68284D01*
X115095Y68440D01*
X114968Y68567D01*
X114813Y68656D01*
X114640Y68703D01*
D02*
G37*
G36*
X70019Y68622D02*
X69840D01*
X69666Y68576D01*
X69511Y68486D01*
X69384Y68359D01*
X69295Y68204D01*
X69248Y68031D01*
Y67852D01*
X69295Y67678D01*
X69384Y67523D01*
X69511Y67396D01*
X69666Y67307D01*
X69840Y67260D01*
X70019D01*
X70192Y67307D01*
X70347Y67396D01*
X70474Y67523D01*
X70564Y67678D01*
X70610Y67852D01*
Y68031D01*
X70564Y68204D01*
X70474Y68359D01*
X70347Y68486D01*
X70192Y68576D01*
X70019Y68622D01*
D02*
G37*
G36*
X74127Y68031D02*
X73948D01*
X73775Y67985D01*
X73619Y67895D01*
X73492Y67768D01*
X73403Y67613D01*
X73356Y67440D01*
Y67260D01*
X73403Y67087D01*
X73492Y66932D01*
X73619Y66805D01*
X73775Y66715D01*
X73948Y66669D01*
X74127D01*
X74300Y66715D01*
X74456Y66805D01*
X74582Y66932D01*
X74672Y67087D01*
X74718Y67260D01*
Y67440D01*
X74672Y67613D01*
X74582Y67768D01*
X74456Y67895D01*
X74300Y67985D01*
X74127Y68031D01*
D02*
G37*
G36*
X15190Y67931D02*
X15010D01*
X14837Y67885D01*
X14682Y67795D01*
X14555Y67668D01*
X14465Y67513D01*
X14419Y67340D01*
Y67160D01*
X14465Y66987D01*
X14555Y66832D01*
X14682Y66705D01*
X14837Y66615D01*
X15010Y66569D01*
X15190D01*
X15363Y66615D01*
X15518Y66705D01*
X15645Y66832D01*
X15735Y66987D01*
X15781Y67160D01*
Y67340D01*
X15735Y67513D01*
X15645Y67668D01*
X15518Y67795D01*
X15363Y67885D01*
X15190Y67931D01*
D02*
G37*
G36*
X31186Y67874D02*
X31007D01*
X30834Y67828D01*
X30679Y67738D01*
X30552Y67612D01*
X30462Y67456D01*
X30416Y67283D01*
Y67104D01*
X30462Y66931D01*
X30552Y66775D01*
X30679Y66649D01*
X30834Y66559D01*
X31007Y66512D01*
X31186D01*
X31360Y66559D01*
X31515Y66649D01*
X31642Y66775D01*
X31731Y66931D01*
X31778Y67104D01*
Y67283D01*
X31731Y67456D01*
X31642Y67612D01*
X31515Y67738D01*
X31360Y67828D01*
X31186Y67874D01*
D02*
G37*
G36*
X81822Y67866D02*
X81642D01*
X81469Y67819D01*
X81314Y67730D01*
X81187Y67603D01*
X81098Y67448D01*
X81051Y67274D01*
Y67095D01*
X81098Y66922D01*
X81187Y66767D01*
X81314Y66640D01*
X81469Y66550D01*
X81642Y66504D01*
X81822D01*
X81995Y66550D01*
X82150Y66640D01*
X82277Y66767D01*
X82367Y66922D01*
X82413Y67095D01*
Y67274D01*
X82367Y67448D01*
X82277Y67603D01*
X82150Y67730D01*
X81995Y67819D01*
X81822Y67866D01*
D02*
G37*
G36*
X9090Y67831D02*
X8910D01*
X8737Y67785D01*
X8582Y67695D01*
X8455Y67568D01*
X8365Y67413D01*
X8319Y67240D01*
Y67060D01*
X8365Y66887D01*
X8455Y66732D01*
X8582Y66605D01*
X8737Y66515D01*
X8910Y66469D01*
X9090D01*
X9263Y66515D01*
X9418Y66605D01*
X9545Y66732D01*
X9635Y66887D01*
X9681Y67060D01*
Y67240D01*
X9635Y67413D01*
X9545Y67568D01*
X9418Y67695D01*
X9263Y67785D01*
X9090Y67831D01*
D02*
G37*
G36*
X65534Y68536D02*
X65355D01*
X65182Y68490D01*
X65027Y68400D01*
X64900Y68273D01*
X64810Y68118D01*
X64764Y67945D01*
Y67766D01*
X64810Y67592D01*
X64900Y67437D01*
X65027Y67310D01*
X65060Y67291D01*
X65019Y67140D01*
Y66960D01*
X65065Y66787D01*
X65155Y66632D01*
X65282Y66505D01*
X65437Y66415D01*
X65610Y66369D01*
X65790D01*
X65963Y66415D01*
X66118Y66505D01*
X66245Y66632D01*
X66335Y66787D01*
X66381Y66960D01*
Y67140D01*
X66335Y67313D01*
X66245Y67468D01*
X66118Y67595D01*
X66085Y67614D01*
X66126Y67766D01*
Y67945D01*
X66079Y68118D01*
X65990Y68273D01*
X65863Y68400D01*
X65708Y68490D01*
X65534Y68536D01*
D02*
G37*
G36*
X48102Y67404D02*
X47923D01*
X47750Y67357D01*
X47594Y67268D01*
X47468Y67141D01*
X47378Y66986D01*
X47332Y66812D01*
Y66633D01*
X47378Y66460D01*
X47468Y66305D01*
X47594Y66178D01*
X47750Y66088D01*
X47923Y66042D01*
X48102D01*
X48275Y66088D01*
X48431Y66178D01*
X48558Y66305D01*
X48647Y66460D01*
X48694Y66633D01*
Y66812D01*
X48647Y66986D01*
X48558Y67141D01*
X48431Y67268D01*
X48275Y67357D01*
X48102Y67404D01*
D02*
G37*
G36*
X22710Y67244D02*
X22530D01*
X22357Y67198D01*
X22202Y67108D01*
X22075Y66981D01*
X21986Y66826D01*
X21939Y66653D01*
Y66473D01*
X21986Y66300D01*
X22075Y66145D01*
X22202Y66018D01*
X22357Y65928D01*
X22530Y65882D01*
X22710D01*
X22883Y65928D01*
X23038Y66018D01*
X23165Y66145D01*
X23255Y66300D01*
X23301Y66473D01*
Y66653D01*
X23255Y66826D01*
X23165Y66981D01*
X23038Y67108D01*
X22883Y67198D01*
X22710Y67244D01*
D02*
G37*
G36*
X13440Y67181D02*
X13260D01*
X13087Y67135D01*
X12932Y67045D01*
X12805Y66918D01*
X12715Y66763D01*
X12669Y66590D01*
Y66410D01*
X12715Y66237D01*
X12805Y66082D01*
X12932Y65955D01*
X13087Y65865D01*
X13260Y65819D01*
X13440D01*
X13613Y65865D01*
X13768Y65955D01*
X13895Y66082D01*
X13985Y66237D01*
X14031Y66410D01*
Y66590D01*
X13985Y66763D01*
X13895Y66918D01*
X13768Y67045D01*
X13613Y67135D01*
X13440Y67181D01*
D02*
G37*
G36*
X1790Y67131D02*
X1610D01*
X1437Y67085D01*
X1282Y66995D01*
X1155Y66868D01*
X1065Y66713D01*
X1019Y66540D01*
Y66360D01*
X1065Y66187D01*
X1155Y66032D01*
X1282Y65905D01*
X1437Y65815D01*
X1610Y65769D01*
X1790D01*
X1963Y65815D01*
X2118Y65905D01*
X2245Y66032D01*
X2335Y66187D01*
X2381Y66360D01*
Y66540D01*
X2335Y66713D01*
X2245Y66868D01*
X2118Y66995D01*
X1963Y67085D01*
X1790Y67131D01*
D02*
G37*
G36*
X115050Y66481D02*
X114870D01*
X114697Y66435D01*
X114542Y66345D01*
X114415Y66218D01*
X114325Y66063D01*
X114279Y65890D01*
Y65710D01*
X114325Y65537D01*
X114215Y65480D01*
X114193Y65517D01*
X114067Y65643D01*
X113911Y65733D01*
X113738Y65779D01*
X113559D01*
X113386Y65733D01*
X113230Y65643D01*
X113103Y65517D01*
X113014Y65361D01*
X112967Y65188D01*
Y65009D01*
X113014Y64836D01*
X113103Y64680D01*
X113230Y64553D01*
X113386Y64464D01*
X113559Y64417D01*
X113738D01*
X113911Y64464D01*
X114067Y64553D01*
X114193Y64680D01*
X114283Y64836D01*
X114329Y65009D01*
Y65188D01*
X114283Y65361D01*
X114394Y65419D01*
X114415Y65382D01*
X114542Y65255D01*
X114697Y65165D01*
X114870Y65119D01*
X115050D01*
X115223Y65165D01*
X115378Y65255D01*
X115505Y65382D01*
X115595Y65537D01*
X115641Y65710D01*
Y65890D01*
X115595Y66063D01*
X115505Y66218D01*
X115378Y66345D01*
X115223Y66435D01*
X115050Y66481D01*
D02*
G37*
G36*
X42499Y67731D02*
X42201D01*
X41913Y67654D01*
X41656Y67505D01*
X41445Y67294D01*
X41296Y67037D01*
X41219Y66749D01*
Y66451D01*
X41296Y66163D01*
X41445Y65906D01*
X41656Y65695D01*
X41913Y65546D01*
X42201Y65469D01*
X42499D01*
X42787Y65546D01*
X43044Y65695D01*
X43255Y65906D01*
X43404Y66163D01*
X43481Y66451D01*
Y66749D01*
X43404Y67037D01*
X43255Y67294D01*
X43044Y67505D01*
X42787Y67654D01*
X42499Y67731D01*
D02*
G37*
G36*
X39699D02*
X39401D01*
X39113Y67654D01*
X38856Y67505D01*
X38645Y67294D01*
X38496Y67037D01*
X38419Y66749D01*
Y66451D01*
X38496Y66163D01*
X38645Y65906D01*
X38856Y65695D01*
X39113Y65546D01*
X39401Y65469D01*
X39699D01*
X39987Y65546D01*
X40244Y65695D01*
X40455Y65906D01*
X40604Y66163D01*
X40681Y66451D01*
Y66749D01*
X40604Y67037D01*
X40455Y67294D01*
X40244Y67505D01*
X39987Y67654D01*
X39699Y67731D01*
D02*
G37*
G36*
X36899D02*
X36601D01*
X36313Y67654D01*
X36056Y67505D01*
X35845Y67294D01*
X35696Y67037D01*
X35619Y66749D01*
Y66451D01*
X35696Y66163D01*
X35845Y65906D01*
X36056Y65695D01*
X36313Y65546D01*
X36601Y65469D01*
X36899D01*
X37187Y65546D01*
X37444Y65695D01*
X37655Y65906D01*
X37804Y66163D01*
X37881Y66451D01*
Y66749D01*
X37804Y67037D01*
X37655Y67294D01*
X37444Y67505D01*
X37187Y67654D01*
X36899Y67731D01*
D02*
G37*
G36*
X19947Y66588D02*
X19768D01*
X19594Y66542D01*
X19439Y66452D01*
X19312Y66325D01*
X19223Y66170D01*
X19176Y65997D01*
Y65818D01*
X19223Y65644D01*
X19312Y65489D01*
X19439Y65362D01*
X19594Y65273D01*
X19768Y65226D01*
X19947D01*
X20120Y65273D01*
X20275Y65362D01*
X20402Y65489D01*
X20492Y65644D01*
X20538Y65818D01*
Y65997D01*
X20492Y66170D01*
X20402Y66325D01*
X20275Y66452D01*
X20120Y66542D01*
X19947Y66588D01*
D02*
G37*
G36*
X92823Y66181D02*
X92644D01*
X92471Y66135D01*
X92315Y66045D01*
X92188Y65918D01*
X92099Y65763D01*
X92052Y65590D01*
Y65410D01*
X92099Y65237D01*
X92188Y65082D01*
X92315Y64955D01*
X92471Y64865D01*
X92644Y64819D01*
X92823D01*
X92996Y64865D01*
X93152Y64955D01*
X93278Y65082D01*
X93368Y65237D01*
X93414Y65410D01*
Y65590D01*
X93368Y65763D01*
X93278Y65918D01*
X93152Y66045D01*
X92996Y66135D01*
X92823Y66181D01*
D02*
G37*
G36*
X10493Y64516D02*
X10301D01*
X10115Y64466D01*
X9948Y64370D01*
X9812Y64234D01*
X9772Y64164D01*
X9625D01*
X9585Y64234D01*
X9449Y64370D01*
X9282Y64466D01*
X9096Y64516D01*
X8904D01*
X8718Y64466D01*
X8551Y64370D01*
X8415Y64234D01*
X8319Y64067D01*
X8287Y63947D01*
X8171Y63941D01*
X8155Y63945D01*
X8061Y64107D01*
X7925Y64243D01*
X7758Y64339D01*
X7572Y64389D01*
X7380D01*
X7194Y64339D01*
X7027Y64243D01*
X6891Y64107D01*
X6795Y63940D01*
X6745Y63754D01*
Y63562D01*
X6795Y63376D01*
X6891Y63209D01*
X7014Y63086D01*
X6891Y62964D01*
X6795Y62797D01*
X6745Y62611D01*
Y62419D01*
X6795Y62233D01*
X6891Y62066D01*
X7027Y61930D01*
X7194Y61834D01*
X7380Y61784D01*
X7572D01*
X7758Y61834D01*
X7925Y61930D01*
X8061Y62066D01*
X8157Y62233D01*
X8172Y62289D01*
X8304D01*
X8319Y62233D01*
X8415Y62066D01*
X8551Y61930D01*
X8718Y61834D01*
X8904Y61784D01*
X9096D01*
X9282Y61834D01*
X9449Y61930D01*
X9585Y62066D01*
X9625Y62136D01*
X9772D01*
X9812Y62066D01*
X9948Y61930D01*
X10115Y61834D01*
X10301Y61784D01*
X10493D01*
X10679Y61834D01*
X10846Y61930D01*
X10982Y62066D01*
X11078Y62233D01*
X11128Y62419D01*
Y62611D01*
X11078Y62797D01*
X10982Y62964D01*
X10875Y63070D01*
X10857Y63150D01*
X10875Y63230D01*
X10982Y63336D01*
X11078Y63503D01*
X11128Y63689D01*
Y63881D01*
X11078Y64067D01*
X10982Y64234D01*
X10846Y64370D01*
X10679Y64466D01*
X10493Y64516D01*
D02*
G37*
G36*
X106240Y66781D02*
X106060D01*
X105887Y66735D01*
X105732Y66645D01*
X105605Y66518D01*
X105515Y66363D01*
X105469Y66190D01*
Y66010D01*
X105515Y65837D01*
X105605Y65682D01*
X105732Y65555D01*
X105855Y65484D01*
X105870Y65382D01*
X105861Y65341D01*
X105782Y65295D01*
X105655Y65168D01*
X105565Y65013D01*
X105519Y64840D01*
Y64660D01*
X105565Y64487D01*
X105655Y64332D01*
X105782Y64205D01*
X105937Y64115D01*
X106110Y64069D01*
X106290D01*
X106463Y64115D01*
X106618Y64205D01*
X106745Y64332D01*
X106835Y64487D01*
X106881Y64660D01*
Y64840D01*
X106835Y65013D01*
X106745Y65168D01*
X106618Y65295D01*
X106495Y65366D01*
X106480Y65468D01*
X106489Y65509D01*
X106568Y65555D01*
X106695Y65682D01*
X106785Y65837D01*
X106831Y66010D01*
Y66190D01*
X106785Y66363D01*
X106695Y66518D01*
X106568Y66645D01*
X106413Y66735D01*
X106240Y66781D01*
D02*
G37*
G36*
X33940Y65431D02*
X33760D01*
X33587Y65385D01*
X33432Y65295D01*
X33305Y65168D01*
X33215Y65013D01*
X33169Y64840D01*
Y64660D01*
X33215Y64487D01*
X33305Y64332D01*
X33432Y64205D01*
X33587Y64115D01*
X33760Y64069D01*
X33940D01*
X34113Y64115D01*
X34268Y64205D01*
X34395Y64332D01*
X34485Y64487D01*
X34531Y64660D01*
Y64840D01*
X34485Y65013D01*
X34395Y65168D01*
X34268Y65295D01*
X34113Y65385D01*
X33940Y65431D01*
D02*
G37*
G36*
X76390Y65131D02*
X76210D01*
X76037Y65085D01*
X75882Y64995D01*
X75755Y64868D01*
X75665Y64713D01*
X75619Y64540D01*
Y64360D01*
X75665Y64187D01*
X75755Y64032D01*
X75882Y63905D01*
X76037Y63815D01*
X76210Y63769D01*
X76390D01*
X76563Y63815D01*
X76718Y63905D01*
X76845Y64032D01*
X76935Y64187D01*
X76981Y64360D01*
Y64540D01*
X76935Y64713D01*
X76845Y64868D01*
X76718Y64995D01*
X76563Y65085D01*
X76390Y65131D01*
D02*
G37*
G36*
X112045Y64216D02*
X111853D01*
X111667Y64166D01*
X111500Y64070D01*
X111364Y63934D01*
X111268Y63767D01*
X111253Y63711D01*
X111121D01*
X111106Y63767D01*
X111010Y63934D01*
X110874Y64070D01*
X110707Y64166D01*
X110521Y64216D01*
X110329D01*
X110143Y64166D01*
X109976Y64070D01*
X109840Y63934D01*
X109800Y63864D01*
X109653D01*
X109613Y63934D01*
X109477Y64070D01*
X109310Y64166D01*
X109124Y64216D01*
X108932D01*
X108746Y64166D01*
X108579Y64070D01*
X108443Y63934D01*
X108347Y63767D01*
X108297Y63581D01*
Y63389D01*
X108347Y63203D01*
X108443Y63036D01*
X108550Y62930D01*
X108568Y62850D01*
X108550Y62770D01*
X108443Y62664D01*
X108347Y62497D01*
X108297Y62311D01*
Y62119D01*
X108347Y61933D01*
X108443Y61766D01*
X108579Y61630D01*
X108746Y61534D01*
X108932Y61484D01*
X109124D01*
X109310Y61534D01*
X109477Y61630D01*
X109613Y61766D01*
X109653Y61836D01*
X109800D01*
X109840Y61766D01*
X109976Y61630D01*
X110143Y61534D01*
X110329Y61484D01*
X110521D01*
X110707Y61534D01*
X110874Y61630D01*
X111010Y61766D01*
X111106Y61933D01*
X111138Y62053D01*
X111254Y62059D01*
X111270Y62055D01*
X111364Y61893D01*
X111500Y61757D01*
X111667Y61661D01*
X111853Y61611D01*
X112045D01*
X112231Y61661D01*
X112398Y61757D01*
X112534Y61893D01*
X112630Y62060D01*
X112680Y62246D01*
Y62438D01*
X112630Y62624D01*
X112534Y62791D01*
X112411Y62914D01*
X112534Y63036D01*
X112630Y63203D01*
X112680Y63389D01*
Y63581D01*
X112630Y63767D01*
X112534Y63934D01*
X112398Y64070D01*
X112231Y64166D01*
X112045Y64216D01*
D02*
G37*
G36*
X83108Y64731D02*
X82929D01*
X82755Y64685D01*
X82600Y64595D01*
X82473Y64468D01*
X82384Y64313D01*
X82337Y64140D01*
Y63960D01*
X82384Y63787D01*
X82473Y63632D01*
X82600Y63505D01*
X82755Y63415D01*
X82929Y63369D01*
X83108D01*
X83281Y63415D01*
X83436Y63505D01*
X83563Y63632D01*
X83653Y63787D01*
X83699Y63960D01*
Y64140D01*
X83653Y64313D01*
X83563Y64468D01*
X83436Y64595D01*
X83281Y64685D01*
X83108Y64731D01*
D02*
G37*
G36*
X2940Y64681D02*
X2760D01*
X2587Y64635D01*
X2432Y64545D01*
X2305Y64418D01*
X2215Y64263D01*
X2169Y64090D01*
Y63910D01*
X2215Y63737D01*
X2305Y63582D01*
X2432Y63455D01*
X2587Y63365D01*
X2760Y63319D01*
X2940D01*
X3113Y63365D01*
X3268Y63455D01*
X3395Y63582D01*
X3485Y63737D01*
X3531Y63910D01*
Y64090D01*
X3485Y64263D01*
X3395Y64418D01*
X3268Y64545D01*
X3113Y64635D01*
X2940Y64681D01*
D02*
G37*
G36*
X93890Y64631D02*
X93710D01*
X93537Y64585D01*
X93382Y64495D01*
X93255Y64368D01*
X93165Y64213D01*
X93119Y64040D01*
Y63860D01*
X93165Y63687D01*
X93255Y63532D01*
X93382Y63405D01*
X93537Y63315D01*
X93710Y63269D01*
X93890D01*
X94063Y63315D01*
X94218Y63405D01*
X94345Y63532D01*
X94435Y63687D01*
X94481Y63860D01*
Y64040D01*
X94435Y64213D01*
X94345Y64368D01*
X94218Y64495D01*
X94063Y64585D01*
X93890Y64631D01*
D02*
G37*
G36*
X45171Y64413D02*
X44991D01*
X44818Y64366D01*
X44663Y64277D01*
X44536Y64150D01*
X44446Y63995D01*
X44400Y63821D01*
Y63642D01*
X44446Y63469D01*
X44536Y63314D01*
X44663Y63187D01*
X44818Y63097D01*
X44991Y63051D01*
X45171D01*
X45344Y63097D01*
X45499Y63187D01*
X45626Y63314D01*
X45716Y63469D01*
X45762Y63642D01*
Y63821D01*
X45716Y63995D01*
X45626Y64150D01*
X45499Y64277D01*
X45344Y64366D01*
X45171Y64413D01*
D02*
G37*
G36*
X42867Y64258D02*
X42687D01*
X42514Y64212D01*
X42359Y64122D01*
X42232Y63995D01*
X42142Y63840D01*
X42096Y63667D01*
Y63487D01*
X42142Y63314D01*
X42232Y63159D01*
X42359Y63032D01*
X42514Y62942D01*
X42687Y62896D01*
X42867D01*
X43040Y62942D01*
X43195Y63032D01*
X43322Y63159D01*
X43412Y63314D01*
X43458Y63487D01*
Y63667D01*
X43412Y63840D01*
X43322Y63995D01*
X43195Y64122D01*
X43040Y64212D01*
X42867Y64258D01*
D02*
G37*
G36*
X88640Y64231D02*
X88460D01*
X88287Y64185D01*
X88132Y64095D01*
X88005Y63968D01*
X87915Y63813D01*
X87869Y63640D01*
Y63460D01*
X87915Y63287D01*
X88005Y63132D01*
X88132Y63005D01*
X88287Y62915D01*
X88460Y62869D01*
X88640D01*
X88813Y62915D01*
X88968Y63005D01*
X89095Y63132D01*
X89185Y63287D01*
X89231Y63460D01*
Y63640D01*
X89185Y63813D01*
X89095Y63968D01*
X88968Y64095D01*
X88813Y64185D01*
X88640Y64231D01*
D02*
G37*
G36*
X71040Y64181D02*
X70860D01*
X70687Y64135D01*
X70532Y64045D01*
X70405Y63918D01*
X70315Y63763D01*
X70269Y63590D01*
Y63410D01*
X70315Y63237D01*
X70405Y63082D01*
X70532Y62955D01*
X70687Y62865D01*
X70860Y62819D01*
X71040D01*
X71213Y62865D01*
X71368Y62955D01*
X71495Y63082D01*
X71585Y63237D01*
X71631Y63410D01*
Y63590D01*
X71585Y63763D01*
X71495Y63918D01*
X71368Y64045D01*
X71213Y64135D01*
X71040Y64181D01*
D02*
G37*
G36*
X73090Y63991D02*
X72910D01*
X72737Y63945D01*
X72582Y63855D01*
X72455Y63729D01*
X72365Y63573D01*
X72319Y63400D01*
Y63221D01*
X72365Y63048D01*
X72455Y62892D01*
X72582Y62765D01*
X72737Y62676D01*
X72910Y62629D01*
X73090D01*
X73263Y62676D01*
X73418Y62765D01*
X73545Y62892D01*
X73635Y63048D01*
X73681Y63221D01*
Y63400D01*
X73635Y63573D01*
X73545Y63729D01*
X73418Y63855D01*
X73263Y63945D01*
X73090Y63991D01*
D02*
G37*
G36*
X77340Y62881D02*
X77160D01*
X76987Y62835D01*
X76832Y62745D01*
X76705Y62618D01*
X76615Y62463D01*
X76569Y62290D01*
Y62110D01*
X76615Y61937D01*
X76705Y61782D01*
X76832Y61655D01*
X76987Y61565D01*
X77160Y61519D01*
X77340D01*
X77513Y61565D01*
X77668Y61655D01*
X77795Y61782D01*
X77885Y61937D01*
X77931Y62110D01*
Y62290D01*
X77885Y62463D01*
X77795Y62618D01*
X77668Y62745D01*
X77513Y62835D01*
X77340Y62881D01*
D02*
G37*
G36*
X72547Y62018D02*
X72368D01*
X72195Y61972D01*
X72040Y61882D01*
X71913Y61755D01*
X71823Y61600D01*
X71798Y61507D01*
X71662Y61489D01*
X71645Y61518D01*
X71518Y61645D01*
X71363Y61735D01*
X71190Y61781D01*
X71010D01*
X70837Y61735D01*
X70682Y61645D01*
X70555Y61518D01*
X70465Y61363D01*
X70419Y61190D01*
Y61010D01*
X70465Y60837D01*
X70555Y60682D01*
X70682Y60555D01*
X70837Y60465D01*
X70919Y60443D01*
Y60360D01*
X70965Y60187D01*
X71055Y60032D01*
X71182Y59905D01*
X71337Y59815D01*
X71510Y59769D01*
X71690D01*
X71863Y59815D01*
X72018Y59905D01*
X72145Y60032D01*
X72235Y60187D01*
X72281Y60360D01*
Y60540D01*
X72274Y60567D01*
X72341Y60635D01*
X72381Y60656D01*
X72547D01*
X72721Y60702D01*
X72876Y60792D01*
X72947Y60863D01*
X73087Y60824D01*
X73115Y60717D01*
X73205Y60562D01*
X73332Y60435D01*
X73487Y60346D01*
X73660Y60299D01*
X73840D01*
X74013Y60346D01*
X74168Y60435D01*
X74295Y60562D01*
X74385Y60717D01*
X74431Y60891D01*
Y61070D01*
X74385Y61243D01*
X74295Y61398D01*
X74168Y61525D01*
X74013Y61615D01*
X73840Y61661D01*
X73660D01*
X73487Y61615D01*
X73332Y61525D01*
X73261Y61454D01*
X73121Y61494D01*
X73092Y61600D01*
X73003Y61755D01*
X72876Y61882D01*
X72721Y61972D01*
X72547Y62018D01*
D02*
G37*
G36*
X79477Y62495D02*
X79298D01*
X79124Y62448D01*
X78969Y62359D01*
X78842Y62232D01*
X78753Y62077D01*
X78706Y61903D01*
Y61724D01*
X78753Y61551D01*
X78842Y61396D01*
X78969Y61269D01*
X79124Y61179D01*
X79298Y61133D01*
X79477D01*
X79650Y61179D01*
X79805Y61269D01*
X79932Y61396D01*
X80022Y61551D01*
X80068Y61724D01*
Y61903D01*
X80022Y62077D01*
X79932Y62232D01*
X79805Y62359D01*
X79650Y62448D01*
X79477Y62495D01*
D02*
G37*
G36*
X93240Y62231D02*
X93061D01*
X92887Y62185D01*
X92732Y62095D01*
X92605Y61968D01*
X92516Y61813D01*
X92469Y61640D01*
Y61461D01*
X92516Y61287D01*
X92605Y61132D01*
X92732Y61005D01*
X92887Y60916D01*
X93061Y60869D01*
X93240D01*
X93413Y60916D01*
X93568Y61005D01*
X93695Y61132D01*
X93785Y61287D01*
X93831Y61461D01*
Y61640D01*
X93785Y61813D01*
X93695Y61968D01*
X93568Y62095D01*
X93413Y62185D01*
X93240Y62231D01*
D02*
G37*
G36*
X67643Y63222D02*
X67464D01*
X67290Y63176D01*
X67135Y63086D01*
X67008Y62959D01*
X66919Y62804D01*
X66872Y62631D01*
Y62451D01*
X66919Y62278D01*
X67008Y62123D01*
X67135Y61996D01*
X67290Y61906D01*
X67291Y61906D01*
X67282Y61872D01*
Y61722D01*
X67135Y61637D01*
X67008Y61510D01*
X66919Y61355D01*
X66872Y61182D01*
Y61002D01*
X66919Y60829D01*
X67008Y60674D01*
X67135Y60547D01*
X67290Y60458D01*
X67464Y60411D01*
X67643D01*
X67816Y60458D01*
X67971Y60547D01*
X68098Y60674D01*
X68188Y60829D01*
X68234Y61002D01*
Y61153D01*
X68382Y61238D01*
X68508Y61364D01*
X68598Y61520D01*
X68644Y61693D01*
Y61872D01*
X68598Y62045D01*
X68508Y62201D01*
X68382Y62328D01*
X68226Y62417D01*
X68225Y62418D01*
X68234Y62451D01*
Y62631D01*
X68188Y62804D01*
X68098Y62959D01*
X67971Y63086D01*
X67816Y63176D01*
X67643Y63222D01*
D02*
G37*
G36*
X42490Y61731D02*
X42310D01*
X42137Y61685D01*
X41982Y61595D01*
X41855Y61468D01*
X41765Y61313D01*
X41719Y61140D01*
Y60960D01*
X41765Y60787D01*
X41855Y60632D01*
X41982Y60505D01*
X42137Y60415D01*
X42310Y60369D01*
X42490D01*
X42663Y60415D01*
X42818Y60505D01*
X42945Y60632D01*
X43035Y60787D01*
X43081Y60960D01*
Y61140D01*
X43035Y61313D01*
X42945Y61468D01*
X42818Y61595D01*
X42663Y61685D01*
X42490Y61731D01*
D02*
G37*
G36*
X44784Y61433D02*
X44605D01*
X44432Y61387D01*
X44276Y61297D01*
X44149Y61171D01*
X44060Y61015D01*
X44013Y60842D01*
Y60663D01*
X44060Y60490D01*
X44149Y60334D01*
X44276Y60208D01*
X44432Y60118D01*
X44605Y60071D01*
X44784D01*
X44957Y60118D01*
X45113Y60208D01*
X45239Y60334D01*
X45329Y60490D01*
X45375Y60663D01*
Y60842D01*
X45329Y61015D01*
X45239Y61171D01*
X45113Y61297D01*
X44957Y61387D01*
X44784Y61433D01*
D02*
G37*
G36*
X36676Y60218D02*
X36497D01*
X36324Y60171D01*
X36169Y60082D01*
X36042Y59955D01*
X35952Y59800D01*
X35816Y59782D01*
X35795Y59818D01*
X35668Y59945D01*
X35513Y60035D01*
X35340Y60081D01*
X35160D01*
X34987Y60035D01*
X34832Y59945D01*
X34705Y59818D01*
X34615Y59663D01*
X34569Y59490D01*
Y59310D01*
X34615Y59137D01*
X34705Y58982D01*
X34832Y58855D01*
X34987Y58765D01*
X35160Y58719D01*
X35340D01*
X35513Y58765D01*
X35668Y58855D01*
X35795Y58982D01*
X35885Y59137D01*
X36021Y59155D01*
X36042Y59119D01*
X36169Y58992D01*
X36324Y58902D01*
X36497Y58856D01*
X36676D01*
X36850Y58902D01*
X37005Y58992D01*
X37132Y59119D01*
X37221Y59274D01*
X37268Y59447D01*
Y59626D01*
X37221Y59800D01*
X37132Y59955D01*
X37005Y60082D01*
X36850Y60171D01*
X36676Y60218D01*
D02*
G37*
G36*
X88240Y60931D02*
X88060D01*
X87887Y60885D01*
X87732Y60795D01*
X87605Y60668D01*
X87515Y60513D01*
X87469Y60340D01*
Y60160D01*
X87515Y59987D01*
X87605Y59832D01*
X87732Y59705D01*
X87887Y59615D01*
X88060Y59569D01*
X88240D01*
X88413Y59615D01*
X88568Y59705D01*
X88695Y59832D01*
X88785Y59987D01*
X88831Y60160D01*
Y60340D01*
X88785Y60513D01*
X88695Y60668D01*
X88568Y60795D01*
X88413Y60885D01*
X88240Y60931D01*
D02*
G37*
G36*
X16276Y60931D02*
X16097D01*
X15924Y60885D01*
X15768Y60795D01*
X15642Y60668D01*
X15552Y60513D01*
X15506Y60340D01*
Y60160D01*
X15552Y59987D01*
X15642Y59832D01*
X15768Y59705D01*
X15924Y59615D01*
X16097Y59569D01*
X16276D01*
X16449Y59615D01*
X16605Y59705D01*
X16732Y59832D01*
X16821Y59987D01*
X16868Y60160D01*
Y60340D01*
X16821Y60513D01*
X16732Y60668D01*
X16605Y60795D01*
X16449Y60885D01*
X16276Y60931D01*
D02*
G37*
G36*
X84790Y60801D02*
X84610D01*
X84437Y60755D01*
X84282Y60665D01*
X84155Y60538D01*
X84065Y60383D01*
X84019Y60210D01*
Y60030D01*
X84065Y59857D01*
X84155Y59702D01*
X84282Y59575D01*
X84437Y59486D01*
X84610Y59439D01*
X84790D01*
X84963Y59486D01*
X85118Y59575D01*
X85245Y59702D01*
X85335Y59857D01*
X85381Y60030D01*
Y60210D01*
X85335Y60383D01*
X85245Y60538D01*
X85118Y60665D01*
X84963Y60755D01*
X84790Y60801D01*
D02*
G37*
G36*
X81932Y62131D02*
X81568D01*
X81217Y62037D01*
X80902Y61855D01*
X80645Y61598D01*
X80463Y61283D01*
X80369Y60932D01*
Y60568D01*
X80463Y60217D01*
X80645Y59902D01*
X80902Y59645D01*
X81217Y59463D01*
X81568Y59369D01*
X81932D01*
X82283Y59463D01*
X82598Y59645D01*
X82855Y59902D01*
X83037Y60217D01*
X83131Y60568D01*
Y60932D01*
X83037Y61283D01*
X82855Y61598D01*
X82598Y61855D01*
X82283Y62037D01*
X81932Y62131D01*
D02*
G37*
G36*
X23490Y60581D02*
X23310D01*
X23137Y60535D01*
X22982Y60445D01*
X22855Y60318D01*
X22765Y60163D01*
X22719Y59990D01*
Y59810D01*
X22765Y59637D01*
X22855Y59482D01*
X22982Y59355D01*
X23137Y59265D01*
X23310Y59219D01*
X23490D01*
X23663Y59265D01*
X23818Y59355D01*
X23945Y59482D01*
X24035Y59637D01*
X24081Y59810D01*
Y59990D01*
X24035Y60163D01*
X23945Y60318D01*
X23818Y60445D01*
X23663Y60535D01*
X23490Y60581D01*
D02*
G37*
G36*
X86640Y60481D02*
X86460D01*
X86287Y60435D01*
X86132Y60345D01*
X86005Y60218D01*
X85915Y60063D01*
X85869Y59890D01*
Y59710D01*
X85915Y59537D01*
X86005Y59382D01*
X86132Y59255D01*
X86287Y59165D01*
X86460Y59119D01*
X86640D01*
X86813Y59165D01*
X86968Y59255D01*
X87095Y59382D01*
X87185Y59537D01*
X87231Y59710D01*
Y59890D01*
X87185Y60063D01*
X87095Y60218D01*
X86968Y60345D01*
X86813Y60435D01*
X86640Y60481D01*
D02*
G37*
G36*
X12785Y60370D02*
X12606D01*
X12432Y60324D01*
X12277Y60234D01*
X12150Y60107D01*
X12061Y59952D01*
X12014Y59779D01*
Y59599D01*
X12061Y59426D01*
X12150Y59271D01*
X12277Y59144D01*
X12432Y59054D01*
X12606Y59008D01*
X12785D01*
X12958Y59054D01*
X13113Y59144D01*
X13240Y59271D01*
X13330Y59426D01*
X13376Y59599D01*
Y59779D01*
X13330Y59952D01*
X13240Y60107D01*
X13113Y60234D01*
X12958Y60324D01*
X12785Y60370D01*
D02*
G37*
G36*
X77540Y60232D02*
X77360D01*
X77187Y60186D01*
X77032Y60096D01*
X76905Y59970D01*
X76815Y59814D01*
X76769Y59641D01*
Y59462D01*
X76815Y59289D01*
X76905Y59133D01*
X77032Y59006D01*
X77187Y58917D01*
X77360Y58870D01*
X77540D01*
X77713Y58917D01*
X77868Y59006D01*
X77995Y59133D01*
X78085Y59289D01*
X78131Y59462D01*
Y59641D01*
X78085Y59814D01*
X77995Y59970D01*
X77868Y60096D01*
X77713Y60186D01*
X77540Y60232D01*
D02*
G37*
G36*
X27590Y60131D02*
X27410D01*
X27237Y60085D01*
X27082Y59995D01*
X26955Y59868D01*
X26865Y59713D01*
X26819Y59540D01*
Y59360D01*
X26865Y59187D01*
X26955Y59032D01*
X27082Y58905D01*
X27237Y58815D01*
X27410Y58769D01*
X27590D01*
X27763Y58815D01*
X27918Y58905D01*
X28045Y59032D01*
X28135Y59187D01*
X28181Y59360D01*
Y59540D01*
X28135Y59713D01*
X28045Y59868D01*
X27918Y59995D01*
X27763Y60085D01*
X27590Y60131D01*
D02*
G37*
G36*
X33440Y59731D02*
X33260D01*
X33087Y59685D01*
X32932Y59595D01*
X32805Y59468D01*
X32715Y59313D01*
X32669Y59140D01*
Y58960D01*
X32715Y58787D01*
X32805Y58632D01*
X32932Y58505D01*
X33087Y58415D01*
X33260Y58369D01*
X33440D01*
X33613Y58415D01*
X33768Y58505D01*
X33895Y58632D01*
X33985Y58787D01*
X34031Y58960D01*
Y59140D01*
X33985Y59313D01*
X33895Y59468D01*
X33768Y59595D01*
X33613Y59685D01*
X33440Y59731D01*
D02*
G37*
G36*
X5790D02*
X5610D01*
X5437Y59685D01*
X5282Y59595D01*
X5155Y59468D01*
X5065Y59313D01*
X5019Y59140D01*
Y58960D01*
X5065Y58787D01*
X5155Y58632D01*
X5282Y58505D01*
X5437Y58415D01*
X5610Y58369D01*
X5790D01*
X5963Y58415D01*
X6118Y58505D01*
X6245Y58632D01*
X6262Y58662D01*
X6409D01*
X6455Y58582D01*
X6582Y58455D01*
X6737Y58365D01*
X6910Y58319D01*
X7090D01*
X7263Y58365D01*
X7418Y58455D01*
X7545Y58582D01*
X7635Y58737D01*
X7681Y58910D01*
Y59090D01*
X7635Y59263D01*
X7545Y59418D01*
X7418Y59545D01*
X7263Y59635D01*
X7090Y59681D01*
X6910D01*
X6737Y59635D01*
X6582Y59545D01*
X6455Y59418D01*
X6438Y59388D01*
X6291D01*
X6245Y59468D01*
X6118Y59595D01*
X5963Y59685D01*
X5790Y59731D01*
D02*
G37*
G36*
X40347Y59425D02*
X40167D01*
X39994Y59379D01*
X39839Y59289D01*
X39712Y59163D01*
X39622Y59007D01*
X39576Y58834D01*
Y58655D01*
X39622Y58482D01*
X39712Y58326D01*
X39839Y58199D01*
X39994Y58110D01*
X40167Y58063D01*
X40347D01*
X40520Y58110D01*
X40675Y58199D01*
X40802Y58326D01*
X40892Y58482D01*
X40938Y58655D01*
Y58834D01*
X40892Y59007D01*
X40802Y59163D01*
X40675Y59289D01*
X40520Y59379D01*
X40347Y59425D01*
D02*
G37*
G36*
X70440Y60042D02*
X70260D01*
X70087Y59996D01*
X69932Y59906D01*
X69805Y59779D01*
X69715Y59624D01*
X69669Y59451D01*
Y59272D01*
X69715Y59098D01*
X69805Y58943D01*
X69932Y58816D01*
X70087Y58727D01*
X70260Y58680D01*
X70440D01*
X70613Y58727D01*
X70768Y58816D01*
X70809Y58857D01*
X70917Y58798D01*
X70923Y58792D01*
Y58615D01*
X70970Y58442D01*
X71060Y58287D01*
X71186Y58160D01*
X71342Y58070D01*
X71515Y58024D01*
X71694D01*
X71867Y58070D01*
X72023Y58160D01*
X72149Y58287D01*
X72239Y58442D01*
X72285Y58615D01*
Y58795D01*
X72239Y58968D01*
X72149Y59123D01*
X72023Y59250D01*
X71867Y59340D01*
X71694Y59386D01*
X71515D01*
X71342Y59340D01*
X71186Y59250D01*
X71146Y59209D01*
X71037Y59268D01*
X71031Y59274D01*
Y59451D01*
X70985Y59624D01*
X70895Y59779D01*
X70768Y59906D01*
X70613Y59996D01*
X70440Y60042D01*
D02*
G37*
G36*
X74200Y59336D02*
X74021D01*
X73848Y59290D01*
X73692Y59200D01*
X73565Y59074D01*
X73476Y58918D01*
X73429Y58745D01*
Y58566D01*
X73476Y58393D01*
X73565Y58237D01*
X73692Y58110D01*
X73848Y58021D01*
X74021Y57974D01*
X74200D01*
X74373Y58021D01*
X74529Y58110D01*
X74655Y58237D01*
X74745Y58393D01*
X74791Y58566D01*
Y58745D01*
X74745Y58918D01*
X74655Y59074D01*
X74529Y59200D01*
X74373Y59290D01*
X74200Y59336D01*
D02*
G37*
G36*
X24632Y59181D02*
X24453D01*
X24280Y59135D01*
X24125Y59045D01*
X23998Y58918D01*
X23908Y58763D01*
X23862Y58590D01*
Y58410D01*
X23908Y58237D01*
X23998Y58082D01*
X24125Y57955D01*
X24280Y57865D01*
X24453Y57819D01*
X24632D01*
X24806Y57865D01*
X24961Y57955D01*
X25088Y58082D01*
X25177Y58237D01*
X25224Y58410D01*
Y58590D01*
X25177Y58763D01*
X25088Y58918D01*
X24961Y59045D01*
X24806Y59135D01*
X24632Y59181D01*
D02*
G37*
G36*
X67690Y59081D02*
X67510D01*
X67337Y59035D01*
X67182Y58945D01*
X67055Y58818D01*
X66965Y58663D01*
X66919Y58490D01*
Y58310D01*
X66965Y58137D01*
X67055Y57982D01*
X67182Y57855D01*
X67337Y57765D01*
X67510Y57719D01*
X67690D01*
X67863Y57765D01*
X68018Y57855D01*
X68145Y57982D01*
X68235Y58137D01*
X68281Y58310D01*
Y58490D01*
X68235Y58663D01*
X68145Y58818D01*
X68018Y58945D01*
X67863Y59035D01*
X67690Y59081D01*
D02*
G37*
G36*
X44679Y59143D02*
X44500D01*
X44327Y59096D01*
X44171Y59007D01*
X44045Y58880D01*
X43955Y58725D01*
X43931Y58635D01*
X43810D01*
X43637Y58589D01*
X43482Y58499D01*
X43355Y58372D01*
X43265Y58217D01*
X43219Y58044D01*
Y57864D01*
X43265Y57691D01*
X43355Y57536D01*
X43482Y57409D01*
X43637Y57319D01*
X43810Y57273D01*
X43990D01*
X44163Y57319D01*
X44318Y57409D01*
X44445Y57536D01*
X44535Y57691D01*
X44559Y57781D01*
X44679D01*
X44852Y57827D01*
X45008Y57917D01*
X45135Y58044D01*
X45150Y58070D01*
X45294Y58065D01*
X45351Y57966D01*
X45477Y57839D01*
X45633Y57750D01*
X45806Y57703D01*
X45985D01*
X46158Y57750D01*
X46314Y57839D01*
X46441Y57966D01*
X46530Y58121D01*
X46577Y58295D01*
Y58474D01*
X46530Y58647D01*
X46441Y58802D01*
X46314Y58929D01*
X46158Y59019D01*
X45985Y59065D01*
X45806D01*
X45633Y59019D01*
X45477Y58929D01*
X45351Y58802D01*
X45336Y58776D01*
X45192Y58781D01*
X45135Y58880D01*
X45008Y59007D01*
X44852Y59096D01*
X44679Y59143D01*
D02*
G37*
G36*
X14640Y58981D02*
X14460D01*
X14287Y58935D01*
X14132Y58845D01*
X14005Y58718D01*
X13915Y58563D01*
X13869Y58390D01*
Y58210D01*
X13915Y58037D01*
X14005Y57882D01*
X14132Y57755D01*
X14287Y57665D01*
X14460Y57619D01*
X14640D01*
X14813Y57665D01*
X14968Y57755D01*
X15095Y57882D01*
X15185Y58037D01*
X15231Y58210D01*
Y58390D01*
X15185Y58563D01*
X15095Y58718D01*
X14968Y58845D01*
X14813Y58935D01*
X14640Y58981D01*
D02*
G37*
G36*
X106390Y58781D02*
X106210D01*
X106037Y58735D01*
X105882Y58645D01*
X105755Y58518D01*
X105665Y58363D01*
X105619Y58190D01*
Y58010D01*
X105665Y57837D01*
X105755Y57682D01*
X105882Y57555D01*
X106037Y57465D01*
X106210Y57419D01*
X106390D01*
X106563Y57465D01*
X106718Y57555D01*
X106845Y57682D01*
X106935Y57837D01*
X106981Y58010D01*
Y58190D01*
X106935Y58363D01*
X106845Y58518D01*
X106718Y58645D01*
X106563Y58735D01*
X106390Y58781D01*
D02*
G37*
G36*
X78242Y58388D02*
X78062D01*
X77889Y58341D01*
X77734Y58252D01*
X77607Y58125D01*
X77517Y57970D01*
X77471Y57796D01*
Y57617D01*
X77517Y57444D01*
X77607Y57289D01*
X77734Y57162D01*
X77889Y57072D01*
X78062Y57026D01*
X78242D01*
X78415Y57072D01*
X78570Y57162D01*
X78697Y57289D01*
X78786Y57444D01*
X78833Y57617D01*
Y57796D01*
X78786Y57970D01*
X78697Y58125D01*
X78570Y58252D01*
X78415Y58341D01*
X78242Y58388D01*
D02*
G37*
G36*
X95440Y57592D02*
X95260D01*
X95087Y57546D01*
X94932Y57456D01*
X94805Y57329D01*
X94715Y57174D01*
X94672Y57012D01*
X94630Y56992D01*
X94542Y56971D01*
X94449Y57064D01*
X94294Y57154D01*
X94120Y57200D01*
X93941D01*
X93768Y57154D01*
X93613Y57064D01*
X93486Y56937D01*
X93396Y56782D01*
X93350Y56609D01*
Y56430D01*
X93396Y56256D01*
X93486Y56101D01*
X93613Y55974D01*
X93768Y55885D01*
X93941Y55838D01*
X94120D01*
X94294Y55885D01*
X94449Y55974D01*
X94576Y56101D01*
X94665Y56256D01*
X94709Y56419D01*
X94751Y56439D01*
X94839Y56459D01*
X94932Y56366D01*
X95087Y56277D01*
X95260Y56230D01*
X95440D01*
X95613Y56277D01*
X95768Y56366D01*
X95895Y56493D01*
X95985Y56648D01*
X96031Y56822D01*
Y57001D01*
X95985Y57174D01*
X95895Y57329D01*
X95768Y57456D01*
X95613Y57546D01*
X95440Y57592D01*
D02*
G37*
G36*
X31484Y57777D02*
X31305D01*
X31132Y57730D01*
X30977Y57641D01*
X30850Y57514D01*
X30760Y57359D01*
X30714Y57186D01*
Y57006D01*
X30760Y56833D01*
X30850Y56678D01*
X30977Y56551D01*
X31132Y56461D01*
X31305Y56415D01*
X31484D01*
X31658Y56461D01*
X31813Y56551D01*
X31940Y56678D01*
X32029Y56833D01*
X32076Y57006D01*
Y57186D01*
X32029Y57359D01*
X31940Y57514D01*
X31813Y57641D01*
X31658Y57730D01*
X31484Y57777D01*
D02*
G37*
G36*
X40561Y57252D02*
X40382D01*
X40208Y57206D01*
X40053Y57116D01*
X39926Y56989D01*
X39837Y56834D01*
X39790Y56661D01*
Y56482D01*
X39837Y56308D01*
X39926Y56153D01*
X40053Y56026D01*
X40208Y55937D01*
X40382Y55890D01*
X40561D01*
X40734Y55937D01*
X40889Y56026D01*
X41016Y56153D01*
X41106Y56308D01*
X41152Y56482D01*
Y56661D01*
X41106Y56834D01*
X41016Y56989D01*
X40889Y57116D01*
X40734Y57206D01*
X40561Y57252D01*
D02*
G37*
G36*
X4040Y57231D02*
X3860D01*
X3687Y57185D01*
X3532Y57095D01*
X3405Y56968D01*
X3315Y56813D01*
X3269Y56640D01*
Y56460D01*
X3315Y56287D01*
X3405Y56132D01*
X3532Y56005D01*
X3687Y55915D01*
X3860Y55869D01*
X4040D01*
X4213Y55915D01*
X4368Y56005D01*
X4495Y56132D01*
X4585Y56287D01*
X4631Y56460D01*
Y56640D01*
X4585Y56813D01*
X4495Y56968D01*
X4368Y57095D01*
X4213Y57185D01*
X4040Y57231D01*
D02*
G37*
G36*
X46285Y57170D02*
X46106D01*
X45932Y57123D01*
X45777Y57034D01*
X45650Y56907D01*
X45561Y56751D01*
X45514Y56578D01*
Y56399D01*
X45561Y56226D01*
X45650Y56070D01*
X45777Y55944D01*
X45932Y55854D01*
X46106Y55808D01*
X46285D01*
X46458Y55854D01*
X46613Y55944D01*
X46740Y56070D01*
X46830Y56226D01*
X46876Y56399D01*
Y56578D01*
X46830Y56751D01*
X46740Y56907D01*
X46613Y57034D01*
X46458Y57123D01*
X46285Y57170D01*
D02*
G37*
G36*
X82550Y57750D02*
X82371D01*
X82198Y57704D01*
X82043Y57614D01*
X81916Y57488D01*
X81826Y57332D01*
X81780Y57159D01*
Y56980D01*
X81826Y56807D01*
X81916Y56651D01*
X82043Y56525D01*
X82198Y56435D01*
X82318Y56403D01*
X82419Y56290D01*
Y56110D01*
X82465Y55937D01*
X82555Y55782D01*
X82682Y55655D01*
X82837Y55565D01*
X83010Y55519D01*
X83190D01*
X83363Y55565D01*
X83518Y55655D01*
X83645Y55782D01*
X83735Y55937D01*
X83781Y56110D01*
Y56290D01*
X83735Y56463D01*
X83645Y56618D01*
X83518Y56745D01*
X83363Y56835D01*
X83243Y56867D01*
X83142Y56980D01*
Y57159D01*
X83095Y57332D01*
X83006Y57488D01*
X82879Y57614D01*
X82724Y57704D01*
X82550Y57750D01*
D02*
G37*
G36*
X49728Y56481D02*
X49549D01*
X49376Y56435D01*
X49221Y56345D01*
X49094Y56218D01*
X49004Y56063D01*
X48958Y55890D01*
Y55710D01*
X49004Y55537D01*
X49094Y55382D01*
X49221Y55255D01*
X49376Y55165D01*
X49549Y55119D01*
X49728D01*
X49902Y55165D01*
X50057Y55255D01*
X50184Y55382D01*
X50273Y55537D01*
X50320Y55710D01*
Y55890D01*
X50273Y56063D01*
X50184Y56218D01*
X50057Y56345D01*
X49902Y56435D01*
X49728Y56481D01*
D02*
G37*
G36*
X67990Y56131D02*
X67810D01*
X67637Y56085D01*
X67482Y55995D01*
X67355Y55868D01*
X67265Y55713D01*
X67219Y55540D01*
Y55360D01*
X67265Y55187D01*
X67355Y55032D01*
X67482Y54905D01*
X67637Y54815D01*
X67810Y54769D01*
X67990D01*
X68163Y54815D01*
X68318Y54905D01*
X68445Y55032D01*
X68535Y55187D01*
X68581Y55360D01*
Y55540D01*
X68535Y55713D01*
X68445Y55868D01*
X68318Y55995D01*
X68163Y56085D01*
X67990Y56131D01*
D02*
G37*
G36*
X70540Y57181D02*
X70360D01*
X70187Y57135D01*
X70032Y57045D01*
X69905Y56918D01*
X69815Y56763D01*
X69769Y56590D01*
Y56410D01*
X69815Y56237D01*
X69905Y56082D01*
X70019Y55968D01*
X69899Y55848D01*
X69810Y55693D01*
X69763Y55520D01*
Y55341D01*
X69810Y55167D01*
X69899Y55012D01*
X70026Y54885D01*
X70182Y54796D01*
X70355Y54749D01*
X70534D01*
X70707Y54796D01*
X70863Y54885D01*
X70989Y55012D01*
X71079Y55167D01*
X71125Y55341D01*
Y55520D01*
X71079Y55693D01*
X70989Y55848D01*
X70875Y55962D01*
X70995Y56082D01*
X71085Y56237D01*
X71131Y56410D01*
Y56590D01*
X71085Y56763D01*
X70995Y56918D01*
X70868Y57045D01*
X70713Y57135D01*
X70540Y57181D01*
D02*
G37*
G36*
X43790Y56231D02*
X43610D01*
X43437Y56185D01*
X43282Y56095D01*
X43155Y55968D01*
X43065Y55813D01*
X43019Y55640D01*
Y55460D01*
X43065Y55287D01*
X43155Y55132D01*
X43282Y55005D01*
X43437Y54915D01*
X43610Y54869D01*
X43790D01*
X43963Y54915D01*
X44118Y55005D01*
X44164Y55050D01*
X44305Y55013D01*
X44315Y54975D01*
X44405Y54819D01*
X44532Y54692D01*
X44687Y54603D01*
X44860Y54556D01*
X45040D01*
X45213Y54603D01*
X45368Y54692D01*
X45495Y54819D01*
X45585Y54975D01*
X45631Y55148D01*
Y55327D01*
X45585Y55500D01*
X45495Y55656D01*
X45368Y55782D01*
X45213Y55872D01*
X45040Y55918D01*
X44860D01*
X44687Y55872D01*
X44532Y55782D01*
X44486Y55737D01*
X44345Y55775D01*
X44335Y55813D01*
X44245Y55968D01*
X44118Y56095D01*
X43963Y56185D01*
X43790Y56231D01*
D02*
G37*
G36*
X64940Y56631D02*
X64760D01*
X64587Y56585D01*
X64432Y56495D01*
X64305Y56368D01*
X64215Y56213D01*
X64169Y56040D01*
Y55860D01*
X64215Y55687D01*
X64305Y55532D01*
X64432Y55405D01*
X64580Y55319D01*
X64642Y55270D01*
X64665Y55213D01*
X64619Y55040D01*
Y54860D01*
X64665Y54687D01*
X64755Y54532D01*
X64882Y54405D01*
X65037Y54315D01*
X65210Y54269D01*
X65390D01*
X65563Y54315D01*
X65718Y54405D01*
X65845Y54532D01*
X65935Y54687D01*
X65981Y54860D01*
Y55040D01*
X65935Y55213D01*
X65845Y55368D01*
X65718Y55495D01*
X65570Y55581D01*
X65508Y55630D01*
X65485Y55687D01*
X65531Y55860D01*
Y56040D01*
X65485Y56213D01*
X65395Y56368D01*
X65268Y56495D01*
X65113Y56585D01*
X64940Y56631D01*
D02*
G37*
G36*
X73409Y57520D02*
X73229D01*
X73056Y57473D01*
X72901Y57384D01*
X72774Y57257D01*
X72684Y57102D01*
X72638Y56928D01*
Y56749D01*
X72684Y56576D01*
X72774Y56421D01*
X72901Y56294D01*
X73056Y56204D01*
X73172Y56173D01*
X73180Y56166D01*
X73230Y56053D01*
X73231Y56031D01*
X73176Y55936D01*
X73129Y55763D01*
Y55583D01*
X73140Y55544D01*
X73031Y55481D01*
X72904Y55354D01*
X72815Y55199D01*
X72768Y55025D01*
Y54846D01*
X72815Y54673D01*
X72904Y54518D01*
X73031Y54391D01*
X73186Y54301D01*
X73359Y54255D01*
X73539D01*
X73712Y54301D01*
X73867Y54391D01*
X73994Y54518D01*
X74084Y54673D01*
X74130Y54846D01*
Y55025D01*
X74119Y55065D01*
X74229Y55128D01*
X74355Y55255D01*
X74445Y55410D01*
X74491Y55583D01*
Y55763D01*
X74445Y55936D01*
X74355Y56091D01*
X74229Y56218D01*
X74073Y56308D01*
X73957Y56339D01*
X73949Y56345D01*
X73899Y56459D01*
X73899Y56481D01*
X73953Y56576D01*
X74000Y56749D01*
Y56928D01*
X73953Y57102D01*
X73864Y57257D01*
X73737Y57384D01*
X73582Y57473D01*
X73409Y57520D01*
D02*
G37*
G36*
X68310Y54527D02*
X68130D01*
X67957Y54481D01*
X67802Y54391D01*
X67675Y54264D01*
X67585Y54109D01*
X67539Y53936D01*
Y53757D01*
X67585Y53583D01*
X67675Y53428D01*
X67802Y53301D01*
X67957Y53212D01*
X68130Y53165D01*
X68310D01*
X68483Y53212D01*
X68638Y53301D01*
X68765Y53428D01*
X68855Y53583D01*
X68901Y53757D01*
Y53936D01*
X68855Y54109D01*
X68765Y54264D01*
X68638Y54391D01*
X68483Y54481D01*
X68310Y54527D01*
D02*
G37*
G36*
X52990Y54481D02*
X52810D01*
X52637Y54435D01*
X52482Y54345D01*
X52355Y54218D01*
X52265Y54063D01*
X52219Y53890D01*
Y53710D01*
X52265Y53537D01*
X52355Y53382D01*
X52482Y53255D01*
X52637Y53165D01*
X52810Y53119D01*
X52990D01*
X53163Y53165D01*
X53318Y53255D01*
X53445Y53382D01*
X53535Y53537D01*
X53581Y53710D01*
Y53890D01*
X53535Y54063D01*
X53445Y54218D01*
X53318Y54345D01*
X53163Y54435D01*
X52990Y54481D01*
D02*
G37*
G36*
X57390Y54431D02*
X57210D01*
X57037Y54385D01*
X56882Y54295D01*
X56755Y54168D01*
X56665Y54013D01*
X56619Y53840D01*
Y53660D01*
X56665Y53487D01*
X56755Y53332D01*
X56882Y53205D01*
X57037Y53115D01*
X57210Y53069D01*
X57390D01*
X57563Y53115D01*
X57718Y53205D01*
X57845Y53332D01*
X57935Y53487D01*
X57981Y53660D01*
Y53840D01*
X57935Y54013D01*
X57845Y54168D01*
X57718Y54295D01*
X57563Y54385D01*
X57390Y54431D01*
D02*
G37*
G36*
X47590Y54019D02*
X47410D01*
X47237Y53973D01*
X47082Y53883D01*
X46955Y53756D01*
X46865Y53601D01*
X46819Y53428D01*
Y53248D01*
X46865Y53075D01*
X46955Y52920D01*
X47082Y52793D01*
X47237Y52703D01*
X47410Y52657D01*
X47590D01*
X47763Y52703D01*
X47918Y52793D01*
X48045Y52920D01*
X48135Y53075D01*
X48181Y53248D01*
Y53428D01*
X48135Y53601D01*
X48045Y53756D01*
X47918Y53883D01*
X47763Y53973D01*
X47590Y54019D01*
D02*
G37*
G36*
X70259Y52968D02*
X70080D01*
X69907Y52922D01*
X69752Y52832D01*
X69625Y52705D01*
X69549Y52574D01*
X69468Y52522D01*
X69419Y52502D01*
X69363Y52535D01*
X69190Y52581D01*
X69010D01*
X68837Y52535D01*
X68682Y52445D01*
X68555Y52318D01*
X68465Y52163D01*
X68419Y51990D01*
Y51810D01*
X68465Y51637D01*
X68555Y51482D01*
X68682Y51355D01*
X68837Y51265D01*
X69010Y51219D01*
X69190D01*
X69363Y51265D01*
X69518Y51355D01*
X69645Y51482D01*
X69721Y51613D01*
X69802Y51665D01*
X69851Y51685D01*
X69907Y51653D01*
X70080Y51606D01*
X70259D01*
X70433Y51653D01*
X70588Y51742D01*
X70715Y51869D01*
X70804Y52024D01*
X70851Y52198D01*
Y52377D01*
X70804Y52550D01*
X70715Y52705D01*
X70588Y52832D01*
X70433Y52922D01*
X70259Y52968D01*
D02*
G37*
G36*
X-2349Y55031D02*
X-2651D01*
X-2947Y54972D01*
X-3225Y54857D01*
X-3476Y54689D01*
X-3689Y54476D01*
X-3857Y54225D01*
X-3972Y53946D01*
X-4031Y53651D01*
Y53349D01*
X-3972Y53053D01*
X-3857Y52775D01*
X-3689Y52524D01*
X-3476Y52311D01*
X-3225Y52143D01*
X-2947Y52028D01*
X-2651Y51969D01*
X-2349D01*
X-2054Y52028D01*
X-1775Y52143D01*
X-1524Y52311D01*
X-1311Y52524D01*
X-1143Y52775D01*
X-1028Y53053D01*
X-969Y53349D01*
Y53651D01*
X-1028Y53946D01*
X-1143Y54225D01*
X-1311Y54476D01*
X-1524Y54689D01*
X-1775Y54857D01*
X-2054Y54972D01*
X-2349Y55031D01*
D02*
G37*
G36*
X119551Y55031D02*
X119249D01*
X118953Y54972D01*
X118675Y54857D01*
X118424Y54689D01*
X118211Y54476D01*
X118043Y54225D01*
X117928Y53946D01*
X117869Y53651D01*
Y53349D01*
X117928Y53053D01*
X118043Y52775D01*
X118211Y52524D01*
X118424Y52311D01*
X118675Y52143D01*
X118953Y52028D01*
X119249Y51969D01*
X119551D01*
X119846Y52028D01*
X120125Y52143D01*
X120376Y52311D01*
X120589Y52524D01*
X120757Y52775D01*
X120872Y53053D01*
X120931Y53349D01*
Y53651D01*
X120872Y53946D01*
X120757Y54225D01*
X120589Y54476D01*
X120376Y54689D01*
X120125Y54857D01*
X119846Y54972D01*
X119551Y55031D01*
D02*
G37*
G36*
X74640Y54281D02*
X74460D01*
X74287Y54234D01*
X74132Y54145D01*
X74005Y54018D01*
X73915Y53863D01*
X73869Y53690D01*
Y53510D01*
X73915Y53337D01*
X74005Y53182D01*
X74072Y53115D01*
X74056Y52959D01*
X74032Y52945D01*
X73905Y52818D01*
X73815Y52663D01*
X73769Y52490D01*
Y52310D01*
X73815Y52137D01*
X73905Y51982D01*
X74032Y51855D01*
X74187Y51765D01*
X74360Y51719D01*
X74540D01*
X74713Y51765D01*
X74868Y51855D01*
X74995Y51982D01*
X75084Y52137D01*
X75131Y52310D01*
Y52490D01*
X75084Y52663D01*
X74995Y52818D01*
X74928Y52885D01*
X74943Y53041D01*
X74968Y53055D01*
X75095Y53182D01*
X75184Y53337D01*
X75231Y53510D01*
Y53690D01*
X75184Y53863D01*
X75095Y54018D01*
X74968Y54145D01*
X74813Y54234D01*
X74640Y54281D01*
D02*
G37*
G36*
X39690Y52489D02*
X39510D01*
X39337Y52442D01*
X39182Y52353D01*
X39055Y52226D01*
X38965Y52070D01*
X38919Y51897D01*
Y51718D01*
X38965Y51545D01*
X39055Y51389D01*
X39182Y51263D01*
X39337Y51173D01*
X39510Y51127D01*
X39690D01*
X39863Y51173D01*
X40018Y51263D01*
X40145Y51389D01*
X40235Y51545D01*
X40281Y51718D01*
Y51897D01*
X40235Y52070D01*
X40145Y52226D01*
X40018Y52353D01*
X39863Y52442D01*
X39690Y52489D01*
D02*
G37*
G36*
X45640Y53581D02*
X45460D01*
X45287Y53535D01*
X45132Y53445D01*
X45005Y53318D01*
X44915Y53163D01*
X44869Y52990D01*
Y52810D01*
X44915Y52637D01*
X45005Y52482D01*
X45132Y52355D01*
X45279Y52270D01*
X45253Y52226D01*
X45207Y52053D01*
Y51873D01*
X45253Y51700D01*
X45343Y51545D01*
X45470Y51418D01*
X45478Y51413D01*
X45462Y51287D01*
X45452Y51285D01*
X45297Y51195D01*
X45170Y51068D01*
X45081Y50913D01*
X45034Y50740D01*
Y50560D01*
X45081Y50387D01*
X45170Y50232D01*
X45297Y50105D01*
X45452Y50015D01*
X45626Y49969D01*
X45805D01*
X45978Y50015D01*
X46133Y50105D01*
X46260Y50232D01*
X46350Y50387D01*
X46396Y50560D01*
Y50740D01*
X46350Y50913D01*
X46260Y51068D01*
X46133Y51195D01*
X46125Y51200D01*
X46141Y51326D01*
X46151Y51328D01*
X46306Y51418D01*
X46433Y51545D01*
X46522Y51700D01*
X46569Y51873D01*
Y52053D01*
X46522Y52226D01*
X46433Y52381D01*
X46306Y52508D01*
X46159Y52593D01*
X46185Y52637D01*
X46231Y52810D01*
Y52990D01*
X46185Y53163D01*
X46095Y53318D01*
X45968Y53445D01*
X45813Y53535D01*
X45640Y53581D01*
D02*
G37*
G36*
X63890Y51281D02*
X63710D01*
X63537Y51235D01*
X63382Y51145D01*
X63255Y51018D01*
X63165Y50863D01*
X63119Y50690D01*
Y50510D01*
X63165Y50337D01*
X63255Y50182D01*
X63382Y50055D01*
X63537Y49965D01*
X63710Y49919D01*
X63890D01*
X64063Y49965D01*
X64218Y50055D01*
X64345Y50182D01*
X64435Y50337D01*
X64481Y50510D01*
Y50690D01*
X64435Y50863D01*
X64345Y51018D01*
X64218Y51145D01*
X64063Y51235D01*
X63890Y51281D01*
D02*
G37*
G36*
X65940Y51131D02*
X65760D01*
X65587Y51085D01*
X65432Y50995D01*
X65305Y50868D01*
X65215Y50713D01*
X65169Y50540D01*
Y50360D01*
X65215Y50187D01*
X65305Y50032D01*
X65432Y49905D01*
X65587Y49815D01*
X65760Y49769D01*
X65940D01*
X66113Y49815D01*
X66268Y49905D01*
X66395Y50032D01*
X66485Y50187D01*
X66531Y50360D01*
Y50540D01*
X66485Y50713D01*
X66395Y50868D01*
X66268Y50995D01*
X66113Y51085D01*
X65940Y51131D01*
D02*
G37*
%LPD*%
D16*
X60000Y77046D02*
Y77100D01*
D66*
X69585Y63390D02*
Y63435D01*
X93150Y61550D02*
X93150Y61550D01*
X63947Y74797D02*
X64014Y74731D01*
D69*
X46650Y76990D02*
D03*
D76*
X64770Y73000D02*
D03*
D77*
X92800Y60350D02*
D03*
X80750Y63950D02*
D03*
X63750Y54400D02*
D03*
X72864Y59049D02*
D03*
X66650Y52450D02*
D03*
X69650Y50150D02*
D03*
X70950Y57650D02*
D03*
X78350Y62000D02*
D03*
X60000Y77100D02*
D03*
X69585Y63390D02*
D03*
X93150Y61550D02*
D03*
X44694Y61573D02*
D03*
X79850Y69100D02*
D03*
X71100Y66850D02*
D03*
X106650Y60000D02*
D03*
X113475Y59225D02*
D03*
X65839Y70000D02*
D03*
X50187Y68900D02*
D03*
X41900Y55300D02*
D03*
X50350Y51450D02*
D03*
X24200Y63900D02*
D03*
X35250Y64850D02*
D03*
X20697Y63300D02*
D03*
X44576Y65726D02*
D03*
X63947Y74797D02*
D03*
X7150Y67250D02*
D03*
X11950Y66000D02*
D03*
M02*
