G04*
G04 #@! TF.GenerationSoftware,Altium Limited,Altium Designer,21.3.2 (30)*
G04*
G04 Layer_Physical_Order=4*
G04 Layer_Color=16711680*
%FSLAX43Y43*%
%MOMM*%
G71*
G04*
G04 #@! TF.SameCoordinates,6B99F035-4501-4E24-B99D-2801729016C6*
G04*
G04*
G04 #@! TF.FilePolarity,Positive*
G04*
G01*
G75*
%ADD16C,0.203*%
%ADD22R,1.067X1.524*%
%ADD27R,1.270X1.016*%
%ADD29R,1.270X0.889*%
%ADD31R,1.016X1.270*%
%ADD66C,0.254*%
%ADD67C,0.305*%
%ADD68C,0.508*%
%ADD69C,1.500*%
%ADD70C,2.000*%
%ADD71C,2.200*%
%ADD72C,2.300*%
%ADD73C,2.300*%
%ADD74C,0.700*%
%ADD75R,1.500X1.500*%
%ADD76R,1.500X1.500*%
%ADD77C,0.600*%
G04:AMPARAMS|DCode=78|XSize=0.9mm|YSize=1.7mm|CornerRadius=0.225mm|HoleSize=0mm|Usage=FLASHONLY|Rotation=270.000|XOffset=0mm|YOffset=0mm|HoleType=Round|Shape=RoundedRectangle|*
%AMROUNDEDRECTD78*
21,1,0.900,1.250,0,0,270.0*
21,1,0.450,1.700,0,0,270.0*
1,1,0.450,-0.625,-0.225*
1,1,0.450,-0.625,0.225*
1,1,0.450,0.625,0.225*
1,1,0.450,0.625,-0.225*
%
%ADD78ROUNDEDRECTD78*%
G04:AMPARAMS|DCode=79|XSize=0.9mm|YSize=1.7mm|CornerRadius=0.225mm|HoleSize=0mm|Usage=FLASHONLY|Rotation=0.000|XOffset=0mm|YOffset=0mm|HoleType=Round|Shape=RoundedRectangle|*
%AMROUNDEDRECTD79*
21,1,0.900,1.250,0,0,0.0*
21,1,0.450,1.700,0,0,0.0*
1,1,0.450,0.225,-0.625*
1,1,0.450,-0.225,-0.625*
1,1,0.450,-0.225,0.625*
1,1,0.450,0.225,0.625*
%
%ADD79ROUNDEDRECTD79*%
%ADD80R,1.500X2.400*%
%ADD81R,0.800X1.300*%
G04:AMPARAMS|DCode=82|XSize=0.9mm|YSize=1.45mm|CornerRadius=0.05mm|HoleSize=0mm|Usage=FLASHONLY|Rotation=90.000|XOffset=0mm|YOffset=0mm|HoleType=Round|Shape=RoundedRectangle|*
%AMROUNDEDRECTD82*
21,1,0.900,1.351,0,0,90.0*
21,1,0.801,1.450,0,0,90.0*
1,1,0.099,0.676,0.401*
1,1,0.099,0.676,-0.401*
1,1,0.099,-0.676,-0.401*
1,1,0.099,-0.676,0.401*
%
%ADD82ROUNDEDRECTD82*%
G04:AMPARAMS|DCode=83|XSize=3.15mm|YSize=1.45mm|CornerRadius=0.051mm|HoleSize=0mm|Usage=FLASHONLY|Rotation=90.000|XOffset=0mm|YOffset=0mm|HoleType=Round|Shape=RoundedRectangle|*
%AMROUNDEDRECTD83*
21,1,3.150,1.349,0,0,90.0*
21,1,3.049,1.450,0,0,90.0*
1,1,0.102,0.674,1.524*
1,1,0.102,0.674,-1.524*
1,1,0.102,-0.674,-1.524*
1,1,0.102,-0.674,1.524*
%
%ADD83ROUNDEDRECTD83*%
G04:AMPARAMS|DCode=84|XSize=2.5mm|YSize=4.5mm|CornerRadius=0.625mm|HoleSize=0mm|Usage=FLASHONLY|Rotation=90.000|XOffset=0mm|YOffset=0mm|HoleType=Round|Shape=RoundedRectangle|*
%AMROUNDEDRECTD84*
21,1,2.500,3.250,0,0,90.0*
21,1,1.250,4.500,0,0,90.0*
1,1,1.250,1.625,0.625*
1,1,1.250,1.625,-0.625*
1,1,1.250,-1.625,-0.625*
1,1,1.250,-1.625,0.625*
%
%ADD84ROUNDEDRECTD84*%
G04:AMPARAMS|DCode=85|XSize=0.4mm|YSize=1.2mm|CornerRadius=0.05mm|HoleSize=0mm|Usage=FLASHONLY|Rotation=0.000|XOffset=0mm|YOffset=0mm|HoleType=Round|Shape=RoundedRectangle|*
%AMROUNDEDRECTD85*
21,1,0.400,1.100,0,0,0.0*
21,1,0.300,1.200,0,0,0.0*
1,1,0.100,0.150,-0.550*
1,1,0.100,-0.150,-0.550*
1,1,0.100,-0.150,0.550*
1,1,0.100,0.150,0.550*
%
%ADD85ROUNDEDRECTD85*%
%ADD86R,2.286X1.626*%
%ADD87R,1.575X1.219*%
D16*
X77111Y52467D02*
Y56168D01*
X77450Y56507D02*
Y59551D01*
X77111Y56168D02*
X77450Y56507D01*
X76431Y51786D02*
X77111Y52467D01*
X70013Y67955D02*
X76710D01*
X80055Y64610D01*
X69992Y67975D02*
X70013Y67955D01*
X67561Y61100D02*
X69203D01*
X67553Y61092D02*
X67561Y61100D01*
X67574Y62520D02*
X69120D01*
X71705Y61201D02*
Y61351D01*
X67553Y62541D02*
X67574Y62520D01*
X69808Y61705D02*
X71351D01*
X71705Y61351D01*
Y61201D02*
X72205Y60701D01*
X69203Y61100D02*
X69808Y61705D01*
X74110Y58579D02*
X74500Y58190D01*
X74110Y58579D02*
Y58655D01*
X74500Y55507D02*
Y58190D01*
X70900Y58554D02*
Y58895D01*
Y58554D02*
X71199Y58255D01*
X71201D01*
X72617Y56839D01*
X73319D01*
X68220Y53846D02*
X68611D01*
X70170Y52287D01*
X56551Y70751D02*
X57150Y71350D01*
X50329Y55800D02*
X51450Y56921D01*
X49639Y55800D02*
X50329D01*
X51450Y56921D02*
Y69300D01*
X112798Y65252D02*
X113648D01*
Y65098D02*
Y65252D01*
X73750Y62795D02*
X75405Y64450D01*
X76300D01*
X59650Y76750D02*
X60000Y77100D01*
X59650Y75106D02*
Y76750D01*
Y75106D02*
X61175Y73581D01*
X58800Y75382D02*
X60127Y74055D01*
X60745Y72083D02*
Y73437D01*
X60127Y74055D02*
X60127D01*
X60745Y73437D01*
X58800Y75382D02*
Y77150D01*
X61175Y72563D02*
Y73581D01*
X61200Y72450D02*
Y72538D01*
X61175Y72563D02*
X61200Y72538D01*
Y72450D02*
X62184Y71466D01*
X61647Y71148D02*
Y71181D01*
X60745Y72083D02*
X61647Y71181D01*
X62534Y71466D02*
X62610Y71390D01*
X62184Y71466D02*
X62534D01*
X73750Y60980D02*
Y62795D01*
X78185Y57707D02*
X79048Y58570D01*
X78152Y57707D02*
X78185D01*
X82588Y55550D02*
X83700D01*
X63950Y70205D02*
Y71889D01*
X66100Y67505D02*
Y68055D01*
X63950Y70205D02*
X66100Y68055D01*
X69200Y62600D02*
X70050D01*
X70950Y63500D01*
X69120Y62520D02*
X69200Y62600D01*
X46869Y52558D02*
X48982D01*
X49290Y52250D01*
X52887D01*
X46645Y52782D02*
X46869Y52558D01*
X52887Y52250D02*
X53162Y51975D01*
Y50727D02*
Y51975D01*
Y50727D02*
X54102Y49786D01*
X54747D01*
X44694Y59692D02*
Y60752D01*
Y59692D02*
X44737Y59650D01*
X70450Y56500D02*
X70863Y56087D01*
X73397D01*
X73810Y55673D01*
X46750Y56805D02*
X46800Y56755D01*
X46645Y54691D02*
X46800Y54846D01*
X46645Y52782D02*
Y54691D01*
X46800Y54846D02*
Y56755D01*
X74208Y51786D02*
X76431D01*
X73845Y54476D02*
X74054Y54685D01*
X73845Y52149D02*
Y54476D01*
Y52149D02*
X74208Y51786D01*
X74054Y54685D02*
Y55061D01*
X74500Y55507D01*
X70900Y58895D02*
X72205Y60199D01*
Y60701D01*
X80055Y59361D02*
Y64610D01*
X79048Y58570D02*
X79264D01*
X80055Y59361D01*
X82469Y55669D02*
Y57061D01*
X82461Y57069D02*
X82469Y57061D01*
X31097Y67072D02*
X31713Y66455D01*
X31097Y67072D02*
Y67193D01*
X31713Y66237D02*
Y66455D01*
X65700Y67105D02*
X66100Y67505D01*
X65700Y67050D02*
Y67105D01*
X54200Y70751D02*
X56551D01*
X57150Y71350D02*
Y73000D01*
X54401Y69850D02*
X56363D01*
X58077Y71564D01*
X41850Y50650D02*
X52110D01*
X114550Y68022D02*
Y68882D01*
X114450Y68982D02*
X114550Y68882D01*
X106250Y58050D02*
X106300Y58100D01*
X105150Y58050D02*
X106250D01*
X33350Y59050D02*
X33700Y58700D01*
Y57450D02*
Y58700D01*
X46750Y56805D02*
Y57200D01*
X31713Y66237D02*
X31927Y66450D01*
X30927Y65450D02*
X31713Y66237D01*
X31972Y57673D02*
X32195Y57450D01*
X30977Y58668D02*
X31972Y57673D01*
X31395Y57096D02*
X31396D01*
X31972Y57673D01*
X3950Y56550D02*
X5900D01*
X6000Y56450D01*
X1700Y66450D02*
X2167Y66917D01*
Y67467D02*
X2700Y68000D01*
X2167Y66917D02*
Y67467D01*
X2905Y64000D02*
X3305Y64400D01*
X4500D01*
X2850Y64000D02*
X2905D01*
X14150Y68200D02*
X15100Y67250D01*
X13200Y68200D02*
X14150D01*
X32195Y57450D02*
X33700D01*
X30850Y58668D02*
X30977D01*
X42498Y54348D02*
X43700Y55550D01*
X42498Y51298D02*
Y54348D01*
X41850Y50650D02*
X42498Y51298D01*
X30650Y65600D02*
X30800Y65450D01*
X28675Y65600D02*
X30650D01*
X31927Y66450D02*
X33650D01*
X30800Y65450D02*
X30927D01*
X83700Y55550D02*
X84950Y56800D01*
X82469Y55669D02*
X82588Y55550D01*
X84950Y56800D02*
X91850D01*
X93350Y58300D02*
X95600D01*
X95650Y58250D01*
X91850Y56800D02*
X93350Y58300D01*
X105150Y57720D02*
X105480Y57390D01*
X107585Y56800D02*
X109100D01*
X105150Y57720D02*
Y58050D01*
X105480Y57390D02*
X106995D01*
X107585Y56800D01*
X109267Y56840D02*
X109800Y57373D01*
X109140Y56840D02*
X109267D01*
X109800Y57373D02*
Y57500D01*
X109100Y56800D02*
X109140Y56840D01*
X113891Y68550D02*
X114323Y68982D01*
X114450D01*
X112250Y68550D02*
X113891D01*
X95650Y58250D02*
X99550D01*
X100800Y59500D01*
X100950D01*
X106200Y64750D01*
X110425Y63619D02*
X110750Y63944D01*
Y65700D01*
X110425Y63485D02*
Y63619D01*
X107150Y65700D02*
X108150D01*
X106200Y64750D02*
X107150Y65700D01*
X112700Y65350D02*
X112798Y65252D01*
X112700Y65350D02*
Y65700D01*
X110750Y67228D02*
X112072Y68550D01*
X110750Y65700D02*
Y67228D01*
X112072Y68550D02*
X112250D01*
X58214Y71564D02*
X59650Y73000D01*
X59690D01*
X58077Y71564D02*
X58214D01*
X61145Y75205D02*
Y76702D01*
Y75205D02*
X61800Y74550D01*
X62150Y75200D02*
Y77216D01*
Y75200D02*
X63700Y73650D01*
X62172Y74550D02*
X63285Y73437D01*
X63700Y72139D02*
X63950Y71889D01*
X63700Y72139D02*
Y73650D01*
X63285Y71761D02*
Y73437D01*
X61800Y74550D02*
X62172D01*
X63250Y70050D02*
Y71726D01*
X63285Y71761D01*
X63250Y70050D02*
X65445Y67855D01*
X47918Y59532D02*
X48037Y59650D01*
X46750Y57200D02*
X47918Y58368D01*
Y59532D01*
X48037Y59650D02*
Y61080D01*
X46583Y62534D02*
X48037Y61080D01*
X46456Y62534D02*
X46583D01*
X8675Y62825D02*
X9000Y63150D01*
X8675Y60300D02*
Y62825D01*
D22*
X5850Y68000D02*
D03*
X2598D02*
D03*
X108300Y58050D02*
D03*
X105048D02*
D03*
X10050Y68200D02*
D03*
X13302D02*
D03*
X112950Y57500D02*
D03*
X109698D02*
D03*
D27*
X114450Y66950D02*
D03*
Y68982D02*
D03*
X30800Y63418D02*
D03*
Y65450D02*
D03*
X30850Y60700D02*
D03*
Y58668D02*
D03*
X4500Y64400D02*
D03*
Y62368D02*
D03*
D29*
X44576Y64679D02*
D03*
Y62521D02*
D03*
X42696Y64712D02*
D03*
Y62553D02*
D03*
X50215Y64630D02*
D03*
Y62471D02*
D03*
X48335Y64630D02*
D03*
Y62471D02*
D03*
X46456Y64630D02*
D03*
Y62471D02*
D03*
D31*
X84768Y64050D02*
D03*
X86800D02*
D03*
X87100Y61800D02*
D03*
X85068D02*
D03*
X20100Y60200D02*
D03*
X18068D02*
D03*
X18150Y67300D02*
D03*
X20182D02*
D03*
X107250Y67800D02*
D03*
X105218D02*
D03*
X8200Y58500D02*
D03*
X10232D02*
D03*
D66*
X58820Y51712D02*
G03*
X58370Y51780I-420J-1262D01*
G01*
X58820Y51712D02*
G03*
X58896Y51700I78J242D01*
G01*
X77543Y55989D02*
X80104Y58550D01*
X78000Y55800D02*
X80100Y57900D01*
X76610Y51354D02*
X77543Y52288D01*
X78000Y52099D02*
Y55800D01*
X76799Y50897D02*
X78000Y52099D01*
X77543Y52288D02*
Y55989D01*
X80104Y58550D02*
X90109D01*
X92539Y60980D01*
X80100Y57900D02*
X91241D01*
X93800Y60459D02*
Y63950D01*
X92539Y60980D02*
X92580D01*
X93150Y61550D01*
X91241Y57900D02*
X93800Y60459D01*
X42696Y61679D02*
Y62616D01*
Y61679D02*
X43030Y61345D01*
X42530Y59636D02*
X42803Y59909D01*
Y60562D01*
X43030Y60789D01*
Y61345D01*
X63684Y54466D02*
X63750Y54400D01*
X63450Y54500D02*
X63484Y54466D01*
X63684D01*
X62200Y53250D02*
X63450Y54500D01*
X60412Y50588D02*
X61180Y49820D01*
X68184D02*
X69150Y50786D01*
X61180Y49820D02*
X68184D01*
X69334Y51243D02*
X69446Y51354D01*
X69006Y51900D02*
X69100D01*
X62861Y51243D02*
X69334D01*
X68806Y51700D02*
X69006Y51900D01*
X58896Y51700D02*
X68806D01*
X61112Y51070D02*
X61122Y51080D01*
X62698D02*
X62861Y51243D01*
X61122Y51080D02*
X62698D01*
X72412Y58400D02*
X73107D01*
X73494Y58788D02*
Y58930D01*
X73107Y58400D02*
X73494Y58788D01*
X74064Y59500D02*
X74743D01*
X73494Y58930D02*
X74064Y59500D01*
X69150Y50786D02*
X69524D01*
X69635Y50897D02*
X76799D01*
X69524Y50786D02*
X69635Y50897D01*
X71671Y58639D02*
X72174D01*
X72412Y58400D01*
X71604Y58705D02*
X71671Y58639D01*
X70548Y60450D02*
X71600D01*
X70402Y60951D02*
X70850D01*
X68230Y58779D02*
X70402Y60951D01*
X66041Y55950D02*
X68230Y58139D01*
Y58779D01*
X68687Y57950D02*
Y58590D01*
X66231Y55493D02*
X68687Y57950D01*
X64850Y55950D02*
X66041D01*
X65843Y55493D02*
X66231D01*
X68687Y58590D02*
X70548Y60450D01*
X42696Y62616D02*
X42777Y62697D01*
X56070Y72124D02*
Y76070D01*
X56800Y76800D01*
X42777Y62697D02*
Y63577D01*
X56500Y71600D02*
Y71694D01*
X113833Y65800D02*
X114960D01*
X113006Y66627D02*
X113833Y65800D01*
X106069Y66100D02*
X106150D01*
X106050D02*
X106069D01*
X106596Y66627D01*
X100669Y60700D02*
X106069Y66100D01*
X73201Y60350D02*
X75800D01*
X67900Y55450D02*
X68550Y54800D01*
X70900D01*
X71036Y54936D01*
X73449D01*
X47512Y53350D02*
X48800D01*
X47500Y53338D02*
X47512Y53350D01*
X48800D02*
X49450Y52700D01*
X53050D01*
X53605Y52145D01*
X50453Y53800D02*
X52900D01*
X50437Y53170D02*
X53430D01*
X48344Y55264D02*
X50437Y53170D01*
X53430D02*
X54348Y52252D01*
X53605Y51000D02*
Y52145D01*
Y51000D02*
X54115Y50490D01*
X54133D01*
X54162Y50462D01*
X54348Y51148D02*
Y52252D01*
Y51148D02*
X54376Y51120D01*
X54162Y50462D02*
X55188D01*
X44694Y61573D02*
X45827D01*
X45220Y58600D02*
X45564Y58944D01*
Y59377D01*
X45220Y56430D02*
Y58600D01*
Y56430D02*
X45879Y55771D01*
X59800Y53150D02*
X59900Y53250D01*
X62200D01*
X74731Y52588D02*
X75537D01*
X69446Y51354D02*
X76610D01*
X74550Y53600D02*
Y54900D01*
X75123Y55473D01*
Y55850D01*
X74543Y52400D02*
X74731Y52588D01*
X74450Y52400D02*
X74543D01*
X72907Y60644D02*
Y60823D01*
X72458Y61272D02*
Y61337D01*
X72907Y60644D02*
X73201Y60350D01*
X72458Y61272D02*
X72907Y60823D01*
X74743Y59500D02*
X75393Y58850D01*
X75800D01*
X65300Y54950D02*
X65843Y55493D01*
X57300Y52850D02*
X58370Y51780D01*
X57300Y52850D02*
Y53750D01*
X75537Y52588D02*
X75800Y52850D01*
X8870Y56450D02*
X9048D01*
X56070Y72124D02*
X56500Y71694D01*
X106650Y60000D02*
X108150D01*
X113173Y59527D02*
X113475Y59225D01*
X112700Y59600D02*
X112773Y59527D01*
X113173D01*
X112700Y59600D02*
Y60000D01*
X45827Y61573D02*
X46664Y60736D01*
X45550Y54217D02*
X45879Y54547D01*
Y55771D01*
X45550Y52900D02*
Y54217D01*
X28675Y63300D02*
X33498D01*
X35250Y64418D02*
Y64850D01*
X33980Y63148D02*
X35250Y64418D01*
X33650Y63148D02*
X33980D01*
X20697Y63300D02*
X22525D01*
X15687Y59750D02*
X16187Y60250D01*
X12756Y59750D02*
X15687D01*
X13500Y58300D02*
X14550D01*
X13450Y58250D02*
X13500Y58300D01*
X42778Y64566D02*
X46456D01*
X83100Y56271D02*
X84107Y57278D01*
X83100Y56200D02*
Y56271D01*
X84107Y57278D02*
X91378D01*
X93250Y59150D01*
X98300D01*
X99850Y60700D01*
X100669D01*
X108727Y65773D02*
Y66356D01*
X106596Y66627D02*
X108456D01*
X108727Y65773D02*
X108800Y65700D01*
X108456Y66627D02*
X108727Y66356D01*
X112394Y66627D02*
X113006D01*
X112050Y65700D02*
X112123Y65773D01*
Y66356D01*
X112394Y66627D01*
X48801Y56665D02*
X48950Y56814D01*
X48801Y55453D02*
Y56665D01*
Y55453D02*
X50453Y53800D01*
X48344Y56854D02*
X48350Y56860D01*
X48344Y55264D02*
Y56854D01*
X48350Y56860D02*
Y58451D01*
X48950Y56814D02*
Y58363D01*
X49260Y58673D01*
X49672D01*
X49864Y58865D02*
Y59027D01*
X49672Y58673D02*
X49864Y58865D01*
Y59027D02*
X50237Y59400D01*
Y59650D01*
X49137Y59400D02*
Y61733D01*
X48764Y58865D02*
Y59027D01*
X49137Y59400D01*
X48350Y58451D02*
X48764Y58865D01*
X44576Y64616D02*
Y65726D01*
X46664Y59923D02*
Y60736D01*
Y59923D02*
X46937Y59650D01*
X45049Y63700D02*
X45081Y63668D01*
X44576Y62584D02*
X44827D01*
X44449D02*
X44576D01*
X44827D02*
X45081Y62838D01*
Y63668D01*
X45049Y63700D02*
X45081Y63732D01*
X48335Y64566D02*
X50215D01*
X46456D02*
X48335D01*
X42696Y64648D02*
X42778Y64566D01*
X50215Y59671D02*
Y62534D01*
Y59671D02*
X50237Y59650D01*
X48335Y62534D02*
X48462D01*
X48843Y62153D01*
Y62026D02*
Y62153D01*
Y62026D02*
X49137Y61733D01*
X43637Y59650D02*
Y61437D01*
X44068Y61868D01*
Y62203D02*
X44449Y62584D01*
X44068Y61868D02*
Y62203D01*
X45564Y59377D02*
X45837Y59650D01*
X33498Y63300D02*
X33650Y63148D01*
X12450Y58250D02*
X13450D01*
X12695Y59689D02*
X12756Y59750D01*
X11275Y60300D02*
X12084D01*
X12695Y59689D01*
X6725Y59900D02*
Y60300D01*
X5941Y59116D02*
X6725Y59900D01*
X11430Y59270D02*
X12450Y58250D01*
X11067Y59270D02*
X11430D01*
X10698Y59639D02*
X11067Y59270D01*
X10698Y59639D02*
Y60227D01*
X10625Y60300D02*
X10698Y60227D01*
X7000Y59000D02*
X7100D01*
X7375Y59275D01*
Y60300D01*
X9975Y58757D02*
Y60300D01*
Y58757D02*
X10232Y58500D01*
X6798Y66073D02*
Y66804D01*
X6725Y66000D02*
X6798Y66073D01*
Y66804D02*
X7150Y67156D01*
Y67250D01*
X11275Y66000D02*
X11950D01*
X9975Y68023D02*
X10152Y68200D01*
X9975Y66000D02*
Y68023D01*
X5948Y68200D02*
X7650D01*
X5748Y68000D02*
X5948Y68200D01*
X8025Y66000D02*
Y67825D01*
X7650Y68200D02*
X8025Y67825D01*
D67*
X95078Y56256D02*
X110248D01*
X94815Y56519D02*
X95078Y56256D01*
X94031Y56519D02*
X94815D01*
X23100Y60200D02*
X23400Y59900D01*
X20100Y60200D02*
X23100D01*
X13426Y66500D02*
X13676Y66250D01*
X14177D01*
X13350Y66500D02*
X13426D01*
X14177Y66250D02*
X20100Y60327D01*
X9050Y66000D02*
Y67100D01*
X86550Y59800D02*
Y59880D01*
X40943Y59537D02*
X41870Y58610D01*
X44172D02*
X44263Y58518D01*
X41870Y58610D02*
X44172D01*
X36587Y59537D02*
X40943D01*
X35194Y59456D02*
X35250Y59400D01*
X34030Y60752D02*
X35194Y59589D01*
Y59456D02*
Y59589D01*
X40257Y58744D02*
X40289D01*
X41079Y57954D01*
X43900D01*
X45896Y56788D02*
Y58304D01*
Y56788D02*
X46195Y56489D01*
X34360Y61412D02*
X37162D01*
X42350Y66600D01*
X30850Y60700D02*
Y61000D01*
X33700Y60752D02*
X33783Y60835D01*
X34360Y61412D01*
X30850Y61000D02*
X33617D01*
X18068Y60073D02*
Y60200D01*
Y60073D02*
X19641Y58500D01*
X24543D01*
X22366Y66817D02*
X22620Y66563D01*
X20538Y66817D02*
X22366D01*
X20100Y60200D02*
Y60327D01*
X13395Y65000D02*
X18068Y60327D01*
X11006Y65000D02*
X13395D01*
X18068Y60200D02*
Y60327D01*
X20182Y67173D02*
X20538Y66817D01*
X20182Y67173D02*
Y67300D01*
X18150Y67173D02*
X19359Y65964D01*
X19801D02*
X19857Y65907D01*
X18150Y67173D02*
Y67300D01*
X19359Y65964D02*
X19801D01*
X87050Y61750D02*
X87100Y61800D01*
X86750Y60358D02*
X87050Y60658D01*
Y61750D01*
X86550Y59880D02*
X86750Y60080D01*
Y60358D01*
X88350Y60530D02*
Y63270D01*
X88150Y60330D02*
X88350Y60530D01*
X88150Y60250D02*
Y60330D01*
X110248Y56256D02*
X110584Y56592D01*
X95869Y57350D02*
X102150D01*
X95430Y56911D02*
X95869Y57350D01*
X95350Y56911D02*
X95430D01*
X84712Y61444D02*
X85068Y61800D01*
X84712Y60212D02*
Y61444D01*
X83018Y64050D02*
X84768D01*
X87300Y63550D02*
X88550D01*
X87283Y63567D02*
X87300Y63550D01*
X86800Y63923D02*
Y64050D01*
Y63923D02*
X87156Y63567D01*
X87283D01*
X107250Y67800D02*
X107550Y67500D01*
X107582D01*
X109450Y65700D02*
Y67050D01*
X109000Y67500D02*
X109450Y67050D01*
X107582Y67500D02*
X109000D01*
X28675Y61000D02*
X30850D01*
X102150Y57350D02*
X105752Y60952D01*
X109133D01*
X110584Y56592D02*
Y56834D01*
X110750Y57000D01*
Y60000D01*
X112848Y57500D02*
X112898D01*
X111400Y58188D02*
Y60000D01*
Y58188D02*
X111579Y58010D01*
X112619D01*
X112898Y57730D01*
Y57500D02*
Y57730D01*
X109271Y58614D02*
X109450Y58793D01*
X108665Y58614D02*
X109271D01*
X108349Y58299D02*
X108665Y58614D01*
X109450Y58793D02*
Y60000D01*
X108198Y58050D02*
X108349Y58201D01*
Y58299D01*
X108800Y60000D02*
X108848Y60048D01*
Y60667D01*
X109133Y60952D01*
X111717D01*
X112002Y60667D01*
Y60048D02*
Y60667D01*
Y60048D02*
X112050Y60000D01*
X110100D02*
X110750D01*
X111400Y65700D02*
Y67232D01*
X111756Y67588D01*
X113967Y67306D02*
X114323Y66950D01*
X113183Y67588D02*
X113195Y67600D01*
X113789D02*
X113967Y67421D01*
X114323Y66950D02*
X114450D01*
X111756Y67588D02*
X113183D01*
X113967Y67306D02*
Y67421D01*
X113195Y67600D02*
X113789D01*
X109202Y68550D02*
X109380D01*
X110100Y65700D02*
Y67830D01*
X109380Y68550D02*
X110100Y67830D01*
X33783Y60835D02*
X33865Y60752D01*
X33617Y61000D02*
X33783Y60835D01*
X33865Y60752D02*
X34030D01*
X8200Y57120D02*
X8870Y56450D01*
X8200Y57120D02*
Y58500D01*
X5779Y62368D02*
X6600Y61548D01*
X4500Y62368D02*
X5779D01*
X7977Y60348D02*
X8025Y60300D01*
X7977Y60348D02*
Y60967D01*
X7396Y61548D02*
X7977Y60967D01*
X6600Y61548D02*
X7396D01*
X9277Y59633D02*
Y60252D01*
X8627Y58983D02*
X9277Y59633D01*
X8556Y58983D02*
X8627D01*
X8200Y58627D02*
X8556Y58983D01*
X8200Y58500D02*
Y58627D01*
X9277Y60252D02*
X9325Y60300D01*
X8675Y66000D02*
X9050D01*
X9000Y67150D02*
X9050Y67100D01*
X7756Y65000D02*
X11006D01*
X10673Y65333D02*
Y65952D01*
Y65333D02*
X11006Y65000D01*
X10625Y66000D02*
X10673Y65952D01*
X7423Y65333D02*
X7756Y65000D01*
X7375Y66000D02*
X7423Y65952D01*
Y65333D02*
Y65952D01*
D68*
X71987Y68513D02*
X79366D01*
X79937Y67942D01*
X105076D02*
X105218Y67800D01*
X79937Y67942D02*
X105076D01*
X62527Y77973D02*
X71987Y68513D01*
X50863Y71534D02*
Y74534D01*
X54302Y77973D02*
X62527D01*
X50863Y74534D02*
X54302Y77973D01*
X46477Y67050D02*
X48670Y69243D01*
Y69341D01*
X50863Y71534D01*
X42933Y67050D02*
X46477D01*
X29238Y67951D02*
X40999D01*
X26401Y65114D02*
X29238Y67951D01*
X40999D02*
X42350Y66600D01*
X42483D02*
X42933Y67050D01*
X42350Y66600D02*
X42483D01*
X8870Y56450D02*
X23564D01*
X26401Y59287D02*
Y65114D01*
X23564Y56450D02*
X26401Y59287D01*
X108863Y68889D02*
X109202Y68550D01*
X106180Y68889D02*
X108863D01*
X105218Y67927D02*
X106180Y68889D01*
D69*
X42350Y66600D02*
D03*
X36750D02*
D03*
X39550D02*
D03*
X46650Y76990D02*
D03*
Y74450D02*
D03*
Y71910D02*
D03*
X62230Y73000D02*
D03*
X59690D02*
D03*
X57150D02*
D03*
X54610D02*
D03*
X52070D02*
D03*
D70*
X81750Y60750D02*
D03*
X58400Y50450D02*
D03*
D71*
X58450Y94950D02*
D03*
Y69950D02*
D03*
D72*
X119400Y71500D02*
D03*
Y53500D02*
D03*
D73*
X-2500D02*
D03*
Y71500D02*
D03*
D74*
X109028Y63485D02*
D03*
Y62215D02*
D03*
X110425Y63485D02*
D03*
Y62215D02*
D03*
X111949Y63485D02*
D03*
Y62342D02*
D03*
X10397Y62515D02*
D03*
Y63785D02*
D03*
X9000Y62515D02*
D03*
Y63785D02*
D03*
X7476Y62515D02*
D03*
Y63658D02*
D03*
D75*
X46650Y69370D02*
D03*
D76*
X64770Y73000D02*
D03*
D77*
X74037Y67350D02*
D03*
X92800Y60350D02*
D03*
X80750Y63950D02*
D03*
X53100Y75700D02*
D03*
X51250Y70850D02*
D03*
X42400Y61050D02*
D03*
X63750Y54400D02*
D03*
X65850Y50450D02*
D03*
X63800Y50600D02*
D03*
X67963Y61783D02*
D03*
X67553Y61092D02*
D03*
Y62541D02*
D03*
X74110Y58655D02*
D03*
X72864Y59049D02*
D03*
X66650Y52450D02*
D03*
X69650Y50150D02*
D03*
X70950Y57650D02*
D03*
X71604Y58705D02*
D03*
X70350Y59361D02*
D03*
X45715Y50650D02*
D03*
X68220Y53846D02*
D03*
X73319Y56839D02*
D03*
X14550Y58300D02*
D03*
X95350Y56911D02*
D03*
X70170Y52287D02*
D03*
X42777Y63577D02*
D03*
X56800Y76800D02*
D03*
X16187Y60250D02*
D03*
X94031Y56519D02*
D03*
X62150Y77216D02*
D03*
X56500Y71600D02*
D03*
X54401Y69850D02*
D03*
X51450Y69300D02*
D03*
X49639Y55800D02*
D03*
X22620Y66563D02*
D03*
X19857Y65907D02*
D03*
X77450Y59551D02*
D03*
X7000Y59000D02*
D03*
X5700Y59050D02*
D03*
X23400Y59900D02*
D03*
X13350Y66500D02*
D03*
X9000Y67150D02*
D03*
X113648Y65098D02*
D03*
X106150Y66100D02*
D03*
X114960Y65800D02*
D03*
X79387Y61814D02*
D03*
X78350Y62000D02*
D03*
X77250Y62200D02*
D03*
X76300Y64450D02*
D03*
X60000Y77100D02*
D03*
X61647Y71148D02*
D03*
X62610Y71390D02*
D03*
X73750Y60980D02*
D03*
X78152Y57707D02*
D03*
X73810Y55673D02*
D03*
X83100Y56200D02*
D03*
X73449Y54936D02*
D03*
X82461Y57069D02*
D03*
X86550Y59800D02*
D03*
X69929Y67941D02*
D03*
X65445Y67855D02*
D03*
X65700Y67050D02*
D03*
X69585Y63390D02*
D03*
X70950Y63500D02*
D03*
X84700Y60120D02*
D03*
X93150Y61550D02*
D03*
X93800Y63950D02*
D03*
X88550Y63550D02*
D03*
X83018Y64050D02*
D03*
X24543Y58500D02*
D03*
X70444Y55430D02*
D03*
X67900Y55450D02*
D03*
X45550Y52900D02*
D03*
X47500Y53338D02*
D03*
X52900Y53800D02*
D03*
X54376Y51120D02*
D03*
X61112Y51070D02*
D03*
X60412Y50588D02*
D03*
X55188Y50462D02*
D03*
X54747Y49786D02*
D03*
X44694Y61573D02*
D03*
Y60752D02*
D03*
X45896Y58384D02*
D03*
X43900Y57954D02*
D03*
X35250Y59400D02*
D03*
X40257Y58744D02*
D03*
X44590Y58462D02*
D03*
X36587Y59537D02*
D03*
X61145Y76702D02*
D03*
X70450Y56500D02*
D03*
X58800Y77150D02*
D03*
X54200Y70751D02*
D03*
X46195Y56489D02*
D03*
X74550Y53600D02*
D03*
X74450Y52400D02*
D03*
X71600Y60450D02*
D03*
X72458Y61337D02*
D03*
X71100Y61100D02*
D03*
X64850Y55950D02*
D03*
X65300Y54950D02*
D03*
X57300Y53750D02*
D03*
X69100Y51900D02*
D03*
X31097Y67193D02*
D03*
X52903Y69073D02*
D03*
X40471Y56571D02*
D03*
X39600Y51808D02*
D03*
X79850Y69100D02*
D03*
X71100Y66850D02*
D03*
X66778Y70937D02*
D03*
X106650Y60000D02*
D03*
X113475Y59225D02*
D03*
X114550Y68022D02*
D03*
X106300Y58100D02*
D03*
X65839Y70000D02*
D03*
X70150Y75400D02*
D03*
X74450Y69750D02*
D03*
X73000Y63310D02*
D03*
X50187Y68900D02*
D03*
X41900Y55300D02*
D03*
X44950Y55237D02*
D03*
X45888Y51963D02*
D03*
X50350Y51450D02*
D03*
X24200Y63900D02*
D03*
X27500Y59450D02*
D03*
X33350Y59050D02*
D03*
X33850Y64750D02*
D03*
X35250Y64850D02*
D03*
X31395Y57096D02*
D03*
X20697Y63300D02*
D03*
X3950Y56550D02*
D03*
X1700Y66450D02*
D03*
X2850Y64000D02*
D03*
X15100Y67250D02*
D03*
X43700Y55550D02*
D03*
X88150Y60250D02*
D03*
X92733Y65500D02*
D03*
X106200Y64750D02*
D03*
X61950Y50450D02*
D03*
X44576Y65726D02*
D03*
X63947Y74797D02*
D03*
X48013Y66723D02*
D03*
X45081Y63732D02*
D03*
X67600Y58400D02*
D03*
X81732Y67185D02*
D03*
X12695Y59689D02*
D03*
X7150Y67250D02*
D03*
X11950Y66000D02*
D03*
D78*
X59800Y63650D02*
D03*
Y62150D02*
D03*
Y60650D02*
D03*
Y59150D02*
D03*
Y57650D02*
D03*
Y56150D02*
D03*
Y54650D02*
D03*
Y53150D02*
D03*
X75800Y54250D02*
D03*
Y55750D02*
D03*
Y57250D02*
D03*
Y58750D02*
D03*
Y60250D02*
D03*
Y61750D02*
D03*
Y63250D02*
D03*
Y52750D02*
D03*
D79*
X62550Y65250D02*
D03*
X64050D02*
D03*
X65550D02*
D03*
X67050D02*
D03*
X68550D02*
D03*
X70050D02*
D03*
X71550D02*
D03*
X73050D02*
D03*
D80*
X52110Y50650D02*
D03*
X41850D02*
D03*
D81*
X50237Y59650D02*
D03*
X48037D02*
D03*
X49137D02*
D03*
X46937D02*
D03*
X45837D02*
D03*
X44737D02*
D03*
X43637D02*
D03*
X42530Y59636D02*
D03*
D82*
X28675Y65600D02*
D03*
Y63300D02*
D03*
Y61000D02*
D03*
D83*
X22525Y63300D02*
D03*
D84*
X110425Y62850D02*
D03*
X9000Y63150D02*
D03*
D85*
X112700Y60000D02*
D03*
X112050D02*
D03*
X111400D02*
D03*
X110750D02*
D03*
X110100D02*
D03*
X109450D02*
D03*
X108800D02*
D03*
X108150D02*
D03*
X112700Y65700D02*
D03*
X112050D02*
D03*
X111400D02*
D03*
X110750D02*
D03*
X110100D02*
D03*
X109450D02*
D03*
X108800D02*
D03*
X108150D02*
D03*
X6725Y66000D02*
D03*
X7375D02*
D03*
X8025D02*
D03*
X9975D02*
D03*
X10625D02*
D03*
X11275D02*
D03*
X6725Y60300D02*
D03*
X7375D02*
D03*
X8025D02*
D03*
X8675D02*
D03*
X9325D02*
D03*
X9975D02*
D03*
X10625D02*
D03*
X11275D02*
D03*
X9325Y66000D02*
D03*
X8675D02*
D03*
D86*
X33650Y63148D02*
D03*
Y66450D02*
D03*
X33700Y60752D02*
D03*
Y57450D02*
D03*
D87*
X109202Y68550D02*
D03*
X112250D02*
D03*
X9048Y56450D02*
D03*
X6000D02*
D03*
M02*
