G04*
G04 #@! TF.GenerationSoftware,Altium Limited,Altium Designer,21.3.2 (30)*
G04*
G04 Layer_Color=255*
%FSLAX43Y43*%
%MOMM*%
G71*
G04*
G04 #@! TF.SameCoordinates,EE666E5B-AA11-4746-8CD4-C77901DC4081*
G04*
G04*
G04 #@! TF.FilePolarity,Positive*
G04*
G01*
G75*
%ADD13R,0.889X1.270*%
%ADD14R,1.270X0.889*%
%ADD15R,0.300X1.000*%
%ADD16R,1.650X1.300*%
%ADD17R,1.321X1.143*%
%ADD26C,2.300*%
D13*
X71155Y-2300D02*
D03*
X68996D02*
D03*
X43536Y4400D02*
D03*
X45695D02*
D03*
X66396Y-500D02*
D03*
X64237D02*
D03*
X6236Y-2300D02*
D03*
X8396D02*
D03*
X3895Y-4600D02*
D03*
X1737D02*
D03*
X2204Y-2600D02*
D03*
X4364D02*
D03*
X73136Y-4800D02*
D03*
X75296D02*
D03*
X72536Y-2900D02*
D03*
X74696D02*
D03*
X59796Y2600D02*
D03*
X57637D02*
D03*
X39836Y4400D02*
D03*
X41995D02*
D03*
X8363Y-600D02*
D03*
X6205D02*
D03*
X68237Y-200D02*
D03*
X70396D02*
D03*
X63137Y1400D02*
D03*
X65296D02*
D03*
X58336Y800D02*
D03*
X60495D02*
D03*
X12764Y1100D02*
D03*
X10604D02*
D03*
X19496Y1000D02*
D03*
X17337D02*
D03*
X12764Y-600D02*
D03*
X10604D02*
D03*
X36204Y4700D02*
D03*
X38363D02*
D03*
X32536D02*
D03*
X34695D02*
D03*
X19295Y2800D02*
D03*
X17136D02*
D03*
D14*
X47300Y4563D02*
D03*
Y2405D02*
D03*
X49100Y4496D02*
D03*
Y2336D02*
D03*
X29200Y2204D02*
D03*
Y4364D02*
D03*
X27400Y4595D02*
D03*
Y2437D02*
D03*
D15*
X43150Y700D02*
D03*
X42650D02*
D03*
X42150D02*
D03*
X39650D02*
D03*
X39150D02*
D03*
X37650D02*
D03*
X37150D02*
D03*
X33650D02*
D03*
X34150D02*
D03*
X34650D02*
D03*
X35150D02*
D03*
X35650D02*
D03*
X36150D02*
D03*
X36650D02*
D03*
X38150D02*
D03*
X38650D02*
D03*
X40150D02*
D03*
X40650D02*
D03*
X41150D02*
D03*
X41650D02*
D03*
D16*
X31375Y-1200D02*
D03*
X45425D02*
D03*
D17*
X51200Y3800D02*
D03*
Y1133D02*
D03*
X25500Y1100D02*
D03*
Y3767D02*
D03*
D26*
X23700Y-1120D02*
D03*
X53300D02*
D03*
X2000Y-8100D02*
D03*
X75000D02*
D03*
M02*
