G04*
G04 #@! TF.GenerationSoftware,Altium Limited,Altium Designer,21.3.2 (30)*
G04*
G04 Layer_Color=2752767*
%FSLAX43Y43*%
%MOMM*%
G71*
G04*
G04 #@! TF.SameCoordinates,7B8A77F7-BE70-4231-B636-A4ED740270BE*
G04*
G04*
G04 #@! TF.FilePolarity,Positive*
G04*
G01*
G75*
%ADD37C,0.051*%
%ADD38C,0.068*%
D37*
X23497Y-1323D02*
Y-917D01*
X23903D01*
Y-1323D01*
X23497D01*
X53097D02*
Y-917D01*
X53503D01*
Y-1323D01*
X53097D01*
X1797Y-8303D02*
Y-7897D01*
X2203D01*
Y-8303D01*
X1797D01*
X74797D02*
Y-7897D01*
X75203D01*
Y-8303D01*
X74797D01*
D38*
X52521Y4100D02*
G03*
X52521Y4100I-203J0D01*
G01*
X41203Y4600D02*
G03*
X41203Y4600I-203J0D01*
G01*
X38544Y3241D02*
G03*
X38544Y3241I-203J0D01*
G01*
X38603Y1800D02*
G03*
X38603Y1800I-203J0D01*
G01*
X50181Y3169D02*
G03*
X50181Y3169I-203J0D01*
G01*
X44803Y500D02*
G03*
X44803Y500I-203J0D01*
G01*
X46303Y200D02*
G03*
X46303Y200I-203J0D01*
G01*
X41634Y-1890D02*
G03*
X41634Y-1890I-203J0D01*
G01*
X40103Y-2100D02*
G03*
X40103Y-2100I-203J0D01*
G01*
X43872Y-190D02*
G03*
X43872Y-190I-203J0D01*
G01*
X42963Y-290D02*
G03*
X42963Y-290I-203J0D01*
G01*
X51503Y-100D02*
G03*
X51503Y-100I-203J0D01*
G01*
X55788Y1555D02*
G03*
X55788Y1555I-203J0D01*
G01*
X54152Y1951D02*
G03*
X54152Y1951I-203J0D01*
G01*
X56938Y2567D02*
G03*
X56938Y2567I-203J0D01*
G01*
X61903Y404D02*
G03*
X61903Y404I-203J0D01*
G01*
X53803Y3600D02*
G03*
X53803Y3600I-203J0D01*
G01*
X59097Y2733D02*
G03*
X59097Y2733I-203J0D01*
G01*
X56338Y4007D02*
G03*
X56338Y4007I-203J0D01*
G01*
X62243Y2055D02*
G03*
X62243Y2055I-203J0D01*
G01*
X42803Y3273D02*
G03*
X42803Y3273I-203J0D01*
G01*
X41903Y1900D02*
G03*
X41903Y1900I-203J0D01*
G01*
X46921Y3306D02*
G03*
X46921Y3306I-203J0D01*
G01*
X65564Y-1748D02*
G03*
X65564Y-1748I-203J0D01*
G01*
X67603Y790D02*
G03*
X67603Y790I-203J0D01*
G01*
X62889Y2703D02*
G03*
X62889Y2703I-203J0D01*
G01*
X64523Y1027D02*
G03*
X64523Y1027I-203J0D01*
G01*
X62948Y-460D02*
G03*
X62948Y-460I-203J0D01*
G01*
X67550Y-1290D02*
G03*
X67550Y-1290I-203J0D01*
G01*
X72863Y-1500D02*
G03*
X72863Y-1500I-203J0D01*
G01*
X69412Y-661D02*
G03*
X69412Y-661I-203J0D01*
G01*
X77103Y-4400D02*
G03*
X77103Y-4400I-203J0D01*
G01*
X7621Y-2682D02*
G03*
X7621Y-2682I-203J0D01*
G01*
X73903Y-2900D02*
G03*
X73903Y-2900I-203J0D01*
G01*
X28605Y3197D02*
G03*
X28605Y3197I-203J0D01*
G01*
X39194Y-1500D02*
G03*
X39194Y-1500I-203J0D01*
G01*
X37103Y3267D02*
G03*
X37103Y3267I-203J0D01*
G01*
X33903Y5400D02*
G03*
X33903Y5400I-203J0D01*
G01*
X26303Y4800D02*
G03*
X26303Y4800I-203J0D01*
G01*
X37454Y-2151D02*
G03*
X37454Y-2151I-203J0D01*
G01*
X36453Y-2501D02*
G03*
X36453Y-2501I-203J0D01*
G01*
X37003Y-1300D02*
G03*
X37003Y-1300I-203J0D01*
G01*
X36793Y-410D02*
G03*
X36793Y-410I-203J0D01*
G01*
X33247Y1236D02*
G03*
X33247Y1236I-203J0D01*
G01*
X33103Y3200D02*
G03*
X33103Y3200I-203J0D01*
G01*
X30603Y3100D02*
G03*
X30603Y3100I-203J0D01*
G01*
X34703Y-2400D02*
G03*
X34703Y-2400I-203J0D01*
G01*
X33454Y-2049D02*
G03*
X33454Y-2049I-203J0D01*
G01*
X22003Y100D02*
G03*
X22003Y100I-203J0D01*
G01*
X21603Y1751D02*
G03*
X21603Y1751I-203J0D01*
G01*
X14815Y1059D02*
G03*
X14815Y1059I-203J0D01*
G01*
X16786Y-17D02*
G03*
X16786Y-17I-203J0D01*
G01*
X9703Y-1121D02*
G03*
X9703Y-1121I-203J0D01*
G01*
X3197Y-4800D02*
G03*
X3197Y-4800I-203J0D01*
G01*
X20403Y2593D02*
G03*
X20403Y2593I-203J0D01*
G01*
X3309Y-2100D02*
G03*
X3309Y-2100I-203J0D01*
G01*
M02*
