G04*
G04 #@! TF.GenerationSoftware,Altium Limited,Altium Designer,21.3.2 (30)*
G04*
G04 Layer_Color=128*
%FSLAX43Y43*%
%MOMM*%
G71*
G04*
G04 #@! TF.SameCoordinates,EE666E5B-AA11-4746-8CD4-C77901DC4081*
G04*
G04*
G04 #@! TF.FilePolarity,Positive*
G04*
G01*
G75*
%ADD37C,0.051*%
D37*
X22550Y-1120D02*
X24850D01*
X23700Y-2270D02*
Y30D01*
X52150Y-1120D02*
X54450D01*
X53300Y-2270D02*
Y30D01*
X850Y-8100D02*
X3150D01*
X2000Y-9250D02*
Y-6950D01*
X73850Y-8100D02*
X76150D01*
X75000Y-9250D02*
Y-6950D01*
X52165Y4100D02*
X52470D01*
X52318Y3948D02*
Y4252D01*
X40848Y4600D02*
X41152D01*
X41000Y4448D02*
Y4752D01*
X38188Y3241D02*
X38493D01*
X38341Y3088D02*
Y3393D01*
X38248Y1800D02*
X38552D01*
X38400Y1648D02*
Y1952D01*
X49825Y3169D02*
X50130D01*
X49978Y3016D02*
Y3321D01*
X44448Y500D02*
X44752D01*
X44600Y348D02*
Y652D01*
X45948Y200D02*
X46252D01*
X46100Y48D02*
Y352D01*
X41279Y-1890D02*
X41583D01*
X41431Y-2043D02*
Y-1738D01*
X39748Y-2100D02*
X40052D01*
X39900Y-2252D02*
Y-1948D01*
X43516Y-190D02*
X43821D01*
X43669Y-343D02*
Y-38D01*
X42607Y-290D02*
X42912D01*
X42760Y-443D02*
Y-138D01*
X51148Y-100D02*
X51452D01*
X51300Y-252D02*
Y52D01*
X55433Y1555D02*
X55737D01*
X55585Y1402D02*
Y1707D01*
X53797Y1951D02*
X54101D01*
X53949Y1799D02*
Y2103D01*
X56582Y2567D02*
X56887D01*
X56735Y2415D02*
Y2720D01*
X61548Y404D02*
X61852D01*
X61700Y251D02*
Y556D01*
X53448Y3600D02*
X53752D01*
X53600Y3448D02*
Y3752D01*
X58741Y2733D02*
X59046D01*
X58894Y2580D02*
Y2885D01*
X55982Y4007D02*
X56287D01*
X56135Y3855D02*
Y4160D01*
X61888Y2055D02*
X62192D01*
X62040Y1902D02*
Y2207D01*
X42448Y3273D02*
X42752D01*
X42600Y3121D02*
Y3425D01*
X41548Y1900D02*
X41852D01*
X41700Y1748D02*
Y2052D01*
X46565Y3306D02*
X46870D01*
X46717Y3154D02*
Y3459D01*
X65208Y-1748D02*
X65513D01*
X65361Y-1901D02*
Y-1596D01*
X67248Y790D02*
X67552D01*
X67400Y638D02*
Y943D01*
X62533Y2703D02*
X62838D01*
X62685Y2550D02*
Y2855D01*
X64168Y1027D02*
X64472D01*
X64320Y874D02*
Y1179D01*
X62592Y-460D02*
X62897D01*
X62745Y-612D02*
Y-307D01*
X67195Y-1290D02*
X67500D01*
X67347Y-1443D02*
Y-1138D01*
X72507Y-1500D02*
X72812D01*
X72660Y-1652D02*
Y-1348D01*
X69056Y-661D02*
X69361D01*
X69209Y-813D02*
Y-509D01*
X76747Y-4400D02*
X77052D01*
X76900Y-4552D02*
Y-4248D01*
X7265Y-2682D02*
X7570D01*
X7418Y-2835D02*
Y-2530D01*
X73548Y-2900D02*
X73852D01*
X73700Y-3052D02*
Y-2748D01*
X28249Y3197D02*
X28554D01*
X28402Y3044D02*
Y3349D01*
X38838Y-1500D02*
X39143D01*
X38990Y-1652D02*
Y-1348D01*
X36748Y3267D02*
X37052D01*
X36900Y3115D02*
Y3420D01*
X33548Y5400D02*
X33852D01*
X33700Y5248D02*
Y5552D01*
X25948Y4800D02*
X26252D01*
X26100Y4648D02*
Y4952D01*
X37099Y-2151D02*
X37403D01*
X37251Y-2303D02*
Y-1999D01*
X36097Y-2501D02*
X36402D01*
X36250Y-2654D02*
Y-2349D01*
X36648Y-1300D02*
X36952D01*
X36800Y-1452D02*
Y-1148D01*
X36438Y-410D02*
X36742D01*
X36590Y-562D02*
Y-258D01*
X32892Y1236D02*
X33197D01*
X33044Y1084D02*
Y1389D01*
X32748Y3200D02*
X33052D01*
X32900Y3048D02*
Y3352D01*
X30248Y3100D02*
X30552D01*
X30400Y2948D02*
Y3252D01*
X34348Y-2400D02*
X34652D01*
X34500Y-2552D02*
Y-2248D01*
X33099Y-2049D02*
X33403D01*
X33251Y-2201D02*
Y-1897D01*
X21648Y100D02*
X21952D01*
X21800Y-52D02*
Y252D01*
X21248Y1751D02*
X21552D01*
X21400Y1599D02*
Y1903D01*
X14459Y1059D02*
X14764D01*
X14612Y907D02*
Y1212D01*
X16430Y-17D02*
X16735D01*
X16583Y-170D02*
Y135D01*
X9348Y-1121D02*
X9652D01*
X9500Y-1273D02*
Y-968D01*
X2841Y-4800D02*
X3146D01*
X2994Y-4952D02*
Y-4648D01*
X20048Y2593D02*
X20352D01*
X20200Y2440D02*
Y2745D01*
X2954Y-2100D02*
X3259D01*
X3106Y-2252D02*
Y-1948D01*
M02*
