M48
;Layer_Color=9474304
;FILE_FORMAT=4:3
METRIC,LZ
;TYPE=PLATED
T1F00S00C0.305
T2F00S00C2.300
%
T01
X00617Y0000404
X0062745Y-000046
X006432Y0001027
X006204Y0002055
X0062685Y0002703
X00674Y000079
X0067347Y-000129
X0065361Y-0001748
X0069209Y-0000661
X007266Y-00015
X00737Y-00029
X00769Y-00044
X0058894Y0002733
X0056735Y0002567
X0056135Y0004007
X00536Y00036
X0052318Y00041
X0049978Y0003169
X0046717Y0003306
X00461Y00002
X00446Y00005
X0043669Y-000019
X004276Y-000029
X0041431Y-000189
X00399Y-00021
X003899Y-00015
X00368Y-00013
X003659Y-000041
X0037251Y-0002151
X003625Y-0002501
X00345Y-00024
X0033251Y-0002049
X0033044Y0001236
X00329Y00032
X00304Y00031
X0028402Y0003197
X00261Y00048
X00214Y0001751
X00218Y00001
X00337Y00054
X00369Y0003267
X0038341Y0003241
X00384Y00018
X00417Y00019
X00426Y0003273
X0041Y00046
X00513Y-00001
X0053949Y0001951
X0055585Y0001555
X00202Y0002593
X0016583Y-0000017
X0014612Y0001059
X00095Y-0001121
X0007418Y-0002682
X0003106Y-00021
X0002994Y-00048
T02
X0075Y-00081
X00533Y-000112
X00237
X0002Y-00081
M30
