G04*
G04 #@! TF.GenerationSoftware,Altium Limited,Altium Designer,21.3.2 (30)*
G04*
G04 Layer_Color=8388736*
%FSLAX43Y43*%
%MOMM*%
G71*
G04*
G04 #@! TF.SameCoordinates,EE666E5B-AA11-4746-8CD4-C77901DC4081*
G04*
G04*
G04 #@! TF.FilePolarity,Positive*
G04*
G01*
G75*
%ADD34C,0.102*%
D34*
X68298Y-3189D02*
X71854D01*
Y-1411D01*
X68298D02*
X71854D01*
X68298Y-3189D02*
Y-1411D01*
X42838Y5289D02*
X46394D01*
X42838Y3511D02*
Y5289D01*
Y3511D02*
X46394D01*
Y5289D01*
X63538Y-1389D02*
X67094D01*
Y389D01*
X63538D02*
X67094D01*
X63538Y-1389D02*
Y389D01*
X46411Y5262D02*
X48189D01*
Y1706D02*
Y5262D01*
X46411Y1706D02*
X48189D01*
X46411D02*
Y5262D01*
X48211Y5194D02*
X49989D01*
Y1638D02*
Y5194D01*
X48211Y1638D02*
X49989D01*
X48211D02*
Y5194D01*
X72438Y-5689D02*
Y-3911D01*
X75994D01*
Y-5689D02*
Y-3911D01*
X72438Y-5689D02*
X75994D01*
X71838Y-2011D02*
X75394D01*
X71838Y-3789D02*
Y-2011D01*
Y-3789D02*
X75394D01*
Y-2011D01*
X56938Y1711D02*
X60494D01*
Y3489D01*
X56938D02*
X60494D01*
X56938Y1711D02*
Y3489D01*
X39138Y3511D02*
Y5289D01*
X42694D01*
Y3511D02*
Y5289D01*
X39138Y3511D02*
X42694D01*
X5506Y-1489D02*
X9062D01*
Y289D01*
X5506D02*
X9062D01*
X5506Y-1489D02*
Y289D01*
X67538Y689D02*
X71094D01*
X67538Y-1089D02*
Y689D01*
Y-1089D02*
X71094D01*
Y689D01*
X62438Y2289D02*
X65994D01*
X62438Y511D02*
Y2289D01*
Y511D02*
X65994D01*
Y2289D01*
X57638Y1689D02*
X61194D01*
X57638Y-89D02*
Y1689D01*
Y-89D02*
X61194D01*
Y1689D01*
X9906Y211D02*
X13462D01*
Y1989D01*
X9906D02*
X13462D01*
X9906Y211D02*
Y1989D01*
X16638Y111D02*
X20194D01*
Y1889D01*
X16638D02*
X20194D01*
X16638Y111D02*
Y1889D01*
M02*
